<?xml version="1.0" encoding="UTF-8" standalone="no"?>
<!-- Created with Inkscape (http://www.inkscape.org/) -->

<svg
   xmlns:dc="http://purl.org/dc/elements/1.1/"
   xmlns:cc="http://creativecommons.org/ns#"
   xmlns:rdf="http://www.w3.org/1999/02/22-rdf-syntax-ns#"
   xmlns:svg="http://www.w3.org/2000/svg"
   xmlns="http://www.w3.org/2000/svg"
   xmlns:sodipodi="http://sodipodi.sourceforge.net/DTD/sodipodi-0.dtd"
   xmlns:inkscape="http://www.inkscape.org/namespaces/inkscape"
   width="210mm"
   height="297mm"
   viewBox="0 0 210 297"
   version="1.1"
   id="svg19"
   inkscape:version="0.92.3 (2405546, 2018-03-11)"
   sodipodi:docname="Лапа. Волчий след.svg">
  <defs
     id="defs13" />
  <sodipodi:namedview
     id="base"
     pagecolor="#ffffff"
     bordercolor="#666666"
     borderopacity="1.0"
     inkscape:pageopacity="0.0"
     inkscape:pageshadow="2"
     inkscape:zoom="0.73417969"
     inkscape:cx="124.18196"
     inkscape:cy="948.31033"
     inkscape:document-units="mm"
     inkscape:current-layer="layer1"
     showgrid="false"
     inkscape:window-width="1358"
     inkscape:window-height="708"
     inkscape:window-x="0"
     inkscape:window-y="0"
     inkscape:window-maximized="1" />
  <metadata
     id="metadata16">
    <rdf:RDF>
      <cc:Work
         rdf:about="">
        <dc:format>image/svg+xml</dc:format>
        <dc:type
           rdf:resource="http://purl.org/dc/dcmitype/StillImage" />
        <dc:title></dc:title>
      </cc:Work>
    </rdf:RDF>
  </metadata>
  <g
     inkscape:label="Layer 1"
     inkscape:groupmode="layer"
     id="layer1">
    <path
       style="fill:#000000;stroke-width:0.65801662"
       d="m 83.775679,116.80934 c -6.172044,-3.38908 -8.779157,-8.533 -7.912839,-15.61232 0.662684,-5.415351 1.787302,-7.237841 9.022261,-14.621001 3.619568,-3.69371 7.707562,-8.24078 9.08446,-10.1046 4.865303,-6.58591 9.699769,-9.53568 15.591729,-9.51332 3.66523,0.0149 7.62407,1.34653 10.1123,3.40402 0.57112,0.47226 3.088,4.07986 5.59315,8.01692 4.67216,7.34279 4.98851,7.67931 10.28419,10.93956 1.90067,1.17015 4.05505,3.3493 5.57625,5.6404 2.13754,3.21938 2.51397,4.354 2.73353,8.239331 0.22432,3.96901 0.0425,4.86756 -1.5247,7.54197 -1.42567,2.43271 -2.58454,3.41708 -5.83088,4.95285 -4.93073,2.33265 -8.14193,2.43745 -15.27843,0.49869 -3.61363,-0.98174 -7.08676,-1.41403 -11.26906,-1.40269 -5.27168,0.0149 -6.41107,0.23055 -8.90144,1.69014 -2.13255,1.24974 -4.184742,1.77703 -8.101854,2.08161 -5.049589,0.39265 -5.393067,0.32709 -9.178667,-1.75156 z M 137.22377,86.396559 c -3.86455,-1.02019 -5.26801,-2.25702 -7.38763,-6.51053 -2.39734,-4.81083 -2.19012,-7.91659 1.03379,-15.49453 5.66253,-13.30998 8.60293,-16.23451 13.68194,-13.60805 2.67207,1.38177 5.19928,5.02721 7.70962,11.12086 3.39099,8.23135 2.82582,14.53276 -1.7719,19.75607 -4.01754,4.56415 -8.22591,6.06664 -13.26582,4.73618 z m -61.985214,-3.44807 c -2.837559,-1.53582 -4.146388,-3.35978 -5.51013,-7.67884 -0.903326,-2.86086 -1.087264,-4.6541 -0.717373,-6.99387 0.736174,-4.65714 4.389988,-12.91303 6.886307,-15.55991 3.21399,-3.4078 4.972741,-2.95786 9.316521,2.38348 5.07916,6.24556 6.771682,9.94235 6.771682,14.79064 0,3.44516 -0.325348,4.52414 -2.331033,7.73062 -1.282044,2.04965 -3.315732,4.3352 -4.519263,5.07903 -2.641459,1.63251 -7.131673,1.74542 -9.896711,0.24885 z m 42.738664,-23.31053 c -4.05184,-1.24556 -7.46593,-8.19426 -6.58096,-13.394195 0.24895,-1.46285 0.67569,-6.45171 0.94832,-11.08634 0.59742,-10.15669 1.42052,-11.84615 5.93272,-12.17767 4.52824,-0.33266 7.32439,1.98467 10.77745,8.93192 4.0917,8.23217 4.74583,11.0419 3.74957,16.105795 -1.33092,6.76496 -3.41268,9.53726 -8.51293,11.33673 -3.19521,1.12735 -3.52215,1.14205 -6.31417,0.28376 z m -25.486922,-3.5597 c -3.923131,-2.66584 -5.943215,-6.81123 -6.296965,-12.921895 -0.402743,-6.95736 0.737816,-9.80562 6.091888,-15.21261 8.831679,-8.919034 12.241249,-7.64119 14.517669,5.44104 1.65213,9.49447 1.02073,18.991925 -1.43803,21.631095 -2.84537,3.05415 -9.174788,3.57644 -12.874562,1.06237 z m -16.644717,-9.36863 c 0.423087,-2.875815 2.719924,-6.565715 3.562467,-5.723165 0.19697,0.19697 0.696059,1.60239 1.1089,3.12299 0.412816,1.52057 0.967514,3.268505 1.232628,3.884265 0.41575,0.96567 0.168867,1.06878 -1.795534,0.75 -1.350362,-0.21911 -2.461351,-0.0721 -2.729051,0.36096 -1.122479,1.8162 -1.820652,0.60399 -1.37941,-2.39505 z m 63.707609,-1.560215 c 0.55557,-4.14219 1.40741,-4.41566 3.36251,-1.07953 0.94115,1.60592 1.71117,3.115935 1.71117,3.355575 0,0.23975 -1.22342,0.4357 -2.7187,0.4357 h -2.71871 z m -20.58896,-24.19389 c -1.26839,-0.3499 -1.69367,-0.95665 -1.85746,-2.650167 -0.25997,-2.687692 0.81116,-4.050539 2.08972,-2.658818 0.48447,0.527342 1.54286,2.069227 2.352,3.426379 1.36317,2.286416 1.38269,2.462746 0.26598,2.401966 -0.66286,-0.0361 -1.94547,-0.26979 -2.85024,-0.51936 z m -19.082467,-1.00204 c 0,-1.316287 3.365647,-5.735797 4.162307,-5.46566 0.4353,0.147728 0.77281,1.529426 0.77281,3.163852 v 2.901778 l -2.46757,0.0699 c -1.42915,0.0403 -2.467547,-0.24149 -2.467547,-0.66977 z"
       id="path32"
       inkscape:connector-curvature="0"
       inkscape:export-filename="/home/freeGHost/path32.png"
       inkscape:export-xdpi="178.06522"
       inkscape:export-ydpi="178.06522" />
  </g>
</svg>
