<?xml version="1.0" encoding="UTF-8" standalone="no"?>
<!-- Created with Inkscape (http://www.inkscape.org/) -->

<svg
   xmlns:dc="http://purl.org/dc/elements/1.1/"
   xmlns:cc="http://creativecommons.org/ns#"
   xmlns:rdf="http://www.w3.org/1999/02/22-rdf-syntax-ns#"
   xmlns:svg="http://www.w3.org/2000/svg"
   xmlns="http://www.w3.org/2000/svg"
   xmlns:sodipodi="http://sodipodi.sourceforge.net/DTD/sodipodi-0.dtd"
   xmlns:inkscape="http://www.inkscape.org/namespaces/inkscape"
   width="744.09448819"
   height="1052.3622047"
   id="svg2"
   version="1.1"
   inkscape:version="0.47 r22583"
   sodipodi:docname="Insigne_Ordo_Hereditas.svg">
  <defs
     id="defs4">
    <inkscape:perspective
       sodipodi:type="inkscape:persp3d"
       inkscape:vp_x="0 : 526.18109 : 1"
       inkscape:vp_y="0 : 1000 : 0"
       inkscape:vp_z="744.09448 : 526.18109 : 1"
       inkscape:persp3d-origin="372.04724 : 350.78739 : 1"
       id="perspective10" />
    <inkscape:perspective
       id="perspective2824"
       inkscape:persp3d-origin="0.5 : 0.33333333 : 1"
       inkscape:vp_z="1 : 0.5 : 1"
       inkscape:vp_y="0 : 1000 : 0"
       inkscape:vp_x="0 : 0.5 : 1"
       sodipodi:type="inkscape:persp3d" />
    <inkscape:perspective
       id="perspective2840"
       inkscape:persp3d-origin="0.5 : 0.33333333 : 1"
       inkscape:vp_z="1 : 0.5 : 1"
       inkscape:vp_y="0 : 1000 : 0"
       inkscape:vp_x="0 : 0.5 : 1"
       sodipodi:type="inkscape:persp3d" />
    <inkscape:perspective
       id="perspective2854"
       inkscape:persp3d-origin="0.5 : 0.33333333 : 1"
       inkscape:vp_z="1 : 0.5 : 1"
       inkscape:vp_y="0 : 1000 : 0"
       inkscape:vp_x="0 : 0.5 : 1"
       sodipodi:type="inkscape:persp3d" />
    <inkscape:perspective
       id="perspective2889"
       inkscape:persp3d-origin="0.5 : 0.33333333 : 1"
       inkscape:vp_z="1 : 0.5 : 1"
       inkscape:vp_y="0 : 1000 : 0"
       inkscape:vp_x="0 : 0.5 : 1"
       sodipodi:type="inkscape:persp3d" />
    <inkscape:perspective
       id="perspective2911"
       inkscape:persp3d-origin="0.5 : 0.33333333 : 1"
       inkscape:vp_z="1 : 0.5 : 1"
       inkscape:vp_y="0 : 1000 : 0"
       inkscape:vp_x="0 : 0.5 : 1"
       sodipodi:type="inkscape:persp3d" />
    <inkscape:perspective
       id="perspective3705"
       inkscape:persp3d-origin="0.5 : 0.33333333 : 1"
       inkscape:vp_z="1 : 0.5 : 1"
       inkscape:vp_y="0 : 1000 : 0"
       inkscape:vp_x="0 : 0.5 : 1"
       sodipodi:type="inkscape:persp3d" />
    <inkscape:perspective
       id="perspective3731"
       inkscape:persp3d-origin="0.5 : 0.33333333 : 1"
       inkscape:vp_z="1 : 0.5 : 1"
       inkscape:vp_y="0 : 1000 : 0"
       inkscape:vp_x="0 : 0.5 : 1"
       sodipodi:type="inkscape:persp3d" />
    <inkscape:perspective
       id="perspective3755"
       inkscape:persp3d-origin="0.5 : 0.33333333 : 1"
       inkscape:vp_z="1 : 0.5 : 1"
       inkscape:vp_y="0 : 1000 : 0"
       inkscape:vp_x="0 : 0.5 : 1"
       sodipodi:type="inkscape:persp3d" />
    <inkscape:perspective
       id="perspective3777"
       inkscape:persp3d-origin="0.5 : 0.33333333 : 1"
       inkscape:vp_z="1 : 0.5 : 1"
       inkscape:vp_y="0 : 1000 : 0"
       inkscape:vp_x="0 : 0.5 : 1"
       sodipodi:type="inkscape:persp3d" />
    <inkscape:perspective
       id="perspective2841"
       inkscape:persp3d-origin="0.5 : 0.33333333 : 1"
       inkscape:vp_z="1 : 0.5 : 1"
       inkscape:vp_y="0 : 1000 : 0"
       inkscape:vp_x="0 : 0.5 : 1"
       sodipodi:type="inkscape:persp3d" />
    <inkscape:perspective
       id="perspective3836"
       inkscape:persp3d-origin="0.5 : 0.33333333 : 1"
       inkscape:vp_z="1 : 0.5 : 1"
       inkscape:vp_y="0 : 1000 : 0"
       inkscape:vp_x="0 : 0.5 : 1"
       sodipodi:type="inkscape:persp3d" />
  </defs>
  <sodipodi:namedview
     id="base"
     pagecolor="#ffffff"
     bordercolor="#666666"
     borderopacity="1.0"
     inkscape:pageopacity="0.0"
     inkscape:pageshadow="2"
     inkscape:zoom="0.7"
     inkscape:cx="450.22959"
     inkscape:cy="502.66071"
     inkscape:document-units="px"
     inkscape:current-layer="layer1"
     showgrid="false"
     inkscape:window-width="1280"
     inkscape:window-height="970"
     inkscape:window-x="-4"
     inkscape:window-y="-4"
     inkscape:window-maximized="1">
    <inkscape:grid
       type="xygrid"
       id="grid3791" />
  </sodipodi:namedview>
  <metadata
     id="metadata7">
    <rdf:RDF>
      <cc:Work
         rdf:about="">
        <dc:format>image/svg+xml</dc:format>
        <dc:type
           rdf:resource="http://purl.org/dc/dcmitype/StillImage" />
        <dc:title></dc:title>
      </cc:Work>
    </rdf:RDF>
  </metadata>
  <g
     inkscape:label="Layer 1"
     inkscape:groupmode="layer"
     id="layer1">
    <rect
       style="fill:#ffffff;stroke:#000000;stroke-width:4;stroke-miterlimit:4;stroke-opacity:1;stroke-dasharray:none;fill-opacity:1"
       id="rect3858"
       width="681.42859"
       height="561.42859"
       x="45.714287"
       y="118.07647"
       inkscape:export-filename="E:\Материалы по AD&amp;D\Иммитртвелль\Альманах\Иллюстрации\rect3858.png"
       inkscape:export-xdpi="90"
       inkscape:export-ydpi="90" />
    <path
       style="fill:none;stroke:#000000;stroke-opacity:1"
       d="m 659.71403,424.75597 c 0.55591,-10.29588 1.11258,-20.91519 -3.50954,-30.39063 -1.88,-2.45043 -2.24975,-2.50991 -18.64664,-3 l -16.72862,-0.5 c -8.72191,-33.40639 -25.38569,-61.89358 -46.25676,-85.39162 0,0 0.29971,11.99936 -4.81546,20.03724 -3.67561,1.5989 -20.49079,-0.0147 -20.49079,-0.0147 29.45894,19.94394 39.67837,49.92016 44.40851,72.65559 4.01113,11.40305 21.50849,4.91891 31.67085,6.89305 9.61868,24.60099 -3.24462,54.48622 -16.18909,77.3204 0,0 18.1403,-5.47729 22.14566,-8.03695 3.15948,-1.65191 4.44428,16.57799 9.3817,22.03695 10.62235,-22.91963 18.04404,-46.41045 19.03018,-71.60937 l 0,4e-5 z"
       id="path2830-1-7"
       sodipodi:nodetypes="cccccccccccccc"
       inkscape:export-filename="E:\Материалы по AD&amp;D\Иммитртвелль\Альманах\Иллюстрации\path2830.png"
       inkscape:export-xdpi="90"
       inkscape:export-ydpi="90" />
    <g
       id="g3793"
       transform="translate(2.0203011,-149.50258)"
       inkscape:export-filename="E:\Материалы по AD&amp;D\Иммитртвелль\Альманах\Иллюстрации\path2830.png"
       inkscape:export-xdpi="90"
       inkscape:export-ydpi="90">
      <path
         sodipodi:nodetypes="cccccccccccccccccs"
         id="path2830-1-7-4-0"
         d="m 333.44146,414.33167 c -27.72294,-27.58884 -20.08867,-65.71767 14.18731,-68.07281 27.29573,-1.09389 58.10833,5.17569 76.8179,-19.25466 0,0 1.08602,10.40358 -9.72157,31.39286 12.23423,-3.59713 16.35825,-15.84956 24.62393,-22.71428 0,0 -4.45445,32.29525 -15.41233,47.19254 14.20813,1.30127 18.1538,-4.5624 29.03477,-8.09117 0,0 -23.53001,40.54752 -23.53001,40.54752 0,0 -82,0 -96,-1 z m 83.84331,-7.78245 c 7.79535,-2.41907 13.7915,-11.63126 16.4733,-18.11644 -14.77348,-1.7404 -21.60029,4.00118 -21.60029,4.00118 4.12679,-14.58551 8.381,-14.39021 14.47281,-31.44155 -12.60991,2.31288 -21.76515,11.78194 -21.76515,11.78194 0,0 4.71209,-21.69062 8.93837,-26.58168 -21.54709,15.12392 -47.67778,4.51062 -70.90658,9.84882 -25.49132,8.56046 -17.94876,41.08546 1.93226,51.76976 22.13429,6.01159 49.5573,5.84372 72.45528,-1.26203 z"
         style="fill:#ff0000;fill-opacity:1" />
      <path
         sodipodi:nodetypes="ccccascs"
         id="path2830-1-7-4-9"
         d="m 372.24384,399.40008 c -14.38446,-1.79417 -25.00013,-12.78622 -25.897,-21.69989 1.03929,-13.3168 26.63397,-4.4652 30.85771,-6.67069 6.83287,-7.94698 23.37978,-10.36431 23.37978,-10.36431 -18.96825,-3.66849 -57.43339,-1.82803 -64.26905,18.67448 -3.10558,9.31469 9.53999,18.84346 18.62057,23.2433 16.1948,7.84691 41.89038,-5.50674 54.63466,-4.01125 -8.335,-6.17857 -29.18726,1.8436 -37.32667,0.82836 z"
         style="fill:#ff0000;fill-opacity:1" />
    </g>
    <path
       style="fill:#000000"
       d="m 364.46176,335.82909 c 0,0 -50,-71 -50,-71 0,0 130,1 130,1 0,0 -35,70 -35,70 0,0 -10,180 -10,180 l -25.496,9.48533 c 0,0 -9.504,-189.48533 -9.504,-189.48533 z m 35,-20 c 0,0 20,-25 20,-25 0,0 -65,0 -65,0 0,0 20,25 20,25 0,0 5,200 5,200 0,0 15,-5 15,-5 0,0 5,-195 5,-195 z m 35,-40 c 0,0 -100,0 -100,0 l 10,10 80,0 c 0,0 10,-10 10,-10 z"
       id="path2830-1-4"
       sodipodi:nodetypes="ccccccccccccccccccc"
       inkscape:export-filename="E:\Материалы по AD&amp;D\Иммитртвелль\Альманах\Иллюстрации\path2830.png"
       inkscape:export-xdpi="90"
       inkscape:export-ydpi="90" />
    <rect
       style="fill:#ffffff;fill-opacity:1;stroke:none"
       id="rect3797"
       width="180"
       height="140"
       x="300"
       y="332.36218"
       inkscape:export-filename="E:\Материалы по AD&amp;D\Иммитртвелль\Альманах\Иллюстрации\path2830.png"
       inkscape:export-xdpi="90"
       inkscape:export-ydpi="90" />
    <path
       style="fill:#000000;fill-opacity:1;stroke:#000000;stroke-opacity:1"
       d="m 242,462.36217 c 20,-55 25,-119.99999 30,-154.99999 40,20 75,0 115,20 40,-20 75,0 115,-20 5,35 10,99.99999 30,154.99999 -50,20 -90,0 -145,25 -55,-25 -95,-5 -145,-25 z M 487,327.36218 c 0,0 -95,15 -95,15 0,0 -5,64.99999 -5,64.99999 0,0 -5,-64.99999 -5,-64.99999 0,0 -95,-15 -95,-15 0,0 -20,119.99999 -20,119.99999 0,0 110,20 110,20 0,0 10,-55 10,-55 0,0 10,55 10,55 0,0 113.0806,-20.54531 113.0806,-20.54531 0,0 -23.0806,-119.45468 -23.0806,-119.45468 z"
       id="path2830-1"
       sodipodi:nodetypes="cccccccccccccccccc"
       inkscape:export-filename="E:\Материалы по AD&amp;D\Иммитртвелль\Альманах\Иллюстрации\path2830.png"
       inkscape:export-xdpi="90"
       inkscape:export-ydpi="90" />
    <g
       style="display:inline"
       id="g3700"
       transform="matrix(0.3502813,0.06176404,-0.08057131,0.45694261,277.30413,248.0397)"
       inkscape:export-filename="E:\Материалы по AD&amp;D\Иммитртвелль\Альманах\Иллюстрации\path2830.png"
       inkscape:export-xdpi="90"
       inkscape:export-ydpi="90">
      <path
         id="path3893"
         d="m 166.36884,346.47692 0,-1.57378 12.49323,0 12.49325,0 2.45772,-2.51422 c 6.89108,-7.04946 14.84077,-10.26276 25.39006,-10.26276 10.54929,0 18.49898,3.2133 25.39005,10.26276 l 2.45773,2.51422 12.49324,0 12.49323,0 0,1.57378 0,1.57379 -13.31988,0 -13.31988,0 -2.86231,-2.67755 c -14.71901,-13.76891 -31.94535,-13.76891 -46.66437,0 l -2.8623,2.67755 -13.31989,0 -13.31988,0 0,-1.57379 z m -14.3889,-26.97919 0,-1.57379 67.22316,0 67.22316,0 0,1.57379 0,1.57378 -67.22316,0 -67.22316,0 0,-1.57378 z m -20.68405,-13.93925 0,-1.57379 87.90721,0 87.90721,0 0,1.57379 0,1.57379 -87.90721,0 -87.90721,0 0,-1.57379 z m -40.019144,-13.93925 0,-1.57379 127.926354,0 127.92635,0 0,1.57379 0,1.57378 -127.92635,0 -127.926354,0 0,-1.57378 z m 31.925384,-13.93925 0,-1.57379 96.00097,0 96.00097,0 0,1.57379 0,1.57378 -96.00097,0 -96.00097,0 0,-1.57378 z m 90.00435,-12.86956 c -6.92044,-1.1507 -13.69187,-4.56564 -18.76836,-9.46515 l -3.18161,-3.0707 -20.53759,0 -20.5376,0 0,-1.57379 0,-1.57378 21.41364,0 21.41365,0 2.9542,2.7635 c 1.6248,1.51993 4.44147,3.73441 6.25925,4.92107 13.03223,8.50754 27.79726,6.70104 40.22132,-4.92107 l 2.95421,-2.7635 21.41364,0 21.41364,0 0,1.57378 0,1.57379 -20.53759,0 -20.53759,0 -3.18161,3.0707 c -8.02471,7.74497 -19.63048,11.31599 -30.7616,9.46515 z"
         style="fill:#000000;display:inline" />
      <path
         sodipodi:nodetypes="cccccccccccccccccccccccsssccsssccsssccsssccsssccsssccsssc"
         id="path3909"
         d="m 212.09339,414.819 c -0.16937,-0.16937 -0.30794,-8.44068 -0.30794,-18.38068 l 0,-18.07274 2.07864,-2.04004 2.07865,-2.04004 0,-86.25587 c 0,-52.70066 -0.42975,-86.52147 -0.42975,-86.52147 0,0 -6.77597,1.47391 -6.77597,1.47391 0,0 11.09428,-29.69469 11.09428,-29.69469 0,0 11.16208,29.70243 11.16208,29.70243 0,0 -7.38476,-1.48512 -7.38476,-1.48512 0,0 -0.27514,37.61 -0.27514,85.57383 l 0,87.20698 2.08386,2.04516 2.08385,2.04515 -0.12069,18.26009 -0.12068,18.26008 -1.10081,0.15567 c -0.83105,0.11752 -1.76491,-0.50151 -3.81085,-2.52611 l -2.71005,-2.68177 -2.66945,2.64158 c -2.43678,2.41136 -4.03333,3.17559 -4.87527,2.33365 z m 10.72061,-7.37205 c -1.36127,-1.37839 -2.55308,-2.27207 -2.64845,-1.98596 -0.0954,0.28611 0.94037,1.64798 2.30165,3.02638 1.36127,1.3784 2.55308,2.27208 2.64844,1.98597 0.0954,-0.28612 -0.94037,-1.64798 -2.30164,-3.02639 z m 0,-4.61921 c -1.36127,-1.3784 -2.55308,-2.27208 -2.64845,-1.98598 -0.0954,0.28612 0.94037,1.64799 2.30165,3.0264 1.36127,1.37839 2.55308,2.27207 2.64844,1.98597 0.0954,-0.28612 -0.94037,-1.64799 -2.30164,-3.02639 z m 0,-4.61921 c -1.36127,-1.3784 -2.55308,-2.27208 -2.64845,-1.98597 -0.0954,0.28611 0.94037,1.64798 2.30165,3.02638 1.36127,1.3784 2.55308,2.27208 2.64844,1.98597 0.0954,-0.28611 -0.94037,-1.64798 -2.30164,-3.02638 z m 0,-4.61922 c -1.36127,-1.37839 -2.55308,-2.27208 -2.64845,-1.98597 -0.0954,0.28611 0.94037,1.64799 2.30165,3.02639 1.36127,1.37839 2.55308,2.27208 2.64844,1.98597 0.0954,-0.28612 -0.94037,-1.64799 -2.30164,-3.02639 z m 0,-4.61921 c -1.36127,-1.3784 -2.55308,-2.27209 -2.64845,-1.98597 -0.0954,0.28611 0.94037,1.64798 2.30165,3.02638 1.36127,1.3784 2.55308,2.27208 2.64844,1.98597 0.0954,-0.28612 -0.94037,-1.64798 -2.30164,-3.02638 z m 0,-4.61922 c -1.36127,-1.37839 -2.55308,-2.27208 -2.64845,-1.98597 -0.0954,0.28612 0.94037,1.64798 2.30165,3.02639 1.36127,1.37839 2.55308,2.27208 2.64844,1.98597 0.0954,-0.28611 -0.94037,-1.64799 -2.30164,-3.02639 z m 0,-4.61921 c -1.36127,-1.3784 -2.55308,-2.27209 -2.64845,-1.98598 -0.0954,0.28612 0.94037,1.64799 2.30165,3.02639 1.36127,1.37839 2.55308,2.27208 2.64844,1.98597 0.0954,-0.28611 -0.94037,-1.64798 -2.30164,-3.02638 z"
         style="fill:#000000;display:inline" />
    </g>
    <flowRoot
       xml:space="preserve"
       id="flowRoot3820"
       style="font-size:40px;font-style:normal;font-weight:normal;fill:#000000;fill-opacity:1;stroke:none;font-family:Bitstream Vera Sans"
       transform="matrix(1.0578761,-0.1865321,0.48334844,2.7412052,-196.6287,-577.19455)"
       inkscape:export-filename="E:\Материалы по AD&amp;D\Иммитртвелль\Альманах\Иллюстрации\path2830.png"
       inkscape:export-xdpi="90"
       inkscape:export-ydpi="90"><flowRegion
         id="flowRegion3822"><rect
           id="rect3824"
           width="84.285713"
           height="76.428574"
           x="402.85715"
           y="364.50504" /></flowRegion><flowPara
         id="flowPara3826"
         style="font-family:Times New Roman;-inkscape-font-specification:Times New Roman">XII</flowPara></flowRoot>    <path
       style="fill:none;stroke:#000000;stroke-opacity:1"
       d="m 110.62335,423.6401 c -0.55591,-10.29588 -1.11258,-20.91519 3.50954,-30.39063 1.88,-2.45043 2.24975,-2.50991 18.64664,-3 l 16.72862,-0.5 c 8.72191,-33.40639 25.38569,-61.89358 46.25676,-85.39162 0,0 -0.29971,11.99936 4.81546,20.03724 3.67561,1.5989 20.4908,-0.0147 20.4908,-0.0147 -29.45895,19.94394 -39.67838,49.92016 -44.40852,72.65559 -4.01113,11.40305 -21.50849,4.91891 -31.67085,6.89305 -9.61868,24.60099 3.24462,54.48622 16.18909,77.3204 0,0 -18.1403,-5.47729 -22.14566,-8.03695 -3.15948,-1.65191 -4.44428,16.57799 -9.3817,22.03695 -10.62235,-22.91963 -18.04404,-46.41045 -19.03018,-71.60937 l 0,4e-5 z"
       id="path2830-1-7-8"
       sodipodi:nodetypes="cccccccccccccc"
       inkscape:export-filename="E:\Материалы по AD&amp;D\Иммитртвелль\Альманах\Иллюстрации\path2830.png"
       inkscape:export-xdpi="90"
       inkscape:export-ydpi="90" />
    <flowRoot
       xml:space="preserve"
       id="flowRoot3850"
       style="font-size:40px;font-style:normal;font-weight:normal;fill:none;stroke:#000000;stroke-opacity:1;font-family:Times New Roman;-inkscape-font-specification:Times New Roman"
       transform="matrix(1,0,0,0.85420772,43.43656,82.878538)"
       inkscape:export-filename="E:\Материалы по AD&amp;D\Иммитртвелль\Альманах\Иллюстрации\path2830.png"
       inkscape:export-xdpi="90"
       inkscape:export-ydpi="90"><flowRegion
         id="flowRegion3852"><rect
           id="rect3854"
           width="442.44681"
           height="129.29953"
           x="173.74623"
           y="535.16406"
           style="fill:none;stroke:#000000;stroke-opacity:1" /></flowRegion><flowPara
         id="flowPara3856">RECTUS IN CURIA</flowPara></flowRoot>  </g>
</svg>
