<?xml version="1.0" encoding="UTF-8" standalone="no"?>
<!-- Created with Inkscape (http://www.inkscape.org/) -->

<svg
   xmlns:dc="http://purl.org/dc/elements/1.1/"
   xmlns:cc="http://creativecommons.org/ns#"
   xmlns:rdf="http://www.w3.org/1999/02/22-rdf-syntax-ns#"
   xmlns:svg="http://www.w3.org/2000/svg"
   xmlns="http://www.w3.org/2000/svg"
   xmlns:sodipodi="http://sodipodi.sourceforge.net/DTD/sodipodi-0.dtd"
   xmlns:inkscape="http://www.inkscape.org/namespaces/inkscape"
   width="744.09448819"
   height="1052.3622047"
   id="svg2"
   version="1.1"
   inkscape:version="0.47 r22583"
   sodipodi:docname="[2010.09.05] Runes protocommon.svg">
  <defs
     id="defs4">
    <inkscape:perspective
       sodipodi:type="inkscape:persp3d"
       inkscape:vp_x="0 : 526.18109 : 1"
       inkscape:vp_y="0 : 1000 : 0"
       inkscape:vp_z="744.09448 : 526.18109 : 1"
       inkscape:persp3d-origin="372.04724 : 350.78739 : 1"
       id="perspective10" />
    <inkscape:perspective
       id="perspective2932"
       inkscape:persp3d-origin="0.5 : 0.33333333 : 1"
       inkscape:vp_z="1 : 0.5 : 1"
       inkscape:vp_y="0 : 1000 : 0"
       inkscape:vp_x="0 : 0.5 : 1"
       sodipodi:type="inkscape:persp3d" />
    <inkscape:perspective
       id="perspective2968"
       inkscape:persp3d-origin="0.5 : 0.33333333 : 1"
       inkscape:vp_z="1 : 0.5 : 1"
       inkscape:vp_y="0 : 1000 : 0"
       inkscape:vp_x="0 : 0.5 : 1"
       sodipodi:type="inkscape:persp3d" />
    <inkscape:perspective
       id="perspective3671"
       inkscape:persp3d-origin="0.5 : 0.33333333 : 1"
       inkscape:vp_z="1 : 0.5 : 1"
       inkscape:vp_y="0 : 1000 : 0"
       inkscape:vp_x="0 : 0.5 : 1"
       sodipodi:type="inkscape:persp3d" />
  </defs>
  <sodipodi:namedview
     id="base"
     pagecolor="#ffffff"
     bordercolor="#666666"
     borderopacity="1.0"
     inkscape:pageopacity="0.0"
     inkscape:pageshadow="2"
     inkscape:zoom="0.98994949"
     inkscape:cx="146.07228"
     inkscape:cy="773.54363"
     inkscape:document-units="px"
     inkscape:current-layer="layer1"
     showgrid="false"
     inkscape:window-width="1280"
     inkscape:window-height="970"
     inkscape:window-x="-4"
     inkscape:window-y="-4"
     inkscape:window-maximized="1" />
  <metadata
     id="metadata7">
    <rdf:RDF>
      <cc:Work
         rdf:about="">
        <dc:format>image/svg+xml</dc:format>
        <dc:type
           rdf:resource="http://purl.org/dc/dcmitype/StillImage" />
        <dc:title />
      </cc:Work>
    </rdf:RDF>
  </metadata>
  <g
     inkscape:label="Layer 1"
     inkscape:groupmode="layer"
     id="layer1">
    <path
       style="fill:none;stroke:#000000;stroke-width:1px;stroke-linecap:butt;stroke-linejoin:miter;stroke-opacity:1"
       d="m 38.385797,110.90001 44.446712,2.52538 -41.921331,1.51523 -2.525381,-4.04061 z"
       id="path2816" />
    <path
       style="fill:none;stroke:#000000;stroke-width:1px;stroke-linecap:butt;stroke-linejoin:miter;stroke-opacity:1"
       d="m 40.911178,82.110662 4.545687,4.545687 17.172593,64.144691 -21.71828,-68.690378 z"
       id="path2818" />
    <path
       style="fill:none;stroke:#000000;stroke-width:1px;stroke-linecap:butt;stroke-linejoin:miter;stroke-opacity:1"
       d="M 63.63961,149.28581 74.246212,82.615739 76.266517,88.676654 63.63961,149.28581 z"
       id="path2820" />
    <path
       style="fill:none;stroke:#000000;stroke-width:1px;stroke-linecap:butt;stroke-linejoin:miter;stroke-opacity:1"
       d="M 117.1777,83.625891 103.54064,150.80104 118.69292,89.686806 117.1777,83.625891 z"
       id="path2822" />
    <path
       style="fill:none;stroke:#000000;stroke-width:1px;stroke-linecap:butt;stroke-linejoin:miter;stroke-opacity:1"
       d="m 111.62186,87.161425 28.28427,28.789345 -7.07107,-2.52538 -21.2132,-26.263965 z"
       id="path2824" />
    <path
       style="fill:none;stroke:#000000;stroke-width:1px;stroke-linecap:butt;stroke-linejoin:miter;stroke-opacity:1"
       d="m 105.05586,122.51676 32.82996,-17.67767 -34.34518,22.22336 1.51522,-4.54569 z"
       id="path2826" />
    <path
       style="fill:none;stroke:#000000;stroke-width:1px;stroke-linecap:butt;stroke-linejoin:miter;stroke-opacity:1"
       d="m 103.03556,144.23504 33.33503,-15.65736 -35.86041,19.1929 2.52538,-3.53554 z"
       id="path2828" />
    <path
       style="fill:none;stroke:#000000;stroke-width:1px;stroke-linecap:butt;stroke-linejoin:miter;stroke-opacity:1"
       d="m 159.6041,108.37463 4.54569,3.53553 35.86041,-23.738582 -40.4061,20.203052 z"
       id="path2830" />
    <path
       style="fill:none;stroke:#000000;stroke-width:1px;stroke-linecap:butt;stroke-linejoin:miter;stroke-opacity:1"
       d="m 190.91883,88.676654 7.07107,11.616756 -4.54569,-18.182748 -2.52538,6.565992 z"
       id="path2832" />
    <path
       style="fill:none;stroke:#000000;stroke-width:1.27116656px;stroke-linecap:butt;stroke-linejoin:miter;stroke-opacity:1"
       d="m 186.50562,143.99568 8.78153,4.39314 -33.99047,-47.70351 25.20894,43.31037 z"
       id="path2834" />
    <path
       style="fill:none;stroke:#000000;stroke-width:1px;stroke-linecap:butt;stroke-linejoin:miter;stroke-opacity:1"
       d="m 214.65742,147.77058 22.72843,-68.690375 -16.66752,62.629455 -6.06091,6.06092 z"
       id="path2840" />
    <path
       style="fill:none;stroke:#000000;stroke-width:1px;stroke-linecap:butt;stroke-linejoin:miter;stroke-opacity:1"
       d="m 226.27417,86.151272 6.06092,-2.525381 35.35533,27.779199 -41.41625,-25.253818 z"
       id="path2842" />
    <path
       style="fill:none;stroke:#000000;stroke-width:1px;stroke-linecap:butt;stroke-linejoin:miter;stroke-opacity:1"
       d="m 212.13203,139.68936 55.55839,-38.3858 -58.08377,44.44671 2.52538,-6.06091 z"
       id="path2844" />
    <path
       style="fill:none;stroke:#000000;stroke-width:1px;stroke-linecap:butt;stroke-linejoin:miter;stroke-opacity:1"
       d="m 289.91378,80.595433 -10.6066,72.730987 13.13198,-65.659919 -2.52538,-7.071068 z"
       id="path2846" />
    <path
       style="fill:none;stroke:#000000;stroke-width:1px;stroke-linecap:butt;stroke-linejoin:miter;stroke-opacity:1"
       d="m 292.43916,98.273103 29.29443,-14.142136 4.54568,3.030458 -33.84011,11.111678 z"
       id="path2848" />
    <path
       style="fill:none;stroke:#000000;stroke-width:1px;stroke-linecap:butt;stroke-linejoin:miter;stroke-opacity:1"
       d="m 288.39855,120.49646 21.21321,-7.57615 4.54568,3.03046 -25.75889,4.54569 z"
       id="path2850" />
    <path
       style="fill:none;stroke:#000000;stroke-width:1px;stroke-linecap:butt;stroke-linejoin:miter;stroke-opacity:1"
       d="m 284.35794,147.2655 31.81981,-9.59645 5.05076,2.02031 -36.87057,7.57614 z"
       id="path2852" />
    <path
       style="fill:none;stroke:#000000;stroke-width:1px;stroke-linecap:butt;stroke-linejoin:miter;stroke-opacity:1"
       d="m 363.14984,81.605586 -13.63706,69.700524 15.65737,-62.629456 -2.02031,-7.071068 z"
       id="path2854" />
    <path
       style="fill:none;stroke:#000000;stroke-width:1px;stroke-linecap:butt;stroke-linejoin:miter;stroke-opacity:1"
       d="m 352.54324,90.696959 6.56599,-4.545687 35.35534,21.213208 -41.92133,-16.667521 z"
       id="path2856" />
    <path
       style="fill:none;stroke:#000000;stroke-width:1px;stroke-linecap:butt;stroke-linejoin:miter;stroke-opacity:1"
       d="m 345.97725,128.57768 3.53553,-4.04061 29.29442,3.03046 -32.82995,1.01015 z"
       id="path2858" />
    <path
       style="fill:none;stroke:#000000;stroke-width:1px;stroke-linecap:butt;stroke-linejoin:miter;stroke-opacity:1"
       d="m 409.11178,108.37463 42.42641,-15.657366 -36.36549,17.677666 -6.06092,-2.0203 z"
       id="path2860" />
    <path
       style="fill:none;stroke:#000000;stroke-width:1px;stroke-linecap:butt;stroke-linejoin:miter;stroke-opacity:1"
       d="m 413.15239,100.79848 29.7995,56.06347 -9.09137,-6.06091 -20.70813,-50.00256 z"
       id="path2862" />
    <path
       style="fill:none;stroke:#000000;stroke-width:1px;stroke-linecap:butt;stroke-linejoin:miter;stroke-opacity:1"
       d="m 440.42651,138.17413 -11.11168,13.13198 18.68782,-14.64721 -7.57614,1.51523 z"
       id="path2864" />
    <path
       style="fill:none;stroke:#000000;stroke-width:1px;stroke-linecap:butt;stroke-linejoin:miter;stroke-opacity:1"
       d="m 476.28693,82.110662 6.06091,7.071068 -5.05076,69.70053 -1.01015,-76.771598 z"
       id="path2866" />
    <path
       style="fill:none;stroke:#000000;stroke-width:1px;stroke-linecap:butt;stroke-linejoin:miter;stroke-opacity:1"
       d="m 471.23616,130.09291 46.46702,-15.65737 7.07107,4.04061 -53.53809,11.61676 z"
       id="path2868" />
    <path
       style="fill:none;stroke:#000000;stroke-width:1px;stroke-linecap:butt;stroke-linejoin:miter;stroke-opacity:1"
       d="m 507.60165,83.120815 6.06092,7.576144 -6.06092,43.941631 0,-51.517775 z"
       id="path2870" />
    <path
       style="fill:none;stroke:#000000;stroke-width:1px;stroke-linecap:butt;stroke-linejoin:miter;stroke-opacity:1"
       d="m 562.14989,86.151272 -11.61675,77.276668 7.07107,-11.11168 4.54568,-66.164988 z"
       id="path2872" />
    <path
       style="fill:none;stroke:#000000;stroke-width:1px;stroke-linecap:butt;stroke-linejoin:miter;stroke-opacity:1"
       d="m 551.54329,108.37463 16.66752,-15.657366 3.53553,4.04061 -20.20305,11.616756 z"
       id="path2874" />
    <path
       style="fill:none;stroke:#000000;stroke-width:1px;stroke-linecap:butt;stroke-linejoin:miter;stroke-opacity:1"
       d="m 594.47477,85.646196 -11.61675,75.761444 8.5863,-12.62691 3.03045,-63.134534 z"
       id="path2876" />
    <path
       style="fill:none;stroke:#000000;stroke-width:1px;stroke-linecap:butt;stroke-linejoin:miter;stroke-opacity:1"
       d="m 584.87832,98.273103 15.65737,-9.596449 5.05076,5.555839 -20.70813,4.04061 z"
       id="path2878" />
    <path
       style="fill:none;stroke:#000000;stroke-width:1px;stroke-linecap:butt;stroke-linejoin:miter;stroke-opacity:1"
       d="m 582.85802,110.90001 15.15229,-7.07107 5.05076,4.04061 -20.20305,3.03046 z"
       id="path2880" />
    <path
       style="fill:none;stroke:#000000;stroke-width:1px;stroke-linecap:butt;stroke-linejoin:miter;stroke-opacity:1"
       d="m 48.487322,192.72237 6.060915,80.30712 -1.010152,-67.68022 -5.050763,-12.6269 z"
       id="path2882" />
    <path
       style="fill:none;stroke:#000000;stroke-width:1px;stroke-linecap:butt;stroke-linejoin:miter;stroke-opacity:1"
       d="m 39.901026,210.90511 6.060915,-4.04061 55.053309,34.34519 -61.114224,-30.30458 z"
       id="path2884" />
    <path
       style="fill:none;stroke:#000000;stroke-width:1.07861555px;stroke-linecap:butt;stroke-linejoin:miter;stroke-opacity:1"
       d="m 44.991096,254.30237 3.530621,-8.0699 52.959303,-47.91495 -56.489924,55.98485 z"
       id="path2886" />
    <path
       style="fill:none;stroke:#000000;stroke-width:1px;stroke-linecap:butt;stroke-linejoin:miter;stroke-opacity:1"
       d="m 132.83506,192.72237 -7.07107,81.82235 9.09137,-68.69037 -2.0203,-13.13198 z"
       id="path2888" />
    <path
       style="fill:none;stroke:#000000;stroke-width:1px;stroke-linecap:butt;stroke-linejoin:miter;stroke-opacity:1"
       d="m 119.198,258.38228 37.37564,-12.12183 -40.91117,18.18275 3.53553,-6.06092 z"
       id="path2890" />
    <path
       style="fill:none;stroke:#000000;stroke-width:1px;stroke-linecap:butt;stroke-linejoin:miter;stroke-opacity:1"
       d="m 196.97975,192.21729 5.05076,10.6066 -14.14214,68.1853 9.09138,-78.7919 z"
       id="path2892" />
    <path
       style="fill:none;stroke:#000000;stroke-width:1px;stroke-linecap:butt;stroke-linejoin:miter;stroke-opacity:1"
       d="m 186.87822,199.79343 44.44671,39.90103 -11.11167,-4.04061 -33.33504,-35.86042 z"
       id="path2894" />
    <path
       style="fill:none;stroke:#000000;stroke-width:1px;stroke-linecap:butt;stroke-linejoin:miter;stroke-opacity:1"
       d="m 206.07112,238.68431 51.0127,-43.43656 -43.43656,41.41625 -7.57614,2.02031 z"
       id="path2896" />
    <path
       style="fill:none;stroke:#000000;stroke-width:1px;stroke-linecap:butt;stroke-linejoin:miter;stroke-opacity:1"
       d="m 246.47722,189.69191 4.04061,5.55584 0,19.69797 -4.04061,-25.25381 z"
       id="path2900" />
    <path
       style="fill:none;stroke:#000000;stroke-width:1px;stroke-linecap:butt;stroke-linejoin:miter;stroke-opacity:1"
       d="m 286.88332,193.22744 -13.13198,78.28682 15.65736,-67.17514 -2.52538,-11.11168 z"
       id="path2902" />
    <path
       style="fill:none;stroke:#000000;stroke-width:1px;stroke-linecap:butt;stroke-linejoin:miter;stroke-opacity:1"
       d="m 277.79195,203.32897 -2.0203,8.08122 44.95178,60.10407 -42.93148,-68.18529 z"
       id="path2904" />
    <path
       style="fill:none;stroke:#000000;stroke-width:1px;stroke-linecap:butt;stroke-linejoin:miter;stroke-opacity:1"
       d="m 315.67267,251.31121 6.06092,-3.53553 -14.64722,19.1929 8.5863,-15.65737 z"
       id="path2906" />
    <path
       style="fill:none;stroke:#000000;stroke-width:1px;stroke-linecap:butt;stroke-linejoin:miter;stroke-opacity:1"
       d="m 355.06862,238.17923 38.89087,-57.57869 -31.31473,52.02285 -7.57614,5.55584 z"
       id="path2908" />
    <path
       style="fill:none;stroke:#000000;stroke-width:1px;stroke-linecap:butt;stroke-linejoin:miter;stroke-opacity:1"
       d="m 375.77675,182.62084 5.55584,-0.50508 60.60915,51.51778 -66.16499,-51.0127 z"
       id="path2910" />
    <path
       style="fill:none;stroke:#000000;stroke-width:1px;stroke-linecap:butt;stroke-linejoin:miter;stroke-opacity:1"
       d="m 353.55339,217.4711 59.599,53.03301 -54.04316,-52.02285 -5.55584,-1.01016 z"
       id="path2912" />
    <path
       style="fill:none;stroke:#000000;stroke-width:1px;stroke-linecap:butt;stroke-linejoin:miter;stroke-opacity:1"
       d="m 401.03056,265.45335 39.39595,-54.04316 -2.02031,9.09137 -37.37564,44.95179 z"
       id="path2914" />
    <path
       style="fill:none;stroke:#000000;stroke-width:1px;stroke-linecap:butt;stroke-linejoin:miter;stroke-opacity:1"
       d="m 387.89858,255.35182 38.38579,-55.05331 -2.0203,9.59645 -36.36549,45.45686 z"
       id="path2916" />
    <path
       style="fill:none;stroke:#000000;stroke-width:1px;stroke-linecap:butt;stroke-linejoin:miter;stroke-opacity:1"
       d="m 475.27677,184.13607 -11.11168,82.83251 13.63706,-70.2056 -2.52538,-12.62691 z"
       id="path2918" />
    <path
       style="fill:none;stroke:#000000;stroke-width:1px;stroke-linecap:butt;stroke-linejoin:miter;stroke-opacity:1"
       d="m 466.69048,199.28836 68.69036,-1.01015 -18.18273,5.05076 -50.50763,-4.04061 z"
       id="path2920"
       sodipodi:nodetypes="cccc" />
    <path
       style="fill:none;stroke:#000000;stroke-width:1px;stroke-linecap:butt;stroke-linejoin:miter;stroke-opacity:1"
       d="m 461.63971,240.19954 58.58885,-52.02286 -45.96194,45.96194 -12.62691,6.06092 z"
       id="path2922" />
    <path
       style="fill:none;stroke:#000000;stroke-width:1px;stroke-linecap:butt;stroke-linejoin:miter;stroke-opacity:1"
       d="m 545.22983,236.664 38.89087,-57.57869 -31.31473,52.02285 -7.57614,5.55584 z"
       id="path2908-1" />
    <path
       style="fill:none;stroke:#000000;stroke-width:1px;stroke-linecap:butt;stroke-linejoin:miter;stroke-opacity:1"
       d="m 565.93796,181.10561 5.55584,-0.50508 60.60915,51.51778 -66.16499,-51.0127 z"
       id="path2910-7" />
    <path
       style="fill:none;stroke:#000000;stroke-width:1px;stroke-linecap:butt;stroke-linejoin:miter;stroke-opacity:1"
       d="m 543.7146,215.95587 59.599,53.03301 -54.04316,-52.02285 -5.55584,-1.01016 z"
       id="path2912-4" />
    <path
       style="fill:none;stroke:#000000;stroke-width:1px;stroke-linecap:butt;stroke-linejoin:miter;stroke-opacity:1"
       d="m 591.19177,263.93812 39.39595,-54.04316 -2.02031,9.09137 -37.37564,44.95179 z"
       id="path2914-0" />
    <path
       style="fill:none;stroke:#000000;stroke-width:1px;stroke-linecap:butt;stroke-linejoin:miter;stroke-opacity:1"
       d="m 583.3631,223.02694 9.59644,1.01015 43.43656,35.35534 -53.033,-36.36549 z"
       id="path2958" />
    <path
       style="fill:none;stroke:#000000;stroke-width:1px;stroke-linecap:butt;stroke-linejoin:miter;stroke-opacity:1"
       d="m 55.558398,294.74778 -11.11168,82.83251 13.63706,-70.2056 -2.52538,-12.62691 z"
       id="path2918-4" />
    <path
       style="fill:none;stroke:#000000;stroke-width:1px;stroke-linecap:butt;stroke-linejoin:miter;stroke-opacity:1"
       d="m 46.972108,309.90007 68.690362,-1.01015 -18.182732,5.05076 -50.50763,-4.04061 z"
       id="path2920-8"
       sodipodi:nodetypes="cccc" />
    <path
       style="fill:none;stroke:#000000;stroke-width:1px;stroke-linecap:butt;stroke-linejoin:miter;stroke-opacity:1"
       d="M 50.507627,306.8696 79.296975,351.82139 89.3985,354.34677 50.507627,306.8696 z"
       id="path2988" />
    <path
       style="fill:none;stroke:#000000;stroke-width:1px;stroke-linecap:butt;stroke-linejoin:miter;stroke-opacity:1"
       d="m 136.37059,331.11326 39.90103,-35.86041 -30.80965,31.8198 -9.09138,4.04061 z"
       id="path2990" />
    <path
       style="fill:none;stroke:#000000;stroke-width:1px;stroke-linecap:butt;stroke-linejoin:miter;stroke-opacity:1"
       d="m 142.43151,317.98128 -2.02031,-9.09137 45.96194,37.88072 -43.94163,-28.78935 z"
       id="path2992" />
    <path
       style="fill:none;stroke:#000000;stroke-width:1px;stroke-linecap:butt;stroke-linejoin:miter;stroke-opacity:1"
       d="m 144.45181,360.40769 42.42641,-34.85026 -5.05076,9.09137 -37.37565,25.75889 z"
       id="path2994" />
    <path
       style="fill:none;stroke:#000000;stroke-width:1px;stroke-linecap:butt;stroke-linejoin:miter;stroke-opacity:1"
       d="m 235.87062,300.30361 -11.11168,67.17515 7.07107,-14.64722 4.04061,-52.52793 z"
       id="path2996" />
    <path
       style="fill:none;stroke:#000000;stroke-width:1px;stroke-linecap:butt;stroke-linejoin:miter;stroke-opacity:1"
       d="m 215.66757,314.44575 51.0127,-10.10153 -41.41625,11.61676 -9.59645,-1.51523 z"
       id="path2998" />
    <path
       style="fill:none;stroke:#000000;stroke-width:1px;stroke-linecap:butt;stroke-linejoin:miter;stroke-opacity:1"
       d="m 254.05337,302.32392 2.52538,12.12183 1.01015,-17.1726 -3.53553,5.05077 z"
       id="path3000" />
    <path
       style="fill:none;stroke:#000000;stroke-width:1px;stroke-linecap:butt;stroke-linejoin:miter;stroke-opacity:1"
       d="m 376.7869,299.79853 13.13199,11.61676 24.24366,51.51778 -37.37565,-63.13454 z"
       id="path3002"
       sodipodi:nodetypes="cccc" />
    <path
       style="fill:none;stroke:#000000;stroke-width:1px;stroke-linecap:butt;stroke-linejoin:miter;stroke-opacity:1"
       d="m 405.07117,360.40768 30.80965,-63.13453 -1.01014,13.63706 -29.79951,49.49747 z"
       id="path3004"
       sodipodi:nodetypes="cccc" />
    <path
       style="fill:none;stroke:#000000;stroke-width:1px;stroke-linecap:butt;stroke-linejoin:miter;stroke-opacity:1"
       d="m 413.1524,320.00158 24.24366,-1.51523 -8.5863,6.06092 -15.65736,-4.54569 z"
       id="path3006"
       sodipodi:nodetypes="cccc" />
    <path
       style="fill:none;stroke:#000000;stroke-width:1px;stroke-linecap:butt;stroke-linejoin:miter;stroke-opacity:1"
       d="m 287.3884,301.81884 8.08122,15.65737 -3.03046,50.50762 -5.05076,-66.16499 z"
       id="path3008" />
    <path
       style="fill:none;stroke:#000000;stroke-width:1px;stroke-linecap:butt;stroke-linejoin:miter;stroke-opacity:1"
       d="m 282.33764,355.862 61.11423,0 -17.1726,5.05076 -43.94163,-5.05076 z"
       id="path3010" />
    <path
       style="fill:none;stroke:#000000;stroke-width:1px;stroke-linecap:butt;stroke-linejoin:miter;stroke-opacity:1"
       d="m 327.28942,305.35437 1.51523,62.12439 3.53554,-49.49748 -5.05077,-12.62691 z"
       id="path3012" />
    <path
       style="fill:none;stroke:#000000;stroke-width:1px;stroke-linecap:butt;stroke-linejoin:miter;stroke-opacity:1"
       d="m 461.63971,295.25285 20.20305,67.17514 -12.6269,-55.55839 -7.57615,-11.61675 z"
       id="path3014" />
    <path
       style="fill:none;stroke:#000000;stroke-width:1px;stroke-linecap:butt;stroke-linejoin:miter;stroke-opacity:1"
       d="m 471.74124,359.39754 48.48732,-65.15484 -4.54569,13.13198 -43.94163,52.02286 z"
       id="path3016" />
    <path
       style="fill:none;stroke:#000000;stroke-width:1px;stroke-linecap:butt;stroke-linejoin:miter;stroke-opacity:1"
       d="m 495.9849,294.2427 5.55584,5.05076 23.73858,60.10408 -29.29442,-65.15484 z"
       id="path3018" />
    <path
       style="fill:none;stroke:#000000;stroke-width:1px;stroke-linecap:butt;stroke-linejoin:miter;stroke-opacity:1"
       d="m 556.59405,317.47621 30.30458,-27.27412 10.10152,0 -40.4061,27.27412 z"
       id="path3020" />
    <path
       style="fill:none;stroke:#000000;stroke-width:1px;stroke-linecap:butt;stroke-linejoin:miter;stroke-opacity:1"
       d="m 590.93924,288.18178 -9.09137,73.74114 6.56599,-19.1929 2.52538,-54.54824 z"
       id="path3022" />
    <path
       style="fill:none;stroke:#000000;stroke-width:1px;stroke-linecap:butt;stroke-linejoin:miter;stroke-opacity:1"
       d="m 579.32248,358.38739 35.35534,-20.20305 -29.29443,20.20305 -6.06091,0 z"
       id="path3024" />
    <path
       style="fill:none;stroke:#000000;stroke-width:1px;stroke-linecap:butt;stroke-linejoin:miter;stroke-opacity:1"
       d="m 290.41886,500.31382 38.89087,-76.26652 -29.7995,67.17514 -9.09137,9.09138 z"
       id="path3026" />
    <path
       style="fill:none;stroke:#000000;stroke-width:1px;stroke-linecap:butt;stroke-linejoin:miter;stroke-opacity:1"
       d="m 269.20565,438.69451 11.11168,0 41.92133,26.76904 -53.03301,-26.76904 z"
       id="path3028" />
    <path
       style="fill:none;stroke:#000000;stroke-width:1px;stroke-linecap:butt;stroke-linejoin:miter;stroke-opacity:1"
       d="m 287.3884,434.6539 1.01015,20.20305 2.52538,-15.65736 -3.53553,-4.54569 z"
       id="path3030" />
    <path
       style="fill:none;stroke:#000000;stroke-width:1px;stroke-linecap:butt;stroke-linejoin:miter;stroke-opacity:1"
       d="m 381.83766,445.2605 54.54824,-31.31473 -45.45686,29.7995 -9.09138,1.51523 z"
       id="path3032" />
    <path
       style="fill:none;stroke:#000000;stroke-width:1px;stroke-linecap:butt;stroke-linejoin:miter;stroke-opacity:1"
       d="m 415.1727,410.91532 7.07106,5.55583 33.33504,56.06347 -40.4061,-61.6193 z"
       id="path3034" />
    <path
       style="fill:none;stroke:#000000;stroke-width:1px;stroke-linecap:butt;stroke-linejoin:miter;stroke-opacity:1"
       d="m 403.05087,493.74782 50.50762,-34.34518 -40.4061,31.8198 -10.10152,2.52538 z"
       id="path3036" />
  </g>
</svg>
