<?xml version="1.0" encoding="UTF-8" standalone="no"?>
<!-- Created with Inkscape (http://www.inkscape.org/) -->

<svg
   xmlns:dc="http://purl.org/dc/elements/1.1/"
   xmlns:cc="http://creativecommons.org/ns#"
   xmlns:rdf="http://www.w3.org/1999/02/22-rdf-syntax-ns#"
   xmlns:svg="http://www.w3.org/2000/svg"
   xmlns="http://www.w3.org/2000/svg"
   xmlns:sodipodi="http://sodipodi.sourceforge.net/DTD/sodipodi-0.dtd"
   xmlns:inkscape="http://www.inkscape.org/namespaces/inkscape"
   width="744.09448819"
   height="1052.3622047"
   id="svg2"
   version="1.1"
   inkscape:version="0.48.3.1 r9886"
   sodipodi:docname="[2012.08.14] Герб Дракши (нужна когтистая сжатая в кулак лапа).svg">
  <defs
     id="defs4">
    <inkscape:perspective
       sodipodi:type="inkscape:persp3d"
       inkscape:vp_x="0 : 0.5 : 1"
       inkscape:vp_y="0 : 1000 : 0"
       inkscape:vp_z="1 : 0.5 : 1"
       inkscape:persp3d-origin="0.5 : 0.33333333 : 1"
       id="perspective3734" />
    <inkscape:perspective
       sodipodi:type="inkscape:persp3d"
       inkscape:vp_x="0 : 0.5 : 1"
       inkscape:vp_y="0 : 1000 : 0"
       inkscape:vp_z="1 : 0.5 : 1"
       inkscape:persp3d-origin="0.5 : 0.33333333 : 1"
       id="perspective3712" />
    <inkscape:perspective
       sodipodi:type="inkscape:persp3d"
       inkscape:vp_x="0 : 0.5 : 1"
       inkscape:vp_y="0 : 1000 : 0"
       inkscape:vp_z="1 : 0.5 : 1"
       inkscape:persp3d-origin="0.5 : 0.33333333 : 1"
       id="perspective3685" />
    <inkscape:perspective
       sodipodi:type="inkscape:persp3d"
       inkscape:vp_x="0 : 0.5 : 1"
       inkscape:vp_y="0 : 1000 : 0"
       inkscape:vp_z="1 : 0.5 : 1"
       inkscape:persp3d-origin="0.5 : 0.33333333 : 1"
       id="perspective3663" />
    <inkscape:perspective
       sodipodi:type="inkscape:persp3d"
       inkscape:vp_x="0 : 0.5 : 1"
       inkscape:vp_y="0 : 1000 : 0"
       inkscape:vp_z="1 : 0.5 : 1"
       inkscape:persp3d-origin="0.5 : 0.33333333 : 1"
       id="perspective3641" />
    <inkscape:perspective
       sodipodi:type="inkscape:persp3d"
       inkscape:vp_x="0 : 0.5 : 1"
       inkscape:vp_y="0 : 1000 : 0"
       inkscape:vp_z="1 : 0.5 : 1"
       inkscape:persp3d-origin="0.5 : 0.33333333 : 1"
       id="perspective2830" />
    <inkscape:perspective
       sodipodi:type="inkscape:persp3d"
       inkscape:vp_x="0 : 0.5 : 1"
       inkscape:vp_y="0 : 1000 : 0"
       inkscape:vp_z="1 : 0.5 : 1"
       inkscape:persp3d-origin="0.5 : 0.33333333 : 1"
       id="perspective3973" />
    <inkscape:perspective
       sodipodi:type="inkscape:persp3d"
       inkscape:vp_x="0 : 0.5 : 1"
       inkscape:vp_y="0 : 1000 : 0"
       inkscape:vp_z="1 : 0.5 : 1"
       inkscape:persp3d-origin="0.5 : 0.33333333 : 1"
       id="perspective3932" />
    <inkscape:perspective
       sodipodi:type="inkscape:persp3d"
       inkscape:vp_x="0 : 0.5 : 1"
       inkscape:vp_y="0 : 1000 : 0"
       inkscape:vp_z="1 : 0.5 : 1"
       inkscape:persp3d-origin="0.5 : 0.33333333 : 1"
       id="perspective3627" />
    <inkscape:perspective
       sodipodi:type="inkscape:persp3d"
       inkscape:vp_x="0 : 0.5 : 1"
       inkscape:vp_y="0 : 1000 : 0"
       inkscape:vp_z="1 : 0.5 : 1"
       inkscape:persp3d-origin="0.5 : 0.33333333 : 1"
       id="perspective2824" />
    <inkscape:perspective
       id="perspective10"
       inkscape:persp3d-origin="372.04724 : 350.78739 : 1"
       inkscape:vp_z="744.09448 : 526.18109 : 1"
       inkscape:vp_y="0 : 1000 : 0"
       inkscape:vp_x="0 : 526.18109 : 1"
       sodipodi:type="inkscape:persp3d" />
  </defs>
  <sodipodi:namedview
     id="base"
     pagecolor="#ffffff"
     bordercolor="#666666"
     borderopacity="1.0"
     inkscape:pageopacity="0.0"
     inkscape:pageshadow="2"
     inkscape:zoom="0.7"
     inkscape:cx="336.34564"
     inkscape:cy="430.96155"
     inkscape:document-units="px"
     inkscape:current-layer="layer1"
     showgrid="false"
     inkscape:window-width="1440"
     inkscape:window-height="851"
     inkscape:window-x="0"
     inkscape:window-y="25"
     inkscape:window-maximized="1" />
  <metadata
     id="metadata7">
    <rdf:RDF>
      <cc:Work
         rdf:about="">
        <dc:format>image/svg+xml</dc:format>
        <dc:type
           rdf:resource="http://purl.org/dc/dcmitype/StillImage" />
        <dc:title />
      </cc:Work>
    </rdf:RDF>
  </metadata>
  <g
     inkscape:label="Layer 1"
     inkscape:groupmode="layer"
     id="layer1">
    <path
       style="fill:#000000;fill-opacity:1;stroke:none;stroke-width:0.10000000000000001;stroke-linecap:butt;stroke-linejoin:miter;stroke-opacity:1;stroke-miterlimit:4;stroke-dasharray:none"
       d="m 175,267.36218 0,260 110,-115 c 87.81209,-0.0846 172.18768,0.1689 260,0 l 0,-30 -260,0 z"
       id="path3039-8"
       inkscape:connector-curvature="0"
       sodipodi:nodetypes="ccccccc" />
    <path
       style="fill:#9b2d30;fill-opacity:1;stroke:none;stroke-opacity:1;stroke-width:0.10000000000000001;stroke-miterlimit:4;stroke-dasharray:none"
       d="m 285,412.36218 c 0,0 168.17821,3.1e-4 260,0 0,38.89088 0,76.10913 0,115 -124.446,0 -370,0 -370,0 z"
       id="path3841"
       inkscape:connector-curvature="0"
       sodipodi:nodetypes="ccccc" />
    <path
       style="fill:#9b2d30;fill-opacity:1;stroke:none"
       d="m 285,382.36218 c 0,0 168.17821,-3.1e-4 260,0 0,-38.89088 0,-76.10913 0,-115 -124.446,0 -370,0 -370,0 z"
       id="path3841-1"
       inkscape:connector-curvature="0"
       sodipodi:nodetypes="ccccc" />
    <path
       style="fill:#ffffff;fill-opacity:1"
       d="m 401.0173,472.04232 c 2.04536,-0.82214 2.24949,-1.56671 2.24442,-8.18662 -0.003,-4.00522 -0.4573,-8.90844 -1.0094,-10.89605 -0.55211,-1.98761 -1.65125,-8.73761 -2.44255,-15 -0.79129,-6.26239 -1.71304,-12.73617 -2.04835,-14.38617 -0.51479,-2.53327 0.4106,-4.54182 5.94812,-12.91035 3.60677,-5.45068 6.55776,-10.70689 6.55776,-11.68044 0,-1.03593 0.87874,-1.90265 2.11864,-2.08966 1.38601,-0.20905 3.44669,-2.56729 5.95909,-6.81955 2.11224,-3.575 4.53385,-7.21275 5.38136,-8.08389 0.8475,-0.87114 1.54091,-2.12276 1.54091,-2.78138 0,-0.65863 0.69063,-1.46252 1.53474,-1.78644 2.33224,-0.89496 7.46526,-8.89022 7.46526,-11.62799 0,-1.33063 -1.34181,-4.39956 -2.9818,-6.81982 -1.63999,-2.42026 -2.98999,-4.9812 -3,-5.69097 -0.0167,-1.18136 -3.67595,-7.02914 -5.13716,-8.20951 -0.34043,-0.275 -2.11815,-2.975 -3.95048,-6 -3.57921,-5.9089 -8.80471,-13.0402 -10.43056,-14.23469 -0.55,-0.40408 -2.4625,-0.74158 -4.25,-0.75 -2.4868,-0.0117 -3.25,-0.44858 -3.25,-1.86032 0,-1.01476 -0.9,-2.6595 -2,-3.65499 -1.1,-0.99549 -2,-2.30754 -2,-2.91566 0,-0.60813 -1.99705,-4.08259 -4.43788,-7.72102 -5.47027,-8.15426 -7.73005,-8.99553 -14.36664,-5.34841 -7.1289,3.91766 -11.49646,8.22613 -10.84896,10.70219 0.40651,1.55451 0.25626,1.78568 -0.60247,0.92695 -2.41297,-2.41297 -8.51494,-0.25402 -17.57673,6.21888 -3.83615,2.74019 -4.28892,3.46974 -3.9508,6.36597 0.26283,2.25133 -0.0341,3.2711 -0.9525,3.2711 -3.41909,0 -17.26402,11.37748 -17.26402,14.18721 0,1.06935 0.50508,2.92719 1.12241,4.12853 0.92518,1.80046 0.89004,1.96462 -0.2,0.93426 -0.72733,-0.6875 -2.06492,-1.25 -2.97244,-1.25 -2.46622,0 -11.94997,11.35901 -11.94997,14.31289 0,1.52226 1.73733,4.40313 4.52546,7.5042 2.69392,2.99629 4.09802,5.29758 3.46932,5.68614 -1.1168,0.69021 -0.4094,6.68243 1.14457,9.69546 0.48185,0.93428 1.08421,4.08428 1.33856,7 0.79035,9.05981 4.09324,19.74425 7.06122,22.84215 1.49207,1.55739 3.21866,3.70079 3.83686,4.76312 0.61821,1.06233 1.9435,3.08585 2.94509,4.49672 1.57707,2.2215 1.88671,5.35454 2.31094,23.38227 0.26942,11.44938 0.69601,21.82955 0.94797,23.06705 l 0.45811,2.25 28.73095,-0.0634 c 15.80202,-0.0349 29.74345,-0.47036 30.98095,-0.96777 z m -58.17001,-3.21884 c -0.25196,-1.2375 -0.67855,-11.61767 -0.94797,-23.06705 -0.42423,-18.02773 -0.73387,-21.16077 -2.31094,-23.38227 -1.00159,-1.41087 -2.32688,-3.43439 -2.94509,-4.49672 -0.6182,-1.06233 -2.34479,-3.20573 -3.83686,-4.76312 -2.97899,-3.1094 -6.53913,-14.68156 -6.53913,-21.25533 0,-2.11736 -0.675,-5.46525 -1.5,-7.43975 -1.9313,-4.62226 -1.89479,-6.15692 0.14237,-5.98465 3.25406,0.27518 2.42144,-2.41581 -2.3485,-7.59022 -8.29077,-8.99381 -8.09763,-7.9734 -2.69382,-14.23261 2.62977,-3.04606 5.04921,-5.53828 5.37653,-5.53828 0.88722,0 23.02342,26.76811 23.02342,27.84098 0,0.31608 -1.63885,2.25303 -3.64189,4.30432 l -3.64188,3.72964 -4.60812,-3.42266 c -2.53446,-1.88247 -5.15162,-3.87933 -5.8159,-4.43747 -1.5573,-1.30847 -3.00373,-1.29059 -3.83062,0.0473 -0.90989,1.47223 11.33285,12.93785 13.81474,12.93785 0.69362,0 4.51075,-2.85971 8.48251,-6.35492 6.74063,-5.93184 7.87669,-6.53102 17.06445,-9 5.41369,-1.45479 10.42154,-2.64508 11.12858,-2.64508 1.46978,0 -2.26938,5.37943 -7.99349,11.5 -4.4787,4.7889 -5.98513,7.6565 -10.0897,19.20642 -1.94612,5.47624 -4.01978,9.48522 -5.49685,10.62699 -3.27982,2.53527 -2.97622,4.11244 1.27439,6.62036 l 3.64621,2.15132 -0.54329,16.44745 c -0.44327,13.41959 -0.29444,16.44746 0.80847,16.44746 1.51717,0 2.0828,-2.8192 2.90923,-14.5 0.31131,-4.4 1.06664,-11.23946 1.67852,-15.1988 l 1.11252,-7.19881 4.11243,-0.30119 c 2.97388,-0.21781 4.20434,-0.7857 4.44439,-2.0512 0.18257,-0.9625 -0.12115,-1.75 -0.67493,-1.75 -0.55378,0 -3.26874,-1.40605 -6.03323,-3.12455 l -5.02635,-3.12455 2.2099,-3.77082 c 2.21832,-3.78517 6.42572,-9.92018 18.03419,-26.29648 5.66691,-7.99442 6.80553,-9.05159 12.21265,-11.33894 3.27969,-1.3874 7.31035,-2.83791 8.95703,-3.22336 3.41258,-0.79881 4.53521,-3.65988 1.77928,-4.53458 -2.64932,-0.84086 -5.27324,-5.8123 -5.27324,-9.99101 0,-2.22033 -0.47813,-3.58823 -1.25,-3.57616 -0.6875,0.0107 -3.68688,2.32426 -6.66529,5.14112 -5.1922,4.91057 -5.5453,5.07456 -8.571,3.98045 -1.73564,-0.62762 -4.24876,-1.14349 -5.58471,-1.14639 -4.24173,-0.009 -8.11092,-3.16509 -9.45296,-7.7103 -1.49679,-5.06932 -0.70604,-6.05281 7.44339,-9.2576 2.98069,-1.17217 7.3435,-3.00773 9.69514,-4.07902 2.35164,-1.0713 4.71899,-1.94781 5.2608,-1.94781 0.5418,0 3.95679,-1.37547 7.58887,-3.05659 3.63208,-1.68113 7.37598,-2.79172 8.31977,-2.46799 1.82053,0.62447 5.54134,5.506 11.07096,14.52458 1.85473,3.025 3.65862,5.725 4.00864,6 1.53205,1.2037 5.13639,7.04532 5.13639,8.32465 0,0.7731 0.83291,2.47882 1.85091,3.79049 4.35855,5.61591 4.46212,6.56953 1.22464,11.27505 -1.65334,2.40304 -3.6967,4.63419 -4.54081,4.9581 -0.84411,0.32392 -1.53474,1.12781 -1.53474,1.78644 0,0.65862 -0.69341,1.91024 -1.54091,2.78138 -0.84751,0.87114 -3.26912,4.50889 -5.38136,8.08389 -2.5124,4.25226 -4.57308,6.6105 -5.95909,6.81955 -1.2399,0.18701 -2.11864,1.05373 -2.11864,2.08966 0,0.97355 -2.95858,6.22976 -6.57462,11.68044 -7.42415,11.19092 -7.01424,8.04477 -4.01243,30.79652 0.86253,6.53739 2.01996,13.51239 2.57207,15.5 0.5521,1.98761 1.00634,5.99083 1.0094,8.89605 0.005,4.54594 -0.30805,5.40829 -2.24442,6.18662 -1.2375,0.49741 -14.27893,0.93291 -28.98095,0.96777 l -26.73095,0.0634 -0.45811,-2.25 z m 16.71428,-26 c 0.23835,-1.2375 0.43337,-0.225 0.43337,2.25 0,2.475 -0.19502,3.4875 -0.43337,2.25 -0.23836,-1.2375 -0.23836,-3.2625 0,-4.5 z m -2.55167,-22.76034 c -2.67688,-1.62791 -2.87385,-2.00206 -1.35985,-2.58304 0.97375,-0.37366 2.18035,-1.75749 2.68133,-3.07516 0.86188,-2.26692 1.05945,-2.31747 3.67339,-0.93983 1.51939,0.80077 3.66253,2.15093 4.76253,3.00036 1.92803,1.48883 1.88564,1.54555 -1.17804,1.57621 -3.10257,0.031 -3.19738,0.16836 -3.9922,5.7818 -0.74719,5.27703 -0.84059,5.43716 -1.13551,1.94666 -0.25473,-3.01494 -0.97023,-4.19796 -3.45165,-5.707 z m 8.65126,-24.73966 c 1.33516,-2.6125 4.15097,-6.325 6.25736,-8.25 2.22954,-2.03755 2.98402,-2.45539 1.80566,-1 -1.11328,1.375 -3.75131,5.0875 -5.86229,8.25 -2.11098,3.1625 -4.01593,5.75 -4.23321,5.75 -0.21729,0 0.69733,-2.1375 2.03248,-4.75 z m -21.39386,-8.55383 c 0,-0.16711 1.6875,-1.85461 3.75,-3.75 l 3.75,-3.44617 -3.44617,3.75 c -3.20761,3.49042 -4.05383,4.20979 -4.05383,3.44617 z m 31,-4.07373 c 0,-0.20765 0.7875,-0.99515 1.75,-1.75 1.58606,-1.24387 1.62143,-1.2085 0.37755,0.37756 -1.30636,1.66575 -2.12755,2.19548 -2.12755,1.37244 z m -33.1805,-19.50165 c -4.02573,-5.15856 -8.5514,-11.52118 -10.05706,-14.13916 l -2.73755,-4.75995 5.23755,-4.39652 c 2.88066,-2.41809 6.42496,-5.14551 7.87622,-6.06094 l 2.63867,-1.66442 3.63461,5.7001 c 4.26066,6.68192 5.249,8.25796 8.56763,13.66222 2.94256,4.79185 3.52094,5.68938 7.80562,12.11283 l 3.28518,4.92505 -7.28518,3.58874 c -8.8395,4.35442 -8.41076,4.55715 -18.96569,-8.96795 z m 35.35718,8.89108 c -2.02218,0.006 -6.13075,0.66495 -9.13018,1.46317 -2.99942,0.79821 -5.59151,1.31328 -5.76019,1.1446 -0.16869,-0.16868 1.49789,-1.12045 3.70349,-2.11504 5.01398,-2.26099 5.16119,-4.38803 0.7602,-10.98387 -1.7875,-2.67895 -3.71757,-5.64406 -4.28904,-6.58912 -0.57148,-0.94507 -1.59949,-2.39361 -2.28449,-3.21898 -1.09294,-1.31691 -0.84325,-1.36058 2.03904,-0.35665 1.80647,0.62921 4.31727,1.87559 5.57956,2.76974 1.8872,1.3368 2.02048,1.73108 0.75,2.21861 -2.37411,0.91103 -1.8438,3.48849 1.32955,6.46204 1.58104,1.4815 3.39688,3.70613 4.03519,4.94363 1.52135,2.94948 4.01376,2.83927 10.09752,-0.44647 5.67135,-3.06301 6.18163,-4.59464 2.24267,-6.73156 -2.54826,-1.38245 -2.58812,-1.49483 -0.54346,-1.53193 1.2136,-0.022 4.1386,-1.82775 6.5,-4.01273 l 4.29346,-3.97268 0.56615,3.22268 c 0.64611,3.67776 2.93129,7.69565 4.4244,7.77913 1.02619,0.0574 -0.88017,0.86983 -10.42656,4.44356 -3.64759,1.36549 -6.01217,3.02192 -7.45326,5.22115 -1.39447,2.12808 -2.22045,2.72193 -2.43405,1.75 -0.2137,-0.97234 -1.56994,-1.46713 -4,-1.45928 z m -4.67615,-10.36572 -2.99947,-2.91465 3.49947,0.71643 c 7.0107,1.43525 10.92679,2.62546 11.45606,3.48182 0.29756,0.48148 -1.14594,1.77824 -3.20778,2.88169 -3.41878,1.82966 -3.83685,1.86293 -4.74881,0.37783 -0.55,-0.89566 -2.34976,-2.94006 -3.99947,-4.54312 z m -35.00053,0.35385 c -0.99549,-1.1 -1.58498,-2 -1.30998,-2 0.275,0 1.31449,0.9 2.30998,2 0.99549,1.1 1.58498,2 1.30998,2 -0.275,0 -1.31449,-0.9 -2.30998,-2 z m 38.25,-4.66228 c 0.6875,-0.27741 1.8125,-0.27741 2.5,0 0.6875,0.27741 0.125,0.50438 -1.25,0.50438 -1.375,0 -1.9375,-0.22697 -1.25,-0.50438 z m -43.75,-1.83772 c -0.68469,-0.825 -1.01989,-1.5 -0.74489,-1.5 0.275,0 1.0602,0.675 1.74489,1.5 0.68469,0.825 1.01989,1.5 0.74489,1.5 -0.275,0 -1.0602,-0.675 -1.74489,-1.5 z m 27.8595,-9.25 c -4.14308,-4.53078 -9.76761,-12.78584 -11.44206,-16.79336 -1.55628,-3.7247 -1.54473,-3.78047 1.25591,-6.06287 1.55466,-1.26697 5.30341,-3.64124 8.33055,-5.27615 6.66961,-3.60214 7.62208,-3.23533 12.01426,4.62693 1.76839,3.1655 3.90997,6.54571 4.75908,7.51158 1.88311,2.14207 2.04338,1.97814 -5.84928,5.98257 -6.76653,3.43308 -7.47955,4.78329 -5.55081,10.5113 1.02554,3.04567 -0.46974,2.83313 -3.51765,-0.5 z m 14.89482,-24.36276 -5.67362,-9.11275 4.12728,-3.44825 c 4.67352,-3.90462 8.96892,-6.32624 11.2213,-6.32624 1.52339,0 10.57072,12.48253 10.57072,14.58434 0,0.60812 0.9,1.92017 2,2.91566 2.7957,2.53008 2.56997,3.04063 -2.25,5.08891 -2.3375,0.99333 -6.05,2.57053 -8.25,3.50489 -2.2,0.93435 -4.46621,1.74548 -5.03603,1.80251 -0.56982,0.057 -3.58916,-3.99705 -6.70965,-9.00907 z"
       id="path3808"
       inkscape:connector-curvature="0" />
  </g>
</svg>
