<?xml version="1.0" encoding="UTF-8" standalone="no"?>
<!-- Created with Inkscape (http://www.inkscape.org/) -->

<svg
   xmlns:dc="http://purl.org/dc/elements/1.1/"
   xmlns:cc="http://creativecommons.org/ns#"
   xmlns:rdf="http://www.w3.org/1999/02/22-rdf-syntax-ns#"
   xmlns:svg="http://www.w3.org/2000/svg"
   xmlns="http://www.w3.org/2000/svg"
   xmlns:sodipodi="http://sodipodi.sourceforge.net/DTD/sodipodi-0.dtd"
   xmlns:inkscape="http://www.inkscape.org/namespaces/inkscape"
   width="210mm"
   height="297mm"
   viewBox="0 0 210 297"
   version="1.1"
   id="svg148"
   inkscape:version="0.92.3 (2405546, 2018-03-11)"
   sodipodi:docname="Runes Daemonic. Enigma.svg">
  <defs
     id="defs142" />
  <sodipodi:namedview
     id="base"
     pagecolor="#ffffff"
     bordercolor="#666666"
     borderopacity="1.0"
     inkscape:pageopacity="0.0"
     inkscape:pageshadow="2"
     inkscape:zoom="0.54449224"
     inkscape:cx="161.84146"
     inkscape:cy="508.08097"
     inkscape:document-units="mm"
     inkscape:current-layer="layer1"
     showgrid="false"
     inkscape:window-width="1358"
     inkscape:window-height="708"
     inkscape:window-x="0"
     inkscape:window-y="0"
     inkscape:window-maximized="1" />
  <metadata
     id="metadata145">
    <rdf:RDF>
      <cc:Work
         rdf:about="">
        <dc:format>image/svg+xml</dc:format>
        <dc:type
           rdf:resource="http://purl.org/dc/dcmitype/StillImage" />
        <dc:title />
      </cc:Work>
    </rdf:RDF>
  </metadata>
  <g
     inkscape:label="Layer 1"
     inkscape:groupmode="layer"
     id="layer1">
    <path
       style="display:inline;fill:#050000;fill-opacity:0.99612403;stroke:#040000;stroke-width:2.08900142;stroke-linecap:butt;stroke-linejoin:miter;stroke-miterlimit:4;stroke-dasharray:none;stroke-opacity:1"
       d="m 137.26778,7.6941009 c -1.27905,3.2381091 -1.55224,8.9310501 -5.61411,12.6645691 0.18315,1.779487 -1.32804,3.316824 3.39454,5.744752 -5.43048,6.668249 -11.75551,12.44196 -21.67328,14.623013 -6.18007,-1.749709 -12.35999,-4.123187 -18.539913,-9.661631 0.241591,-2.963001 -1.03432,-5.846115 5.483533,-9.139381 C 98.990543,16.903624 95.592664,12.709238 92.615445,8.3469122 90.847972,16.806021 86.870247,19.371312 83.084389,22.447658 l 4.439131,2.872393 c 3.940616,24.773374 -3.351932,37.413852 -1.045358,57.447527 0.64111,6.078215 6.478377,-2.885508 5.74472,9.922769 2.371796,-2.50498 10.203148,-7.474911 0.783226,-30.02941 -0.931651,-2.231546 9.492852,-12.61978 20.106692,-14.100759 5.6078,0.452883 11.45373,4.357697 17.75652,14.88413 2.35379,7.132312 -2.85766,13.895552 -6.0059,28.593225 5.83046,-8.580617 13.70774,-10.905975 17.10357,-9.400523 -1.85953,-15.31199 -9.38088,-29.558147 -3.0028,-49.483216 3.68718,-2.339008 6.83793,-4.283875 7.83372,-10.706136 -6.92558,-4.067524 -1.65901,-6.848945 -9.53107,-14.7535571 z m -5.35309,32.7712011 c -1.6841,3.829856 -2.6205,10.270906 -1.17485,14.100763 -4.35624,-2.666527 -5.81389,-8.607276 -14.36181,-9.661632 3.25861,-2.709305 10.60373,-5.079248 15.53697,-4.439131 z M 92.746032,37.331808 c 3.634421,2.271817 12.407058,8.187159 16.711968,7.442065 -3.7527,0.59121 -11.566984,3.370768 -15.667554,6.397563 0.94746,-2.948505 0.443724,-7.760268 -1.043781,-13.839628 z m 19.192708,23.631821 c -8.03613,2.759024 -9.45793,7.140123 -10.05342,10.575571 6.63202,1.940919 8.55345,7.17458 10.96724,11.88118 2.02092,-4.507256 3.96415,-10.00601 8.35606,-12.142317 -1.17169,-3.868687 -1.32643,-7.241462 -9.26988,-10.314434 z m 0.1264,4.700245 c 0.4611,2.740722 1.04219,5.270975 2.87237,5.614189 -0.63953,1.53693 -1.53803,2.814154 -2.87237,3.65576 -0.87006,-0.447043 -1.74077,-1.472511 -2.61115,-3.65576 1.86235,-1.375382 2.067,-3.579698 2.61115,-5.614189 z"
       id="path4635"
       inkscape:connector-curvature="0"
       sodipodi:nodetypes="cccccccccccsccccccccccccccccccccccccc"
       inkscape:export-filename="/home/freeGHost/Рабочий стол/Runes Daemonic.png"
       inkscape:export-xdpi="96"
       inkscape:export-ydpi="96" />
    <path
       inkscape:connector-curvature="0"
       style="display:inline;fill:#050000;fill-opacity:0.99612403;stroke:#040000;stroke-width:1.84805202;stroke-linecap:butt;stroke-linejoin:miter;stroke-miterlimit:4;stroke-dasharray:none;stroke-opacity:1"
       d="m 97.585596,111.97741 -5.840082,7.86149 c -1.592952,7.38863 2.163021,11.4349 5.161595,15.9539 -6.672276,8.02255 -13.197004,14.4857 -20.436853,28.75307 3.844693,0.64539 7.449516,2.24069 10.106528,7.6377 -8.0614,4.94213 -9.645537,9.88553 -8.763792,14.82766 7.131159,-4.17899 15.364523,-4.31923 20.891576,-14.38024 -3.818845,-3.87611 -7.637571,-2.56675 -11.456402,-11.90397 -1.679566,-3.4136 11.739709,-22.07185 19.094094,-28.0817 -5.49576,-1.30894 -6.65425,-12.00652 -8.756664,-20.66791 z m 26.897924,4.24479 c -1.36622,0.15497 -2.57779,1.70457 -3.86216,5.53696 2.31181,-1.66754 5.49407,-1.13992 6.71361,2.18721 l -13.66542,10.33045 16.36532,25.72824 c -8.48146,8.28659 -17.35533,11.3237 -8.89372,22.08288 l 21.59915,-1.42935 c -18.97468,-8.02842 -12.21761,-10.26927 -2.13692,-20.15538 -9.63857,-15.68918 -26.42727,-22.46775 -6.9662,-37.51683 -4.1713,-3.40424 -6.87578,-7.02193 -9.15366,-6.76418 z m -12.0701,24.17621 c -30.376043,9.88904 11.03438,11.22061 -8.2152,34.0158 26.71603,-17.31383 -10.735721,-22.12143 8.2152,-34.0158 z"
       id="path3790"
       inkscape:export-filename="/home/freeGHost/Рабочий стол/Runes Daemonic.png"
       inkscape:export-xdpi="96"
       inkscape:export-ydpi="96" />
    <path
       style="display:inline;fill:#050000;fill-opacity:0.99612403;stroke:#040000;stroke-width:1.79544544;stroke-linecap:butt;stroke-linejoin:miter;stroke-miterlimit:4;stroke-dasharray:none;stroke-opacity:1"
       d="m 89.764626,217.74454 c -0.01331,26.84802 1.704072,44.88735 -1.324616,70.98306 13.0659,-2.8057 9.646471,-6.82325 18.35363,-17.95436 -15.950877,4.45929 -5.55944,-3.09672 -9.650536,-12.56823 l 17.730026,-0.22396 c 3.9201,3.62601 7.71899,7.3671 3.36649,18.85218 6.86479,-10.73944 16.52499,-14.79309 18.4032,-25.13621 -13.31633,1.98597 -31.09831,0.69894 -39.948546,-0.89846 l -1.571081,-5.16193 c 16.034067,-2.16932 21.852347,-1.5195 32.333907,0.47637 4.99281,-10.00571 -3.88848,-11.28691 6.0437,-21.12368 -4.7537,-2.48866 -9.03222,-2.60104 -12.93984,-0.8591 1.03011,10.4828 -1.44039,11.46554 -3.2191,14.32513 -5.76166,-3.55069 -0.78718,-8.16159 -8.18371,-15.26131 -8.10677,8.41811 -2.93017,14.43533 -10.89292,14.81234 -4.299719,-11.98382 0.822448,-23.51762 -1.122413,-36.38306 -1.698371,8.67284 -4.423204,12.89763 -7.379032,16.12133 z"
       id="path4627"
       inkscape:connector-curvature="0"
       sodipodi:nodetypes="ccccccccccccccccc"
       inkscape:export-filename="/home/freeGHost/Рабочий стол/Runes Daemonic.png"
       inkscape:export-xdpi="96"
       inkscape:export-ydpi="96" />
  </g>
</svg>
