<?xml version="1.0" encoding="UTF-8" standalone="no"?>
<!-- Created with Inkscape (http://www.inkscape.org/) -->

<svg
   xmlns:dc="http://purl.org/dc/elements/1.1/"
   xmlns:cc="http://creativecommons.org/ns#"
   xmlns:rdf="http://www.w3.org/1999/02/22-rdf-syntax-ns#"
   xmlns:svg="http://www.w3.org/2000/svg"
   xmlns="http://www.w3.org/2000/svg"
   xmlns:sodipodi="http://sodipodi.sourceforge.net/DTD/sodipodi-0.dtd"
   xmlns:inkscape="http://www.inkscape.org/namespaces/inkscape"
   width="744.09448819"
   height="1052.3622047"
   id="svg2"
   version="1.1"
   inkscape:version="0.48.2 r9819"
   sodipodi:docname="Медвежий угол.svg">
  <defs
     id="defs4" />
  <sodipodi:namedview
     id="base"
     pagecolor="#ffffff"
     bordercolor="#666666"
     borderopacity="1.0"
     inkscape:pageopacity="0.0"
     inkscape:pageshadow="2"
     inkscape:zoom="1.4"
     inkscape:cx="293.70793"
     inkscape:cy="896.20863"
     inkscape:document-units="px"
     inkscape:current-layer="layer1"
     showgrid="false"
     inkscape:window-width="1920"
     inkscape:window-height="1020"
     inkscape:window-x="0"
     inkscape:window-y="0"
     inkscape:window-maximized="1" />
  <metadata
     id="metadata7">
    <rdf:RDF>
      <cc:Work
         rdf:about="">
        <dc:format>image/svg+xml</dc:format>
        <dc:type
           rdf:resource="http://purl.org/dc/dcmitype/StillImage" />
        <dc:title></dc:title>
      </cc:Work>
    </rdf:RDF>
  </metadata>
  <g
     inkscape:label="Layer 1"
     inkscape:groupmode="layer"
     id="layer1">
    <path
       style="fill:#000000"
       d="m 63.035626,221.68136 c 16.33984,-31.81236 44.711714,-70.10684 73.172164,-85.45117 7.81202,-4.38822 9.7461,-12.67239 14.38796,-19.3373 -0.28282,-2.807 -2.45961,-5.96721 -1.28817,-9.40266 15.5988,-18.612301 40.39612,-30.336231 63.91429,-30.815961 6.28915,-0.0563 10.03272,0.84307 27.87053,6.69599 8.60635,2.82391 14.38883,3.33659 13.9534,1.23712 3.12244,-2.54254 18.61414,0.47392 18.53219,4.37376 5.68014,8.07287 19.5694,6.17716 26.04354,11.933731 3.52289,11.44635 27.7124,10.54605 28.97809,16.61801 -1.76857,5.46017 -5.21389,9.72568 -8.66812,14.07801 -0.14364,0.25988 -2.41965,1.47904 -5.05783,2.70925 -4.20395,1.96034 -4.73696,2.51808 -4.31333,4.51363 0.74459,2.00995 1.46759,3.23879 0.82069,5.06011 -2.77672,5.14388 -9.7923,5.67745 -13.61916,5.98743 -8.59084,0.67451 -9.9694,1.07647 -10.71486,3.12458 -7.04222,6.33895 -20.22418,13.8236 -29.04239,15.39963 -4.45059,0.76314 -4.6132,0.71652 -7.46071,-2.13881 -2.63264,-3.04981 -4.09613,-6.44098 -7.39713,-6.69185 -2.80237,-0.19582 -3.64032,0.27071 -4.8338,2.69106 -2.92462,13.32732 14.97772,45.06666 26.69674,54.17239 4.49004,3.37169 21.46152,8.46128 19.79088,16.99475 -2.2792,11.64191 -10.57137,-1.75138 -33.74983,11.29202 -14.1265,-3.78078 -19.84597,-16.01543 -28.48965,-23.49181 -9.75124,-7.16539 -23.82942,14.77345 -20.65163,22.19791 14.1651,20.13854 15.92509,20.06424 36.26508,23.94188 4.24361,0.79114 4.81908,1.18128 6.24131,4.23126 1.4099,9.18133 -10.81627,10.45128 -16.66752,17.73683 -2.84921,3.59398 -4.8701,5.28588 -6.16866,5.16439 -44.49658,-10.04957 -91.43181,-14.5949 -125.056074,-0.0151 -10.96216,-0.20637 -45.13864,-54.50481 -33.488,-72.80904 z m 51.782244,31.35022 c 16.09302,-6.18903 34.68484,-1.23697 51.70361,1.52901 11.8933,1.93297 27.08986,11.69549 34.61094,10.42906 10.38339,-6.06336 -37.48992,-46.45368 -44.86359,-51.60553 -1.28874,-1.63216 1.05678,-3.28369 5.22114,-3.6763 8.65666,-1.66875 34.07535,-6.569 34.91148,-16.92146 0.0473,-1.13384 -1.47868,-5.41714 -3.39115,-9.51846 -2.57096,-6.03786 -6.18897,-16.94739 -4.00919,-21.97462 1.35791,-0.25328 3.19095,2.07756 3.90063,3.65762 4.10858,19.6932 26.986,45.81152 42.3741,57.60732 5.97607,4.35795 11.19028,5.98595 12.60718,3.93624 1.27017,-1.83745 0.5865,-2.97385 -4.45301,-7.40174 -13.96085,-20.40441 -25.95873,-54.18185 -21.69238,-78.25165 3.79816,-1.80827 7.75138,-4.97157 11.41194,-5.3468 4.01156,-0.3859 6.02556,0.83592 3.39775,2.06128 -3.77924,4.13128 -4.94563,11.96837 0.46608,12.58291 4.22704,0.57996 15.17413,9.39309 17.33653,5.0851 0.66367,-1.67169 4.55905,-3.54905 9.9589,-4.79967 3.77769,-0.98202 6.98492,-3.10813 10.33176,-3.53392 6.8831,-0.83707 10.62981,-3.05278 12.3541,-7.3059 1.44292,-3.55911 7.7322,-3.51251 11.75349,-4.85216 4.31451,-1.43731 9.52226,-0.74023 13.21323,-3.39688 4.52045,-3.25366 10.97731,-9.87495 9.08258,-14.02475 -6.57448,-4.12679 -22.7137,-0.83661 -23.36091,-7.34077 -0.35589,-3.89112 -0.65527,-4.27586 -4.194,-5.38968 -4.2087,-3.48376 -16.16997,-2.02917 -20.21878,-4.3535 -2.25711,-1.350891 -5.48781,-5.397141 -5.11872,-6.410901 0.13678,-0.3757 -1.50493,-1.28287 -3.64825,-2.01596 -5.73519,-2.08105 -8.06974,1.79968 -11.1838,5.22693 -1.58442,1.73396 -2.43367,1.95855 -3.70444,0.97963 -21.29676,-11.96315 -50.36863,-10.15399 -68.81527,-2.17189 -4.47962,2.01193 -9.75746,4.745501 -12.34595,8.038101 -4.21151,5.81079 0.49577,12.79787 -1.97193,19.20804 -5.68766,9.82452 -26.70242,24.93059 -38.85264,38.53562 -16.76082,18.76771 -43.157034,39.55848 -46.784874,59.24143 -2.56316,15.10797 -0.29188,36.5127 12.08695,47.93259 2.5108,2.0201 2.92078,2.04678 5.25187,0.34161 6.161284,-5.64287 6.686704,-11.16223 16.634624,-16.09995 z M 283.63895,118.05489 c -0.35615,-3.4168 4.36179,-4.61049 6.76353,-4.81124 4.20199,-0.28371 5.19219,-0.0629 5.48052,1.22179 0.23222,1.03475 -0.41778,1.84573 -1.9113,2.3846 -1.24477,0.44912 -3.05546,1.52607 -4.02376,2.39321 -2.59512,2.32398 -5.89476,1.70247 -6.30902,-1.18837 z"
       id="path2996"
       inkscape:connector-curvature="0"
       sodipodi:nodetypes="cccccscccccscccccccccaccccccccccaccccccccsccccccccsaacccccccccccaccccccssscc" />
    <path
       style="fill:#000000"
       d="m 374.12664,217.02321 c 16.33984,-31.81236 44.71171,-70.10683 73.17216,-85.45116 7.81202,-4.38822 9.7461,-12.67239 14.38796,-19.3373 -0.28282,-2.807 -2.45961,-5.96721 -1.28817,-9.40266 15.5988,-18.61231 40.39612,-30.336236 63.91429,-30.815966 6.28915,-0.0563 10.03272,0.84307 27.87053,6.69599 8.60635,2.823906 14.38883,3.336586 13.9534,1.23712 3.12244,-2.54254 18.61414,0.473916 18.53219,4.373756 5.68014,8.07287 19.5694,6.17716 26.04354,11.93374 3.52289,11.44635 27.7124,10.54605 28.97809,16.61801 -1.76857,5.46017 -5.21389,9.72568 -8.66812,14.07801 -0.14364,0.25988 -2.41965,1.47904 -5.05783,2.70925 -4.20395,1.96034 -4.73696,2.51808 -4.31333,4.51363 0.74459,2.00995 1.46759,3.23879 0.82069,5.06011 -2.77672,5.14388 -9.7923,5.67745 -13.61916,5.98743 -8.59084,0.67451 -9.9694,1.07647 -10.71486,3.12458 -7.04222,6.33895 -20.22418,13.8236 -29.04239,15.39963 -4.45059,0.76314 -4.6132,0.71652 -7.46071,-2.13881 -2.63264,-3.04981 -4.09613,-6.44098 -7.39713,-6.69185 -2.80237,-0.19582 -3.64032,0.27071 -4.8338,2.69106 -2.92462,13.32732 14.97772,45.06665 26.69674,54.17238 4.49004,3.37169 21.46152,8.46128 19.79088,16.99475 -2.2792,11.64191 -10.57137,-1.75138 -33.74983,11.29202 -14.1265,-3.78078 -19.84597,-16.01543 -28.48965,-23.49181 -9.75124,-7.16539 -23.82942,14.77345 -20.65163,22.19791 14.1651,20.13854 15.92509,20.06424 36.26508,23.94188 4.24361,0.79114 4.81908,1.18128 6.24131,4.23126 1.4099,9.18133 -10.81627,10.45128 -16.66752,17.73683 -2.84921,3.59398 -4.8701,5.28588 -6.16866,5.16439 -44.49658,-10.04957 -91.43181,-14.5949 -125.05607,-0.0151 -10.96216,-0.20637 -45.13864,-54.50481 -33.488,-72.80904 z"
       id="path2996-3"
       inkscape:connector-curvature="0"
       sodipodi:nodetypes="cccccscccccscccccccccacccccccccc" />
  </g>
</svg>
