<?xml version="1.0" encoding="UTF-8" standalone="no"?>
<!-- Created with Inkscape (http://www.inkscape.org/) -->

<svg
   xmlns:dc="http://purl.org/dc/elements/1.1/"
   xmlns:cc="http://creativecommons.org/ns#"
   xmlns:rdf="http://www.w3.org/1999/02/22-rdf-syntax-ns#"
   xmlns:svg="http://www.w3.org/2000/svg"
   xmlns="http://www.w3.org/2000/svg"
   xmlns:sodipodi="http://sodipodi.sourceforge.net/DTD/sodipodi-0.dtd"
   xmlns:inkscape="http://www.inkscape.org/namespaces/inkscape"
   width="744.09448819"
   height="1052.3622047"
   id="svg2"
   version="1.1"
   inkscape:version="0.48.4 r9939"
   sodipodi:docname="Символ Глархачичикана.svg">
  <defs
     id="defs4" />
  <sodipodi:namedview
     id="base"
     pagecolor="#ffffff"
     bordercolor="#666666"
     borderopacity="1.0"
     inkscape:pageopacity="0.0"
     inkscape:pageshadow="2"
     inkscape:zoom="0.7"
     inkscape:cx="66.757286"
     inkscape:cy="512.80921"
     inkscape:document-units="px"
     inkscape:current-layer="layer1"
     showgrid="false"
     inkscape:window-width="1440"
     inkscape:window-height="851"
     inkscape:window-x="0"
     inkscape:window-y="25"
     inkscape:window-maximized="1">
    <inkscape:grid
       type="xygrid"
       id="grid3880" />
  </sodipodi:namedview>
  <metadata
     id="metadata7">
    <rdf:RDF>
      <cc:Work
         rdf:about="">
        <dc:format>image/svg+xml</dc:format>
        <dc:type
           rdf:resource="http://purl.org/dc/dcmitype/StillImage" />
        <dc:title></dc:title>
      </cc:Work>
    </rdf:RDF>
  </metadata>
  <g
     inkscape:label="Layer 1"
     inkscape:groupmode="layer"
     id="layer1">
    <path
       style="fill:none;stroke:#000000;stroke-width:1px;stroke-linecap:butt;stroke-linejoin:miter;stroke-opacity:1"
       d="M 61.225525,705.47073 C 76.060146,829.27158 251.13032,835.8661 134.28572,918.24121 107.83238,887.11275 107.09271,936.91638 135.71429,931.09835 283.08738,836.28342 86.750556,827.31492 61.225525,705.47073 z"
       id="path2985"
       inkscape:connector-curvature="0"
       sodipodi:nodetypes="cccc" />
    <path
       style="fill:none;stroke:#000000;stroke-width:1px;stroke-linecap:butt;stroke-linejoin:miter;stroke-opacity:1"
       d="M 196.33541,705.47073 C 181.50079,829.27158 6.4306197,835.8661 123.27522,918.24121 c 26.45334,-31.12846 27.19301,18.67517 -1.42857,12.85714 -147.37309,-94.81493 48.96373,-103.78343 74.48876,-225.62762 z"
       id="path2985-9"
       inkscape:connector-curvature="0"
       sodipodi:nodetypes="cccc" />
    <g
       id="g3935"
       inkscape:export-filename="/home/freeghost/Dropbox/AD&amp;D/Альманах/Иллюстрации/Знаки и символы/Символ Глархачичикана.png"
       inkscape:export-xdpi="300"
       inkscape:export-ydpi="300">
      <path
         inkscape:connector-curvature="0"
         id="path3089"
         d="m 385.14042,280.66875 c -0.30293,8.02307 -4.30649,22.42339 -12.73479,41.52652 l 12.18111,-19.96733 12.18111,19.96733 c -4.26221,-11.84988 -10.76008,-20.85 -11.62743,-41.52652 z m -0.98625,34.96879 c -3.86605,0 -7.0076,3.14156 -7.0076,7.0076 0,3.86605 3.14155,6.9903 7.0076,6.9903 3.86604,0 6.9903,-3.12425 6.9903,-6.9903 0,-3.86604 -3.12426,-7.0076 -6.9903,-7.0076 z m -11.66203,8.16688 c 8.42831,19.10313 12.43187,33.50346 12.7348,41.52652 0.86735,-20.67652 7.36521,-29.67663 11.62742,-41.52652 l -12.18111,19.96734 -12.18111,-19.96734 z"
         style="fill:#000000;stroke:#000000;stroke-width:1;stroke-linecap:butt;stroke-linejoin:miter;stroke-miterlimit:4;stroke-opacity:1;stroke-dasharray:none;fill-opacity:1" />
      <g
         inkscape:export-ydpi="300"
         inkscape:export-xdpi="300"
         inkscape:export-filename="/home/freeghost/Dropbox/AD&amp;D/Альманах/Иллюстрации/Знаки и символы/Символ Глархачичикана.png"
         id="g3929">
        <path
           style="fill:#000000;stroke:#000000;stroke-width:1px;stroke-linecap:butt;stroke-linejoin:miter;stroke-opacity:1;fill-opacity:1;fill-rule:evenodd"
           d="M 316.71875,165.03125 C 322.31203,211.70942 345,242.36218 375,267.36218 c -155,150 175,150 20,0 30,-25 51.24815,-55.63337 56.84375,-102.33088 C 442.90489,207.70112 415,237.36218 385,262.36218 c -30,-25 -59.34394,-54.66847 -68.28125,-97.33088 z M 385,272.36218 c -125,130 125,130 0,0 z"
           id="path2985-5"
           inkscape:connector-curvature="0"
           sodipodi:nodetypes="ccccccccc" />
        <g
           id="g3925"
           style="fill:#000000;fill-opacity:1">
          <path
             inkscape:connector-curvature="0"
             id="path3048"
             d="m 539.15625,235.15625 c -32.64918,47.82676 -97.773,29.53434 -98.46875,71.71875 l 28.78125,0 c 21.73478,-0.12574 66.95702,-40.82922 72.71875,-61.125 24.83522,16.74485 76.80911,27.08753 84.375,50 l 15.65625,2.53125 c -4.30672,-28.69289 -74.66473,-29.6946 -103.0625,-63.125 z m 17.5625,56.4375 c -25.23964,36.97276 -75.58715,22.85784 -76.125,55.46875 l 22.25,0 c 16.8022,-0.0972 51.76461,-31.56022 56.21875,-47.25 19.19902,12.94471 59.36989,20.94363 65.21875,38.65625 l 12.09375,1.9375 c -3.32933,-22.18121 -57.70319,-22.96893 -79.65625,-48.8125 z"
             style="fill:#000000;stroke:#000000;stroke-width:1px;stroke-linecap:butt;stroke-linejoin:miter;stroke-opacity:1;fill-opacity:1" />
          <path
             id="path3048-9"
             d="m 231.16495,235.08391 c 32.64918,47.82676 97.773,29.53434 98.46875,71.71875 l -28.78125,0 c -21.73478,-0.12574 -66.95702,-40.82922 -72.71875,-61.125 -24.83522,16.74485 -76.80911,27.08753 -84.375,50 l -15.65625,2.53125 c 4.30672,-28.69289 74.66473,-29.6946 103.0625,-63.125 z m -17.5625,56.4375 c 25.23964,36.97276 75.58715,22.85784 76.125,55.46875 l -22.25,0 c -16.8022,-0.0972 -51.76461,-31.56022 -56.21875,-47.25 -19.19902,12.94471 -59.36989,20.94363 -65.21875,38.65625 l -12.09375,1.9375 c 3.32933,-22.18121 57.70319,-22.96893 79.65625,-48.8125 z"
             style="fill:#000000;stroke:#000000;stroke-width:1px;stroke-linecap:butt;stroke-linejoin:miter;stroke-opacity:1;fill-opacity:1"
             inkscape:connector-curvature="0" />
        </g>
      </g>
    </g>
  </g>
</svg>
