<?xml version="1.0" encoding="UTF-8" standalone="no"?>
<!-- Created with Inkscape (http://www.inkscape.org/) -->

<svg
   xmlns:dc="http://purl.org/dc/elements/1.1/"
   xmlns:cc="http://creativecommons.org/ns#"
   xmlns:rdf="http://www.w3.org/1999/02/22-rdf-syntax-ns#"
   xmlns:svg="http://www.w3.org/2000/svg"
   xmlns="http://www.w3.org/2000/svg"
   xmlns:sodipodi="http://sodipodi.sourceforge.net/DTD/sodipodi-0.dtd"
   xmlns:inkscape="http://www.inkscape.org/namespaces/inkscape"
   width="744.09448819"
   height="1052.3622047"
   id="svg2"
   version="1.1"
   inkscape:version="0.48.4 r9939"
   sodipodi:docname="Символ неустанного охотника.svg">
  <defs
     id="defs4" />
  <sodipodi:namedview
     id="base"
     pagecolor="#ffffff"
     bordercolor="#666666"
     borderopacity="1.0"
     inkscape:pageopacity="0.0"
     inkscape:pageshadow="2"
     inkscape:zoom="0.9899495"
     inkscape:cx="344.16584"
     inkscape:cy="786.51104"
     inkscape:document-units="px"
     inkscape:current-layer="layer1"
     showgrid="true"
     inkscape:window-width="1440"
     inkscape:window-height="851"
     inkscape:window-x="0"
     inkscape:window-y="25"
     inkscape:window-maximized="1">
    <inkscape:grid
       type="xygrid"
       id="grid2986" />
  </sodipodi:namedview>
  <metadata
     id="metadata7">
    <rdf:RDF>
      <cc:Work
         rdf:about="">
        <dc:format>image/svg+xml</dc:format>
        <dc:type
           rdf:resource="http://purl.org/dc/dcmitype/StillImage" />
        <dc:title />
      </cc:Work>
    </rdf:RDF>
  </metadata>
  <g
     inkscape:label="Layer 1"
     inkscape:groupmode="layer"
     id="layer1">
    <g
       id="g3760"
       style="fill:#ff0000;fill-opacity:1;stroke:none">
      <g
         id="g3755"
         style="fill:#ff0000;fill-opacity:1;stroke:none">
        <path
           style="fill:#ff0000;fill-opacity:1;stroke:none;stroke-width:1.00128185999999997px;stroke-linecap:butt;stroke-linejoin:miter;stroke-opacity:1"
           d="m 229.16751,279.47402 c -206.411012,58.66842 53.66741,292.76381 97.12837,30.8398 91.6316,-74.02204 107.03276,-123.84284 23.27034,-222.450997 l 6.07052,32.862077 c 61.90545,80.33407 54.70931,125.32309 -36.42313,185.54436 -33.51378,230.64026 -233.810106,67.12871 -97.63426,-1.01113 z"
           id="path2985"
           inkscape:connector-curvature="0"
           sodipodi:nodetypes="ccccccc" />
        <path
           style="fill:#ff0000;fill-opacity:1;stroke:none;stroke-width:1px;stroke-linecap:butt;stroke-linejoin:miter;stroke-opacity:1"
           d="m 425,2.3621826 c -5,65.0000004 5,164.9999974 -15,199.9999974 20,40 10,90 15,130 5,-40 -5,-90 15,-130 -20,-35 -10,-134.999997 -15,-199.9999974 z"
           id="path3007"
           inkscape:connector-curvature="0"
           sodipodi:nodetypes="ccccc" />
        <path
           style="fill:#ff0000;fill-opacity:1;stroke:none;stroke-width:1.00128174000000003px;stroke-linecap:butt;stroke-linejoin:miter;stroke-opacity:1"
           d="M 620.83249,279.47402 C 827.2435,338.14244 567.16508,572.23783 523.70412,310.31382 432.07252,236.29178 416.67136,186.47098 500.43379,87.862824 l -6.07053,32.862076 c -61.90545,80.33407 -54.70931,125.32309 36.42313,185.54436 33.51378,230.64026 233.81011,67.12871 97.63426,-1.01113 z"
           id="path2985-8"
           inkscape:connector-curvature="0"
           sodipodi:nodetypes="ccccccc" />
      </g>
      <path
         sodipodi:nodetypes="czczczczc"
         inkscape:connector-curvature="0"
         id="path3005"
         d="m 225,202.36218 c 0,0 64.24903,-44.11118 100,-45 35.75097,-0.88882 100,40 100,40 0,0 64.05452,-38.87051 100,-40 35.94548,-1.12948 100,45 100,45 0,0 -64.30009,-38.21763 -100,-35 -35.69991,3.21764 -100,45 -100,45 0,0 -64.78405,-43.38303 -100,-45 -35.21595,-1.61697 -100,35 -100,35 z"
         style="fill:#ff0000;fill-opacity:1;stroke:none" />
    </g>
  </g>
</svg>
