<?xml version="1.0" encoding="UTF-8" standalone="no"?>
<svg
   xmlns:dc="http://purl.org/dc/elements/1.1/"
   xmlns:cc="http://creativecommons.org/ns#"
   xmlns:rdf="http://www.w3.org/1999/02/22-rdf-syntax-ns#"
   xmlns:svg="http://www.w3.org/2000/svg"
   xmlns="http://www.w3.org/2000/svg"
   xmlns:sodipodi="http://sodipodi.sourceforge.net/DTD/sodipodi-0.dtd"
   xmlns:inkscape="http://www.inkscape.org/namespaces/inkscape"
   xml:space="preserve"
   width="744.09448"
   height="1052.3622"
   style="fill-rule:evenodd"
   viewBox="0 0 744.09448 1052.3622"
   id="svg2"
   version="1.1"
   inkscape:version="0.48.4 r9939"
   sodipodi:docname="Flag_of_Novy_Urengoy_(Yamal_Nenetsia).svg"><metadata
     id="metadata62"><rdf:RDF><cc:Work
         rdf:about=""><dc:format>image/svg+xml</dc:format><dc:type
           rdf:resource="http://purl.org/dc/dcmitype/StillImage" /><dc:title></dc:title></cc:Work></rdf:RDF></metadata><sodipodi:namedview
     pagecolor="#ffffff"
     bordercolor="#666666"
     borderopacity="1"
     objecttolerance="10"
     gridtolerance="10"
     guidetolerance="10"
     inkscape:pageopacity="0"
     inkscape:pageshadow="2"
     inkscape:window-width="1248"
     inkscape:window-height="952"
     id="namedview60"
     showgrid="false"
     units="mm"
     inkscape:zoom="0.59"
     inkscape:cx="342.77533"
     inkscape:cy="640.28239"
     inkscape:window-x="32"
     inkscape:window-y="0"
     inkscape:window-maximized="1"
     inkscape:current-layer="svg2" /><defs
     id="defs4"><style
       type="text/css"
       id="style6">
    .fil0 {fill:#0093DD}
    .fil1 {fill:#0A0B0C}
    .fil4 {fill:#ACADB1}
    .fil6 {fill:#C2C1C1}
    .fil3 {fill:#E1E2E5}
    .fil5 {fill:#F2E500}
    .fil2 {fill:white}
   </style></defs><path
     class="fil1"
     d="m 470.73264,242.47499 3.05832,2.80616 c 9.08464,-5.05857 18.2051,-10.38294 26.20446,-17.07371 l 38.84493,-33.99422 -22.25664,47.78642 -5.0262,8.64848 c 12.65411,5.47942 24.66931,13.61505 33.05022,24.75283 l 11.02016,-9.06419 c 7.90051,-5.84573 18.80823,-11.62501 28.14498,-14.71745 36.47829,-12.08674 75.19369,-0.28795 102.03186,26.40367 32.79474,32.61746 43.00048,80.32382 37.85492,125.18476 -3.89148,33.94301 -16.20141,66.72232 -32.11141,96.72458 -5.37719,9.58556 -18.14885,27.33744 -25.08159,36.35726 -93.79398,129.76853 -181.81944,161.63975 -135.03505,212.40488 -20.17303,-1.18755 -40.2556,-2.86749 -60.29563,0.56906 -8.40653,1.44142 -13.09367,1.4823 -18.86607,10.11544 -1.04102,1.55727 -4.11126,7.42343 -4.0806,9.14428 0.0222,1.15688 5.50497,16.82675 6.76919,20.06224 10.93326,27.95586 28.68853,52.05608 51.74766,71.21701 l 15.11444,12.34572 c -24.54149,11.14964 -48.87006,23.15116 -75.23451,29.40244 l 0,15.91852 -44.06017,0 0,-8.50365 -5.24429,0 0,6.3722 -37.11041,0 0,-6.3722 -5.24599,0 0,8.50365 -44.06191,0 0,-15.91852 c -26.36458,-6.25122 -50.69143,-18.25443 -75.23451,-29.40244 20.93801,-17.10271 34.73368,-27.9713 49.77989,-50.59262 8.85123,-13.31176 15.73791,-27.87926 20.69941,-43.06511 l 3.15202,-9.96721 c 0.0323,-1.72253 -3.03787,-7.58531 -4.08059,-9.14429 -5.92922,-8.87337 -11.70338,-9.05738 -21.48993,-10.54139 -19.1882,-2.90667 -40.83233,9.13202 -57.67019,-0.1431 C 258.89014,708.82568 202.70132,674.73922 90.984404,536.28958 84.049945,527.26457 71.280062,509.52123 65.90282,499.93232 47.781242,465.75922 34.283752,427.71173 32.651509,388.74937 c -1.380071,-32.93784 6.067228,-66.91158 25.127601,-94.19276 23.776511,-34.03159 64.66756,-54.54534 106.07835,-45.61583 9.44245,2.03604 20.56136,6.4608 28.87419,11.36773 l 9.09146,6.02803 11.02016,9.0642 c 8.53431,-11.13603 20.28713,-19.2273 33.05021,-24.75283 l -5.02449,-8.64848 -22.25664,-47.78643 38.84147,33.99423 c 8.00104,6.69081 17.11973,12.01517 26.20446,17.07371 l 3.05832,-2.80787 c -11.07979,-20.15759 -11.91465,-31.12326 -15.1945,-54.18931 l 27.39701,10.39315 c 0.29817,-8.13222 2.63919,-15.82317 4.5713,-23.70828 20.77269,9.50208 34.36048,15.68007 57.19991,18.40273 27.33398,3.25937 55.05817,-1.12791 80.14495,-12.40193 l 13.11924,-6.00077 c 1.9321,7.88858 4.27311,15.57606 4.57469,23.71001 l 27.39875,-10.39487 c -3.28493,23.10183 -4.11297,34.001 -15.19624,54.1909 z"
     id="path10"
     inkscape:connector-curvature="0"
     style="fill:none;stroke:#000000;stroke-opacity:1"
     sodipodi:nodetypes="cccccccccccccccccccccccccccccccccccccccccsssccccccccccccccccccc" /><path
     style="fill:none;stroke:#000000;stroke-opacity:1"
     inkscape:connector-curvature="0"
     class="fil2"
     d="m 378.72548,210.87021 c -28.0479,2.26605 -56.09074,5.37036 -84.14542,25.05951 -5.96499,-10.70837 -9.24991,-21.41506 -10.70666,-32.12338 8.26682,3.19292 17.27985,6.38583 27.0495,9.58045 -2.44324,-8.07771 -2.62725,-16.15538 -0.56907,-24.23308 22.79342,10.60103 45.58337,15.38189 68.37,15.28986 22.78822,0.092 45.57832,-4.68885 68.36654,-15.28986 2.06501,8.07771 1.87758,16.15539 -0.56395,24.23308 9.76787,-3.19462 18.78443,-6.38753 27.04951,-9.58045 -1.45674,10.70836 -4.74337,21.41506 -10.70837,32.12338 -28.04789,-19.68905 -56.09579,-22.79341 -84.14368,-25.05951 l 0.001,0 z m -130.91975,22.23962 c 33.14903,30.48767 100.3145,42.03094 103.12906,94.11429 -25.38481,-44.09769 -82.55414,-46.10471 -103.12906,-94.11429 z m 130.91975,125.18995 -14.83156,-22.06075 14.83156,-25.0986 14.82651,25.0986 -14.82651,22.06075 z M 509.64523,233.10983 c -33.15077,30.48767 -100.31451,42.03094 -103.13079,94.11429 25.38827,-44.09769 82.55573,-46.10471 103.13079,-94.11429 z"
     id="path12" /><path
     style="fill:none;stroke:#000000;stroke-opacity:1"
     inkscape:connector-curvature="0"
     class="fil2"
     d="m 276.07087,281.46274 c -24.30131,0 -44.02094,19.71805 -44.02094,44.02094 0,24.3029 19.71977,44.02095 44.02094,44.02095 24.3029,0 44.02267,-19.71805 44.02267,-44.02095 0,-24.30289 -19.71977,-44.02094 -44.02267,-44.02094 z m 11.36773,13.06131 c -4.13853,0 -7.49671,3.35818 -7.49671,7.4967 0,4.14023 3.35818,7.49841 7.49671,7.49841 4.14022,0 7.50011,-3.35818 7.50011,-7.49841 0,-4.13852 -3.35989,-7.4967 -7.50011,-7.4967 z m 0.24364,-8.7081 c -8.81544,0 -15.96453,7.14914 -15.96453,15.96453 0,8.81204 7.14914,15.96281 15.96453,15.96281 8.81204,0 15.96454,-7.15084 15.96454,-15.96281 0,-8.81544 -7.15255,-15.96453 -15.96454,-15.96453 z"
     id="path14" /><path
     style="fill:none;stroke:#000000;stroke-opacity:1"
     inkscape:connector-curvature="0"
     class="fil2"
     d="m 262.27434,272.07608 c -23.77305,6.13197 -41.34949,27.72592 -41.34949,53.40717 0,30.44512 24.70162,55.14674 55.14674,55.14674 30.44685,0 55.1502,-24.70162 55.1502,-55.14674 0,-4.03629 -0.43957,-7.96866 -1.26422,-11.7562 5.55608,4.25608 11.11217,9.30103 16.66821,14.96614 -1.68165,37.50395 -32.63794,67.41749 -70.55416,67.41749 -38.99135,0 -70.62744,-31.63609 -70.62744,-70.62744 0,-29.51829 18.13182,-54.81279 43.8575,-65.36792 4.01925,4.29357 8.36904,8.2532 12.9727,11.96066 z"
     id="path16" /><path
     style="fill:none;stroke:#000000;stroke-opacity:1"
     inkscape:connector-curvature="0"
     class="fil3"
     d="m 371.60362,497.0429 c -15.59308,-5.25111 -21.42011,-22.22606 -25.85335,-40.87402 -5.00576,18.62935 -11.95213,37.25697 -25.85854,55.88965 -12.19408,-12.79212 -17.14526,-25.58258 -22.52597,-38.37294 -6.95149,16.96134 -15.29158,33.92094 -26.69334,50.88387 -13.59971,-12.51098 -20.6671,-25.02533 -27.52483,-37.53799 -3.88635,14.18922 -8.33667,27.81622 -16.68696,37.53799 -45.32097,-47.82552 -50.60271,-95.65118 -15.85043,-143.47497 34.03332,36.35899 116.96223,42.61705 146.81389,-30.02938 11.10536,10.0967 12.59447,25.00657 21.30081,35.36738 8.7081,-10.36078 10.19382,-25.2707 21.30081,-35.36738 29.8557,72.64485 112.78461,66.38852 146.81245,30.02938 34.75574,47.82393 29.474,95.64945 -15.8487,143.47497 -8.35371,-9.72187 -12.79722,-23.3488 -16.68365,-37.53799 -6.85949,12.51269 -13.93024,25.02706 -27.52829,37.53799 -11.40011,-16.96307 -19.74184,-33.92253 -26.69161,-50.88387 -5.38059,12.79041 -10.33524,25.58085 -22.5225,38.37294 -13.9115,-18.63268 -20.85954,-37.2603 -25.86027,-55.88965 -4.43329,18.6481 -10.26027,35.62127 -25.85854,40.87402 -10.89749,5.77075 -3.33264,5.77075 -14.24204,0 z"
     id="path18" /><path
     style="fill:none;stroke:#000000;stroke-opacity:1"
     inkscape:connector-curvature="0"
     class="fil4"
     d="m 203.76459,280.93621 c -10.04218,20.08099 -12.90967,41.59645 -8.60758,64.54494 -39.44461,-26.8927 -102.914416,21.51561 -58.09098,132.32032 34.9261,88.09988 105.68136,135.11281 142.00126,230.21337 -3.94429,-0.3595 -7.88858,-0.71901 -11.83458,-1.07681 -2.50969,2.1519 -5.01939,4.30379 -7.53078,6.45569 C 203.85657,634.94075 121.37917,571.94453 74.670613,495.01358 -21.522389,315.26199 121.01564,205.71056 203.76395,280.93656 z"
     id="path20" /><path
     style="fill:none;stroke:#000000;stroke-opacity:1"
     inkscape:connector-curvature="0"
     class="fil4"
     d="m 200.53472,366.99719 c -20.07926,-31.19655 -48.4083,-22.23111 -55.94071,1.0768 -9.6895,30.01914 -12.74099,60.67228 -4.42646,92.40718 12.17193,46.44717 47.21907,81.83172 74.79164,119.65086 28.66473,39.31679 54.66637,80.40892 72.71294,126.80675 6.45399,1.4346 12.90967,2.8692 19.36361,4.30379 C 288.43711,656.06164 259.30053,607.20355 226.35244,560.63478 171.34188,505.98716 158.92803,432.21453 200.53487,366.99722 l 0,0 z"
     id="path22" /><path
     style="fill:none;stroke:#000000;stroke-opacity:1"
     inkscape:connector-curvature="0"
     class="fil3"
     d="m 345.73152,482.64915 c -3.97155,19.18993 -10.78334,34.40651 -23.8446,40.87576 -12.51439,-9.31125 -18.63267,-18.62084 -23.8446,-27.93206 -9.30954,16.80453 -16.80453,33.60906 -22.48327,50.41532 -14.44813,-12.49223 -22.15782,-24.98276 -29.29512,-37.47162 -1.4772,11.46825 -4.65647,22.36916 -11.5807,32.01951 -7.26499,-5.67534 -14.53844,-11.3541 -21.80181,-17.03115 8.17482,23.61797 28.16041,47.23436 65.40023,70.85234 -2.95949,-14.53339 -2.72949,-29.06677 -2.04456,-43.60189 8.88361,11.1275 19.04669,22.25506 33.38244,33.38417 6.13538,-19.30403 9.76787,-38.60633 12.26735,-57.91037 10.20573,9.08976 20.88174,18.40446 34.74377,23.8446 7.36722,-6.47103 14.73274,-13.60141 22.09478,-20.09628 7.36381,6.49487 14.73102,13.62527 22.09321,20.09628 13.86209,-5.44022 24.53125,-14.75482 34.7455,-23.8446 2.49777,19.3023 6.13197,38.60634 12.26392,57.91037 14.33404,-11.1309 24.50399,-22.25664 33.38244,-33.38417 0.68662,14.53512 0.91664,29.0685 -2.04285,43.60189 37.24327,-23.61798 57.22718,-47.23437 65.40196,-70.85234 -7.2667,5.67705 -14.53512,11.35411 -21.80181,17.03115 -6.92764,-9.6503 -10.10522,-20.55126 -11.5807,-32.01951 -7.13721,12.48883 -14.84685,24.9793 -29.29513,37.47162 -5.67875,-16.80626 -13.17375,-33.61079 -22.48326,-50.41532 -5.21191,9.31124 -11.33707,18.62084 -23.8446,27.93206 -13.05961,-6.46932 -19.87139,-21.68597 -23.8446,-40.87576 -10.86682,12.48543 -21.45415,25.84325 -32.93438,37.73576 -11.76642,-10.82251 -22.49351,-25.5996 -33.05368,-37.73576 z"
     id="path24" /><path
     class="fil3"
     d="m 378.72548,534.64869 c -5.63787,11.64204 -12.89263,21.66894 -23.45785,28.38862 -9.08125,-9.99106 -19.07237,-19.07568 -29.97327,-27.2506 0.17038,22.59579 -3.35137,43.71426 -12.26734,62.67756 -14.55041,-9.53785 -22.71667,-19.07568 -29.97485,-28.61525 -1.37667,12.03733 -2.05478,24.07123 2.04285,36.1103 -15.99526,-7.72332 -24.11551,-15.44493 -32.69752,-23.16487 20.89026,42.92028 49.95703,76.98432 62.67251,128.76271 16.82834,8.37076 32.05688,19.47613 36.11535,49.73386 0,45.8765 0,91.75457 0,137.63265 4.31231,0 8.62802,0 12.93693,0 0,-48.6042 0,-97.20668 0,-145.81132 l 14.6032,0 14.60147,0 c 0,48.60421 0,97.20668 0,145.81132 4.31402,0 8.62973,0 12.94374,0 0,-45.87808 0,-91.75457 0,-137.63265 4.05503,-30.25946 19.28355,-41.36304 36.10684,-49.73386 12.71884,-51.77666 41.78557,-85.84243 62.67929,-128.76271 -8.58372,7.7199 -16.70399,15.44147 -32.70271,23.16487 4.10103,-12.03903 3.41441,-24.07295 2.04455,-36.1103 -7.25818,9.53956 -15.42444,19.07741 -29.97658,28.61525 -8.91427,-18.9633 -12.4326,-40.08177 -12.26222,-62.67756 -10.90089,8.17482 -20.89372,17.25951 -29.97658,27.2506 -10.56354,-6.71978 -17.8149,-16.74668 -23.45786,-28.38862 l 0,0 z"
     id="path26"
     inkscape:connector-curvature="0"
     style="fill:none;stroke:#000000;stroke-opacity:1"
     sodipodi:nodetypes="ccccccccccccccccccccccccccc" /><polygon
     style="fill:none;stroke:#000000;stroke-opacity:1"
     class="fil2"
     points="594.098,648.915 594.098,547.826 599.999,547.826 605.9,547.826 605.9,648.915 599.999,648.915 "
     id="polygon28"
     transform="matrix(1.4425481,0,0,1.4425481,-486.80194,-30.796991)" /><path
     style="fill:none;stroke:#000000;stroke-opacity:1"
     inkscape:connector-curvature="0"
     class="fil3"
     d="m 316.81276,777.95318 c -12.03903,39.31001 -33.83223,68.86234 -62.30106,91.74101 19.1455,8.69618 38.05947,17.62231 60.93121,22.59232 0.45663,-38.11054 0.91324,-76.22107 1.36986,-114.3316 l 0,-0.001 z"
     id="path30" /><path
     style="fill:none;stroke:#000000;stroke-opacity:1"
     inkscape:connector-curvature="0"
     class="fil2"
     d="m 244.24249,737.56327 c 5.24598,-9.12895 14.14662,-17.34289 26.70027,-24.64709 24.62833,-1.36133 47.60235,0.23853 61.77452,17.55423 11.1275,13.59971 12.16511,28.08021 12.16511,44.57473 0,44.12668 0,88.25495 0,132.38163 -7.99251,0 -15.98329,0 -23.97414,0 0,-38.65913 0,-77.31827 0,-115.9774 0,-15.25408 0.4464,-28.57948 -10.0524,-41.22514 -6.00589,-7.23432 -13.43613,-9.83773 -21.42862,-10.60784 -15.06323,-2.7397 -30.1266,-2.96801 -45.18637,-2.05308 l 0.001,0 z"
     id="path32" /><path
     style="fill:none;stroke:#000000;stroke-opacity:1"
     inkscape:connector-curvature="0"
     class="fil2"
     d="m 481.3772,281.46274 c 24.30463,0 44.02267,19.71805 44.02267,44.02094 0,24.3029 -19.71804,44.02095 -44.02267,44.02095 -24.3029,0 -44.02094,-19.71805 -44.02094,-44.02095 0,-24.30289 19.71804,-44.02094 44.02094,-44.02094 z m -11.36773,13.06131 c 4.14023,0 7.49841,3.35818 7.49841,7.4967 0,4.14023 -3.35818,7.49841 -7.49841,7.49841 -4.13852,0 -7.4984,-3.35818 -7.4984,-7.49841 0,-4.13852 3.35988,-7.4967 7.4984,-7.4967 z m -0.24194,-8.7081 c 8.81374,0 15.96454,7.14914 15.96454,15.96453 0,8.81204 -7.15085,15.96281 -15.96454,15.96281 -8.81204,0 -15.9628,-7.15084 -15.9628,-15.96281 0,-8.81544 7.15084,-15.96453 15.9628,-15.96453 z"
     id="path42" /><path
     style="fill:none;stroke:#000000;stroke-opacity:1"
     inkscape:connector-curvature="0"
     class="fil2"
     d="m 495.17806,272.07608 c 23.77132,6.13197 41.34949,27.72592 41.34949,53.40717 0,30.44512 -24.70335,55.14674 -55.14847,55.14674 -30.44686,0 -55.15021,-24.70162 -55.15021,-55.14674 0,-4.03629 0.43958,-7.96866 1.26423,-11.7562 -5.55438,4.25608 -11.10876,9.30103 -16.66648,14.96614 1.67994,37.50395 32.6362,67.41749 70.55257,67.41749 38.99135,0 70.62918,-31.63609 70.62918,-70.62744 0,-29.51829 -18.13356,-54.81279 -43.85909,-65.36792 -4.01926,4.29357 -8.36734,8.2532 -12.97101,11.96066 z"
     id="path44" /><path
     style="fill:none;stroke:#000000;stroke-opacity:1"
     inkscape:connector-curvature="0"
     class="fil4"
     d="m 553.68637,280.93621 c 10.04048,20.08099 12.90966,41.59645 8.60588,64.54494 39.4446,-26.8927 102.91614,21.51561 58.09271,132.32032 -34.92611,88.09988 -105.6831,135.11281 -142.00126,230.21337 3.94599,-0.3595 7.88857,-0.71901 11.83287,-1.07681 2.51139,2.1519 5.02109,4.30379 7.53078,6.45569 55.8471,-78.45297 138.3245,-141.44919 185.03132,-218.38014 C 778.9734,315.26199 636.43537,205.71056 553.68879,280.93656 l -0.001,0 z"
     id="path46" /><path
     style="fill:none;stroke:#000000;stroke-opacity:1"
     inkscape:connector-curvature="0"
     class="fil4"
     d="m 556.91479,366.99719 c 20.08099,-31.19655 48.40831,-22.23111 55.93913,1.0768 9.6912,30.01914 12.74269,60.67228 4.42646,92.40718 -12.16852,46.44717 -47.21734,81.83172 -74.78992,119.65086 -28.66631,39.31679 -54.6681,80.40892 -72.71293,126.80675 -6.45569,1.4346 -12.90967,2.8692 -19.36535,4.30379 18.59863,-55.18093 47.73522,-104.03902 80.68331,-150.60779 55.01056,-54.64762 67.42441,-128.42025 25.81757,-193.63756 l 0.001,0 z"
     id="path48" /><path
     style="fill:none;stroke:#000000;stroke-opacity:1"
     inkscape:connector-curvature="0"
     class="fil3"
     d="m 440.6382,777.95318 c 12.03903,39.31001 33.83222,68.86234 62.30279,91.74101 -19.14896,8.69618 -38.06279,17.62231 -60.93295,22.59232 -0.45662,-38.11054 -0.91323,-76.22107 -1.36986,-114.3316 l 0,-0.001 z"
     id="path50" /><path
     style="fill:none;stroke:#000000;stroke-opacity:1"
     inkscape:connector-curvature="0"
     class="fil2"
     d="m 513.20991,737.56327 c -5.2494,-9.12895 -14.14833,-17.34289 -26.70027,-24.64709 -24.6318,-1.36133 -47.60582,0.23853 -61.77452,17.55423 -11.1292,13.59971 -12.16511,28.08021 -12.16511,44.57473 0,44.12668 0,88.25495 0,132.38163 7.9908,0 15.98155,0 23.97241,0 0,-38.65913 0,-77.31827 0,-115.9774 0,-15.25408 -0.4481,-28.57948 10.05239,-41.22514 6.00589,-7.23432 13.43444,-9.83773 21.42862,-10.60784 15.06323,-2.7397 30.12488,-2.96801 45.18638,-2.05308 z"
     id="path52" /><path
     style="fill:none;stroke:#000000;stroke-opacity:1"
     inkscape:connector-curvature="0"
     class="fil6"
     d="m 378.72548,217.30686 c 33.58699,-2.13486 60.98574,9.8752 84.14368,31.58156 -31.1863,12.77166 -54.85548,33.05873 -61.98917,69.88121 -5.63617,-12.39853 -13.69172,-24.79711 -22.33166,-37.19552 -8.64165,12.39852 -16.33426,24.79711 -21.97895,37.19552 -7.13721,-36.82248 -30.80129,-57.10961 -61.98759,-69.88121 23.15795,-21.70631 50.55511,-33.71639 84.14369,-31.58156 l 0,0 z"
     id="path58" /></svg>