<?xml version="1.0" encoding="UTF-8" standalone="no"?>
<!-- Created with Inkscape (http://www.inkscape.org/) -->

<svg
   xmlns:dc="http://purl.org/dc/elements/1.1/"
   xmlns:cc="http://creativecommons.org/ns#"
   xmlns:rdf="http://www.w3.org/1999/02/22-rdf-syntax-ns#"
   xmlns:svg="http://www.w3.org/2000/svg"
   xmlns="http://www.w3.org/2000/svg"
   xmlns:sodipodi="http://sodipodi.sourceforge.net/DTD/sodipodi-0.dtd"
   xmlns:inkscape="http://www.inkscape.org/namespaces/inkscape"
   width="744.09448819"
   height="1052.3622047"
   id="svg2"
   version="1.1"
   inkscape:version="0.48.2 r9819"
   sodipodi:docname="Круг ритуала.svg">
  <defs
     id="defs4" />
  <sodipodi:namedview
     id="base"
     pagecolor="#ffffff"
     bordercolor="#666666"
     borderopacity="1.0"
     inkscape:pageopacity="0.0"
     inkscape:pageshadow="2"
     inkscape:zoom="0.49497475"
     inkscape:cx="229.42421"
     inkscape:cy="564.39262"
     inkscape:document-units="px"
     inkscape:current-layer="layer1"
     showgrid="false"
     inkscape:window-width="1920"
     inkscape:window-height="1020"
     inkscape:window-x="0"
     inkscape:window-y="0"
     inkscape:window-maximized="1"
     showguides="true">
    <inkscape:grid
       type="xygrid"
       id="grid3940" />
  </sodipodi:namedview>
  <metadata
     id="metadata7">
    <rdf:RDF>
      <cc:Work
         rdf:about="">
        <dc:format>image/svg+xml</dc:format>
        <dc:type
           rdf:resource="http://purl.org/dc/dcmitype/StillImage" />
        <dc:title />
      </cc:Work>
    </rdf:RDF>
  </metadata>
  <g
     inkscape:label="Layer 1"
     inkscape:groupmode="layer"
     id="layer1">
    <path
       sodipodi:type="arc"
       style="fill:none;stroke:#000000;stroke-width:8.75893974;stroke-linecap:butt;stroke-linejoin:miter;stroke-miterlimit:4;stroke-opacity:1;stroke-dasharray:none"
       id="path3038"
       sodipodi:cx="377.14285"
       sodipodi:cy="502.36218"
       sodipodi:rx="189.28572"
       sodipodi:ry="189.28572"
       d="m 566.42857,502.36218 a 189.28572,189.28572 0 1 1 -378.57144,0 189.28572,189.28572 0 1 1 378.57144,0 z"
       transform="matrix(0.86002812,0,0,0.86002812,25.891661,80.642218)" />
    <path
       sodipodi:type="arc"
       style="fill:none;stroke:#000000;stroke-width:7.45067453;stroke-linecap:butt;stroke-linejoin:miter;stroke-miterlimit:4;stroke-opacity:1;stroke-dasharray:none"
       id="path3038-3"
       sodipodi:cx="377.14285"
       sodipodi:cy="502.36218"
       sodipodi:rx="202.47427"
       sodipodi:ry="202.47427"
       d="m 579.61713,502.36218 a 202.47427,202.47427 0 1 1 -404.94855,0 202.47427,202.47427 0 1 1 404.94855,0 z"
       transform="matrix(1.3336592,0,0,1.3336592,-153.38561,-160.86009)" />
    <path
       sodipodi:type="arc"
       style="fill:none;stroke:#000000;stroke-width:8.75893974;stroke-linecap:butt;stroke-linejoin:miter;stroke-miterlimit:4;stroke-opacity:1;stroke-dasharray:none"
       id="path3038-37"
       sodipodi:cx="377.14285"
       sodipodi:cy="502.36218"
       sodipodi:rx="189.28572"
       sodipodi:ry="189.28572"
       d="m 566.42857,502.36218 a 189.28572,189.28572 0 1 1 -378.57144,0 189.28572,189.28572 0 1 1 378.57144,0 z"
       transform="matrix(0.42923489,0,0,0.42923489,335.78323,304.16561)" />
    <path
       sodipodi:type="arc"
       style="fill:none;stroke:#000000;stroke-width:8.75893974;stroke-linecap:butt;stroke-linejoin:miter;stroke-miterlimit:4;stroke-opacity:1;stroke-dasharray:none"
       id="path3038-37-5"
       sodipodi:cx="377.14285"
       sodipodi:cy="502.36218"
       sodipodi:rx="189.28572"
       sodipodi:ry="189.28572"
       d="m 566.42857,502.36218 a 189.28572,189.28572 0 1 1 -378.57144,0 189.28572,189.28572 0 1 1 378.57144,0 z"
       transform="matrix(0.42923489,0,0,0.42923489,30.046109,305.39057)" />
    <path
       sodipodi:type="arc"
       style="fill:none;stroke:#000000;stroke-width:8.75893974;stroke-linecap:butt;stroke-linejoin:miter;stroke-miterlimit:4;stroke-opacity:1;stroke-dasharray:none"
       id="path3038-37-4"
       sodipodi:cx="377.14285"
       sodipodi:cy="502.36218"
       sodipodi:rx="189.28572"
       sodipodi:ry="189.28572"
       d="m 566.42857,502.36218 a 189.28572,189.28572 0 1 1 -378.57144,0 189.28572,189.28572 0 1 1 378.57144,0 z"
       transform="matrix(0.42923489,0,0,0.42923489,193.69082,26.588461)" />
    <path
       sodipodi:type="arc"
       style="fill:none;stroke:#000000;stroke-width:8.75893974;stroke-linecap:butt;stroke-linejoin:miter;stroke-miterlimit:4;stroke-opacity:1;stroke-dasharray:none"
       id="path3038-37-7"
       sodipodi:cx="377.14285"
       sodipodi:cy="502.36218"
       sodipodi:rx="189.28572"
       sodipodi:ry="189.28572"
       d="m 566.42857,502.36218 a 189.28572,189.28572 0 1 1 -378.57144,0 189.28572,189.28572 0 1 1 378.57144,0 z"
       transform="matrix(0.42923489,0,0,0.42923489,189.65021,572.07084)" />
  </g>
</svg>
