<?xml version="1.0" encoding="UTF-8" standalone="no"?>
<!-- Created with Inkscape (http://www.inkscape.org/) -->

<svg
   xmlns:dc="http://purl.org/dc/elements/1.1/"
   xmlns:cc="http://creativecommons.org/ns#"
   xmlns:rdf="http://www.w3.org/1999/02/22-rdf-syntax-ns#"
   xmlns:svg="http://www.w3.org/2000/svg"
   xmlns="http://www.w3.org/2000/svg"
   xmlns:sodipodi="http://sodipodi.sourceforge.net/DTD/sodipodi-0.dtd"
   xmlns:inkscape="http://www.inkscape.org/namespaces/inkscape"
   width="210mm"
   height="297mm"
   viewBox="0 0 744.09448819 1052.3622047"
   id="svg2"
   version="1.1"
   inkscape:version="0.91 r13725"
   sodipodi:docname="Owl_3.svg">
  <defs
     id="defs4" />
  <sodipodi:namedview
     id="base"
     pagecolor="#ffffff"
     bordercolor="#666666"
     borderopacity="1.0"
     inkscape:pageopacity="0.0"
     inkscape:pageshadow="2"
     inkscape:zoom="0.24748737"
     inkscape:cx="-322.64217"
     inkscape:cy="147.50889"
     inkscape:document-units="px"
     inkscape:current-layer="layer1"
     showgrid="false"
     inkscape:window-width="1600"
     inkscape:window-height="848"
     inkscape:window-x="-8"
     inkscape:window-y="-8"
     inkscape:window-maximized="1"
     showguides="false" />
  <metadata
     id="metadata7">
    <rdf:RDF>
      <cc:Work
         rdf:about="">
        <dc:format>image/svg+xml</dc:format>
        <dc:type
           rdf:resource="http://purl.org/dc/dcmitype/StillImage" />
        <dc:title></dc:title>
      </cc:Work>
    </rdf:RDF>
  </metadata>
  <g
     inkscape:label="Layer 1"
     inkscape:groupmode="layer"
     id="layer1">
    <path
       style="fill:#000000;fill-opacity:1"
       d="m 144.23047,148.81055 c -0.3633,32.59025 22.91358,43.67947 16.64648,45.44922 -26.16008,64.27726 -13.11345,96.34495 4.44141,127.87109 -41.93893,77.42013 -52.33541,126.86023 -32.48242,246.92969 -0.19584,30.8202 -30.59748,65.58876 -48.140628,86.64062 8.81329,31.83201 75.021778,37.97001 107.986328,22.45899 28.77798,10.54966 -1.26302,33.24385 5.68945,43.95312 38.70295,49.97369 118.36488,1.80899 145.48243,-7.46875 0.8706,-0.65804 14.61596,-0.65038 15.27539,0.01 47.48979,19.2572 112.03874,54.21332 150.1914,10.81836 0,-0.26709 0.20367,-0.56321 0.45117,-0.65821 11.02395,-22.99273 -26.80735,-22.76102 7.97071,-41.64453 -0.0783,-1.87445 122.36497,17.2874 111.71875,-25.79687 -11.48849,-20.53408 -48.00446,-48.94736 -45.43946,-88.92188 11.13532,-87.75892 13.11227,-164.55751 -40.88476,-249.44643 17.65585,-31.64262 30.89841,-60.1387 4.63867,-124.66099 -6.26714,-1.76975 17.00981,-12.85897 16.64649,-45.44922 0.36955,-21.67692 -1.18539,-30.7971 -13.51563,-35.19336 -27.31095,21.46303 -54.24581,31.663 -81.42383,30.84571 -22.85774,0.51429 -39.06993,1.53445 -62.91015,2.5996 -19.34379,-1.28229 -32.90255,2.95286 -51.98243,5.82813 -19.36383,-2.876 -32.98456,-7.20644 -52.50976,-5.91211 -23.8402,-1.06515 -40.05236,-2.0853 -62.91016,-2.59961 -35.50406,2.61668 -54.31562,-12.3851 -78.81054,-30.74609 -18.02482,5.50098 -16.20319,29.52765 -16.12891,35.09352 z m 13.3125,-22.78125 c 36.40381,38.6122 95.5249,29.63141 142.2168,32.57031 18.07241,0.87933 36.86008,7.56561 54.8164,14.41016 17.64665,-6.21015 37.03814,-13.20674 54.31641,-14.32618 46.69187,-2.9389 105.81295,6.0419 142.2168,-32.57031 3.68754,21.20362 -3.57144,45.72481 -13.69922,56.43945 -3.30345,4.24309 -22.34463,11.03058 -49.0293,10.59375 -31.76181,0.30466 -72.56372,-0.22025 -97.15625,24.1836 -11.78948,9.96784 -27.83383,27.42708 -35.1585,45.75254 2.46597,16.78233 13.05393,32.45929 24.24444,46.63418 -1.71008,10.96672 -19.72087,31.62291 -26.78125,45.38867 -7.04693,-13.9773 -23.32744,-34.42674 -25.1875,-45.47266 11.1905,-14.17489 21.77844,-29.72558 24.24444,-46.50791 -7.3247,-18.32546 -23.36911,-35.91097 -35.15851,-45.87881 -24.5926,-24.40384 -65.39439,-23.87893 -97.15625,-24.18359 -26.6847,0.43683 -45.72579,-6.35066 -49.02929,-10.59375 -10.1278,-10.71464 -17.38681,-35.23584 -13.69922,-56.43945 z m 18.73242,74.33398 c 2.0525,0.0316 4.21539,0.55922 6.55469,1.44141 0.662,0.2039 0.50289,11.01562 -0.16211,11.01562 -2.5912,0.68286 -5.21873,4.13314 -1.92383,6.57227 0.6955,0.50856 0.38522,1.39648 -0.55078,1.39648 -8.0937,2.70043 -7.044,9.91523 -1.0625,12.01172 1.0995,0.67213 1.08801,1.27744 0.29102,2.10938 -5.1763,2.00074 -7.35767,9.02061 -0.19727,11.8789 1.2127,0.79517 1.50371,0.9723 0.50781,2.44336 -7.3382,7.28389 -2.56562,11.47628 2.89258,12.1211 1.7718,0.96959 1.77098,1.18493 0.70508,3.13086 -6.2564,7.46163 -3.02226,14.50907 8.27344,11.80664 1.3861,-0.40315 1.89187,0.21543 1.76367,1.58007 0.3775,-1.11537 -8.16237,19.07286 10.61133,11.33008 1.8537,-0.9001 2.68236,-0.219 2.69336,1.63281 -3.4843,12.66678 6.13599,15.14805 14.59179,6.4668 0.6603,-0.63913 1.49927,-0.40364 1.44727,0.7461 -1.9063,15.79338 9.99457,13.98073 14.51367,3.6621 0.6368,-1.11406 1.53058,-0.35651 1.33398,0.43555 -2.10736,12.38575 10.98767,16.58483 13.91797,3.26563 0.1651,-0.72096 1.59836,-0.5572 1.75586,0.0351 2.4803,10.359 14.58214,9.35396 15.61524,-1.04687 1.0257,-1.91727 2.44301,-1.69586 3.82031,0.0547 1.6408,3.9443 13.95567,8.6487 14.60937,-6.20312 0.3845,-2.06182 2.4053,-2.67906 4.3125,-2.14062 6.831,2.66118 12.27629,-0.67507 10.99219,-7.9668 0.2654,-2.69134 2.49682,-3.05613 3.54492,-2.57031 5.082,2.76351 12.28647,-1.13201 8.29297,-8.47852 -0.5718,-1.25513 1.45215,-3.35673 2.75196,-3.2168 6.3285,1.18816 8.44229,-3.21157 7.02929,-8.6875 5.3389,-5.52921 6.35211,-7.93935 9.22071,-13.26953 2.4993,-0.61057 6.89385,9.04426 8.91015,11.87696 -4.9822,10.8523 -15.65127,32.16174 -28.66797,41.06054 -41.1355,26.83331 -160.48093,48.31073 -157.39453,-60.50586 0.6075,-13.27807 5.60043,-32.41922 13.11133,-42.45312 1.8997,-1.1022 3.84203,-1.56675 5.89453,-1.53516 z m 356.10156,0.084 c 2.05247,-0.0316 3.9948,0.43295 5.89453,1.53515 7.5109,10.0339 12.50378,29.17506 13.11133,42.45313 3.0864,108.81659 -116.25902,87.33917 -157.39453,60.50586 -13.01674,-8.8988 -23.68578,-30.20824 -28.66797,-41.06055 2.01629,-2.8327 6.41081,-12.48752 8.91016,-11.87695 2.86862,5.33018 3.88176,7.74032 9.2207,13.26953 -1.41305,5.47593 0.70078,9.87566 7.0293,8.6875 1.29983,-0.13993 3.32384,1.96166 2.75195,3.21679 -3.99347,7.34651 3.21092,11.24203 8.29297,8.47852 1.04809,-0.48582 3.27949,-0.12103 3.54492,2.57031 -1.28417,7.29173 4.1612,10.62798 10.99219,7.9668 1.9072,-0.53843 3.928,0.0788 4.3125,2.14062 0.65362,14.85182 12.96853,10.14743 14.60938,6.20313 1.37731,-1.75053 2.79462,-1.97195 3.82031,-0.0547 1.03303,10.40083 13.13497,11.40588 15.61523,1.04688 0.15756,-0.59231 1.59079,-0.75608 1.75586,-0.0352 2.93029,13.3192 16.0253,9.12013 13.91797,-3.26562 -0.19669,-0.79206 0.69723,-1.54961 1.33398,-0.43555 4.51917,10.31863 16.41993,12.13128 14.51368,-3.66211 -0.0517,-1.14973 0.78698,-1.38522 1.44726,-0.74609 8.45578,8.68125 18.07608,6.19998 14.5918,-6.4668 0.0107,-1.85181 0.83972,-2.53291 2.69336,-1.63281 18.7737,7.74278 10.23382,-12.44545 10.61133,-11.33008 -0.12821,-1.36464 0.37758,-1.98323 1.76367,-1.58008 11.2957,2.70243 14.52984,-4.34501 8.27344,-11.80664 -1.06593,-1.94592 -1.0667,-2.16127 0.70507,-3.13086 5.4582,-0.64482 10.23085,-4.8372 2.89258,-12.12109 -0.99586,-1.47106 -0.70485,-1.64819 0.50781,-2.44336 7.16044,-2.85829 4.97901,-9.87817 -0.19726,-11.87891 -0.79705,-0.83194 -0.80855,-1.43725 0.29101,-2.10937 5.9815,-2.0965 7.03116,-9.31129 -1.0625,-12.01172 -0.93606,0 -1.24627,-0.88793 -0.55078,-1.39649 3.29482,-2.43913 0.6674,-5.8894 -1.92382,-6.57226 -0.66504,0 -0.82415,-10.81173 -0.16211,-11.01563 2.33934,-0.88219 4.50222,-1.4098 6.55468,-1.4414 z m -273.95703,1.93164 c 24.4875,1.90126 35.78022,7.36576 51.60742,20.75781 -8.7767,19.06315 -38.54213,32.65381 -62.58203,18.48437 -8.7446,-8.36204 -15.87383,-22.15812 -17.67383,-33.98437 3.3987,-3.08173 24.09044,-5.32771 28.64844,-5.25781 z m 191.8125,0.082 c 4.558,-0.0699 25.24975,2.17803 28.64844,5.25976 -1.80004,11.82626 -8.92916,25.62234 -17.67383,33.98438 -24.03985,14.16944 -53.80535,0.57877 -62.58203,-18.48438 15.82715,-13.39206 27.12001,-18.8585 51.60742,-20.75976 z m -233.58984,8.0957 c 1.9441,-0.0153 3.75668,-0.006 5.36328,0.0234 -25.4499,4.72174 -38.76152,9.06896 -40.35742,6.33984 -0.8992,-3.82452 21.38564,-6.2561 34.99414,-6.36328 z m 275.36719,0.084 c 13.60845,0.10718 35.89327,2.53876 34.99414,6.36329 -1.59591,2.72912 -14.90757,-1.6181 -40.35743,-6.33985 1.60655,-0.0291 3.41922,-0.0387 5.36329,-0.0234 z m -269.875,5.65626 c -25.182,5.52531 -40.80375,15.05149 -44.46485,11.20312 0.3091,-5.48022 31.61245,-11.43578 44.46485,-11.20312 z m 264.38476,0.082 c 12.85237,-0.23266 44.15381,5.72485 44.46289,11.20507 -3.66109,3.84837 -19.28089,-5.67975 -44.46289,-11.20507 z m -264.0918,5.50976 c 0.4346,0.008 0.85587,0.0257 1.25977,0.0547 -17.3496,3.50862 -39.51632,21.90957 -46.19922,19.89648 3.8304,-10.50484 31.46505,-20.19813 44.93945,-19.95118 z m 263.79688,0.084 c 13.47431,-0.24696 41.10907,9.44633 44.93945,19.95117 -6.68285,2.01309 -28.84959,-16.38787 -46.19922,-19.89649 0.40391,-0.029 0.82511,-0.0467 1.25977,-0.0547 z m -260.6875,6.63086 c 0.1798,0.0215 0.31897,0.0661 0.41797,0.13476 -17.7895,10.10595 -37.81417,31.53236 -46.79297,28.125 -2.2533,-7.51514 40.8015,-28.92634 46.375,-28.25976 z m 257.57812,0.084 c 5.57351,-0.66658 48.62836,20.74463 46.375,28.25977 -8.97873,3.40735 -29.00349,-18.01906 -46.79296,-28.125 0.099,-0.0687 0.23817,-0.11327 0.41796,-0.13477 z m -252.85937,6.48242 c -23.462,17.21649 -38.28028,39.81112 -45.89258,37.1875 -3.7352,-8.3129 33.56528,-36.523 45.89258,-37.1875 z m 248.14062,0.084 c 12.32731,0.6645 49.62779,28.8746 45.89258,37.1875 -7.61227,2.62362 -22.43056,-19.97101 -45.89258,-37.1875 z m -165.50586,0.26953 c 3.2865,-0.0281 12.68837,7.09796 14.07227,14.61133 -6.6691,-3.07106 -16.69686,-10.90377 -14.07227,-14.61133 z m 82.8711,0.084 c 2.62463,3.70756 -7.40319,11.54027 -14.07227,14.61133 1.38391,-7.51337 10.7858,-14.63942 14.07227,-14.61133 z m -161.71484,5.11914 c -15.93341,12.83573 -28.00509,50.23398 -38.36719,46.15235 -4.2727,-8.25702 25.93858,-41.2 38.36719,-46.15235 z m 240.55859,0.084 c 12.42863,4.95235 42.63992,37.89532 38.36719,46.15234 -10.36214,4.08163 -22.43376,-33.31661 -38.36719,-46.15234 z m -174.73633,3.66992 c 11.893,8.43961 26.31006,19.39641 21.28516,25.52148 -8.8739,0.84442 -15.56866,-14.46145 -21.28516,-25.52148 z m 108.91406,0.084 c -5.71652,11.06003 -12.41128,26.36591 -21.28515,25.52149 -5.02484,-6.12507 9.39212,-17.08188 21.28515,-25.52149 z m -169.70898,1.70899 c -16.29884,23.68988 -18.75459,54.48416 -27.92969,52.34375 -6.9928,-5.87038 17.92566,-48.54088 27.92969,-52.34375 z m 230.5039,0.084 c 10.00408,3.80287 34.92241,46.47337 27.92969,52.34375 -9.17516,2.14041 -11.63088,-28.65387 -27.92969,-52.34375 z m -179.25781,3.70899 c 6.1097,3.73363 25.59102,26.75468 21.50781,32.04687 -5.93029,3.33565 -17.90481,-24.0866 -21.50781,-32.04687 z m 128.01172,0.084 c -3.60293,7.96027 -15.57744,35.38253 -21.50781,32.04688 -4.08317,-5.29219 15.3981,-28.31325 21.50781,-32.04688 z m -173.49805,0.63086 c -10.49717,23.47429 -8.57326,54.23722 -16.85546,55.2832 -8.7195,-2.87009 6.74889,-48.83046 16.85546,-55.2832 z m 218.98438,0.084 c 10.1066,6.45274 25.575,52.41312 16.85547,55.28321 -8.28213,-1.04598 -6.35831,-31.80892 -16.85547,-55.28321 z m -211.42383,1.92774 c -2.6517,13.43622 1.77151,56.23245 -7.43359,56.16406 -9.19052,-1.43408 1.19729,-47.44743 7.43359,-56.16406 z m 203.86328,0.084 c 6.23621,8.71663 16.6241,54.72999 7.4336,56.16407 -9.20519,0.0684 -4.78195,-42.72785 -7.4336,-56.16407 z m -176.17969,1.28711 c 4.72841,1.99705 22.63547,32.09063 17.85547,38.27735 -8.6478,3.02094 -14.94987,-29.1574 -17.85547,-38.27735 z m 148.4961,0.084 c -2.90556,9.11995 -9.20767,41.29828 -17.85547,38.27734 -4.78009,-6.18672 13.12708,-36.28029 17.85547,-38.27734 z m -167.86524,0.19922 c 5.4006,10.19891 10.2825,48.76128 1.1875,52.69726 -8.9369,-3.34695 -6.2228,-44.28535 -1.1875,-52.69726 z m 187.23438,0.084 c 5.03529,8.41191 7.74937,49.35032 -1.1875,52.69727 -9.09496,-3.93598 -4.21305,-42.49836 1.1875,-52.69727 z m -177.14453,0.24023 c 6.2618,12.42102 17.07205,43.47894 10.46875,48.91797 -6.8839,-0.83627 -11.23255,-35.5105 -10.46875,-48.91797 z m 167.05469,0.084 c 0.76381,13.40747 -3.58488,48.0817 -10.46875,48.91797 -6.60327,-5.43903 4.20695,-36.49695 10.46875,-48.91797 z m -49.23438,59.75 c 5.81485,5.88482 15.2836,8.02444 20.23633,9.99609 -13.04032,6.32013 -32.11643,21.42065 -46.07227,40.4043 -0.31916,-10.62895 24.65591,-38.29706 25.83594,-50.40039 z m -70.30664,3.29687 c 3.618,6.67376 8.03126,14.01519 11.54883,21.64063 3.02579,19.40025 -96.23334,25.27033 -81.27539,152.60547 -6.49048,16.90663 -18.18023,28.57322 -24.58399,37.51758 -11.63978,16.25771 -24.05655,35.25935 -34.78906,32.71289 -35.19621,-77.94412 18.42592,-187.51358 44.0293,-214.82227 16.16805,-6.51719 39.50121,-5.9524 63.78711,-18.25976 7.75553,-3.12268 14.9263,-6.92701 21.2832,-11.39454 z m 209.625,9.60352 c 65.31157,86.76935 44.77773,172.36173 41.34961,247.19922 6.6847,51.85624 31.76702,70.63815 47.43359,87.07226 -1.53524,2.20946 -3.08417,3.59844 -5.06836,5.62696 -49.55985,0.75045 -74.56644,6.70809 -110.50586,-15.67383 0.1097,-3.32074 0.0742,-5.85266 0.0742,-9.39258 86.0406,-100.01282 59.22194,-217.27893 -9.52343,-299.42578 11.82775,-2.76538 26.57111,-8.04704 36.24025,-15.40625 z m -347.5,1.85156 c 12.42788,7.98347 27.86959,11.3559 41.83789,12.14649 -22.97224,24.46404 -52.19065,56.99767 -62.56055,134.04492 0.86682,149.92151 36.69954,116.63754 53.32813,172.37695 -15.81354,15.71398 -46.11677,42.93944 -109.9375,12.2793 20.9221,-15.636 42.17492,-44.61292 43.7168,-89.18164 -3.07333,-52.15757 -25.3519,-157.9971 33.61523,-241.66602 z m 241.08984,7.17188 c 15.68499,2.91577 29.71211,-1.05667 47.72657,12.27539 63.01768,59.59179 83.25574,170.98242 47.625,224.94922 -47.88043,12.84494 -93.87722,59.59657 -98.70703,27.31054 21.8201,-20.98634 7.19001,-34.38366 31.65039,-45.375 46.67454,-33.39121 16.74041,-77.65612 6.84961,-109.87695 2.71793,-44.96923 -21.13453,-42.89338 -39.82032,-60.05664 -1.39801,-12.76698 -1.47664,-32.90799 3.89453,-48.32422 0.3456,-0.6072 0.57997,-0.894 0.78125,-0.90234 z m -18.38281,7.77539 c -5.09907,20.96573 -29.28422,39.91343 -37.39648,44.55859 9.14112,-19.35354 23.99258,-36.03361 37.39648,-44.55859 z M 340.0957,358.4707 c 3.16674,3.57196 4.88442,9.3558 4.06836,15.00977 -13.40681,0.70713 -32.21763,10.39443 -43.28906,10.42383 13.82598,-13.26372 29.43136,-21.11655 39.2207,-25.4336 z m 55.88086,16.75782 c -9.37326,17.75789 -24.71048,30.52334 -39.55078,41.37695 -0.29011,-3.50551 -0.44548,-6.44238 1.48242,-9.31836 15.68782,-9.45585 27.69219,-19.61045 38.06836,-32.05859 z m -51.41015,10.46289 c 1.72501,1.31928 1.43981,4.12755 -0.17579,5.21679 -20.78262,0.99403 -37.71383,10.28172 -57.36914,11.49219 6.19199,-12.77972 40.06126,-14.07109 57.54493,-16.70898 z m 52.27929,7.91015 c -3.72854,16.277 -29.34809,25.76692 -40.06445,39.33594 0.84495,-3.22376 -0.76424,-5.66289 -1.50781,-7.64844 12.32099,0.0573 29.44698,-30.83789 41.57226,-31.6875 z m 12.57618,7.4043 c 7.01675,1.30902 16.99848,8.61276 21.56445,13.64844 -1.82039,3.13215 -22.4553,4.36375 -25.65625,2.79687 2.41792,-5.0779 4.09178,-10.84767 4.0918,-16.44531 z m -66.79102,1.08398 c -0.72012,2.14259 -1.48647,4.02309 -1.57227,6.34375 -37.13345,6.52258 -52.46355,17.90795 -70.14062,14.69727 1.16947,-13.63374 56.94487,-14.60124 71.71289,-21.04102 z m 46.95898,14.19727 c -2.56565,19.98743 -27.01099,38.51839 -35.40039,43.21875 0.0818,-4.87369 0.88718,-10.70074 2.27539,-14.9375 10.59629,-3.54087 23.05993,-16.61059 33.125,-28.28125 z m -68.66796,7.66797 c -0.20543,0.2475 -0.56441,0.44922 -0.79688,0.44922 -14.27023,10.78572 -37.24911,9.90441 -53.08984,15.30078 -0.795,0 -0.95946,-0.44199 -0.26368,-0.70899 0.28024,-0.10755 0.44922,-0.56531 0.44922,-1.21289 0.50886,-4.84022 47.39256,-13.53344 53.70118,-13.82812 z m 105.63281,1.25976 c 9.91439,-0.13185 18.83311,3.10906 21.44531,10.24024 -8.00885,7.76088 -16.36344,7.38322 -22.49023,4.7793 -6.12678,-2.60393 -13.9535,-6.18434 -28.75977,-2.33008 6.05448,-8.05878 18.56838,-12.54002 29.80469,-12.68946 z m -88.57617,9.99024 c 0.90061,3.64812 0.88378,10.08934 -0.55664,14.61523 -5.19748,9.25036 -29.02255,14.73675 -35.53711,15.08399 10.50722,-8.94548 22.37112,-22.57963 36.09375,-29.69922 z m -39.34375,9.46875 c 1.05795,0.0162 1.63844,4.83655 0.4414,6.14453 -19.31648,12.08502 -19.01503,31.99241 -36.74414,47.01172 -0.48714,0.76239 -0.69754,0.33678 -0.51953,-1.05078 2.85451,-16.00357 0.008,-30.84889 3.45898,-46.35157 13.5051,2.31944 19.76817,-5.36225 33.14649,-5.68945 0.0744,-0.0441 0.14627,-0.0655 0.2168,-0.0644 z m 110.53906,4.44531 c 2.23296,-0.024 4.13067,0.21008 5.54297,0.95117 1.28447,2.96555 1.01314,8.37303 1.0039,11.36719 1.05046,47.10058 -42.31031,40.61264 -54,9.77734 5.09171,-6.4637 17.3038,-8.49192 22.27149,-21.61523 8.75739,1.98829 18.48275,-0.4086 25.18164,-0.48047 z m 33.99805,0.48828 c 2.0126,-0.0123 4.22854,0.35915 6.86718,1.37696 -4.60761,8.46273 -15.71039,4.91242 -24.58203,6.83984 0.66957,-0.66174 -0.18969,-4.38143 -0.80078,-4.72852 8.27324,0.0508 12.47779,-3.45126 18.51563,-3.48828 z m -36.53126,4.29883 c -4.79637,0.27794 -8.72581,4.26849 -9.38085,8.18359 7.6538,12.09561 21.9174,1.12014 14.37695,-7.08398 -1.70235,-0.87282 -3.39728,-1.19226 -4.9961,-1.09961 z m -17.21874,0.53906 c -0.2186,-0.003 -0.44159,0.006 -0.66993,0.0254 -12.56427,1.79582 -9.7671,16.01912 -0.0312,14.625 9.46235,-4.06042 7.47729,-14.55787 0.70118,-14.65039 z m -51.16993,8.66016 c 0.36531,2.4416 -0.28931,8.15008 -2.50781,9 -14.71315,5.24175 -27.65022,11.82 -47.28711,10.79883 0.87457,-3.41709 4.86781,-5.77959 7.43945,-8.2168 12.82093,-1.56787 29.35611,-3.18584 42.35547,-11.58203 z m 102.30274,0.94336 c 4.7048,0.009 9.93017,1.17567 13.5332,2.30078 -5.09242,3.20872 -11.99301,4.99348 -17.83398,3.51562 -3.30414,-0.80122 -6.01835,-0.26225 -9.82422,-0.58984 -1.68906,-0.59149 0.6919,-2.67084 1.63281,-3.92187 3.03599,-1.86955 4.29821,0.25518 8.04102,-0.88282 1.37335,-0.29842 2.8829,-0.42491 4.45117,-0.42187 z m -68.07422,1.75586 c -2.70082,0.47135 -6.14524,1.82081 -4.92383,4.78711 6.47879,13.69178 21.68945,-1.98242 4.92383,-4.78711 z m 32.29492,5.40039 c -8.73812,-0.25254 -11.13741,7.44229 -7.45703,13.85156 14.61793,3.47972 21.79713,-14.33324 7.45703,-13.85156 z m -18.1543,4.5 c -10.08914,0.90848 -9.59931,8.98224 -0.59961,12.68554 10.10958,1.16713 10.02123,-12.32953 0.59961,-12.68554 z m 45.38868,1.54883 c 5.92596,0.0583 5.77122,1.47527 9.94335,1.58789 4.56392,0.12318 10.03347,0.003 13.46876,3.21093 -3.79422,6.79885 -16.08676,-0.81096 -28.26758,-2.3164 -0.0554,-0.4872 -0.0711,-2.06464 -0.34571,-2.27344 2.143,-0.16412 3.83365,-0.22243 5.20118,-0.20898 z m -81.46485,1.15429 c 3.16335,6.31897 6.35952,14.26304 25.86524,26.09766 -0.33569,9.82278 -3.49734,18.41464 4.08203,23.99023 8.39341,-5.40517 0.67949,-14.11699 5.86133,-19.91797 3.75217,6.8672 -3.56487,25.37779 9.72656,30.57422 7.23501,-7.54778 -1.46,-20.46333 0.95508,-26.09765 0.0794,0.33 0.26703,0.72801 0.41601,0.88476 6.42288,7.92511 -0.95849,27.61222 17.00977,28.90625 5.36884,-12.16264 -3.90058,-23.5382 -5.22461,-31.95508 11.85658,7.38782 9.38394,27.8784 27.12695,25.5879 1.03358,-13.02817 -11.73486,-23.11833 -20.54101,-29.61524 15.63592,1.1166 14.96906,17.4603 34.19726,17.62695 -4.94817,-21.34266 -22.82139,-17.97881 -29.79883,-25.76757 0.50803,-1.12475 1.83722,-1.82896 2.26758,-1.93164 10.93929,7.16199 28.83878,9.04015 33.4336,16.18554 -3.86199,34.82021 -28.87714,45.12081 -66.93555,28.90625 -18.52091,-18.32557 -31.57224,-43.88305 -43.16602,-50.87695 0.62523,-6.51176 0.83987,-9.79566 4.72461,-12.59766 z m 76.68164,7.25196 c 11.6389,9.43993 29.33056,2.22739 32.86914,13.8164 -7.13136,6.67144 -29.34309,-10.13705 -34.78711,-9.44726 0.31906,-1.20088 1.13207,-3.67644 1.91797,-4.36914 z m -97.00586,0.40429 c -4.48477,9.43286 -27.8216,22.99653 -56.20703,17.99024 3.54418,-2.49803 7.30938,-5.65665 9.70508,-9.45899 14.10689,-5.13432 31.67178,-0.19088 46.50195,-8.53125 z m 7.63477,14.95508 c 3.4204,2.72645 9.39659,10.61182 12.27148,14.28516 -10.07809,3.65116 -23.9002,4.98954 -35.11718,-0.1875 7.5354,-3.67196 15.7545,-7.50566 22.8457,-14.09766 z m -52.13672,21.18945 c 1.71696,-0.0415 3.31684,0.12503 4.52344,0.62696 30.85301,21.85959 67.28792,0.22041 74.71484,8.30468 0.82775,1.39626 0.60894,4.81352 -1.08203,4.86524 -31.91402,14.31247 -80.63849,10.50149 -88.24805,-11.82813 1.96964,-0.77648 6.31449,-1.87747 10.0918,-1.96875 z m -28.89063,1.83985 c 14.70162,23.06991 33.20924,33.61099 77.29297,32.20703 12.64822,-1.56754 36.04226,-12.09143 48,-5.40039 -32.09936,7.29983 -38.84577,15.45364 -54.36328,15.19336 -39.57609,-8.80042 -80.31081,-4.39699 -129.91601,27.79101 l -5.45703,-7.15429 c 20.54387,-11.69316 50.78796,-60.20615 64.44335,-62.63672 z m 142.29493,35.9707 c 8.75707,-0.0329 16.52893,1.95664 21.41797,7.28711 -0.833,3.13849 -1.78343,7.19574 -3.37891,10.63867 -15.48902,-4.22733 -30.22899,-11.63993 -56.28125,-1.08008 -2.64666,-0.85454 -6.24038,-2.3615 -9.50977,-3.71484 10.72114,-5.63368 31.03391,-13.06797 47.75196,-13.13086 z m -106.40235,18.0957 c 2.57566,-0.0201 5.4441,0.4116 5.99219,2.84961 -2.57706,5.52113 -8.50788,7.49443 -12.85937,16.29883 -1.34201,2.57962 -6.94182,-0.41275 -9.91797,-0.0586 1.43167,-6.12829 7.70675,-13.60761 13.02929,-18.90039 0.76903,-0.003 2.21047,-0.17741 3.75586,-0.18946 z m 20.82813,1.18946 c 2.6636,0.0549 5.64651,0.78659 8.125,1.21484 -0.0529,1.51846 -2.67315,3.59916 -4.05274,5.46485 -4.60929,4.15417 -9.03204,17.73621 -13.30859,18.87109 -2.90592,-1.09323 -5.51389,-0.89058 -8.2832,-2.24609 0.72661,-3.934 11.67015,-19.10151 14.99218,-23.09766 0.78624,-0.16836 1.63948,-0.22535 2.52735,-0.20703 z m -41.66016,0.87109 c 0.21681,0.002 0.43111,0.0168 0.64453,0.043 -3.61562,3.42405 -5.32378,9.32591 -7.47265,14.82617 -1.18951,0.002 -5.37337,-1.29714 -8.91602,-0.74023 0.81867,-3.11579 9.02312,-14.19941 15.74414,-14.12891 z m 116.23633,1.96094 c 7.82235,0.16769 15.87214,2.16607 22.30273,6.02148 2.76999,3.75345 -9.39912,12.19059 -9.92578,18.56055 0.0798,0.70773 0.0605,1.28044 -0.043,1.27344 -9.54777,-14.1878 -15.08157,-3.37317 -29.30468,-22.9375 4.93995,-2.07138 10.88665,-3.0484 16.9707,-2.91797 z m -138.91992,0.66797 c -0.14983,3.62343 -4.35044,8.91657 -7.84766,12.07617 -7.25875,2.51965 -18.04233,3.26573 -24.10351,2.76562 9.61064,-4.4251 22.6958,-9.08049 31.95117,-14.84179 z m 89.41992,2.6582 c 1.43529,0.0218 2.89907,0.3167 4.38281,0.94141 0.37145,5.44169 -10.64149,10.09414 -15.39648,21.50781 -3.38145,1.27268 -10.28127,-1.45987 -12.31445,-2.125 4.61365,-7.24049 13.28111,-20.4765 23.32812,-20.32422 z m 20.39453,10.38477 c 3.43506,-0.17236 7.56368,2.33305 13.50195,8.625 0,0.12825 -0.15252,0.23242 -0.33984,0.23242 -11.34104,8.2612 -11.90603,18.58414 -29.73242,9.18554 7.04519,-10.03034 10.84522,-17.7557 16.57031,-18.04296 z m -103.24414,7.91406 c 1.46179,0.0874 3.16271,0.81279 4.27344,1.4668 3.67464,12.49438 7.68906,48.64357 14.67187,62.47265 -3.21988,-0.591 -6.71917,-0.67597 -9.45508,-1.49609 -1.42263,-3.90514 -13.00982,-48.21501 -11.68359,-61.75781 0.52565,-0.56006 1.31629,-0.73799 2.19336,-0.68555 z m 15.94531,2.44336 c 3.43332,0 6.05896,1.92627 9.30078,3.59961 3.44945,20.33284 10.77192,48.3656 20.54102,68.51953 -4.32451,-2.07727 -11.54358,-2.64184 -15.44141,-6.38281 -2.55132,-18.90782 -10.21978,-42.54072 -14.40039,-65.73633 z m -32.30859,0.082 c 0.65313,0.0459 1.70898,0.86169 1.70898,1.41601 3.98009,14.597 5.80952,34.4987 11.08594,48.90235 -3.28021,-0.0159 -5.21763,0.65334 -7.69726,-0.85156 -2.17878,-16.33396 -2.68917,-32.63174 -6.98829,-46.22852 0,-0.74847 1.1645,-3.02433 1.64063,-3.20703 0.0726,-0.0279 0.1567,-0.0378 0.25,-0.0312 z m -11.79102,1.71875 c 0,14.75289 3.79447,31.9401 9.90039,46.79883 -3.25992,0 -5.50104,0.53588 -9.96093,-1.37305 -1.02233,-15.76552 -3.34872,-31.14623 -17.20117,-40.47461 4.47721,-2.3087 11.32085,-4.98007 17.26171,-4.95117 z m 64.30274,2.60937 c 2.4099,1.71565 6.46259,1.38247 8.89062,4.04688 1.84468,17.62361 10.69355,41.97239 25.55274,64.20898 0.4737,0.15789 0.41608,6.42698 -0.0645,7.00586 -1.24321,0.41612 -4.23749,-0.82145 -6.20507,-0.92968 -13.06871,-9.96338 -24.62672,-52.86591 -28.17383,-74.33204 z m 199.60937,0.98829 c -6.95275,10.70765 -19.46633,21.1952 -33.04882,28.6875 -13.5825,7.4923 -28.23389,11.98935 -39.4629,10.71679 9.74169,-10.57782 22.06632,-18.73994 35.9043,-20.20898 5.73316,0.20239 20.57361,-9.09724 36.60742,-19.19531 z m -179.35937,4.01953 c 3.58917,0.10402 9.88678,2.9492 10.85742,5.94531 3.55623,19.32276 12.40812,40.83591 23.91602,59.00586 -0.31035,2.47478 -5.54176,4.95279 -7.83789,3.40625 -10.53472,-20.30201 -21.15135,-44.6453 -28.28516,-68.22656 0.37878,-0.10456 0.83687,-0.14572 1.34961,-0.13086 z m 71.61328,2.1582 c 0.63337,0.0122 1.3007,0.0514 2.00586,0.12305 -3.08031,4.80833 -11.12522,12.41569 -18.25,8.74609 4.95542,-2.87592 6.74353,-9.0523 16.24414,-8.86914 z m 115.48437,2.32422 c -17.59041,52.27109 -74.08615,63.98473 -103.51953,56.29883 -0.42082,-1.25835 1.23436,-1.75774 2.11914,-2.68946 33.97737,2.50255 71.09913,-11.78386 81.41993,-30.85546 -1.63427,-1.01717 -4.30607,-1.11526 -5.24805,-2.39258 8.96499,-5.41264 17.99661,-14.23155 25.22851,-20.36133 z m -162.5625,6.41992 c 2.31636,0.19384 7.37737,3.13917 8.73829,3.94922 3.96789,9.51308 11.55728,36.85445 17.625,49.03906 0.12527,1.83991 -2.54397,2.51884 -4.54297,1.40039 -5.74829,-8.49055 -19.90347,-42.06278 -22.98242,-53.48437 -0.076,-0.72753 0.38999,-0.96891 1.1621,-0.9043 z m 64.76758,5.33984 c 3.826,0.0299 7.73388,1.5705 10.94532,5.39844 -2.16688,2.18249 -5.25933,5.12596 -7.47852,8.54102 -8.98996,0.44643 -10.43905,-2.52097 -18.32227,-5.09961 2.32772,-4.74347 8.47881,-8.88967 14.85547,-8.83985 z m -41.08203,4.29688 c 2.54321,0.27408 4.13285,2.19203 6.11328,3.34375 3.6371,3.73642 9.47297,28.08372 12.76367,33.49023 1.46561,0.62768 -7.94019,5.10802 -9.42773,4.91993 -2.92673,-12.36842 -2.90161,-24.65807 -9.49023,-35.43164 -0.52902,-1.75321 0.13054,-4.30915 0.041,-6.32227 z m 105.54492,8.6582 c 0.61138,-0.007 0.63189,0.10355 0.44141,0.45899 -12.64639,9.70944 -27.84243,22.76716 -60.48633,21.25781 2.87492,-1.80548 4.78402,-3.9006 7.09766,-6.33203 24.02542,1.14581 31.14398,-2.69133 50.38476,-15.25391 0.27577,-0.0234 2.30337,-0.11861 2.5625,-0.13086 z m -82.14062,3.68555 c 5.30797,1.88782 10.56392,5.31071 14.03906,9.9668 -1.66938,2.7814 -7.197,3.6215 -10.16797,7.13281 -0.0544,-4.11281 -5.96121,-15.17863 -3.87109,-17.09961 z m 106.9414,10.77539 c 9.74799,6.98676 15.77852,8.0293 23.08204,15.37109 -20.92405,7.99781 -28.28451,19.99212 -24.30079,33.10547 2.59665,9.45699 2.72575,8.75662 0.19922,17.71875 -42.00437,18.75393 -105.39689,-14.27426 -124.05664,-26.57226 -0.28728,0 -0.6846,-0.16117 -0.88281,-0.35938 5.85419,-5.76038 15.46429,-4.48729 20.76758,-10.03711 56.61625,3.20919 52.88795,-6.81766 64.85156,-5.71679 17.26668,-5.94861 30.23809,-16.44378 40.33984,-23.50977 z m -271.09961,3.62305 c 7.12361,1.90976 13.78041,3.62976 21.70899,3.60156 7.51149,12.47315 20.57872,16.97156 37.37891,17.54883 17.69526,12.21945 23.92257,13.78228 53.89257,15.12109 -19.82643,15.29193 -84.34754,38.26341 -114.89062,20.4707 10.95439,-17.87394 0.51114,-31.80175 -15.60938,-46.39062 5.13769,-3.03381 12.4374,-6.06874 17.51953,-10.35156 z m 10.9004,7.08984 c -0.33265,-0.003 -0.66451,0.0334 -0.99219,0.11133 -3.00349,0.68944 -6.82895,2.69127 -7.32813,6.1543 0.96125,5.71826 8.94965,8.72477 13.94727,6.44531 4.57628,-3.98923 -0.63725,-12.6691 -5.62695,-12.71094 z m 249.46289,1.29688 c -7.9772,2.7927 -8.70331,5.95154 -7.58203,12.38671 7.28235,11.19839 21.21917,-12.49478 7.58203,-12.38671 z m -18.75196,10.72851 c -6.57967,-0.22469 -14.68417,6.44918 -9.86328,13.28516 8.75802,5.33087 17.50593,0.52167 16.53321,-8.07031 -1.00395,-3.58601 -3.67917,-5.11271 -6.66993,-5.21485 z m -209.78125,0.55274 c -4.84508,-0.21976 -11.18341,5.62443 -8.2207,14.5332 4.53043,0 13.27267,1.03667 14.07227,-5.26172 0.33236,-4.02172 0.44474,-8.83097 -4.90625,-9.14453 -0.30654,-0.0694 -0.62231,-0.1123 -0.94532,-0.12695 z m 21.33399,10.88476 c -0.44373,-0.0348 -0.89026,0.0132 -1.33008,0.1582 -2.96224,0.70398 -9.14385,4.22601 -8.30273,7.58204 1.87871,2.77758 3.78291,6.44778 7.95507,5.80859 2.57488,-0.008 7.50949,-2.82359 7.79493,-5.92383 -0.0144,-3.10684 -3.01113,-7.38175 -6.11719,-7.625 z m 163.41211,2.50586 c -8.70877,-0.31531 -3.91416,11.09308 2.10156,11.91406 10.13471,-1.72742 7.62895,-10.0995 -0.17578,-11.6875 -0.70425,-0.13183 -1.3452,-0.20554 -1.92578,-0.22656 z m -186.125,7.45508 c -3.04734,-0.0754 -5.67443,1.53578 -5.4961,5.75195 0.006,4.61437 5.77538,6.88786 10.94922,6.69727 7.71326,-6.01768 0.36453,-12.30524 -5.45312,-12.44922 z m 208.04687,0.62891 c -1.84683,0.0631 -3.66715,0.55394 -5.14258,1.53906 -2.22926,9.32515 0.23043,12.54668 11.48633,11 7.19021,-7.54492 0.25209,-12.7644 -6.34375,-12.53906 z m 21.95313,5.59765 c -6.7483,0.2781 -11.62621,8.9515 -5.71094,12.13086 11.78733,4.76623 19.4543,-10.84166 7.08203,-12.07031 -0.46388,-0.0602 -0.92121,-0.0791 -1.37109,-0.0605 z"
       id="path3347-6-5"
       inkscape:connector-curvature="0"
       sodipodi:nodetypes="cccccccccccccccccccccccccscccccccccccccccsccccccccccccccccccccccccccccccccccssccccccccccccccccccccccccccccccccccsccccccccccsccccccccccccccccccccccccccccccccccccccccccccccccccccccccccccccccccccccccccccccccccccccccccccccccccccccccccccccccccccccccccccccccccccccccccccccccccccccccccccccccccccsccscccsccccccccccccccccccccscsccccccccccccccccccccccsccccccccscscccccccccccccccccccccccccccsccscsccccccccccsccccssccccscccccccccccssccccccccccccccsccccsccccscccccccccccccccccsccccccscccsccccsccccccccccscccccscccsccccccccccccccccccccccccccccccccsccccccccccssccccccccscsscssccssccsccccscccscccsccccccc"
       inkscape:export-xdpi="14.227569"
       inkscape:export-ydpi="14.227569" />
    <path
       style="fill:#000000;fill-opacity:1"
       d="m -480.71807,63.752793 c 0.822,-0.0237 1.6929,0.008 2.6133,0.0996 23.4695,14.25929 43.1002,32.53768 78.8105,30.7461 22.8578,0.51431 39.07,1.53445 62.91017,2.5996 20.5593,-1.36288 34.5593,3.514617 55.625,6.359377 33.5487,-4.256217 72.6892,-14.347127 115.9942,-8.119137 24.3657,-0.95502 36.8199,-0.73859 72.894501,-25.4336 17.1398,-0.2412 19.2235,17.51204 19.9375,29.38868 -3.0788,19.851527 -15.6203,33.310277 -21.1641,48.578117 2.4828,21.38253 41.2834,48.69743 -5.289,118.24219 -182.457001,193.15491 -363.057461,17.04204 -374.562571,6.41429 -17.6558,-31.64262 -30.8984,-63.71013 -4.6386,-128.23242 6.2671,-1.76975 -17.0098,-12.85897 -16.6465,-45.449217 -0.3696,-21.67691 1.1854,-34.83771 13.5156,-35.19336 z m -0.2031,12.41212 c -3.6876,21.20361 3.5714,45.724797 13.6992,56.439437 3.3035,4.24309 22.3446,11.03058 49.0293,10.59375 31.7618,0.30466 72.56367,-0.22025 97.15627,24.1836 11.7894,9.96784 28.9702,27.17454 36.2949,45.5 -2.466,16.78233 -14.1904,32.71183 -25.3809,46.88672 19.8573,51.12934 28.2532,44.84112 53.8281,-0.68555 -3.0738,-0.58909 -21.5997,-28.17081 -25.789,-46.43555 7.2979,-18.2332 17.6806,-29.82761 37.6679,-47.11132 51.5446,-35.04431 122.8328,-11.45747 143.3829,-31.37891 8.978401,-12.9415 16.285501,-32.46114 17.423801,-41.281247 0.032,-3.23959 -1.4817,-8.50473 -4.957,-8.48633 -24.021801,14.84568 -40.540701,20.534857 -64.894501,23.130857 -0.7219,0.59905 -34.5692,0.56168 -35.293,-0.0391 -27.3148,-0.18486 -42.8368,4.09911 -61.3614,5.39258 -8.3276,2.6552 -20.514,9.81765 -30.125,10.69335 -16.6435,-1.15882 -38.4297,-13.89181 -58.4648,-14.83203 -46.69187,-2.9389 -105.81297,6.0419 -142.21677,-32.570297 z m 377.66997,74.189437 c -3.0527,0.11905 -3.6137,0.47485 -6.7383,0.88868 -0.2517,0.008 -0.3352,0.20063 -0.2188,0.5039 0.2566,6.70606 -0.6034,15.6073 1.086,19.55664 1.7358,1.44889 6.6869,7.94803 0.7187,14.6875 -0.8751,0.3844 -0.8181,2.39295 0.4219,2.94922 4.4538,3.93922 2.8218,8.5945 -0.3399,10.42383 -0.7334,0.60024 -1.3669,1.85927 -1.0996,2.5625 4.3175,6.64281 2.0388,12.46692 -4.6855,13.24023 -1.5044,0.5473 -3.3254,1.8796 -2.5137,4.49024 2.7143,6.15918 0.7224,10.61153 -6.9512,9.91015 -0.8073,0.4624 -1.5569,0.95527 -1.0117,2.68946 3.1131,9.60099 -4.375,11.51108 -8.8496,9.44922 -0.575,0.0586 -0.9748,-0.32055 -1.3379,0.91992 0.7108,5.84217 -3.8966,12.4181 -13.3828,7.29297 -0.7981,-0.14739 -1.8224,0.16045 -1.623,0.89843 0.6201,8.26781 -12.1018,8.91523 -14.127,1.69727 0,0 -1.0115,-1.51439 -2.0976,0.75781 -1.2506,5.69383 -6.4656,11.63576 -14.3711,2.36133 -0.8859,-0.4961 -0.9449,-0.30417 -1.8086,0.0156 -5.5944,4.77603 -8.6755,3.89371 -13.043,-1.23633 -0.7748,-2.02683 -2.9579,-2.14216 -3.6094,-0.31445 -4.6867,2.63715 -9.8123,1.18194 -11.0293,-3.07618 -2.8083,-2.67957 -2.5818,-1.53023 -5.0059,-1.55273 -4.9573,1.86944 -8.0811,-1.68616 -7.7363,-3.66602 -0.9553,-2.46155 -2.9195,-3.30777 -5.1973,-3.92968 -5.4702,0.99863 -6.8374,-1.02879 -8.164,-5.61915 -2.0352,-2.38736 -1.1238,-3.0297 -4.2852,-3.77929 -4.9406,-1.17148 -7.2457,-3.47266 -7.6641,-8.50781 -2.2041,-2.62443 -2.2539,-2.08942 -4.1152,-5.35352 -4.4574,-0.56062 -6.8014,-4.75031 -5.8965,-8.16992 -0.7915,-1.85711 -3.0219,-6.96229 -3.6386,-9.08789 -2.7152,4.63776 -6.0465,9.83198 -6.5684,15.49609 0.029,9.034 25.2308,38.19218 29.5547,42.4043 95.878,59.31354 187.778101,-5.28223 135.3282,-108.90235 z m -358.93757,0.14454 c -2.0525,-0.0316 -3.9948,0.43295 -5.8945,1.53515 -7.5109,10.0339 -12.5038,29.17506 -13.1113,42.45313 -3.0864,108.81659 116.259,87.33917 157.39447,60.50586 13.0167,-8.8988 23.6858,-30.20824 28.668,-41.06055 -2.0163,-2.8327 -6.4109,-12.48752 -8.9102,-11.87695 -2.8686,5.33018 -3.8818,7.74032 -9.2207,13.26953 1.413,5.47593 -0.7008,9.87566 -7.0293,8.6875 -1.2998,-0.13993 -3.3238,1.96166 -2.752,3.21679 3.9935,7.34651 -3.2109,11.24203 -8.2929,8.47852 -1.0481,-0.48582 -3.2795,-0.12103 -3.5449,2.57031 1.2841,7.29173 -4.1612,10.62798 -10.9922,7.9668 -1.9072,-0.53843 -3.928,0.0788 -4.3125,2.14062 -0.6537,14.85182 -12.96857,10.14743 -14.60937,6.20313 -1.3773,-1.75053 -2.7946,-1.97197 -3.8203,-0.0547 -1.0331,10.40083 -13.135,11.40588 -15.6153,1.04688 -0.1575,-0.59231 -1.5907,-0.75616 -1.7558,-0.0352 -2.9303,13.3192 -16.0253,9.12013 -13.918,-3.26562 0.1967,-0.79206 -0.6972,-1.54961 -1.334,-0.43555 -4.5191,10.31863 -16.4199,12.13128 -14.5136,-3.66211 0.052,-1.14973 -0.787,-1.38522 -1.4473,-0.74609 -8.4558,8.68125 -18.0761,6.19998 -14.5918,-6.4668 -0.011,-1.85181 -0.8397,-2.53291 -2.6934,-1.63281 -18.7737,7.74278 -10.2338,-12.44545 -10.6113,-11.33008 0.1282,-1.36464 -0.3776,-1.98323 -1.7637,-1.58008 -11.2957,2.70243 -14.5298,-4.34501 -8.2734,-11.80664 1.0659,-1.94592 1.0667,-2.16127 -0.7051,-3.13086 -5.4582,-0.64482 -10.2308,-4.8372 -2.8926,-12.12109 0.9959,-1.47106 0.7049,-1.64819 -0.5078,-2.44336 -7.1604,-2.85829 -4.979,-9.87817 0.1973,-11.87891 0.797,-0.83194 0.8085,-1.43725 -0.291,-2.10937 -5.9815,-2.0965 -7.0312,-9.31129 1.0625,-12.01172 0.936,0 1.2463,-0.88793 0.5508,-1.39649 -3.2949,-2.43913 -0.6674,-5.8894 1.9238,-6.57226 0.665,0 0.8241,-10.81173 0.1621,-11.01563 -2.3393,-0.88219 -4.5022,-1.4098 -6.5547,-1.4414 z m 82.1445,2.01422 c -4.558,-0.0699 -25.2497,2.17748 -28.6484,5.25921 1.8,11.82626 8.9292,25.62234 17.6738,33.98438 24.0399,14.16944 53.80537,0.57877 62.58207,-18.48438 -15.8272,-13.39206 -27.12,-18.85795 -51.60747,-20.75921 z m 207.96877,5.04242 c -7.3442,0.002 -14.7338,0.0977 -14.9218,0.28515 -16.2986,2.85909 -30.146,8.85837 -45.4669,18.10547 3.2614,8.20346 8.3635,16.31864 17.291,21.21094 0.4177,0 0.8367,0.20172 0.9317,0.44922 11.7318,3.70056 29.4465,1.59199 36.0117,-0.44922 9.6095,-10.56013 19.2329,-25.23031 20.7969,-39.32617 0,-0.18738 -7.2983,-0.27763 -14.6426,-0.27539 z m -249.74607,3.13671 c -13.6085,0.10718 -35.8933,2.53876 -34.9941,6.36329 1.5959,2.72912 14.9075,-1.6181 40.3574,-6.33985 -1.6066,-0.0291 -3.4192,-0.0387 -5.3633,-0.0234 z m 293.10937,0.83399 c -11.0772,0.11747 -23.6373,1.78503 -23.332,6.42383 3.1202,5.03597 32.2706,0.0887 38.5703,-5.26953 -2.4809,-0.73803 -8.592,-1.22478 -15.2383,-1.1543 z m -287.61827,4.90513 c -12.8524,-0.23266 -44.1549,5.72402 -44.464,11.20424 3.6611,3.84837 19.282,-5.67892 44.464,-11.20424 z m 0.2941,5.59292 c -13.4744,-0.24696 -41.1091,9.44633 -44.9395,19.95117 6.6829,2.01309 28.8496,-16.38787 46.1992,-19.89649 -0.4039,-0.029 -0.8251,-0.0467 -1.2597,-0.0547 z m 282.95697,2.1582 c -7.0135,-0.0355 -14.6583,0.28124 -21.3066,0.55664 16.7654,6.43052 43.0883,11.20354 43.5781,4.38477 -0.6465,-3.84349 -10.5823,-4.88218 -22.2715,-4.94141 z m -279.84767,4.55664 c -5.5735,-0.66658 -48.6283,20.74463 -46.375,28.25977 8.9788,3.40735 29.0035,-18.01906 46.793,-28.125 -0.099,-0.0687 -0.2382,-0.11327 -0.418,-0.13477 z m 257.20117,3.52734 c 19.1893,7.90173 44.505,16.83593 45.6661,11.79297 -0.506,-5.68023 -20.1892,-7.37246 -45.6661,-11.79297 z m -90.6602,1.2168 c -2.8549,1.89465 -9.743,10.30987 -10.7148,14.33984 2.3381,1.3356 22.6073,-14.19736 10.7148,-14.33984 z m -161.82217,1.82227 c -12.3273,0.6645 -49.6278,28.8746 -45.8926,37.1875 7.6123,2.62362 22.4306,-19.97101 45.8926,-37.1875 z m 82.63467,0.35351 c -2.6246,3.70756 7.4032,11.54027 14.0723,14.61133 -1.3839,-7.51337 -10.7858,-14.63942 -14.0723,-14.61133 z m 167.795,2.61914 c 19.0516,12.70827 42.4848,24.7013 45.2109,20.68555 3.1458,-7.03739 -24.8475,-12.32476 -45.2109,-20.68555 z m -246.63867,2.58399 c -12.4286,4.95235 -42.6399,37.89532 -38.3672,46.15234 10.3621,4.08163 22.4338,-33.31661 38.3672,-46.15234 z m 169.22847,1.92187 c -4.4004,-0.3983 -20.0055,13.28422 -17.5723,18.67383 2.5449,3.88513 16.5295,-4.53697 17.5723,-18.67383 z m 74.795,0.3125 c 9.8356,13.21383 35.5476,34.04324 39.1504,30.76758 2.1737,-5.23892 -23.8143,-22.58719 -39.1504,-30.76758 z m -178.2012,1.51953 c 5.7165,11.06003 12.4112,26.36591 21.2851,25.52149 5.0249,-6.12507 -9.3921,-17.08188 -21.2851,-25.52149 z m -60.79497,1.79297 c -10.004,3.80287 -34.9224,46.47337 -27.9296,52.34375 9.1751,2.14041 11.6308,-28.65387 27.9296,-52.34375 z m 235.34377,2.0918 c -0.8986,0.59249 30.7477,43.05246 34.9063,38.28125 1.9939,-5.84709 -27.6907,-33.51541 -34.7168,-38.20508 -0.099,-0.071 -0.1605,-0.0953 -0.1895,-0.0762 z m -184.0977,1.70117 c 3.603,7.96027 15.5775,35.38253 21.5078,32.04688 4.0832,-5.29219 -15.3981,-28.31325 -21.5078,-32.04688 z m 123.8164,0.22656 c -3.9344,1.56479 -19.6959,21.53004 -18.1308,25.92383 5.3212,2.71339 18.8493,-18.06486 18.1308,-25.92383 z m -169.30267,0.48828 c -10.1066,6.45274 -25.575,52.41312 -16.8555,55.28321 8.2822,-1.04598 6.3583,-31.80892 16.8555,-55.28321 z m 7.5606,2.01172 c -6.2363,8.71663 -16.6241,54.72999 -7.4336,56.16407 9.2051,0.0684 4.7819,-42.72785 7.4336,-56.16407 z m 216.94337,0.0137 c 4.2552,9.22949 21.2557,45.53563 27.5703,42.46094 4.3993,-4.58627 -20.727,-34.4805 -27.5703,-42.46094 z m -189.2599,1.35743 c 2.9056,9.11995 9.2077,41.29828 17.8555,38.27734 4.7801,-6.18672 -13.1271,-36.28029 -17.8555,-38.27734 z m -19.36907,0.2832 c -5.0353,8.41191 -7.7494,49.35032 1.1875,52.69727 9.095,-3.93598 4.2131,-42.49836 -1.1875,-52.69727 z m 10.0898,0.32422 c -0.7638,13.40747 3.5849,48.0817 10.46877,48.91797 6.6033,-5.43903 -4.20697,-36.49695 -10.46877,-48.91797 z m 151.63477,0.86914 c -7.7547,8.76963 -16.2467,26.34494 -14.4492,29.93359 6.9209,3.14778 16.1706,-27.38265 14.4492,-29.93359 z m 41.2618,0.54687 c 1.906,6.41868 13.5163,49.84832 18.9707,45.54883 7.1545,-1.81728 -13.5753,-36.12282 -18.9707,-45.54883 z m -7.7735,0.85743 c 1.2666,5.33845 3.8814,47.90694 9.3203,46.9082 6.077,-1.38975 -5.0732,-39.39669 -9.3203,-46.9082 z m -24.2246,0.96484 c -3.4469,2.94252 -15.4261,34.81738 -11.1504,35.77734 6.4728,1.4235 11.4844,-30.70678 11.1504,-35.77734 z m 16.1836,0.0898 c -0.6332,11.57348 -3.0818,43.55537 1.8164,44.69922 5.757,-1.24788 1.6215,-33.43507 -1.8164,-44.69922 z m -8.6972,0.4375 c -2.574,7.31132 -9.3088,38.56139 -4.3594,40.21485 5.8263,0.18274 7.2527,-29.07349 4.3594,-40.21485 z"
       id="path3347-6"
       inkscape:connector-curvature="0"
       sodipodi:nodetypes="cccccccccccccccccccccccccccccccccccccccccccccccccccccccccccscccccccsccccccccccccccccccccccccccccccccccssccccccccscccsccscccscccccscsccsccccccccccccccccccccccccccccccccccccccccccccccccccccccccccccccccccccccccccccccccccccccc"
       inkscape:export-xdpi="30.768929"
       inkscape:export-ydpi="30.768929" />
    <path
       style="fill:#000000;fill-opacity:1"
       d="m -483.32546,376.11832 c 0.822,-0.0237 1.6929,0.008 2.6133,0.0996 23.4695,14.25929 43.1002,32.53768 78.8105,30.7461 22.8578,0.51431 39.07,1.53445 62.91017,2.5996 20.5593,-1.36288 34.5593,3.51462 55.625,6.35938 33.5487,-4.25622 72.6892,-14.34713 115.9942,-8.11914 24.3657,-0.95502 36.8199,-0.73859 72.894504,-25.4336 17.1398,-0.2412 19.2235,17.51204 19.9375,29.38868 -3.0788,19.85153 -15.6203,33.31028 -21.1641,48.57812 2.4828,21.38253 41.2834,48.69743 -5.289004,118.24219 -191.45243,94.20519 -364.33078,3.03555 -374.56257,6.41429 -17.6558,-31.64262 -30.8984,-63.71013 -4.6386,-128.23242 6.2671,-1.76975 -17.0098,-12.85897 -16.6465,-45.44922 -0.3696,-21.67691 1.1854,-34.83771 13.5156,-35.19336 z m -0.2031,12.41212 c -3.6876,21.20361 3.5714,45.7248 13.6992,56.43944 3.3035,4.24309 22.3446,11.03058 49.0293,10.59375 31.7618,0.30466 72.56367,-0.22025 97.15627,24.1836 11.7894,9.96784 28.9702,27.17454 36.2949,45.5 -2.466,16.78233 -14.1904,32.71183 -25.3809,46.88672 19.8573,51.12934 28.2532,44.84112 53.8281,-0.68555 -3.0738,-0.58909 -21.5997,-28.17081 -25.789,-46.43555 7.2979,-18.2332 17.6806,-29.82761 37.6679,-47.11132 51.5446,-35.04431 122.8328,-11.45747 143.3829,-31.37891 8.978404,-12.9415 16.285504,-32.46114 17.423804,-41.28125 0.032,-3.23959 -1.4817,-8.50473 -4.957,-8.48633 -24.021804,14.84568 -40.540704,20.53486 -64.894504,23.13086 -0.7219,0.59905 -34.5692,0.56168 -35.293,-0.0391 -27.3148,-0.18486 -42.8368,4.09911 -61.3614,5.39258 -8.3276,2.6552 -20.514,9.81765 -30.125,10.69335 -16.6435,-1.15882 -38.4297,-13.89181 -58.4648,-14.83203 -46.69187,-2.9389 -105.81297,6.0419 -142.21677,-32.5703 z m 377.66997,74.18944 c -3.0527,0.11905 -3.6137,0.47485 -6.7383,0.88868 -0.2517,0.008 -0.3352,0.20063 -0.2188,0.5039 0.2566,6.70606 -0.6034,15.6073 1.086,19.55664 1.7358,1.44889 6.6869,7.94803 0.7187,14.6875 -0.8751,0.3844 -0.8181,2.39295 0.4219,2.94922 4.4538,3.93922 2.8218,8.5945 -0.3399,10.42383 -0.7334,0.60024 -1.3669,1.85927 -1.0996,2.5625 4.3175,6.64281 2.0388,12.46692 -4.6855,13.24023 -1.5044,0.5473 -3.3254,1.8796 -2.5137,4.49024 2.7143,6.15918 0.7224,10.61153 -6.9512,9.91015 -0.8073,0.4624 -1.5569,0.95527 -1.0117,2.68946 3.1131,9.60099 -4.375,11.51108 -8.8496,9.44922 -0.575,0.0586 -0.9748,-0.32055 -1.3379,0.91992 0.7108,5.84217 -3.8966,12.4181 -13.3828,7.29297 -0.7981,-0.14739 -1.8224,0.16045 -1.623,0.89843 0.6201,8.26781 -12.1018,8.91523 -14.127,1.69727 0,0 -1.0115,-1.51439 -2.0976,0.75781 -1.2506,5.69383 -6.4656,11.63576 -14.3711,2.36133 -0.8859,-0.4961 -0.9449,-0.30417 -1.8086,0.0156 -5.5944,4.77603 -8.6755,3.89371 -13.043,-1.23633 -0.7748,-2.02683 -2.9579,-2.14216 -3.6094,-0.31445 -4.6867,2.63715 -9.8123,1.18194 -11.0293,-3.07618 -2.8083,-2.67957 -2.5818,-1.53023 -5.0059,-1.55273 -4.9573,1.86944 -8.0811,-1.68616 -7.7363,-3.66602 -0.9553,-2.46155 -2.9195,-3.30777 -5.1973,-3.92968 -5.4702,0.99863 -6.8374,-1.02879 -8.164,-5.61915 -2.0352,-2.38736 -1.1238,-3.0297 -4.2852,-3.77929 -4.9406,-1.17148 -7.2457,-3.47266 -7.6641,-8.50781 -2.2041,-2.62443 -2.2539,-2.08942 -4.1152,-5.35352 -4.4574,-0.56062 -6.8014,-4.75031 -5.8965,-8.16992 -0.7915,-1.85711 -3.0219,-6.96229 -3.6386,-9.08789 -2.7152,4.63776 -6.0465,9.83198 -6.5684,15.49609 0.029,9.034 25.2308,38.19218 29.5547,42.4043 95.878,59.31354 187.778104,-5.28223 135.3282,-108.90235 z m -358.93757,0.14454 c -2.0525,-0.0316 -3.9948,0.43295 -5.8945,1.53515 -7.5109,10.0339 -12.5038,29.17506 -13.1113,42.45313 -3.0864,108.81659 116.259,87.33917 157.39447,60.50586 13.0167,-8.8988 23.6858,-30.20824 28.668,-41.06055 -2.0163,-2.8327 -6.4109,-12.48752 -8.9102,-11.87695 -2.8686,5.33018 -3.8818,7.74032 -9.2207,13.26953 1.413,5.47593 -0.7008,9.87566 -7.0293,8.6875 -1.2998,-0.13993 -3.3238,1.96166 -2.752,3.21679 3.9935,7.34651 -3.2109,11.24203 -8.2929,8.47852 -1.0481,-0.48582 -3.2795,-0.12103 -3.5449,2.57031 1.2841,7.29173 -4.1612,10.62798 -10.9922,7.9668 -1.9072,-0.53843 -3.928,0.0788 -4.3125,2.14062 -0.6537,14.85182 -12.96857,10.14743 -14.60937,6.20313 -1.3773,-1.75053 -2.7946,-1.97197 -3.8203,-0.0547 -1.0331,10.40083 -13.135,11.40588 -15.6153,1.04688 -0.1575,-0.59231 -1.5907,-0.75616 -1.7558,-0.0352 -2.9303,13.3192 -16.0253,9.12013 -13.918,-3.26562 0.1967,-0.79206 -0.6972,-1.54961 -1.334,-0.43555 -4.5191,10.31863 -16.4199,12.13128 -14.5136,-3.66211 0.052,-1.14973 -0.787,-1.38522 -1.4473,-0.74609 -8.4558,8.68125 -18.0761,6.19998 -14.5918,-6.4668 -0.011,-1.85181 -0.8397,-2.53291 -2.6934,-1.63281 -18.7737,7.74278 -10.2338,-12.44545 -10.6113,-11.33008 0.1282,-1.36464 -0.3776,-1.98323 -1.7637,-1.58008 -11.2957,2.70243 -14.5298,-4.34501 -8.2734,-11.80664 1.0659,-1.94592 1.0667,-2.16127 -0.7051,-3.13086 -5.4582,-0.64482 -10.2308,-4.8372 -2.8926,-12.12109 0.9959,-1.47106 0.7049,-1.64819 -0.5078,-2.44336 -7.1604,-2.85829 -4.979,-9.87817 0.1973,-11.87891 0.797,-0.83194 0.8085,-1.43725 -0.291,-2.10937 -5.9815,-2.0965 -7.0312,-9.31129 1.0625,-12.01172 0.936,0 1.2463,-0.88793 0.5508,-1.39649 -3.2949,-2.43913 -0.6674,-5.8894 1.9238,-6.57226 0.665,0 0.8241,-10.81173 0.1621,-11.01563 -2.3393,-0.88219 -4.5022,-1.4098 -6.5547,-1.4414 z m 82.1445,2.01422 c -4.558,-0.0699 -25.2497,2.17748 -28.6484,5.25921 1.8,11.82626 8.9292,25.62234 17.6738,33.98438 24.0399,14.16944 53.80537,0.57877 62.58207,-18.48438 -15.8272,-13.39206 -27.12,-18.85795 -51.60747,-20.75921 z m 207.96877,5.04242 c -7.3442,0.002 -14.7338,0.0977 -14.9218,0.28515 -16.2986,2.85909 -30.146,8.85837 -45.4669,18.10547 3.2614,8.20346 8.3635,16.31864 17.291,21.21094 0.4177,0 0.8367,0.20172 0.9317,0.44922 11.7318,3.70056 29.4465,1.59199 36.0117,-0.44922 9.6095,-10.56013 19.2329,-25.23031 20.7969,-39.32617 0,-0.18738 -7.2983,-0.27763 -14.6426,-0.27539 z m -249.74607,3.13671 c -13.6085,0.10718 -35.8933,2.53876 -34.9941,6.36329 1.5959,2.72912 14.9075,-1.6181 40.3574,-6.33985 -1.6066,-0.0291 -3.4192,-0.0387 -5.3633,-0.0234 z m 293.10937,0.83399 c -11.0772,0.11747 -23.6373,1.78503 -23.332,6.42383 3.1202,5.03597 32.2706,0.0887 38.5703,-5.26953 -2.4809,-0.73803 -8.592,-1.22478 -15.2383,-1.1543 z m -287.61827,4.90513 c -12.8524,-0.23266 -44.1549,5.72402 -44.464,11.20424 3.6611,3.84837 19.282,-5.67892 44.464,-11.20424 z m 0.2941,5.59292 c -13.4744,-0.24696 -41.1091,9.44633 -44.9395,19.95117 6.6829,2.01309 28.8496,-16.38787 46.1992,-19.89649 -0.4039,-0.029 -0.8251,-0.0467 -1.2597,-0.0547 z m 282.95697,2.1582 c -7.0135,-0.0355 -14.6583,0.28124 -21.3066,0.55664 16.7654,6.43052 43.0883,11.20354 43.5781,4.38477 -0.6465,-3.84349 -10.5823,-4.88218 -22.2715,-4.94141 z m -279.84767,4.55664 c -5.5735,-0.66658 -48.6283,20.74463 -46.375,28.25977 8.9788,3.40735 29.0035,-18.01906 46.793,-28.125 -0.099,-0.0687 -0.2382,-0.11327 -0.418,-0.13477 z m 257.20117,3.52734 c 19.1893,7.90173 44.505,16.83593 45.6661,11.79297 -0.506,-5.68023 -20.1892,-7.37246 -45.6661,-11.79297 z m -90.6602,1.2168 c -2.8549,1.89465 -9.743,10.30987 -10.7148,14.33984 2.3381,1.3356 22.6073,-14.19736 10.7148,-14.33984 z m -161.82217,1.82227 c -12.3273,0.6645 -49.6278,28.8746 -45.8926,37.1875 7.6123,2.62362 22.4306,-19.97101 45.8926,-37.1875 z m 82.63467,0.35351 c -2.6246,3.70756 7.4032,11.54027 14.0723,14.61133 -1.3839,-7.51337 -10.7858,-14.63942 -14.0723,-14.61133 z m 167.795,2.61914 c 19.0516,12.70827 42.4848,24.7013 45.2109,20.68555 3.1458,-7.03739 -24.8475,-12.32476 -45.2109,-20.68555 z m -246.63867,2.58399 c -12.4286,4.95235 -42.6399,37.89532 -38.3672,46.15234 10.3621,4.08163 22.4338,-33.31661 38.3672,-46.15234 z m 169.22847,1.92187 c -4.4004,-0.3983 -20.0055,13.28422 -17.5723,18.67383 2.5449,3.88513 16.5295,-4.53697 17.5723,-18.67383 z m 74.795,0.3125 c 9.8356,13.21383 35.5476,34.04324 39.1504,30.76758 2.1737,-5.23892 -23.8143,-22.58719 -39.1504,-30.76758 z m -178.2012,1.51953 c 5.7165,11.06003 12.4112,26.36591 21.2851,25.52149 5.0249,-6.12507 -9.3921,-17.08188 -21.2851,-25.52149 z m -60.79497,1.79297 c -10.004,3.80287 -34.9224,46.47337 -27.9296,52.34375 9.1751,2.14041 11.6308,-28.65387 27.9296,-52.34375 z m 235.34377,2.0918 c -0.8986,0.59249 30.7477,43.05246 34.9063,38.28125 1.9939,-5.84709 -27.6907,-33.51541 -34.7168,-38.20508 -0.099,-0.071 -0.1605,-0.0953 -0.1895,-0.0762 z m -184.0977,1.70117 c 3.603,7.96027 15.5775,35.38253 21.5078,32.04688 4.0832,-5.29219 -15.3981,-28.31325 -21.5078,-32.04688 z m 123.8164,0.22656 c -3.9344,1.56479 -19.6959,21.53004 -18.1308,25.92383 5.3212,2.71339 18.8493,-18.06486 18.1308,-25.92383 z m -169.30267,0.48828 c -10.1066,6.45274 -25.575,52.41312 -16.8555,55.28321 8.2822,-1.04598 6.3583,-31.80892 16.8555,-55.28321 z m 7.5606,2.01172 c -6.2363,8.71663 -16.6241,54.72999 -7.4336,56.16407 9.2051,0.0684 4.7819,-42.72785 7.4336,-56.16407 z m 216.94337,0.0137 c 4.2552,9.22949 21.2557,45.53563 27.5703,42.46094 4.3993,-4.58627 -20.727,-34.4805 -27.5703,-42.46094 z m -189.2599,1.35743 c 2.9056,9.11995 9.2077,41.29828 17.8555,38.27734 4.7801,-6.18672 -13.1271,-36.28029 -17.8555,-38.27734 z m -19.36907,0.2832 c -5.0353,8.41191 -7.7494,49.35032 1.1875,52.69727 9.095,-3.93598 4.2131,-42.49836 -1.1875,-52.69727 z m 10.0898,0.32422 c -0.7638,13.40747 3.5849,48.0817 10.46877,48.91797 6.6033,-5.43903 -4.20697,-36.49695 -10.46877,-48.91797 z m 151.63477,0.86914 c -7.7547,8.76963 -16.2467,26.34494 -14.4492,29.93359 6.9209,3.14778 16.1706,-27.38265 14.4492,-29.93359 z m 41.2618,0.54687 c 1.906,6.41868 13.5163,49.84832 18.9707,45.54883 7.1545,-1.81728 -13.5753,-36.12282 -18.9707,-45.54883 z m -7.7735,0.85743 c 1.2666,5.33845 3.8814,47.90694 9.3203,46.9082 6.077,-1.38975 -5.0732,-39.39669 -9.3203,-46.9082 z m -24.2246,0.96484 c -3.4469,2.94252 -15.4261,34.81738 -11.1504,35.77734 6.4728,1.4235 11.4844,-30.70678 11.1504,-35.77734 z m 16.1836,0.0898 c -0.6332,11.57348 -3.0818,43.55537 1.8164,44.69922 5.757,-1.24788 1.6215,-33.43507 -1.8164,-44.69922 z m -8.6972,0.4375 c -2.574,7.31132 -9.3088,38.56139 -4.3594,40.21485 5.8263,0.18274 7.2527,-29.07349 4.3594,-40.21485 z"
       id="path3347-6-6"
       inkscape:connector-curvature="0"
       sodipodi:nodetypes="cccccccccccccccccccccccccccccccccccccccccccccccccccccccccccscccccccsccccccccccccccccccccccccccccccccccssccccccccscccsccscccscccccscsccsccccccccccccccccccccccccccccccccccccccccccccccccccccccccccccccccccccccccccccccccccccccc"
       inkscape:export-xdpi="73.387291"
       inkscape:export-ydpi="73.387291" />
    <g
       id="g4273"
       transform="translate(1414.2136,-670.74129)"
       inkscape:export-xdpi="14.227569"
       inkscape:export-ydpi="14.227569">
      <path
         id="path4165"
         d="m -641.37695,832.97656 -19.27735,8.76563 c -0.73218,1.2653 -0.34048,0.64237 -1.17578,1.87109 -1.41322,2.18084 -3.41727,3.78486 -4.89258,5.92188 -1.61567,2.29764 -3.51577,4.39447 -4.92773,6.82226 -0.4925,0.96406 -1.0286,1.90434 -1.58008,2.83594 -1.53966,-1.45815 -3.10942,-2.88528 -4.7207,-4.27148 -5.25584,-4.33555 -10.78407,-8.34825 -16.47461,-12.09376 l -17.8086,11.52344 c 6.04549,3.17543 11.62483,7.1472 16.9043,11.45703 3.27078,2.71942 6.33492,5.65157 9.28711,8.69727 -5.90862,5.37185 -11.87154,10.67808 -17.78906,16.04102 -11.24791,9.75252 -22.12608,19.92638 -33.60156,29.41601 -4.41379,3.70101 -8.82182,7.42376 -13.25782,11.11133 -5.97498,-4.72525 -11.9779,-9.52544 -16.51562,-15.65039 l -18.30274,10.55469 c 5.69421,6.69632 12.79193,11.93421 19.74805,17.25 -3.69086,2.85975 -7.42737,5.65752 -11.24023,8.3496 l 14.65039,-5.73242 c 11.84441,9.07141 23.54653,18.29802 34.93945,27.93164 8.85976,7.52863 17.42844,15.37522 25.67383,23.57032 5.5323,5.37074 10.52095,11.22954 15.56836,17.04104 2.76187,3.2064 5.50797,6.3974 7.95703,9.8535 1.59572,1.9382 3.04057,3.9892 4.46094,6.0566 0.98138,1.9707 2.52448,3.5721 3.89843,5.2735 1.42717,1.9851 2.7556,4.016 4.22461,5.9726 1.22282,2.102 2.06606,4.3516 3.73243,6.1602 l 18.06836,-11.086 c -1.78294,-1.537 -2.28396,-3.9827 -3.61915,-5.8652 -1.48936,-1.9864 -2.82308,-4.0437 -4.22461,-6.0937 -1.38127,-1.6136 -2.83088,-3.2106 -3.83007,-5.0899 -1.43174,-2.0821 -2.86806,-4.1764 -4.55469,-6.0644 -2.57554,-3.4635 -5.46162,-6.6534 -8.3418,-9.8633 -5.21803,-5.75492 -10.41327,-11.52038 -15.93164,-16.99612 -8.49739,-8.1045 -17.2861,-15.85571 -26.36719,-23.30468 -11.54482,-9.79655 -23.36697,-19.24896 -35.3164,-28.54688 1.45625,-1.22044 2.911,-2.4431 4.37305,-3.65625 7.38049,-6.12399 14.78277,-12.21707 22.10546,-18.41015 11.69323,-9.73761 22.88307,-20.05273 34.55664,-29.81446 1.2163,-1.12048 2.44458,-2.22531 3.67383,-3.33008 1.02043,1.12553 2.04035,2.25285 3.04688,3.39063 4.19468,5.23086 8.93737,9.98645 13.25781,15.10351 3.11251,3.77641 6.44828,7.35374 9.6875,11.01954 2.36551,2.43282 4.46974,5.09376 6.93359,7.42968 2.62474,2.45908 5.37637,4.81031 8.14844,7.10938 2.90256,2.34981 6.03691,4.3837 9.11524,6.49023 1.90864,1.34151 3.61378,2.92404 5.33007,4.49414 1.49558,1.56348 3.07249,3.02716 4.71875,4.42969 2.18981,1.7643 4.45896,3.42863 6.64063,5.20313 2.82564,2.0503 5.56577,4.19637 8.1875,6.50195 2.22652,2.47354 4.72785,4.65629 7.19726,6.875 1.14047,1.03203 2.38486,1.92704 3.63868,2.8125 l 17.77734,-11.3125 c -1.18714,-0.84017 -2.34312,-1.71287 -3.48242,-2.61719 -2.47012,-2.22922 -5.07424,-4.3241 -7.27539,-6.84179 -2.60025,-2.34622 -5.27403,-4.60984 -8.16602,-6.59376 -2.11827,-1.81894 -4.3383,-3.51024 -6.55859,-5.19531 -1.60344,-1.44497 -3.22478,-2.85611 -4.67383,-4.45508 -1.86091,-1.56097 -3.55244,-3.31728 -5.58203,-4.68164 -3.10131,-1.96059 -6.20514,-3.96226 -9.0332,-6.30664 -2.79897,-2.17568 -5.45087,-4.59194 -8.08399,-6.94922 -2.42974,-2.29694 -4.42694,-4.99216 -6.89062,-7.25781 -3.3008,-3.59968 -6.64036,-7.15868 -9.80469,-10.88281 -4.38439,-5.0967 -9.29572,-9.73663 -13.41016,-15.07617 -1.89258,-2.07257 -3.80839,-4.12268 -5.74414,-6.15235 3.7079,-3.03824 6.89625,-6.65552 9.46485,-10.69726 1.69012,-2.48603 3.0909,-5.09644 4.48437,-7.75 1.98622,-1.92382 3.29884,-4.3887 5.07422,-6.47071 0.24999,-0.37395 0.43954,-0.79558 0.75,-1.12109 4.03499,-4.23059 -1.99396,2.86803 2.00195,-1.69141 0.86485,-0.9868 1.34649,-2.1766 2.13867,-3.21679 0.78919,-1.40695 0.44164,-0.67363 1.03907,-2.19727 z"
         style="fill:#000000;fill-opacity:1"
         inkscape:connector-curvature="0" />
      <path
         inkscape:connector-curvature="0"
         d="m -579.19339,930.91834 c -0.62301,0.26099 -1.26175,0.48725 -1.86905,0.78299 -1.84645,0.89917 -3.70105,1.78384 -5.51556,2.74585 -1.15279,0.61118 -4.51065,2.62502 -3.3712,1.9893 13.81568,-7.70815 18.08989,-10.64996 7.82799,-3.97025 -11.54975,7.71752 -23.13326,15.38138 -34.70099,23.07093 -7.72185,4.67514 -13.92502,11.05711 -19.82742,17.78684 -6.86057,7.31659 -12.15827,15.86476 -18.38607,23.68406 -7.00813,8.37824 -14.39365,16.43134 -21.54943,24.68544 -4.09854,4.4046 -8.06068,8.9305 -11.98111,13.4929 -2.08604,2.5552 -4.51204,4.8271 -6.07839,7.7538 -0.71817,1.8563 -0.40827,0.9146 -0.93121,2.8246 0,0 -19.00624,9.1423 -19.00624,9.1423 l 0,0 c 0.4218,-2.1452 0.16845,-1.0772 0.7625,-3.2034 1.43358,-3.7364 3.39638,-5.4455 5.97616,-8.4037 4.16045,-4.493 7.97694,-9.3136 12.34467,-13.6234 7.2733,-8.2504 14.85193,-16.2393 21.85749,-24.7204 6.25352,-7.76847 11.4491,-16.36309 18.23338,-23.7035 5.89247,-6.90021 11.85766,-13.67883 19.75852,-18.36626 11.70913,-7.56529 23.29889,-15.3198 34.85508,-23.11815 12.17002,-8.24581 24.91057,-15.67024 38.14014,-22.07979 0,0 -16.53926,13.22984 -16.53926,13.22984 z"
         id="path4169"
         style="fill:#000000;fill-opacity:1" />
      <g
         transform="matrix(0.82762584,0,0,0.9115352,-91.197955,75.35221)"
         id="g4261">
        <path
           style="fill:#000000;fill-opacity:1"
           id="path4173"
           d="m -482.24484,851.77618 c -4.34432,6.20173 -7.41711,13.18843 -10.54141,20.05291 -5.67179,12.27122 -10.09709,25.06388 -14.54509,37.81413 -3.6316,10.84728 -7.36687,21.67625 -10.478,32.68742 -3.07388,11.44594 -7.0635,22.61238 -10.68113,33.89092 -3.08076,9.78959 -6.17015,19.56315 -9.97694,29.09584 -3.80095,10.4498 -7.79534,20.8311 -12.12805,31.0728 -3.73918,8.2093 -7.98066,16.1758 -12.35133,24.0627 -1.63077,3.0871 -3.35172,6.1303 -5.35951,8.9889 0,0 -19.36581,8.413 -19.36581,8.413 l 0,0 c 2.06486,-2.918 4.26269,-5.7533 5.8473,-8.9879 4.6216,-7.8343 8.90981,-15.8598 12.88103,-24.0434 4.37972,-10.1314 8.43199,-20.3997 11.86364,-30.8946 3.83304,-9.6505 7.51504,-19.35478 10.65434,-29.26099 3.58926,-11.13285 6.99904,-22.30741 10.16053,-33.5688 3.194,-11.16115 7.32469,-22.01828 10.95931,-33.03973 4.38262,-12.7535 8.63278,-25.57292 14.26718,-37.84962 2.76071,-6.74792 5.49687,-13.66377 9.40119,-19.83843 0,0 19.39275,-8.59515 19.39275,-8.59515 z"
           inkscape:connector-curvature="0" />
        <path
           style="fill:#000000;fill-opacity:1"
           id="path4175"
           d="m -518.6468,856.72624 c 9.88568,3.32081 19.47421,7.48688 29.06222,11.57567 19.29039,7.68769 38.32855,15.94687 57.38095,24.19755 15.03184,6.48147 28.624,15.59973 42.51751,24.12297 4.0743,2.62122 8.17087,5.42044 11.42522,9.04994 0.90044,0.71022 1.49841,1.62613 2.0804,2.59244 0,0 -18.3491,10.63773 -18.3491,10.63773 l 0,0 c -0.51103,-0.85117 -1.10566,-1.60399 -1.83576,-2.28705 -3.02367,-3.46996 -6.62946,-6.39866 -10.38875,-9.03333 -13.23791,-9.06114 -26.5586,-18.04922 -41.31851,-24.52424 -19.0695,-8.42178 -38.34343,-16.32861 -57.77716,-23.87473 -9.94116,-3.87113 -19.87572,-7.93267 -30.25394,-10.5015 0,0 17.45692,-11.95545 17.45692,-11.95545 z"
           inkscape:connector-curvature="0" />
        <path
           style="fill:#000000;fill-opacity:1"
           id="path4183"
           d="m -544.49387,977.99473 c 13.67663,-5.80366 27.39948,-11.49309 41.18456,-17.03417 19.60959,-7.58354 39.97474,-12.83715 60.23563,-18.31567 14.69942,-3.9412 29.55344,-7.24469 44.25421,-11.18036 8.4514,-2.29029 16.6408,-5.33529 24.88557,-8.23822 0.57997,-0.28443 1.15994,-0.56885 1.7399,-0.85327 0,0 -16.48152,13.03905 -16.48152,13.03905 l 0,0 c -0.58246,0.22069 -1.16492,0.44137 -1.74737,0.66206 -8.00539,2.77099 -16.09151,5.2756 -24.25542,7.54551 -14.53505,3.72662 -29.15969,7.07915 -43.70348,10.77073 -20.29032,5.37173 -40.64467,10.72501 -60.1621,18.55376 -14.28272,5.73502 -28.48207,11.67978 -42.4578,18.13276 0,0 16.50782,-13.08218 16.50782,-13.08218 z"
           inkscape:connector-curvature="0" />
      </g>
      <path
         id="path4185"
         d="m -333.12109,847.14453 -16.76758,9.38477 c 0.20433,5.60372 0.20549,11.21638 0.21679,16.82422 0.36232,8.15057 1.94176,16.1494 2.82618,24.24218 0.6721,9.29918 2.25431,18.4742 3.60547,27.67383 0.14709,1.14604 0.31681,2.28703 0.49023,3.42578 -1.70723,4.25006 -3.53456,8.44169 -5.44727,12.59766 -3.11026,7.033 -6.46563,13.92231 -9.79492,20.83203 -2.9929,6.00037 -6.21082,11.83622 -9.86719,17.38477 -5.03398,7.84089 -10.37294,15.43052 -16.10742,22.67383 -4.3664,5.7914 -8.61593,11.6898 -13.08984,17.3828 -3.17849,4.1445 -6.41779,8.2309 -9.61914,12.3535 -0.19819,-0.086 -0.39342,-0.1801 -0.5918,-0.2656 -5.8565,-2.4943 -11.58744,-5.4079 -17.63086,-7.332 l -15.49023,11.6523 c 6.23933,1.5192 12.15404,4.23 18.08984,6.7656 8.46206,3.4237 16.66112,7.5282 24.69141,12.0196 3.70837,2.0109 7.13507,4.548 10.70898,6.8125 l 15.61328,-11.211 c -3.77625,-2.0639 -7.32493,-4.6065 -11.15625,-6.5644 -7.23768,-3.8881 -14.57986,-7.5703 -22.04687,-10.8985 l 12.6543,-5.9394 c 3.69466,-5.1588 7.65893,-10.0664 11.42187,-15.168 4.5623,-5.7074 8.89675,-11.6244 13.29688,-17.48045 5.57139,-7.35297 10.85188,-14.94768 15.90039,-22.73828 3.75948,-5.62234 7.05335,-11.54042 9.98828,-17.71875 0.88218,-1.89841 1.77173,-3.79141 2.66015,-5.68555 0.98939,3.63202 2.06729,7.23751 3.23047,10.81836 3.36311,10.82245 7.85347,21.13733 12.49219,31.35156 3.27521,7.78387 7.29702,15.13991 10.92969,22.71871 2.37239,4.8414 4.21791,9.9653 6.69531,14.7461 1.7731,3.506 3.68727,6.9765 5.94922,10.1309 1.56976,2.5227 3.74365,4.5132 5.33789,7.0039 0.76367,1.1672 1.5679,2.2935 2.35742,3.4395 l 16.17969,-10.5469 c -0.77165,-1.1374 -1.59282,-2.2262 -2.36524,-3.3633 -1.62535,-2.5356 -3.87932,-4.4788 -5.50976,-7.0215 -2.21147,-3.0651 -4.09157,-6.4402 -5.875,-9.8183 -2.45151,-4.7672 -4.48923,-9.7621 -6.87109,-14.5684 -3.65389,-7.54416 -7.97232,-14.68539 -11.29493,-22.42579 -4.54648,-10.18172 -9.03538,-20.40579 -12.40625,-31.14843 -3.0257,-9.13692 -5.3513,-18.4801 -6.87695,-28.04102 1.37441,-3.47914 2.66252,-7.00043 3.85547,-10.56445 1.93022,-4.93053 3.30727,-10.09846 5.27344,-15.00977 1.16359,-3.263 2.32396,-6.55548 3.71484,-9.71875 1.30299,-2.64721 1.32171,-5.71402 2.68359,-8.30469 1.52266,-2.27277 2.70401,-4.845 3.5625,-7.50195 0.79631,-3.10236 0.86828,-6.36687 0.95508,-9.57031 0.0534,-2.92793 0.0344,-5.85684 0.0274,-8.78516 -10e-4,-0.46723 -0.003,-0.93511 -0.004,-1.40234 l -16.69141,9.34961 c 10e-4,0.46706 0.002,0.93528 0.004,1.40234 0.0107,2.90006 0.0356,5.79976 -0.0332,8.69922 -0.10857,3.0216 -0.22599,6.1032 -1.25977,8.94727 -1.04029,2.5717 -2.37183,4.96171 -3.63281,7.40429 -0.80862,2.347 -1.19548,4.85406 -2.10938,7.16016 -0.17643,-1.74977 -0.34094,-3.50101 -0.47656,-5.25586 -0.96348,-8.01437 -2.48891,-15.97717 -2.61328,-24.08203 0.0114,-5.68842 0.0152,-11.38193 0.2168,-17.06641 z m 79.40625,186.81247 c -1.56045,0.5276 -0.76383,0.3276 -2.38477,0.6016 -8.23653,2.1406 -14.91879,8.332 -21.66992,13.6602 -0.18172,0.087 -0.36067,0.1811 -0.54297,0.2675 -3.17563,1.822 -6.52485,3.0574 -9.84375,4.5059 l -14.85156,12.6719 c 3.40288,-1.4565 6.85096,-2.7623 10.17187,-4.4375 3.05404,-1.5415 6.08488,-3.1074 9.05274,-4.8418 9.25044,-1.8649 15.21248,-10.3839 22.94336,-15.168 0.31315,-0.2828 0.63419,-0.5547 0.93945,-0.8477 0.59747,-0.5733 0.79074,-0.825 1.12695,-1.1171 -1.76011,1.1232 -3.36806,2.1382 -4.82617,3.0449 l 9.88477,-8.3399 z m -5.0586,5.295 c 0.62073,-0.3962 1.15904,-0.7327 1.81641,-1.1563 0.33905,-0.2185 -0.71604,0.3631 -1.05274,0.5859 -0.36829,0.2437 -0.58125,0.4119 -0.76367,0.5704 z"
         style="fill:#000000;fill-opacity:1"
         inkscape:connector-curvature="0" />
      <path
         inkscape:connector-curvature="0"
         d="m -425.75524,1027.2754 c 4.08968,0.065 8.08327,0.9562 12.10633,1.5454 4.29014,0.906 8.59445,1.7569 12.868,2.7256 4.25059,0.8981 8.5122,1.7298 12.84292,2.2208 4.26557,0.4068 8.55699,0.4701 12.84152,0.4891 4.57828,0.024 9.15657,0.038 13.73491,0.018 4.8619,-0.074 9.69618,-0.039 14.53667,0.3797 5.1739,0.1998 10.19757,1.3493 15.30103,2.0462 6.34709,0.7629 12.75107,0.9316 19.14332,1.0269 5.38208,0.069 10.76493,0.031 16.14719,0 4.02319,-0.02 8.04654,-0.039 12.0698,-0.04 3.48471,0.012 6.96942,-0.012 10.45409,-0.024 2.6291,-0.01 5.25823,-0.012 7.88735,-0.013 2.21794,0.2694 3.86102,-0.9827 5.80735,-1.638 9.49176,-4.4557 -19.74587,10.7794 -12.07815,6.4812 0,0 17.18256,-6.2729 17.18256,-6.2729 l 0,0 c -5.73177,4.5445 -12.7542,7.5505 -19.65193,10.3562 -1.98353,0.839 -3.98575,1.2361 -6.19041,1.0721 -2.61569,0 -5.23137,0 -7.84704,-0.014 -3.46144,-0.013 -6.92293,-0.036 -10.38442,-0.021 -3.99663,0 -7.99333,-0.01 -11.98996,-0.012 -5.34918,-0.015 -10.69833,-0.035 -16.04696,-0.1173 -6.43534,-0.1575 -12.87616,-0.401 -19.26165,-1.2065 -5.11557,-0.6998 -10.19098,-1.6242 -15.36763,-1.8784 -4.81038,-0.3542 -9.62346,-0.2899 -14.44634,-0.2579 -4.60465,-0.01 -9.20933,0.035 -13.81387,0.01 -4.31329,-0.077 -8.63137,-0.1757 -12.91565,-0.6886 -4.36247,-0.5741 -8.68454,-1.3943 -12.96725,-2.3489 -4.25575,-0.9023 -8.49425,-1.8683 -12.78277,-2.6333 -4.02496,-0.6224 -8.0661,-1.4016 -12.17239,-1.1647 0,0 14.99338,-10.0406 14.99338,-10.0406 z"
         id="path4189"
         style="fill:#000000;fill-opacity:1" />
      <path
         id="path4207"
         d="M -158.10156,847.87109 -177,857.24023 c -0.34427,2.56937 -0.76139,5.12488 -1.20703,7.67579 -1.07084,-0.22772 -2.13799,-0.4694 -3.20117,-0.73047 l -17.44141,11.83398 c 5.89251,1.26988 11.87063,2.10737 17.85938,2.83789 -1.29909,5.94832 -2.67234,11.88167 -3.94532,17.83203 -4.21727,18.53803 -7.8446,37.19347 -11.25195,55.89453 -0.48866,2.65616 -0.98201,5.31018 -1.47461,7.96485 -1.57321,0.45417 -3.10437,0.95698 -4.28125,1.5957 -6.7308,3.6527 -13.35667,7.49601 -20.0293,11.25391 -0.53138,0.29923 -1.05473,0.61159 -1.58203,0.91797 l 19.78125,-7.63086 c 7.85458,-4.5078 -9.67552,5.54851 -14.55078,8.50781 -0.67187,0.4078 1.43222,-0.64795 2.16211,-0.93945 2.35451,-0.9404 4.80925,-1.64011 7.22266,-2.40821 3.15817,-1.06589 6.3823,-1.87954 9.63476,-2.56445 -2.2017,11.60189 -4.51419,23.17903 -7.1914,34.68755 -2.66552,11.6116 -6.66582,22.867 -10.62891,34.0957 l -14.58008,10.5917 c 3.77519,-0.3661 7.5441,-0.7827 11.31446,-1.1796 -1.03335,2.8366 -2.10603,5.6597 -3.13672,8.5 -0.95028,2.1345 -2.51064,3.8442 -3.52735,5.9316 l 19.31641,-8.6484 c 1.23645,-1.9884 2.52339,-3.9512 3.2793,-6.1914 0.10849,-0.3105 0.21102,-0.6229 0.31836,-0.9336 9.27754,-0.468 18.57151,-0.583 27.85937,-0.6309 10.55688,-0.032 21.11307,0.044 31.66992,0.068 7.60047,0.034 15.20037,0.071 22.80078,0.1132 4.57494,0.029 9.14966,0.058 13.72461,0.086 3.03541,0.014 6.07197,0.025 9.107424,0.025 l 17.083985,-12.4141 c -3.0577,0 -6.116168,0.01 -9.173828,0.025 -4.65249,0.028 -9.304551,0.057 -13.957031,0.084 -7.69623,0.039 -15.39158,0.071 -23.08789,0.094 -10.63126,0.01 -21.26329,0.059 -31.89453,0.082 -10.41208,0.033 -20.8322,-0.095 -31.23242,0.5019 -3.09958,0.2129 -6.19436,0.4739 -9.28711,0.75 0.2693,-0.8864 0.55342,-1.7675 0.8164,-2.6562 3.90995,-12.2874 8.25443,-24.4585 11.27539,-37.00589 2.02983,-9.53742 3.66935,-19.14556 5.33789,-28.75 7.55943,-1.16931 15.18767,-1.76422 22.82813,-2.0625 5.33234,-0.1815 10.66714,-0.18992 16.00195,-0.16992 4.08391,-0.004 8.16809,0.0586 12.25196,0.0586 4.51583,-0.022 9.031,-0.0344 13.54687,-0.0234 2.8343,-0.007 5.66967,0.009 8.50391,0.0234 l 16.99609,-12.3496 c -2.85516,0.013 -5.709229,0.0334 -8.56445,0.0234 -4.48992,0.011 -8.98088,0.002 -13.47071,-0.0312 -4.11517,-0.012 -8.23051,0.0288 -12.3457,0.01 -5.41343,0.0117 -10.82822,0.002 -16.23828,0.22656 -8.39211,0.4132 -16.78341,0.96389 -25.08399,2.33399 -4.21535,0.66869 -8.45731,1.25139 -12.66601,1.99218 0.74894,-4.1169 1.52961,-8.2296 2.38086,-12.32812 3.73152,-18.64304 7.30352,-37.31782 11.37695,-55.89063 0.59337,-2.5741 1.21674,-5.14198 1.83985,-7.70898 6.67372,0.78758 13.33308,1.72279 19.96875,2.76758 8.54248,1.2965 16.94423,3.32714 25.35742,5.26171 4.83957,1.29571 9.7971,2.35565 14.49804,4.10938 5.60816,2.61544 10.990289,5.68667 16.359379,8.75586 3.0239,1.90466 6.379757,3.00911 9.847657,3.74609 l 17.238281,-12.0664 c -3.36754,-0.4808 -6.651928,-1.30077 -9.611328,-3.05469 -5.4669,-3.02598 -11.01807,-5.9024 -16.44336,-9.00391 -4.71412,-2.12653 -9.931398,-2.94375 -14.914059,-4.24804 -8.50141,-1.92086 -17.03986,-3.72265 -25.62696,-5.21485 -8.65529,-1.55786 -17.41213,-2.72885 -26.16992,-3.51758 -2.42058,-0.25007 -4.84524,-0.51059 -7.26953,-0.79101 1.57564,-6.46923 3.10447,-12.95036 4.4043,-19.48438 z m -65.45313,126.44532 -0.01,0.004 0,0.002 c 0.003,-0.002 0.006,-0.004 0.01,-0.006 z"
         style="fill:#000000;fill-opacity:1"
         inkscape:connector-curvature="0" />
      <path
         id="path4215"
         d="m 0.08789062,853.92383 -18.89453162,9.92578 c 0.25233,8.60013 -1.280896,17.17197 -2.285156,25.69141 -2.53158,16.79793 -4.030027,33.7301 -6.117187,50.58789 -0.551529,4.15855 -1.136566,8.31173 -1.740235,12.46093 -2.917658,-0.22512 -5.829739,-0.53319 -8.728515,-1.02929 l -13.275391,12.85156 c 6.688834,0.36309 13.383565,0.5674 20.076172,0.81445 -0.889741,5.60274 -1.816234,11.1995 -2.804688,16.78711 -1.90246,10.69857 -3.387721,21.47893 -5.863281,32.05863 -1.19364,5.998 -2.96037,11.8842 -3.90625,17.9297 -1.04661,4.3387 -2.212995,8.7227 -3.916016,12.8457 -1.176279,3.4987 -2.693385,6.8712 -3.572265,10.4726 l 19.050781,-9.3535 c 1.00845,-3.462 2.35399,-6.8145 3.5625,-10.2051 1.53386,-4.289 2.785718,-8.709 3.648438,-13.1933 1.12735,-5.9018 2.412997,-11.7746 3.591796,-17.6661 2.18513,-10.61441 3.528687,-21.38719 5.591797,-32.0273 0.379246,-2.21544 0.730768,-4.4351 1.072266,-6.65625 9.0546923,0.78026 18.0905186,1.92508 27.099609,3.39063 6.85581,1.13505 13.691269,2.38823 20.511719,3.84374 3.49419,0.77368 7.044172,0.80822 10.544922,1.48829 2.41941,0.58253 4.85783,0.94701 7.3125,1.09961 1.910599,0.0661 3.82132,0.0768 5.732422,0.0742 -0.163694,2.96534 -0.340233,5.9301 -0.490235,8.89649 -0.61974,12.21727 -1.021587,24.44198 -1.210937,36.67378 -0.37625,6.242 -1.006681,12.4617 -1.300781,18.709 -0.19799,4.138 -0.288125,8.2795 -0.328125,12.4219 l 18.783203,-9.8555 c -9.2e-4,-4.0792 0.01182,-8.1599 0.177734,-12.2363 0.30294,-6.2204 0.828628,-12.4273 0.986328,-18.6543 -0.103826,-11.9696 -0.134383,-23.94298 0.167969,-35.91014 0.16599,7.5e-4 0.160735,-2e-5 0.470703,0.002 l 13.201172,-12.7832 c -1.6391,0.003 -0.808664,0.003 -2.490234,0.0137 -3.35862,0.0258 -6.717472,0.0645 -10.076172,0.0645 -0.214188,4.2e-4 -0.428386,-0.002 -0.642578,-0.002 0.799914,-19.22205 2.089368,-38.41478 3.798828,-57.57813 1.46575,-15.07362 2.68088,-30.22313 5.75,-45.06445 l -18.94336,9.64844 c -1.803629,14.645 -2.622998,29.39993 -3.730468,44.11328 -1.218014,15.99297 -2.353683,31.98861 -3.337891,47.99609 -0.175573,-0.0376 -0.352084,-0.0641 -0.527344,-0.10547 -3.54902,-0.74317 -7.124806,-0.78549 -10.691406,-1.36132 -7.04792,-1.26332 -14.102807,-2.34381 -21.179687,-3.29493 -12.575413,-1.81952 -25.18282127,-3.13186 -37.806641,-4.17578 0.987889,-7.45855 1.895429,-14.92808 2.875,-22.38867 1.98555,-16.99509 3.9042675,-33.99296 6.7109375,-50.87109 1.22794,-8.78727 2.75472813,-17.56749 3.14257812,-26.44922 z"
         style="fill:#000000;fill-opacity:1"
         inkscape:connector-curvature="0" />
      <path
         inkscape:connector-curvature="0"
         id="path4227"
         d="m -498.01474,1117.1866 -17.05859,8.4824 c -1.81632,3.0126 -3.66914,5.9873 -5.60742,8.9024 -1.92968,3.0696 -3.55963,6.3798 -5.70703,9.2714 -4.94821,6.1017 -10.33229,11.7252 -16.21875,16.6563 -8.92116,7.5833 -18.31101,14.3945 -27.66797,21.2598 -1.7416,1.3193 -2.76779,2.0887 -3.59571,2.7148 -2.74491,1.6176 -5.7984,3.3971 -7.16015,4.1426 -2.0526,1.1236 -4.13808,2.1675 -6.20703,3.2519 -11.32917,5.7015 -22.61695,11.5017 -33.8711,17.3868 -7.69422,-6.3651 -15.74356,-12.1935 -23.3789,-18.6563 l -15.69336,11.2559 c 7.68157,4.7771 15.07445,10.0818 22.28711,15.6914 -0.59664,0.2676 -1.19107,0.5405 -1.79102,0.7988 -0.97048,0.4178 -1.95187,0.8037 -2.92773,1.2051 -0.77445,0.2857 -1.5621,0.5298 -2.32422,0.8554 -0.54072,0.231 -1.05164,0.5406 -1.57813,0.8106 l -14.75976,13.0019 c 6.81517,-2.8824 13.53288,-6.0047 20.1914,-9.3242 2.49405,-1.3187 4.99036,-2.6321 7.48633,-3.9453 6.06247,4.86 12.01342,9.9033 17.90039,15.0274 19.37474,17.7163 37.52611,37.0787 55.20313,56.9238 12.98791,13.6176 24.13754,29.119 34.59961,45.2246 4.75909,7.5403 9.71983,15.011 13.7207,23.1191 0.23838,0.5978 0.47647,1.1952 0.71484,1.793 l 16.08985,-10.3652 -0.87305,-1.8946 c -4.44591,-7.9204 -9.7933,-15.1702 -14.70117,-22.7168 -10.82903,-15.9531 -22.3703,-31.354 -35.50977,-44.9453 -18.01098,-19.5847 -36.33088,-38.8463 -55.53125,-56.9316 -3.86208,-3.4768 -10.31555,-9.3359 -15.35351,-13.711 5.49705,-2.8368 11.00347,-5.6507 16.53125,-8.414 16.28778,-8.3974 32.20528,-18.064 46.93945,-29.5957 9.43508,-6.8331 18.87538,-13.6858 27.76172,-21.418 5.98982,-5.1893 11.64825,-10.9143 16.68555,-17.2793 2.05067,-3.0619 3.65002,-6.4433 5.69726,-9.5019 1.93247,-3.0083 3.96108,-5.9205 5.70703,-9.0762 z m -67.13476,61.8476 c 1.67145,-1.0645 -3.31348,2.187 -4.9961,3.2286 -0.0187,0.012 -0.0801,0.047 -0.0996,0.059 1.46992,-0.9561 2.96021,-1.9271 5.09571,-3.2872 z"
         style="fill:#000000;fill-opacity:1" />
      <path
         inkscape:connector-curvature="0"
         id="path4235"
         d="m -307.43543,1110.6679 -19.46484,9.2284 c -1.17766,1.3243 -2.34272,2.6614 -3.54102,3.9619 -2.74336,2.9545 -5.57575,5.8027 -8.62305,8.3521 -2.97579,2.4268 -6.00253,4.7678 -9.0332,7.1033 -1.22071,-1.253 -2.44411,-2.5012 -3.67774,-3.738 -8.09328,-7.9182 -16.08118,-15.9768 -24.35156,-23.6566 l -17.8086,13.0884 c 9.01754,6.6508 17.23463,14.6108 25.51172,22.3765 1.38908,1.3212 2.75928,2.6646 4.11524,4.0263 -6.58129,4.8103 -13.16384,9.6188 -19.6543,14.588 -14.27164,11.0224 -28.34926,22.3657 -42.34375,33.8367 -5.47881,4.7563 -10.9708,9.4938 -16.5,14.1753 -3.79605,-4.7211 -7.35369,-9.6652 -10.41016,-15.0427 l -18.25585,12.1499 c 4.05355,5.5712 8.41818,10.8247 12.92773,15.9212 -0.56027,0.4528 -1.11432,0.9156 -1.67578,1.3665 l 2.06445,-0.9273 c 5.66745,6.381 11.56098,12.5153 17.40625,18.6609 17.35783,18.4918 35.07199,36.549 52.64063,54.7824 8.67397,9.3157 17.82728,18.1481 26.23828,27.7939 -1.55756,2.1872 -3.15089,4.3385 -4.73047,6.5087 -3.02986,4.6355 -6.14707,9.1963 -9.58594,13.4499 -3.27528,4.7537 -6.96705,9.0989 -10.8125,13.2548 -2.9817,3.4646 -6.13817,6.6936 -8.99805,10.2887 -1.78597,2.9773 -3.64889,5.8731 -5.48828,8.8069 l 19.33008,-9.5057 c 1.84166,-2.8552 3.44026,-5.923 5.5625,-8.5296 2.86292,-3.4269 5.90605,-6.6545 8.79102,-10.0581 3.79819,-4.3081 7.52374,-8.6879 10.87109,-13.4632 0.63282,-0.8312 1.24742,-1.6798 1.86328,-2.5267 0.0271,0.035 0.055,0.069 0.082,0.1043 2.40071,3.2961 5.26597,6.1102 7.12305,9.8695 1.08106,2.1468 2.56003,3.9757 3.32617,6.3068 0.41886,1.8337 0.96165,3.6183 1.35743,5.4616 l 18.58594,-11.4157 c -0.43576,-1.9349 -0.94757,-3.8427 -1.43555,-5.7612 -0.86437,-2.425 -2.26121,-4.4155 -3.51563,-6.5906 -2.02226,-3.9614 -5.0708,-6.7865 -7.9082,-9.9804 -1.68071,-1.9301 -3.40529,-3.8062 -5.14844,-5.6613 0.95679,-1.4277 1.91246,-2.8557 2.90235,-4.2548 3.37477,-4.893 6.4954,-9.9968 9.59179,-15.1205 4.03753,-6.9175 8.63437,-13.3782 13.61329,-19.455 10.78293,-13.378 22.1932,-26.0526 33.82226,-38.4774 2.45472,2.1774 4.91656,4.3445 7.31055,6.6063 2.15146,2.0745 4.55418,3.7683 6.74804,5.7789 0.30926,0.2795 0.61849,0.559 0.92774,0.8384 l 17.91211,-12.8376 c -0.2962,-0.2474 -0.59246,-0.4957 -0.88867,-0.7431 -2.14916,-2.1122 -4.64379,-3.6938 -6.86133,-5.7145 -3.27854,-3.0651 -6.7267,-5.9036 -10.08203,-8.8624 -0.17942,-0.1725 -0.36429,-0.3373 -0.54492,-0.5079 3.83163,-3.9992 7.69179,-7.9639 11.5957,-11.8817 1.67959,-1.6856 3.33894,-3.3964 5.06836,-5.0157 1.14974,-1.0765 4.89453,-3.8309 3.56445,-3.068 -5.46797,3.1362 -10.68536,6.8108 -16.02734,10.2156 l 16.59179,-14.8919 c -6.6706,4.4582 -13.44683,8.7181 -20.01171,13.3745 -1.09119,0.7739 -4.30215,4.2662 -6.14844,6.2869 -1.09399,-1.0356 -2.17285,-2.0907 -3.19922,-3.2144 -1.89213,-1.7161 -3.57273,-3.6907 -5.5332,-5.2909 -1.65816,-1.8198 -3.03211,-4.0508 -5.15625,-5.233 -2.08053,-1.888 -3.44616,-4.4021 -5.48633,-6.3534 -3.7161,-4.29 -7.7523,-8.2257 -11.23633,-12.7734 -5.09165,-6.3035 -10.38546,-12.3948 -15.66797,-18.4899 -8.25407,-9.3252 -16.54828,-18.6162 -25.11524,-27.572 3.67882,-2.6716 7.35851,-5.3438 11.04102,-8.0084 4.80239,-3.6216 9.5435,-7.3138 14.23633,-11.1185 3.10667,-2.6162 5.78353,-5.7645 8.6543,-8.6804 1.11965,-1.4692 2.4063,-2.694 3.54492,-4.1416 z m -53.78126,43.9213 c 8.41286,8.7651 16.28232,18.1917 24.13477,27.5986 5.00409,6.3011 10.23894,12.3594 15.19727,18.7075 3.51843,4.5108 7.44039,8.5789 11.0625,12.9795 2.01524,2.08 3.38866,4.7033 5.47266,6.6951 1.98911,1.2767 3.46521,3.1994 5.02343,5.0423 1.96492,1.761 3.77091,3.7191 5.73633,5.4793 2.05458,2.1729 4.29431,4.0929 6.51367,6.0407 -3.47738,3.718 -6.95211,7.4397 -10.40625,11.1871 -12.60981,13.1492 -24.83893,26.7387 -36.53515,40.9333 -5.30227,6.1568 -10.03458,12.8568 -14.0918,20.1227 -0.40565,0.6563 -0.8175,1.3061 -1.22657,1.9588 -7.26271,-7.2166 -14.72457,-14.1936 -21.74414,-21.7022 -17.7852,-17.8919 -35.11285,-36.3769 -52.41015,-54.8712 -4.8647,-5.4311 -9.90203,-10.7791 -14.68946,-16.3781 10.27952,-8.8676 20.59158,-17.6878 30.79297,-26.6713 14.179,-11.521 28.45186,-22.8854 42.91211,-33.9455 1.41498,-1.066 2.83823,-2.1186 4.25781,-3.1766 z"
         style="fill:#000000;fill-opacity:1" />
      <path
         inkscape:connector-curvature="0"
         id="path4245"
         d="m -126.09047,1105.3851 -19.48633,8.3242 c -0.65949,1.2165 -3.9954,7.3693 -4.0332,7.4473 -2.97326,6.1137 -5.80148,12.2907 -8.53515,18.5097 -3.67371,-2.0811 -7.37526,-4.1149 -11.11133,-6.0879 l -17.625,11.5957 c 7.56237,2.9932 14.83191,6.5956 21.93555,10.5117 -6.23813,15.1138 -12.10898,30.3857 -18.14063,45.5762 -6.88375,16.9626 -13.36651,34.0726 -19.5625,51.2871 -1.3902,-0.017 -2.78002,-0.041 -4.16992,-0.078 l -17.12695,12.4434 c 5.59582,-0.1386 11.19391,-0.1017 16.79101,-0.1387 0.0522,0 0.10412,1e-4 0.15625,0 -7.88414,22.4587 -15.30792,45.0801 -22.45898,67.7872 -3.24129,11.2076 -6.91127,22.3292 -9.6875,33.6679 l -13.02735,9.9629 c 3.86781,-1.1645 7.72673,-2.3614 11.58204,-3.5703 -0.21956,1.0502 -0.45143,2.0972 -0.65039,3.1523 -0.26799,3.1658 -1.2803,6.2176 -2.74219,9.0254 -0.13722,0.066 -0.27489,0.1333 -0.41211,0.1993 l 19.5625,-8.4883 c 0.0467,-0.1922 0.0938,-0.3841 0.14062,-0.5762 1.01862,-2.9672 2.00463,-5.8794 2.04688,-9.0664 2.57138,-0.8406 5.14269,-1.6829 7.71094,-2.5313 11.47606,-3.4883 22.79888,-7.4566 34.26367,-10.9785 5.47191,-1.8391 10.91763,-3.6578 16.53711,-4.9902 4.03611,-1.2767 8.2031,-2.0716 12.25976,-3.2637 3.94983,-1.5631 8.11363,-2.4216 12.22656,-3.4336 5.02129,-1.2133 10.10542,-2.1046 15.01758,-3.7207 6.37794,-2.2351 12.56985,-4.8692 19.02344,-6.8926 3.38084,-1.0741 6.770644,-2.1187 10.164064,-3.1523 1.74485,1.046 3.49472,2.0829 5.25976,3.0957 4.66242,2.4225 8.85604,5.5791 13.2461,8.4277 1.14269,0.7889 2.2951,1.5561 3.40039,2.3965 l 17.90039,-11.2715 c -1.16433,-0.9334 -2.41186,-1.6872 -3.64453,-2.5293 -3.83117,-2.1951 -7.38484,-4.862 -11.25195,-7.0058 0.96553,-0.2491 1.92983,-0.5037 2.89843,-0.7383 1.65207,-0.3786 3.2772,-0.8573 4.91407,-1.2949 l 16.73632,-12.8028 c -1.64575,0.3889 -3.28514,0.8019 -4.88476,1.3575 -3.18062,0.6205 -6.29265,1.5109 -9.41016,2.3867 -3.90495,1.3451 -7.99043,2.133 -11.98047,3.1836 -2.72135,0.8555 -5.44963,1.6879 -8.17578,2.5273 -7.3362,-4.1603 -14.54323,-8.5471 -21.755864,-12.9179 -16.89654,-10.6129 -33.75983,-21.2736 -50.60156,-31.9727 -5.53235,-3.5205 -11.05512,-7.0564 -16.58203,-10.5859 4.0828,-0.8792 8.14622,-1.8604 12.19532,-2.8789 11.04856,-2.7761 21.53973,-7.2718 32.23827,-11.1094 13.12193,-4.2832 25.947244,-9.3652 39.080084,-13.6172 4.46482,-1.611 8.97233,-3.0758 13.50586,-4.4512 2.80921,3.3706 5.53429,6.8149 8.21875,10.2871 1.79929,2.1162 3.42936,4.3481 4.93164,6.6797 l 18.05859,-10.6015 c -1.65135,-2.3244 -3.42347,-4.5433 -5.3789,-6.625 -1.60681,-1.8747 -3.20753,-3.7578 -4.8125,-5.6368 0.77706,-0.2085 1.55294,-0.4203 2.33008,-0.6289 5.91627,-1.428 11.70664,-3.3416 17.66992,-4.5722 0.56222,-0.093 1.12332,-0.1844 1.68554,-0.2774 l 16.84571,-12.6191 c -0.59444,0.077 -1.18877,0.1554 -1.78321,0.2324 -6.22874,1.1317 -12.16779,3.3307 -18.30273,4.8535 -7.95232,2.2564 -15.94568,4.3744 -23.85547,6.7676 -4.61007,-5.2262 -9.37818,-10.304 -14.61523,-14.9297 -16.79979,-14.4712 -34.639144,-27.7254 -52.828134,-40.3906 -7.89534,-5.2408 -15.89596,-10.3226 -24.02539,-15.1875 0.47334,-1.0085 0.89511,-1.9237 1.40039,-2.9903 5.56019,-11.737 11.60209,-23.7226 18.86133,-34.5566 0.58265,-0.8696 1.24213,-1.6848 1.86328,-2.5273 z m -29.2832,55.8007 c 5.20108,3.1077 10.33859,6.3266 15.44726,9.5645 18.28536,12.2158 35.67128,25.7485 51.812504,40.6816 3.92018,3.5418 7.57919,7.3287 11.08204,11.2559 -10.70057,3.6375 -21.28515,7.5857 -32.031264,11.1035 -10.69992,3.7607 -21.15606,8.2473 -32.11132,11.2442 -9.33636,2.417 -18.77313,4.5315 -28.37109,5.6035 -4.11875,0.4324 -8.223,1.0969 -12.3418,1.5371 -1.60576,-1.0268 -3.21471,-2.0494 -4.82031,-3.0762 l -3.86914,2.5449 c 6.50847,-19.0821 13.50876,-37.996 21.1289,-56.6836 5.97509,-14.4649 9.52347,-23.3898 14.07422,-33.7754 z m -39.83398,104.3243 c 8.91495,4.9284 17.50775,10.4551 26.25,15.6718 16.95095,10.3976 33.66881,21.1696 50.24413,32.1543 5.24733,3.3029 10.46839,6.652 15.72657,9.9375 -1.70785,0.7131 -3.4298,1.394 -5.22852,1.8809 -4.81491,1.8205 -9.83738,2.7431 -14.85351,3.8516 -4.05189,0.9994 -8.28183,1.6164 -12.13477,3.207 -4.07287,1.3245 -8.2673,2.1212 -12.33203,3.4922 -5.7384,1.3804 -11.39442,2.9019 -16.89257,5.0976 -11.75728,3.6203 -23.25795,8.0304 -35.05274,11.5391 -7.28523,2.3962 -14.58819,4.7548 -21.92969,6.9844 2.15527,-11.6124 5.33307,-23.0248 8.22852,-34.4688 5.58995,-19.9048 11.54034,-39.7063 17.97461,-59.3476 z"
         style="fill:#000000;fill-opacity:1" />
    </g>
  </g>
</svg>
