<?xml version="1.0" encoding="UTF-8" standalone="no"?>
<!-- Created with Inkscape (http://www.inkscape.org/) -->

<svg
   xmlns:dc="http://purl.org/dc/elements/1.1/"
   xmlns:cc="http://creativecommons.org/ns#"
   xmlns:rdf="http://www.w3.org/1999/02/22-rdf-syntax-ns#"
   xmlns:svg="http://www.w3.org/2000/svg"
   xmlns="http://www.w3.org/2000/svg"
   xmlns:sodipodi="http://sodipodi.sourceforge.net/DTD/sodipodi-0.dtd"
   xmlns:inkscape="http://www.inkscape.org/namespaces/inkscape"
   width="744.09448819"
   height="1052.3622047"
   id="svg2"
   version="1.1"
   inkscape:version="0.48.2 r9819"
   sodipodi:docname="Vampire.svg">
  <defs
     id="defs4">
    <inkscape:perspective
       sodipodi:type="inkscape:persp3d"
       inkscape:vp_x="0 : 526.18109 : 1"
       inkscape:vp_y="0 : 1000 : 0"
       inkscape:vp_z="744.09448 : 526.18109 : 1"
       inkscape:persp3d-origin="372.04724 : 350.78739 : 1"
       id="perspective10" />
    <inkscape:perspective
       id="perspective2824"
       inkscape:persp3d-origin="0.5 : 0.33333333 : 1"
       inkscape:vp_z="1 : 0.5 : 1"
       inkscape:vp_y="0 : 1000 : 0"
       inkscape:vp_x="0 : 0.5 : 1"
       sodipodi:type="inkscape:persp3d" />
    <inkscape:perspective
       id="perspective3643"
       inkscape:persp3d-origin="0.5 : 0.33333333 : 1"
       inkscape:vp_z="1 : 0.5 : 1"
       inkscape:vp_y="0 : 1000 : 0"
       inkscape:vp_x="0 : 0.5 : 1"
       sodipodi:type="inkscape:persp3d" />
    <inkscape:perspective
       id="perspective3665"
       inkscape:persp3d-origin="0.5 : 0.33333333 : 1"
       inkscape:vp_z="1 : 0.5 : 1"
       inkscape:vp_y="0 : 1000 : 0"
       inkscape:vp_x="0 : 0.5 : 1"
       sodipodi:type="inkscape:persp3d" />
    <filter
       id="filter3734"
       inkscape:label="Warm inside"
       inkscape:menu="Morphology"
       inkscape:menu-tooltip="Blurred colorized contour, filled inside"
       color-interpolation-filters="sRGB">
      <feColorMatrix
         id="feColorMatrix3736"
         values="1 0 0 0 0 0 1 0 0 0 0 0 1 0 0 0 0 0 1 0 "
         result="fbSourceGraphic" />
      <feGaussianBlur
         id="feGaussianBlur3738"
         stdDeviation="3"
         result="result1" />
      <feOffset
         id="feOffset3740"
         dx="2"
         dy="2"
         result="result6" />
      <feComposite
         id="feComposite3742"
         in2="result1"
         k2="2"
         operator="in"
         result="result2"
         in="result6" />
      <feColorMatrix
         id="feColorMatrix3744"
         values="110"
         result="result3"
         type="hueRotate" />
      <feBlend
         id="feBlend3746"
         in2="result3"
         mode="screen"
         in="result2"
         result="result4" />
      <feConvolveMatrix
         id="feConvolveMatrix3748"
         order="3 3"
         kernelMatrix="-2 0 2 0 4 0 2 0 2"
         divisor="2"
         bias="0"
         targetX="0"
         in="result4"
         result="result5" />
      <feComposite
         id="feComposite3750"
         in2="result5"
         operator="atop"
         in="result2" />
    </filter>
  </defs>
  <sodipodi:namedview
     id="base"
     pagecolor="#ffffff"
     bordercolor="#666666"
     borderopacity="1.0"
     inkscape:pageopacity="0.0"
     inkscape:pageshadow="2"
     inkscape:zoom="0.98994949"
     inkscape:cx="253.38347"
     inkscape:cy="815.1174"
     inkscape:document-units="px"
     inkscape:current-layer="layer3"
     showgrid="false"
     inkscape:snap-grids="true"
     inkscape:window-width="1920"
     inkscape:window-height="1020"
     inkscape:window-x="0"
     inkscape:window-y="0"
     inkscape:window-maximized="1" />
  <metadata
     id="metadata7">
    <rdf:RDF>
      <cc:Work
         rdf:about="">
        <dc:format>image/svg+xml</dc:format>
        <dc:type
           rdf:resource="http://purl.org/dc/dcmitype/StillImage" />
        <dc:title></dc:title>
      </cc:Work>
    </rdf:RDF>
  </metadata>
  <g
     inkscape:label="Layer 1"
     inkscape:groupmode="layer"
     id="layer1"
     style="display:inline" />
  <g
     inkscape:groupmode="layer"
     id="layer3"
     inkscape:label="2"
     style="display:inline">
    <g
       id="g4087"
       inkscape:export-filename="/home/freeghost/Документы/Материалы по AD&amp;D/Иммитртвелль/Альманах/Иллюстрации/ДомКраснойЗвезды.png"
       inkscape:export-xdpi="90"
       inkscape:export-ydpi="90">
      <path
         inkscape:connector-curvature="0"
         sodipodi:nodetypes="ccccc"
         id="path3633"
         d="m 355.24081,177.72079 c 2.44553,-39.37338 55.49328,-38.01487 24.77027,-121.430279 24.23197,28.92619 47.04329,38.29199 55.62315,97.582219 1.44828,63.31492 -32.8024,68.73228 -61.95642,121.24864 58.1278,-175.236059 1.71258,-121.21955 -18.437,-97.40058 z"
         style="fill:#000000;fill-opacity:1;stroke:#000000;stroke-width:0.48162025px;stroke-linecap:butt;stroke-linejoin:miter;stroke-opacity:1;display:inline" />
      <path
         inkscape:connector-curvature="0"
         id="path3888"
         d="m 340.21017,172.38291 -5.03701,27.67482 5.03701,3.48568 5.07532,-3.23671 -5.07532,-27.92379 z m 5.07532,27.92379 1.05336,5.78395 5.64988,1.26404 12.06584,-18.97976 -18.76908,11.93177 z m 6.70324,7.04799 -3.10265,4.86464 3.10265,4.86464 21.92918,-4.86464 -21.92918,-4.86464 z m 0,9.72928 -5.64988,1.26404 -1.05336,5.76479 18.76908,11.93178 -12.06584,-18.96061 z m -6.70324,7.02883 -5.07532,-3.23671 -4.84549,4.4816 4.84549,26.69806 5.07532,-27.94295 z m -9.92081,1.24489 -1.28318,-7.00968 -5.59243,-1.24489 -21.31632,34.26316 28.19193,-26.00859 z m -6.87561,-8.25457 3.04519,-4.88379 -3.33248,-4.82634 -21.69935,4.82634 21.98664,4.88379 z m -0.28729,-9.71013 5.87972,-1.30234 1.09166,-6.03292 -23.13577,-16.01118 16.16439,23.34644 z"
         style="fill:#000000;fill-opacity:1;stroke:#000000;stroke-width:0.61286807px;stroke-linecap:butt;stroke-linejoin:miter;stroke-opacity:1" />
      <path
         inkscape:connector-curvature="0"
         sodipodi:nodetypes="ccccc"
         id="path3633-9"
         d="m 325.43783,177.9616 c -2.44553,-39.37338 -55.49328,-38.01486 -24.77027,-121.430267 -24.23197,28.92619 -47.04329,38.291986 -55.62315,97.582217 -1.44828,63.31491 32.8024,68.73228 61.95642,121.24863 -58.1278,-175.23605 -1.71258,-121.21954 18.437,-97.40058 z"
         style="fill:#000000;fill-opacity:1;stroke:none;display:inline" />
      <path
         sodipodi:nodetypes="csssscsssscscccscccccccccscscccsscccccccccccccccccccc"
         inkscape:connector-curvature="0"
         id="path3078-8"
         d="m 303.24162,67.214608 c 1.8889,7.22129 2.55819,11.6132 2.4375,17.5 -0.19907,9.71022 -7.62798,19.260722 -5.1875,28.656252 2.27008,8.73952 10.71152,14.64804 17.1875,20.9375 6.70616,6.51302 6.41312,19.73252 21.15625,17.875 0.44375,-0.0559 0.9032,-0.10928 1.375,-0.1875 0.4712,0.0841 0.93156,0.13132 1.375,0.1875 14.74187,1.86765 14.48134,-11.36198 21.1875,-17.875 6.47598,-6.28946 14.91742,-12.19798 17.1875,-20.9375 2.44048,-9.39553 -4.98843,-18.946032 -5.1875,-28.656252 -0.12069,-5.8868 0.5486,-10.27871 2.4375,-17.5 -0.32005,1.25849 -7.699,2.60549 -11.125,4.71875 -3.03071,1.86943 -4.93503,2.65555 -8.125,6.90625 -5.89115,-0.774876 -10.29067,-0.918413 -14.34375,-0.6875 -6.32356,-0.562692 -12.00578,-0.511971 -21.125,0.6875 -3.18997,-4.2507 -5.09429,-5.03682 -8.125,-6.90625 -3.426,-2.11326 -10.80495,-3.46026 -11.125,-4.71875 z m 4.25,3.875 c 4.53511,1.15289 8.1957,6.81527 11,10 1.70332,2.16041 -8.31989,11.20487 -9,10 2.53487,-9.87515 -4.84665,-7.07443 -2,-20 z m 65.46875,0 c 2.84665,12.92557 -4.53487,10.12485 -2,20 -0.68011,1.20487 -10.70332,-7.83959 -9,-10 2.8043,-3.18473 6.46489,-8.84711 11,-10 z m -37.46875,9.28125 c 1.57243,0.02626 3.14641,0.248412 4.71875,0.71875 16.77167,-5.01694 34.3556,16.748636 35.75,32.875002 1.0995,12.71579 -20.46687,10.98895 -23.3125,30.375 -4.0171,4.9441 -12.4375,3.6875 -12.4375,3.6875 0,0 -8.38915,1.2566 -12.40625,-3.6875 -2.84563,-19.38605 -24.41196,-17.6592 -23.3125,-30.375 1.26363,-14.614441 15.79986,-33.84762 31,-33.593752 z m -19.09375,15.84375 c -0.0323,0.12664 0.85022,2.338731 -2.09375,4.000002 -4.52778,6.45749 -5.82005,12.04401 19.03125,20.375 -0.001,-1.62285 1.39298,-2.57346 1.90625,-3.3125 -8.2262,-11.73642 -10.43931,-11.50024 -16.78125,-18.468752 -1.67832,-2.00009 -2.04312,-2.66973 -2.0625,-2.59375 z m 47.65625,0 c -0.0194,-0.07598 -0.38418,0.59366 -2.0625,2.59375 -6.34194,6.968512 -8.55505,6.732332 -16.78125,18.468752 0.51327,0.73904 1.90725,1.68965 1.90625,3.3125 24.8513,-8.33099 23.55903,-13.91751 19.03125,-20.375 -2.94397,-1.661275 -2.06145,-3.873362 -2.09375,-4.000002 z m -46.1875,4.593752 c 0.72683,0.37923 16.84273,15.38639 15.15625,18.03125 -7.1161,-1.6254 -6.9472,-2.00027 -11.84375,-4.625 -6.16637,-5.05294 -11.15194,-9.45847 -3.3125,-13.40625 z m 44.71875,0 c 7.83944,3.94778 2.85387,8.35331 -3.3125,13.40625 -4.89655,2.62473 -4.72765,2.9996 -11.84375,4.625 -1.68648,-2.64486 14.42942,-17.65202 15.15625,-18.03125 z"
         style="fill:#000000;fill-opacity:1;display:inline" />
    </g>
  </g>
  <g
     inkscape:groupmode="layer"
     id="layer2"
     inkscape:label="Слой"
     style="display:inline" />
</svg>
