<?xml version="1.0" encoding="UTF-8" standalone="no"?>
<!-- Created with Inkscape (http://www.inkscape.org/) -->

<svg
   xmlns:dc="http://purl.org/dc/elements/1.1/"
   xmlns:cc="http://creativecommons.org/ns#"
   xmlns:rdf="http://www.w3.org/1999/02/22-rdf-syntax-ns#"
   xmlns:svg="http://www.w3.org/2000/svg"
   xmlns="http://www.w3.org/2000/svg"
   xmlns:sodipodi="http://sodipodi.sourceforge.net/DTD/sodipodi-0.dtd"
   xmlns:inkscape="http://www.inkscape.org/namespaces/inkscape"
   width="744.09448819"
   height="1052.3622047"
   id="svg2"
   version="1.1"
   inkscape:version="0.48.4 r9939"
   sodipodi:docname="Avatara. Wolf. 004 (вектор).svg"
   inkscape:export-filename="/home/mitryaev/Dropbox/AD&amp;D/Альманах/Иллюстрации/Существа/Волки и оборотни/Avatara. Wolf. 004 (вектор).png"
   inkscape:export-xdpi="90"
   inkscape:export-ydpi="90">
  <defs
     id="defs4" />
  <sodipodi:namedview
     id="base"
     pagecolor="#ffffff"
     bordercolor="#666666"
     borderopacity="1.0"
     inkscape:pageopacity="0.0"
     inkscape:pageshadow="2"
     inkscape:zoom="0.49497475"
     inkscape:cx="380.71429"
     inkscape:cy="567.74395"
     inkscape:document-units="px"
     inkscape:current-layer="layer1"
     showgrid="false"
     inkscape:window-width="566"
     inkscape:window-height="455"
     inkscape:window-x="2336"
     inkscape:window-y="137"
     inkscape:window-maximized="0" />
  <metadata
     id="metadata7">
    <rdf:RDF>
      <cc:Work
         rdf:about="">
        <dc:format>image/svg+xml</dc:format>
        <dc:type
           rdf:resource="http://purl.org/dc/dcmitype/StillImage" />
        <dc:title></dc:title>
      </cc:Work>
    </rdf:RDF>
  </metadata>
  <g
     inkscape:label="Layer 1"
     inkscape:groupmode="layer"
     id="layer1">
    <g
       id="g2996"
       transform="matrix(6.4111165,0,0,6.4111165,-1703.6322,-2381.2284)"
       inkscape:export-filename="/home/mitryaev/Рабочий стол/Avatara. Wolf. 004 (rebuild).png"
       inkscape:export-xdpi="89.925369"
       inkscape:export-ydpi="89.925369">
      <path
         style="fill:#d0d0d0;fill-opacity:1"
         d="m 279.04646,497.25504 c 1.13989,-1.765 1.07426,-18.11118 -0.0759,-18.91342 -0.57394,-0.40031 -0.26034,-2.4723 0.79073,-5.22448 0.95804,-2.50859 1.86353,-6.26005 2.0122,-8.33659 0.14868,-2.07653 1.00212,-5.18912 1.89653,-6.91686 1.55098,-2.99601 1.5351,-3.16517 -0.34328,-3.65638 -1.08322,-0.28327 -1.96898,-0.89466 -1.96836,-1.35865 6.2e-4,-0.46399 2.44729,-3.53457 5.43704,-6.82351 3.6527,-4.01823 5.04774,-6.2198 4.25261,-6.71122 -0.79704,-0.49259 0.26433,-2.20638 3.25135,-5.24993 2.43907,-2.48523 4.54603,-5.31518 4.68213,-6.28878 0.81943,-5.86184 6.85772,-21.59537 8.95644,-23.33716 2.02867,-1.68364 4.26897,-0.43335 4.97078,2.77416 1.33689,6.10994 2.77674,8.40312 6.16515,9.81889 2.82723,1.18129 4.14845,1.21763 7.45066,0.20493 4.33744,-1.33019 5.52368,-2.80393 7.83271,-9.731 1.10197,-3.30591 2.02353,-4.5 3.47295,-4.5 2.66744,0 9.38971,16.8571 9.47102,23.75 0.0308,2.6125 0.50603,4.75 1.05603,4.75 0.55,0 1,0.83667 1,1.85927 0,1.0226 1.56513,3.8351 3.47807,6.25 1.91295,2.4149 2.99667,4.55449 2.40828,4.75464 -0.58838,0.20015 0.62974,2.10439 2.70695,4.23164 2.07721,2.12726 3.47239,4.17209 3.1004,4.54408 -0.37199,0.37199 -0.22836,1.21615 0.31919,1.8759 0.54754,0.65975 1.8518,3.62615 2.89834,6.59201 1.04655,2.96585 2.5999,7.19246 3.4519,9.39246 0.852,2.2 1.56884,5.15149 1.59298,6.55887 0.0241,1.40738 0.70458,3.43238 1.51209,4.5 2.56613,3.39273 1.71175,5.21752 -0.9998,2.13537 -2.24128,-2.54761 -2.98629,-5.01559 -2.54564,-8.43293 0.0879,-0.68127 -0.3997,-2.25627 -1.08343,-3.5 -0.68373,-1.24372 -1.3461,-2.88262 -1.47194,-3.64201 -0.12583,-0.75938 -0.77599,-1.88438 -1.44479,-2.5 -0.90123,-0.82955 -1.04776,-0.81908 -0.56606,0.0405 1.07563,1.91933 -0.38179,4.22055 -2.4239,3.82727 -1.05003,-0.20222 -2.61475,0.33794 -3.47717,1.20036 -1.25402,1.25402 -2.00731,1.33921 -3.76174,0.42539 -1.20655,-0.62844 -1.52275,-0.98725 -0.70266,-0.79734 2.6341,0.60996 4.13635,-1.85011 2.9827,-4.88444 -1.37452,-3.61526 -0.27286,-4.47897 1.95153,-1.53002 2.45698,3.25728 3.61142,1.0376 1.54183,-2.96454 -1.86537,-3.60723 -1.43006,-4.75651 0.91382,-2.41263 0.89048,0.89048 1.61905,1.38308 1.61905,1.09467 0,-1.49236 -2.65229,-6.42283 -4.63622,-8.61848 -1.24242,-1.375 -2.34543,-2.95 -2.45115,-3.5 -0.10572,-0.55 -1.25431,-2.39248 -2.55242,-4.09439 -2.6048,-3.41507 -3.02772,-4.88237 -1.11021,-3.85187 0.6875,0.36947 -0.46486,-1.00813 -2.56081,-3.06133 -2.10347,-2.06059 -3.57623,-4.34439 -3.28724,-5.0975 0.58907,-1.53509 -2.91127,-3.8162 -4.42262,-2.88214 -1.39343,0.86119 -1.21492,-0.87718 0.23942,-2.33152 0.95833,-0.95833 0.47756,-1.07187 -2.25,-0.53135 -3.12861,0.62 -3.33691,0.52708 -2.12424,-0.94758 1.21022,-1.4717 0.97544,-1.58774 -2.35075,-1.16189 -3.06561,0.3925 -4.03091,0.0464 -5.66507,-2.03108 -1.56574,-1.99053 -2.35071,-2.30034 -3.8268,-1.51036 -1.02135,0.54661 -2.49804,0.74785 -3.28153,0.4472 -0.83186,-0.31922 -2.11095,0.50098 -3.07443,1.97143 -1.10944,1.69322 -2.19436,2.30916 -3.31196,1.88029 -1.11715,-0.42869 -1.425,-0.25422 -0.939,0.53215 0.48173,0.77946 -0.15074,1.16994 -1.89497,1.16994 -1.60013,0 -2.36167,0.41481 -1.95866,1.06688 0.36265,0.58679 0.0517,0.94368 -0.69099,0.79311 -0.74269,-0.15058 -2.70035,0.47631 -4.35035,1.39308 -2.36433,1.31366 -2.58678,1.67534 -1.04983,1.70689 1.41735,0.0291 0.81935,0.77327 -2.18876,2.72377 -2.27641,1.47605 -4.05398,3.16355 -3.95017,3.75 0.10382,0.58645 -0.48624,0.91627 -1.31124,0.73294 -0.825,-0.18334 -1.15335,0.0133 -0.72966,0.437 0.42369,0.42369 -0.92631,2.59869 -3,4.83334 -2.07369,2.23464 -3.11784,3.50049 -2.32034,2.81299 1.94209,-1.67422 3.39254,-1.58503 2.72013,0.16725 -0.43435,1.13189 0.0946,1.08155 2.62699,-0.25 3.72928,-1.96088 7.69993,-6.09784 7.70166,-8.02424 7e-4,-0.78001 0.62337,-1.11825 1.46444,-0.7955 1.05741,0.40577 1.66825,-0.46592 2.20247,-3.14301 0.40659,-2.03747 0.64814,-4.042 0.53678,-4.4545 -0.37703,-1.39661 1.85625,-0.76056 2.41167,0.68686 0.30326,0.79027 1.07664,1.23542 1.71862,0.98921 0.77769,-0.29825 1.26631,1.30805 1.46409,4.81314 0.32064,5.6822 1.91897,11.48068 3.73803,13.56098 1.84721,2.11247 3.74764,-1.16187 4.25995,-7.33968 0.24867,-2.9986 1.09275,-5.95225 1.89013,-6.61401 1.20912,-1.00349 1.33828,-0.78728 0.80322,1.34458 -0.86744,3.45615 1.20757,10.80892 3.05036,10.80892 0.80381,0 1.46146,0.47656 1.46146,1.05902 0,0.58246 0.4683,0.76959 1.04068,0.41584 0.57237,-0.35375 0.76705,-1.5053 0.43261,-2.55902 -0.68023,-2.14322 -0.63929,-2.15103 5.27671,-1.00656 3.54047,0.68491 4.25,0.56078 4.25,-0.74355 0,-1.21039 0.27004,-1.29569 1.18988,-0.37585 1.32634,1.32634 1.59589,2.16018 2.33078,7.21012 0.42399,2.91345 0.34465,3.12293 -0.47343,1.25 -0.97743,-2.23774 -4.04723,-3.17359 -4.04723,-1.23382 0,0.5589 -1.52717,1.74443 -3.3937,2.63452 -2.80537,1.33779 -3.50936,2.33181 -4.06086,5.73382 l -0.66714,4.11548 -2.02598,-4.65607 c -2.3917,-5.49658 -5.80445,-7.22224 -5.93354,-3.00031 l -0.0812,2.65638 -1.23225,-2.78279 -1.23225,-2.78279 -1.41915,2.65171 c -1.53192,2.8624 -1.99019,14.70446 -0.62215,16.07652 0.45747,0.45881 1.38998,0.0708 2.07225,-0.86226 1.15416,-1.57842 1.35934,-1.55766 2.94841,0.29824 0.93936,1.09709 1.44279,2.42371 1.11874,2.94804 -0.32406,0.52433 0.0255,0.95333 0.77678,0.95333 0.75129,0 1.85497,-1.2375 2.45264,-2.75 0.97888,-2.47724 1.09721,-2.16269 1.19304,3.17126 0.0735,4.09039 -0.37757,6.45601 -1.45876,7.65072 -1.60202,1.77022 -0.69051,3.34389 1.22335,2.11204 1.29199,-0.83158 4.34179,-6.63142 4.34179,-8.25681 0,-0.86379 -0.39456,-0.84464 -1.5,0.0728 -1.03636,0.8601 -1.5,0.89795 -1.5,0.12244 0,-0.61734 0.46114,-1.12244 1.02475,-1.12244 0.56361,0 1.51317,-1.2375 2.11013,-2.75 1.00463,-2.54539 1.14079,-2.6012 1.82996,-0.75 1.54569,4.15186 -2.81854,13.13239 -7.51529,15.46465 -1.62225,0.80557 -5.08109,1.38594 -7.68631,1.28973 -2.60522,-0.0962 -4.63022,0.14469 -4.5,0.53534 0.29249,0.87747 -1.17439,1.04628 -3.59386,0.41357 -1.23771,-0.32367 -1.66619,-1.10747 -1.32296,-2.41999 0.36277,-1.38726 0.10039,-1.785 -0.91938,-1.39367 -0.93823,0.36003 -1.42704,-0.12671 -1.42704,-1.42102 0,-1.08273 -0.42961,-1.96861 -0.95469,-1.96861 -0.52507,0 -1.24431,-1.54383 -1.59829,-3.43073 -0.35399,-1.8869 -1.27438,-3.67278 -2.04532,-3.96862 -2.22409,-0.85346 -1.66434,-2.81878 0.5983,-2.10065 1.69515,0.53802 2,0.1797 2,-2.35082 0,-1.64209 0.30147,-3.77123 0.66994,-4.73144 0.49587,-1.29222 0.3218,-1.53067 -0.66994,-0.91774 -0.96508,0.59645 -1.17014,0.38577 -0.73308,-0.7532 0.34927,-0.91019 -0.003,-1.81529 -0.83006,-2.13266 -1.02444,-0.39311 -1.45505,0.22896 -1.50025,2.16724 l -0.0634,2.71862 -1.09283,-2.5 c -0.60106,-1.375 -1.02253,-2.8375 -0.93661,-3.25 0.0859,-0.4125 -0.18129,-0.69671 -0.59379,-0.63158 -2.21888,0.35035 -3.25,-0.33198 -3.25,-2.15064 0,-1.17286 -0.95146,-2.41467 -2.25,-2.93662 -1.33443,-0.53638 -1.63962,-0.9446 -0.75,-1.00321 0.96552,-0.0636 0.65647,-0.5665 -0.86734,-1.41137 -2.02787,-1.12433 -2.12797,-1.4044 -0.69806,-1.95311 1.10538,-0.42417 1.43063,-0.25443 0.96283,0.50249 -0.40573,0.65649 -0.26638,0.87108 0.32735,0.50413 1.23824,-0.76527 2.39024,-4.67009 1.37777,-4.67009 -0.39062,0 -2.26099,1.66791 -4.15638,3.70647 -1.8954,2.03855 -2.72977,3.16746 -1.85416,2.50867 0.8756,-0.65878 1.85163,-0.93817 2.16895,-0.62085 0.70007,0.70007 -3.3136,5.49102 -4.16164,4.96756 -0.32963,-0.20346 -0.66524,0.72833 -0.74581,2.07065 -0.12545,2.0901 0.0748,2.25695 1.39425,1.16188 1.31501,-1.09136 1.45797,-0.98684 0.97583,0.71346 -1.9676,6.9389 -1.9771,7.01947 -0.68279,5.78896 0.96164,-0.91423 1.76917,-0.92778 3.3624,-0.0564 1.15324,0.63073 2.9968,1.17217 4.0968,1.2032 1.3777,0.0389 1.94386,0.67846 1.81958,2.0556 -0.0992,1.09955 0.44458,2.34895 1.20847,2.77644 0.76388,0.4275 1.13542,1.43778 0.82563,2.24507 -0.30979,0.8073 -0.99638,1.20012 -1.52577,0.87294 -0.52939,-0.32718 -1.19976,0.31229 -1.4897,1.42105 -0.52463,2.00617 -4.618,3.74846 -6.32627,2.69269 -1.04429,-0.64541 -3.25462,3.98278 -5.13046,10.74262 -1.09289,3.93838 -1.71806,4.75 -3.65881,4.75 -1.63645,0 -2.09781,-0.37609 -1.53342,-1.25 z m 6.8806,-16.51348 c -0.84822,-0.84822 -2.55921,2.93623 -3.08029,6.81309 l -0.59816,4.45039 1.98165,-5.48932 c 1.08991,-3.01912 1.85347,-5.61749 1.6968,-5.77416 z m 38.68015,8.1012 c -0.6875,-0.27741 -1.8125,-0.27741 -2.5,0 -0.6875,0.27741 -0.125,0.50438 1.25,0.50438 1.375,0 1.9375,-0.22697 1.25,-0.50438 z m -12.56906,-13.62991 c 1.32816,0.50966 1.37541,0.26599 0.32791,-1.69128 -0.96984,-1.81215 -1.40587,-1.99927 -2.10102,-0.90163 -0.48246,0.76181 -0.84857,2.0601 -0.81357,2.8851 0.0397,0.93659 0.24605,1.05159 0.54929,0.30618 0.26712,-0.65661 1.18394,-0.92587 2.03739,-0.59837 z m -3.31931,-3.20781 c 0.31658,-0.825 0.13972,-1.5 -0.39302,-1.5 -0.53273,0 -0.96861,0.675 -0.96861,1.5 0,0.825 0.17685,1.5 0.39301,1.5 0.21616,0 0.65203,-0.675 0.96862,-1.5 z m 2.38177,-11.5 c 0.14113,0 0.2566,-0.44085 0.2566,-0.97968 0,-0.53882 -1.8,-1.89796 -4,-3.02032 l -4,-2.04065 0,2.43854 c 0,4.62767 0.84194,5.50783 4.31565,4.51158 1.74413,-0.50021 3.28662,-0.90947 3.42775,-0.90947 z m -12.7434,-13.02763 c 0,-0.50028 -0.67242,-0.65157 -1.49426,-0.3362 -0.82184,0.31537 -1.24074,0.98359 -0.9309,1.48493 0.64806,1.04858 2.42516,0.20682 2.42516,-1.14873 z m 13.37874,-2.82869 c -0.50975,-2.54872 -0.90601,-2.95097 -2.00695,-2.03728 -1.84403,1.53042 -1.72702,2.91336 0.37664,4.4516 2.24579,1.64216 2.39686,1.41845 1.63031,-2.41432 z m 33.31059,-21.89368 c -0.25153,-0.9625 -0.45733,-0.175 -0.45733,1.75 0,1.925 0.2058,2.7125 0.45733,1.75 0.25152,-0.9625 0.25152,-2.5375 0,-3.5 z m -37.18933,0.75 c -0.33992,-0.55 -0.81648,-1 -1.05902,-1 -0.24254,0 -0.44098,0.45 -0.44098,1 0,0.55 0.47656,1 1.05902,1 0.58246,0 0.7809,-0.45 0.44098,-1 z m 2.33782,-1.75 c -0.15835,-0.9625 0.0392,-2.27094 0.43908,-2.90765 0.39984,-0.6367 0.30463,-2.2117 -0.21157,-3.5 -0.9354,-2.33446 -0.93877,-2.33328 -1.00194,0.34863 -0.0349,1.48004 -0.51461,2.96985 -1.06609,3.31069 -0.66681,0.41211 -0.65502,1.26937 0.0352,2.55902 1.29161,2.41341 2.18667,2.50727 1.80533,0.18931 z m 31.16218,0.25 c 0,-0.825 -0.7301,-1.5 -1.62244,-1.5 -1.13557,0 -1.33871,-0.37511 -0.67692,-1.25 1.32416,-1.75057 1.43163,-5.94978 0.13171,-5.14638 -0.66415,0.41046 -0.81386,-0.0865 -0.40968,-1.35997 0.40772,-1.28461 0.12186,-2.20445 -0.79433,-2.55603 -0.89731,-0.34433 -1.64947,0.26436 -2.01615,1.63158 -0.98644,3.67807 -0.71797,5.85242 0.63781,5.16566 0.6875,-0.34825 0.35,0.13574 -0.75,1.07552 -1.65351,1.41266 -1.69682,1.60419 -0.25,1.10554 1.14606,-0.395 1.75,-0.0963 1.75,0.86546 0,0.80774 0.70156,1.46862 1.55902,1.46862 0.85746,0 1.2809,0.45 0.94098,1 -0.33992,0.55 -0.14148,1 0.44098,1 0.58246,0 1.05902,-0.675 1.05902,-1.5 z m -25.65492,-4.04313 c -0.32569,-0.84872 -0.80663,-1.32866 -1.06875,-1.06653 -0.26213,0.26213 -0.17998,0.95654 0.18255,1.54313 0.98605,1.59546 1.56238,1.28551 0.8862,-0.4766 z m -31.30964,79.29313 c 0.0195,-0.6875 0.72269,-2.375 1.56267,-3.75 l 1.52723,-2.5 -0.54901,2.5 c -0.30196,1.375 -0.55517,3.0625 -0.56268,3.75 -0.007,0.6875 -0.46365,1.25 -1.01365,1.25 -0.55,0 -0.98405,-0.5625 -0.96456,-1.25 z m 50.92876,-58.91435 c -1.14511,-2.23286 -1.11829,-2.25968 0.60946,-0.60946 0.99401,0.9494 1.53304,2.00045 1.19784,2.33565 -0.3352,0.3352 -1.14848,-0.44159 -1.8073,-1.72619 z m -17.88525,-8.25232 c -0.0434,-1.05416 0.19293,-1.64479 0.52522,-1.3125 0.33229,0.33229 0.36782,1.19479 0.0789,1.91667 -0.31923,0.79773 -0.55619,0.56078 -0.60417,-0.60417 z m -1.07895,-3.02431 c 0,-0.24254 0.45,-0.7191 1,-1.05902 0.55,-0.33992 1,-0.14148 1,0.44098 0,0.58246 -0.45,1.05902 -1,1.05902 -0.55,0 -1,-0.19844 -1,-0.44098 z m 7,-4.34622 c 0,-0.43295 0.90973,-0.85572 2.02161,-0.93948 1.11189,-0.0838 1.76033,0.27049 1.44099,0.7872 -0.7025,1.13666 -3.4626,1.25805 -3.4626,0.15228 z"
         id="path3012"
         inkscape:connector-curvature="0" />
      <path
         style="fill:#b9b9b9;fill-opacity:1"
         d="m 279.35721,497.57014 c 0,-0.5142 0.43246,-2.07236 0.96102,-3.46259 0.62287,-1.63824 0.6083,-3.53952 -0.0414,-5.40324 -0.64453,-1.84892 -0.66857,-4.36146 -0.0673,-7.03742 0.74655,-3.32265 0.65702,-4.16185 -0.44401,-4.16185 -1.08911,0 -0.95513,-1.07563 0.63712,-5.11521 1.10893,-2.81337 1.76345,-5.91166 1.45449,-6.88509 -0.61254,-1.92995 1.03419,-6.47884 3.34845,-9.2497 1.31542,-1.57494 1.25196,-1.75 -0.63435,-1.75 -2.89649,0 -3.6007,-1.58456 -1.65037,-3.71353 6.9757,-7.6146 9.29253,-10.75734 8.35669,-11.33571 -0.62547,-0.38657 0.70701,-2.43767 3.26103,-5.01972 2.37525,-2.40133 4.32675,-4.8451 4.33666,-5.4306 0.0579,-3.421 6.29097,-20.59573 8.57225,-23.62011 2.21995,-2.94305 4.63607,-1.85602 5.44373,2.44916 1.63948,8.73915 7.2545,12.35408 14.46601,9.31316 3.67616,-1.55015 7,-6.04945 7,-9.47551 0,-2.50032 2.60797,-5.25481 4.3444,-4.58847 1.71202,0.65696 5.02653,10.01213 4.08629,11.53348 -0.44096,0.71348 -0.31624,0.93515 0.30882,0.54884 1.50672,-0.9312 4.27411,6.62416 4.09553,11.18142 -0.0827,2.11107 0.2454,4.47265 0.72916,5.24795 0.48376,0.7753 0.97069,2.01161 1.08207,2.74735 0.11138,0.73574 0.95562,2.16988 1.87608,3.18699 0.9676,1.06918 1.3537,2.40315 0.91529,3.16229 -0.41706,0.72215 -0.39005,0.97941 0.06,0.57169 0.91286,-0.82698 3.50233,0.96432 3.50233,2.42278 0,0.51512 -0.5625,0.62001 -1.25,0.2331 -0.6875,-0.38691 0.715,1.34456 3.11667,3.84771 2.40166,2.50315 4.08182,5.01206 3.73368,5.57536 -0.34813,0.56329 -0.18786,1.29927 0.35616,1.63549 0.54403,0.33623 1.46611,2.50482 2.04908,4.8191 0.58296,2.31428 1.99214,6.15108 3.13151,8.52623 1.13937,2.37514 2.31939,6.20014 2.62227,8.5 0.30288,2.29985 1.25358,5.2641 2.11267,6.58722 1.32566,2.0417 1.34002,2.33324 0.095,1.92696 -1.43618,-0.46865 -2.67099,-3.59729 -5.13987,-13.02298 -0.6757,-2.57969 -2.04979,-5.72969 -3.05353,-7 l -1.82499,-2.30965 0.66682,2.88038 c 0.49209,2.1256 0.32706,2.76712 -0.6298,2.44817 -0.71313,-0.23771 -1.37568,-1.75888 -1.47232,-3.38038 -0.0966,-1.62149 -0.56093,-3.84817 -1.03175,-4.94817 -0.78982,-1.8453 -0.71104,-1.88397 1.01843,-0.5 1.70927,1.3678 1.8139,1.33857 1.18723,-0.33179 -0.37798,-1.00748 -0.68723,-2.22932 -0.68723,-2.7152 0,-0.48588 -1.39662,-2.47408 -3.10359,-4.41821 -1.70698,-1.94414 -2.80908,-3.5348 -2.44911,-3.5348 0.35997,0 -0.55617,-1.58725 -2.03586,-3.52722 -1.47968,-1.93997 -2.39343,-3.82412 -2.03055,-4.18701 0.36289,-0.36288 -0.9476,-2.30591 -2.9122,-4.31783 -1.96459,-2.01193 -3.49546,-4.06528 -3.40192,-4.563 0.45986,-2.44689 -0.29681,-3.40494 -2.68921,-3.40494 -2.32969,0 -2.46924,-0.18597 -1.25,-1.66587 1.24051,-1.50574 1.09594,-1.59699 -1.50404,-0.94921 -2.42318,0.60373 -2.77597,0.45474 -2.23866,-0.94546 0.46222,-1.20454 0.22174,-1.50248 -0.87352,-1.08218 -0.83124,0.31897 -1.51134,0.12824 -1.51134,-0.42385 0,-0.66091 -0.66072,-0.65019 -1.93426,0.0314 -2.44781,1.31002 -3.06574,1.30272 -3.06574,-0.0362 0,-0.58928 -0.5625,-1.6276 -1.25,-2.30736 -1.62517,-1.60689 -9.75,-0.88908 -9.75,0.86138 0,1.88893 -2.69482,3.93295 -3.1974,2.42522 -0.26913,-0.8074 -0.9037,-0.66385 -2.02581,0.45826 -0.89866,0.89866 -2.56608,1.63393 -3.70536,1.63393 -1.13929,0 -2.07143,0.40598 -2.07143,0.90217 0,0.4962 -1.35593,1.37486 -3.01319,1.95258 -1.65725,0.57772 -3.30637,1.85925 -3.6647,2.84783 -0.35833,0.98858 -2.2649,3.6803 -4.23681,5.9816 -4.43252,5.17292 -8.92374,11.25668 -7.06178,9.56582 2.3261,-2.11236 3.40254,-1.38319 1.38147,0.93579 -1.87584,2.15234 -1.84378,2.15004 2.09501,-0.15015 3.92917,-2.29457 3.90036,-2.2365 -1.62674,3.27923 -3.0947,3.08834 -5.84219,6.74229 -6.10554,8.11988 -0.27674,1.44768 -0.0756,2.25556 0.47651,1.91431 0.52542,-0.32473 0.46041,0.33431 -0.14446,1.46452 -1.53898,2.87561 -1.36977,3.65539 0.46311,2.13423 1.37547,-1.14154 1.4788,-0.94637 0.86167,1.62756 -0.38567,1.60855 -1.15444,3.82463 -1.70839,4.92463 -0.98718,1.96029 -0.96555,1.96306 1.08958,0.13913 1.72489,-1.53084 2.77047,-1.70154 5.89551,-0.96248 2.19888,0.52002 3.82545,1.51432 3.86216,2.36086 0.0808,1.86486 -2.49066,4.96249 -4.11962,4.96249 -0.68543,0 -2.20897,1.63171 -3.38565,3.62603 -1.17668,1.99432 -2.40191,3.36353 -2.72274,3.0427 -0.32084,-0.32083 0.35727,-2.17755 1.50691,-4.12603 2.47789,-4.19971 0.44212,-5.15193 -2.24539,-1.05027 -2.17945,3.32626 -3.4608,12.15951 -1.59674,11.00746 1.00142,-0.61891 1.16138,-0.23898 0.671,1.59374 -0.35413,1.3235 -0.65002,3.19387 -0.65753,4.15637 -0.008,1.07878 -0.78076,1.75 -2.01365,1.75 -1.1,0 -2,-0.42071 -2,-0.9349 z m 66,-73.5651 c 0,-1.925 -0.17577,-3.5 -0.39059,-3.5 -0.21483,0 -0.57447,1.575 -0.7992,3.5 -0.22474,1.925 -0.049,3.5 0.39059,3.5 0.43956,0 0.7992,-1.575 0.7992,-3.5 z m -33.8828,-2.25 c 0.47794,-4.49859 0.40539,-8.02015 -0.20084,-9.75 -0.61266,-1.74816 -0.78504,-1.62225 -1.36904,1 -0.36747,1.65 -1.11234,3.81565 -1.65526,4.81255 -0.54292,0.9969 -0.67583,2.79337 -0.29535,3.99216 0.61359,1.93324 0.50593,2.02536 -0.95246,0.815 -1.74516,-1.44834 -1.98958,-1.18321 -1.08423,1.17609 0.44986,1.17234 1.03839,1.2376 2.99219,0.33179 1.3377,-0.62017 2.49195,-1.69009 2.56499,-2.37759 z m 30.13281,1.16665 c 0.32085,-0.32084 -0.0183,-2.00834 -0.7536,-3.75 -1.14635,-2.71518 -1.12134,-3.40623 0.17536,-4.8471 1.37438,-1.52717 1.32015,-1.6302 -0.59459,-1.12948 -1.61333,0.42189 -1.96669,0.18557 -1.50836,-1.00881 0.3292,-0.85788 0.14115,-2.37462 -0.41789,-3.37052 -1.19272,-2.12479 -1.3956,-1.75041 -3.52009,6.49565 -1.0827,4.20243 -1.10351,5.20523 -0.10004,4.82016 0.69689,-0.26742 2.10006,0.35546 3.11814,1.38418 2.00998,2.03099 2.70476,2.30224 3.60107,1.40592 z m -26.67526,-6.6134 c -1.87892,-2.68253 -2.03727,-1.91248 -0.36256,1.76312 0.66671,1.46326 1.37534,2.17102 1.57475,1.57281 0.1994,-0.59821 -0.34608,-2.09938 -1.21219,-3.33593 z m 18.39462,-0.30325 c 0,-0.55 -0.43621,-0.325 -0.96937,0.5 -0.53316,0.825 -0.96937,1.95 -0.96937,2.5 0,0.55 0.43621,0.325 0.96937,-0.5 0.53316,-0.825 0.96937,-1.95 0.96937,-2.5 z m -48.96937,81.61803 c 0,-0.55 0.45,-1.27811 1,-1.61803 0.55,-0.33992 1,-0.16803 1,0.38197 0,0.55 -0.45,1.27811 -1,1.61803 -0.55,0.33992 -1,0.16803 -1,-0.38197 z m 29.25,-8.14919 c -1.2375,-0.49742 -2.25,-1.41704 -2.25,-2.04361 0,-0.62656 -0.675,-0.88019 -1.5,-0.5636 -1.0023,0.38461 -1.5,-0.0421 -1.5,-1.28603 0,-1.02389 -0.61868,-2.09903 -1.37485,-2.3892 -1.53935,-0.59071 -2.7906,-6.6864 -1.3725,-6.6864 0.49844,0 0.62846,-1.26483 0.28892,-2.81073 -0.45607,-2.07649 -0.0965,-3.28212 1.37668,-4.61529 1.74577,-1.5799 1.81274,-1.98585 0.53789,-3.2607 -2.10324,-2.10323 -1.82214,-2.91904 1.47661,-4.28542 1.61301,-0.66814 2.72161,-1.73523 2.46356,-2.37132 -0.46683,-1.15073 -6.72369,-4.65654 -8.31059,-4.65654 -0.45764,0 -0.87392,2.08478 -0.92506,4.63283 -0.11329,5.64408 -0.71289,6.44402 -2.26945,3.02775 -0.65102,-1.42882 -1.56786,-2.36042 -2.03744,-2.07021 -1.58567,0.98 -0.95908,-10.25808 0.64623,-11.59037 0.825,-0.68469 1.5,-1.68479 1.5,-2.22244 0,-0.53766 1.575,-2.55256 3.5,-4.47756 1.925,-1.925 3.5,-3.95314 3.5,-4.50699 0,-0.55384 0.62016,-0.76901 1.37815,-0.47814 0.75797,0.29086 1.82271,0.0843 2.36608,-0.4591 0.65059,-0.65059 1.17256,-0.28197 1.5286,1.07952 0.29736,1.13711 0.20418,1.85952 -0.20706,1.60536 -0.81152,-0.50155 -5.06577,4.79245 -5.06577,6.30385 0,0.50901 1.125,1.66261 2.5,2.56354 2.1887,1.43409 2.5,1.44841 2.5,0.11501 0,-0.83768 0.61312,-1.52305 1.36249,-1.52305 0.84611,0 1.26226,0.913 1.09804,2.40901 -0.18105,1.64934 0.32374,2.56282 1.60075,2.89676 2.19458,0.5739 3.51674,-0.77627 4.46673,-4.56136 0.76722,-3.05683 2.21522,-3.70996 2.20465,-0.99441 -0.0206,5.28434 0.32973,6.25 2.26734,6.25 1.1,0 2.01431,0.5625 2.0318,1.25 0.0175,0.68937 0.70799,0.35521 1.53945,-0.74508 0.82921,-1.09729 1.44009,-2.89729 1.35751,-4 -0.24607,-3.28586 0.006,-3.80387 1.32124,-2.71779 0.6875,0.56762 3.15792,0.96022 5.48983,0.87245 3.8397,-0.14452 4.33517,0.11403 5.25,2.73964 1.3741,3.94371 1.29329,4.16698 -0.81692,2.25726 -1.71171,-1.54908 -1.97215,-1.49908 -4.12427,0.79175 -1.26345,1.34488 -3.25376,2.58171 -4.42291,2.7485 -1.57402,0.22456 -2.26627,1.21166 -2.66722,3.80327 -0.45563,2.94505 -0.65564,3.1712 -1.26143,1.42629 -2.25717,-6.50146 -8.9967,-8.17436 -11.59723,-2.87869 -1.37364,2.79727 -2.32281,14.7078 -1.36997,17.19086 0.83914,2.18676 3.06511,1.37138 4.06349,-1.48846 l 0.96004,-2.75 0.75466,2.84146 c 0.60856,2.29139 1.2035,2.75567 3.07319,2.39825 3.79028,-0.72455 4.81248,4.86655 1.49606,8.18297 -1.63594,1.63594 -1.69705,2.00927 -0.40976,2.50325 2.07262,0.79533 3.02017,0.0476 5.37363,-4.24073 1.40473,-2.55958 1.82493,-2.92159 1.37571,-1.1852 -1.13488,4.38671 -4.36424,7 -8.65023,7 -2.33516,0 -3.63818,0.39888 -3.26667,1 0.76496,1.23773 -4.14568,1.21662 -7.25,-0.0312 z m -0.10305,-17.71254 c 0.21442,-2.24844 0.0825,-3.89812 -0.29314,-3.66595 -0.37564,0.23216 -0.9109,-0.14319 -1.18945,-0.83412 -0.27856,-0.69093 -0.54199,-0.24373 -0.58541,0.99377 -0.0546,1.55702 -0.69493,2.25 -2.07895,2.25 -1.97907,0 -2.69896,1.9677 -1.25,3.41667 0.76478,0.76478 0.90471,1.29612 1.125,4.27189 0.24634,3.3277 3.86009,-2.11351 4.27195,-6.43226 z m 18.85305,4.36173 c 0,-0.825 0.45,-1.77811 1,-2.11803 0.55,-0.33992 1,0.057 1,0.88197 0,0.825 -0.45,1.77811 -1,2.11803 -0.55,0.33992 -1,-0.057 -1,-0.88197 z m 23.38518,-10.14587 c -1.06515,-3.4031 -1.03844,-3.46834 0.75531,-1.84502 1.02273,0.92556 1.85951,2.51309 1.85951,3.52785 0,3.02076 -1.43084,2.09991 -2.61482,-1.68283 z m -47.38518,-31.91314 c 0,-0.24254 0.45,-0.7191 1,-1.05902 0.55,-0.33992 1,-0.14148 1,0.44098 0,0.58246 -0.45,1.05902 -1,1.05902 -0.55,0 -1,-0.19844 -1,-0.44098 z"
         id="path3010"
         inkscape:connector-curvature="0" />
      <path
         style="fill:#a3a3a3;fill-opacity:1"
         d="m 279.78904,496.50974 c 0.31163,-1.09741 0.80342,-2.83798 1.09285,-3.86792 0.28944,-1.02994 0.0675,-3.07921 -0.49319,-4.55395 -0.63737,-1.67642 -0.69051,-4.14528 -0.14177,-6.58751 0.6121,-2.72426 0.53463,-4.02125 -0.25603,-4.28644 -0.79313,-0.26602 -0.59698,-1.87833 0.65297,-5.36723 0.98267,-2.74284 1.50096,-5.73153 1.15176,-6.64152 -0.36394,-0.94841 0.47397,-3.63851 1.96334,-6.30328 3.03087,-5.42281 3.05129,-5.50793 1.14613,-4.77685 -3.90848,1.49982 -3.19083,-1.23266 1.95054,-7.42677 3.04358,-3.66679 5.32139,-7.22038 5.0618,-7.89686 -0.25958,-0.67648 1.2343,-2.9324 3.31976,-5.01317 3.07553,-3.06861 4.13492,-5.19984 5.60866,-11.2832 0.99931,-4.125 3.11925,-10.11644 4.71099,-13.3143 3.51694,-7.06567 5.6389,-7.26413 7.31913,-0.68453 0.63188,2.47436 1.76705,5.48756 2.52261,6.696 1.60758,2.57119 7.84244,3.97056 10.75227,2.41326 1.06886,-0.57203 2.15531,-0.82814 2.41433,-0.56912 0.93426,0.93427 3.94955,-3.43362 5.6485,-8.18232 2.24296,-6.26923 4.61094,-6.85576 6.80662,-1.68595 0.89395,2.10483 1.63546,5.06446 1.6478,6.57696 0.0128,1.57252 0.57683,2.75 1.31722,2.75 1.50285,0 3.32905,6.09268 3.17899,10.60589 -0.0568,1.70824 0.28821,3.73324 0.76669,4.5 0.47848,0.76676 0.96109,1.99608 1.07247,2.73182 0.11138,0.73574 0.95562,2.16988 1.87608,3.18699 0.93391,1.03196 1.34101,2.38738 0.9211,3.0668 -0.45088,0.72954 -0.33516,0.95961 0.28874,0.57402 0.57266,-0.35392 1.56097,-0.0172 2.19624,0.74825 0.74274,0.89494 0.79258,1.51569 0.13961,1.73898 -0.55849,0.19099 0.69835,2.14725 2.79297,4.34725 2.09462,2.2 3.85441,4.675 3.91065,5.5 0.13531,1.98495 3.50472,11.36493 6.10662,17 1.14279,2.475 2.08768,5.86237 2.09976,7.52749 0.0121,1.66512 0.71833,4.0217 1.56944,5.23684 1.32333,1.88932 1.33346,2.12721 0.0699,1.64233 -1.68911,-0.64817 -3.61736,-5.5313 -3.61736,-9.16066 0,-2.95097 -4.41035,-12.0325 -6.79572,-13.99335 -0.93735,-0.77053 -1.07154,-1.07262 -0.29818,-0.67132 2.44248,1.26745 0.38295,-5.67019 -2.61096,-8.79515 -1.46812,-1.5324 -2.18694,-2.78618 -1.59736,-2.78618 0.58958,0 -0.46138,-1.67402 -2.33546,-3.72004 -1.87408,-2.04602 -3.20478,-4.24812 -2.95711,-4.89355 0.24768,-0.64542 -0.68349,-2.23391 -2.06927,-3.52996 -1.38577,-1.29605 -2.93868,-3.13382 -3.4509,-4.08394 -0.75519,-1.4008 -0.59598,-1.6093 0.84182,-1.10251 1.41102,0.49735 1.32218,0.18642 -0.43505,-1.52251 -1.2145,-1.18112 -2.88788,-2.14749 -3.71861,-2.14749 -0.99267,0 -1.29343,-0.56549 -0.87739,-1.64968 0.52889,-1.37828 0.17389,-1.53443 -2.15787,-0.9492 -2.27215,0.57028 -2.68029,0.41223 -2.19581,-0.85032 0.3776,-0.98399 0.0368,-1.5508 -0.93253,-1.5508 -0.93183,0 -1.25239,-0.48753 -0.82191,-1.25 0.56457,-1 0.43638,-1 -0.64099,0 -1.85945,1.72593 -4.9467,1.56991 -4.9467,-0.25 0,-1.68396 0.20933,-1.62084 -6.19798,-1.86883 -4.15944,-0.161 -4.76508,0.0855 -5.28331,2.15031 -0.44533,1.77433 -1.05692,2.18247 -2.55695,1.70638 -1.3216,-0.41946 -2.1803,-0.0819 -2.60459,1.02376 -0.3819,0.9952 -1.35789,1.45995 -2.46045,1.17162 -1.00511,-0.26284 -2.81191,0.3759 -4.0151,1.41943 -1.2032,1.04353 -2.77267,1.89733 -3.48771,1.89733 -0.71504,0 -2.06707,1.61632 -3.00451,3.59183 -0.93744,1.97551 -2.28979,3.81645 -3.00522,4.09099 -0.71543,0.27453 -2.46351,2.48321 -3.88463,4.90817 -1.42112,2.42495 -3.01489,4.40901 -3.5417,4.40901 -0.52682,0 -0.95785,0.43588 -0.95785,0.96861 0,0.53274 0.7875,0.68144 1.75,0.33044 1.52407,-0.55579 1.49179,-0.3381 -0.25,1.68619 l -2,2.32436 3,-1.83624 c 2.69849,-1.65169 2.58533,-1.39086 -1.12592,2.5952 -4.09579,4.39908 -5.29815,7.20665 -5.96625,13.93144 -0.26558,2.67324 -0.0987,3.14567 0.70642,2 0.78227,-1.11314 0.88399,-0.59733 0.39441,2 -0.36286,1.925 -0.76272,4.04948 -0.88859,4.72106 -0.12586,0.67158 -0.54187,1.53408 -0.92446,1.91666 -1.17504,1.17505 -0.78367,3.53474 0.4589,2.76679 0.67892,-0.4196 0.88442,-0.27652 0.49887,0.34732 -0.3606,0.58347 -1.04079,3.87711 -1.51153,7.31921 -0.76332,5.58153 -0.6986,6.05129 0.59844,4.34366 1.33341,-1.75552 1.39488,-1.62372 0.73942,1.5853 -0.90626,4.43686 -1.2561,5 -3.10611,5 -1.02984,0 -1.32862,-0.63302 -0.94177,-1.9953 z m 22.94973,-70.55664 c 0.34149,-0.88992 0.17385,-1.29132 -0.39301,-0.94098 -0.5437,0.33602 -0.98855,1.0344 -0.98855,1.55194 0,1.43843 0.71677,1.12146 1.38156,-0.61096 z m 43.00152,-0.004 c 0.6493,-1.69205 -2.04976,-9.11076 -2.97723,-8.18329 -0.31234,0.31234 -0.0386,1.55686 0.60829,2.7656 0.64689,1.20874 0.97075,3.27228 0.71969,4.58565 -0.50722,2.65332 0.71395,3.26939 1.64925,0.83204 z m -37.06734,-1.59376 c 3.0235,-1.59145 3.66217,-2.80719 3.59866,-6.8503 -0.0528,-3.35848 -1.69938,-8.88649 -1.84411,-6.19098 -0.0388,0.72217 -0.58398,0.99153 -1.21613,0.60084 -0.80275,-0.49612 -0.95219,0.0634 -0.4991,1.86866 0.41174,1.64054 0.13436,3.0892 -0.76341,3.98697 -0.91507,0.91507 -1.0963,1.90594 -0.51621,2.82233 1.38052,2.18085 1.08633,3.29133 -0.51898,1.95903 -1.18306,-0.98185 -1.41534,-0.82349 -1.2872,0.87756 0.1825,2.4227 0.19534,2.42661 3.04648,0.92589 z m 33.21133,-1.89411 c 0.35481,-0.57409 0.23598,-1.58659 -0.26406,-2.25 -1.22651,-1.62721 -1.37009,-5.70619 -0.20086,-5.70619 0.51582,0 0.93785,-0.49815 0.93785,-1.10699 0,-0.60884 -0.675,-0.84797 -1.5,-0.53138 -0.92992,0.35684 -1.5,-0.005 -1.5,-0.95203 0,-0.8402 0.45,-1.24952 1,-0.9096 1.2656,0.78218 1.2656,-0.54163 0,-2.5 -0.86167,-1.33333 -0.97278,-1.33333 -1,0 -0.025,1.22353 -0.18908,1.24993 -0.89031,0.14324 -1.17407,-1.85293 -2.01148,-0.34176 -3.60186,6.49979 -1.07649,4.63093 -1.05958,5.39894 0.109,4.95051 0.78217,-0.30015 1.38317,0.0937 1.38317,0.90646 0,0.86669 0.59545,1.20873 1.5,0.86163 0.825,-0.31659 1.5,-0.0775 1.5,0.53138 0,1.40098 1.6744,1.44284 2.52707,0.0632 z m -26.10447,-5.10587 c -0.86354,-1.6699 -1.76392,-2.84233 -2.00084,-2.60541 -0.8017,0.8017 1.76603,6.75706 2.67199,6.19715 0.4944,-0.30556 0.19238,-1.92184 -0.67115,-3.59174 z m 17.0774,0.14968 c 0.85325,-1.65 1.32636,-3 1.05136,-3 -0.275,0 -1.19811,1.35 -2.05136,3 -0.85325,1.65 -1.32636,3 -1.05136,3 0.275,0 1.19811,-1.35 2.05136,-3 z m -27.5,0 c 0.59134,-1.10492 0.65928,-2 0.15181,-2 -0.5052,0 -1.1539,0.9 -1.44156,2 -0.28766,1.1 -0.35597,2 -0.15181,2 0.20415,0 0.85286,-0.9 1.44156,-2 z m 5.18333,-12.21667 c -0.71756,-0.71756 -1.18333,-0.7766 -1.18333,-0.15 0,1.33478 1.18261,2.51739 1.85,1.85 0.28417,-0.28416 -0.0158,-1.04916 -0.66667,-1.7 z m 4.11781,84.20443 c -2.72461,-1.09719 -6.33926,-4.61631 -5.55114,-5.40443 0.32083,-0.32083 0.0863,-0.58333 -0.52118,-0.58333 -0.60749,0 -1.11155,-0.7875 -1.12014,-1.75 -0.009,-0.9625 -0.24972,-3.325 -0.53585,-5.25 -0.4836,-3.25347 -0.41644,-3.36327 0.95346,-1.55887 0.81054,1.06762 1.47371,2.66512 1.47371,3.55 0,0.88488 0.54,2.14887 1.2,2.80887 0.66,0.66 0.86679,1.2 0.45953,1.2 -0.40726,0 0.38691,1.21583 1.76482,2.70184 1.37791,1.48602 2.85792,2.34923 3.2889,1.91824 0.43098,-0.43098 -0.11569,-1.45357 -1.21482,-2.27242 -1.09914,-0.81885 -1.88593,-1.90706 -1.74843,-2.41824 0.1375,-0.51118 -0.2,-0.92942 -0.75,-0.92942 -0.55,0 -1,-0.45 -1,-1 0,-0.55 0.5625,-0.8875 1.25,-0.75 0.81816,0.16363 1.25,-1.01656 1.25,-3.41615 0,-2.01638 0.3375,-4.00388 0.75,-4.41666 0.4125,-0.41279 0.75,0.44948 0.75,1.91614 0,3.43354 3.63373,3.73825 4.96884,0.41667 l 0.90439,-2.25 0.0634,2.25 c 0.0509,1.80743 0.64022,2.25 2.99599,2.25 3.83262,0 4.92641,3.05908 2.43101,6.79896 -0.99123,1.48557 -1.68382,3.26354 -1.53909,3.95104 0.17359,0.82461 -1.02794,1.25521 -3.53069,1.26531 -2.81771,0.0114 -3.4079,0.26473 -2.29384,0.98469 1.23858,0.80043 1.15144,0.961 -0.5,0.9213 -1.1,-0.0264 -2.98949,-0.44653 -4.19886,-0.93354 z m -2.63447,-10.65443 c -0.36667,-0.36666 -0.66667,-1.13166 -0.66667,-1.7 0,-0.6266 0.46577,-0.56756 1.18333,0.15 0.65084,0.65084 0.95084,1.41584 0.66667,1.7 -0.28417,0.28417 -0.81667,0.21667 -1.18333,-0.15 z m -26.93334,-1.45742 c 0.67834,-0.68342 1.48524,-0.99067 1.79313,-0.68278 0.30789,0.30788 -0.24711,0.86705 -1.23333,1.24258 -1.4252,0.54268 -1.54006,0.42782 -0.5598,-0.5598 z m 7.26667,-1.87591 c 0,-0.55 0.70156,-1 1.55902,-1 0.85746,0 1.2809,0.45 0.94098,1 -0.33992,0.55 -1.04148,1 -1.55902,1 -0.51754,0 -0.94098,-0.45 -0.94098,-1 z m -7,-1.5 c 0.68469,-0.825 1.67193,-1.5 2.19387,-1.5 0.52194,0 0.27399,0.675 -0.55101,1.5 -0.825,0.825 -1.81225,1.5 -2.19388,1.5 -0.38163,0 -0.13367,-0.675 0.55102,-1.5 z m 20,-1.94098 c 0,-0.24254 0.45,-0.7191 1,-1.05902 0.55,-0.33992 1,-0.14148 1,0.44098 0,0.58246 -0.45,1.05902 -1,1.05902 -0.55,0 -1,-0.19844 -1,-0.44098 z m 4,-5.12476 c 0,-0.31116 0.48862,-1.47874 1.08583,-2.59463 0.97583,-1.82337 0.84921,-1.96326 -1.25,-1.38104 -2.10271,0.58319 -2.06137,0.46972 0.41417,-1.13699 1.5125,-0.98166 2.75,-2.07081 2.75,-2.42033 0,-1.03157 -7.82167,-5.90127 -9.47856,-5.90127 -0.83679,0 -1.57473,0.7875 -1.63986,1.75 -0.15554,2.29847 -0.15276,2.32134 0.68714,5.6678 1.20523,4.80202 -1.23096,2.11518 -3.05124,-3.36517 -1.45031,-4.36649 -1.46976,-5.24242 -0.17177,-7.73824 0.80502,-1.54791 2.63156,-3.82391 4.05898,-5.05778 1.42742,-1.23386 2.59531,-2.69636 2.59531,-3.25 0,-0.55363 0.675,-1.00661 1.5,-1.00661 0.825,0 1.5,-0.765 1.5,-1.7 0,-1.30325 0.27454,-1.42546 1.17637,-0.52363 0.90183,0.90183 0.78514,1.60868 -0.5,3.02874 -2.40522,2.65774 -2.05904,5.51016 0.83143,6.8508 1.37071,0.63576 2.4922,0.74826 2.4922,0.25 0,-0.49825 0.50248,-0.90591 1.11663,-0.90591 0.61415,0 0.8943,0.85019 0.62257,1.8893 -0.27174,1.03912 -0.12849,2.48082 0.31833,3.20379 1.3441,2.17479 5.61161,-0.77055 6.45836,-4.45741 l 0.72017,-3.13568 0.98618,3.77059 c 1.77634,6.79171 7.77776,7.1775 7.77776,0.49998 0,-2.31067 0.35715,-2.8475 1.58179,-2.37756 0.86998,0.33384 3.27275,0.60699 5.33948,0.60699 3.03503,0 3.97616,0.47947 4.89365,2.49313 1.07106,2.35073 1.01913,2.42213 -0.90922,1.25 -1.78826,-1.08697 -2.32376,-0.89768 -4.263,1.50687 -1.21981,1.5125 -2.99956,2.75 -3.95502,2.75 -0.97497,0 -2.19594,1.2066 -2.78275,2.75 -0.99601,2.61966 -1.09553,2.6552 -2.09957,0.75 -1.59088,-3.01873 -3.88234,-4.5 -6.96131,-4.5 -3.1096,0 -4.84405,2.34214 -4.84405,6.54125 0,2.047 -0.37724,2.52797 -1.61134,2.0544 -1.17007,-0.449 -1.44706,-0.19022 -1.01145,0.94495 0.34724,0.90491 0.18058,1.30414 -0.39573,0.94796 -0.54758,-0.33843 -1.26557,0.0882 -1.59553,0.94806 -0.56381,1.46925 -2.38595,2.23115 -2.38595,0.99764 z m 25.55385,-13.52139 c 0.36954,-0.59792 0.14443,-1.61042 -0.50023,-2.25 -0.89422,-0.88717 -0.99836,-0.70681 -0.43926,0.76074 0.58217,1.52808 0.38873,1.79155 -0.94075,1.28138 -0.92049,-0.35322 -1.67361,-0.20634 -1.67361,0.32639 0,1.31999 2.72089,1.22925 3.55385,-0.11851 z"
         id="path3008"
         inkscape:connector-curvature="0" />
      <path
         style="fill:#8c8c8c;fill-opacity:1"
         d="m 280.1205,495.96299 c 0.26727,-1.39813 0.72287,-2.30512 1.01245,-2.01554 0.28958,0.28958 1.11397,-0.254 1.83198,-1.20795 1.09155,-1.45024 1.12123,-1.11996 0.1811,2.01554 -1.272,4.24232 -3.79841,5.25099 -3.02553,1.20795 z m 0.67819,-6.63259 c -0.8526,-2.67514 -0.78306,-8.17377 0.14017,-11.0826 0.41946,-1.32163 0.25958,-1.76267 -0.47452,-1.30897 -1.5151,0.93638 -1.3883,-0.82509 0.36072,-5.01109 0.80732,-1.93218 1.41111,-5.02237 1.34176,-6.86709 -0.0694,-1.84572 0.84448,-4.99903 2.03215,-7.01198 2.38546,-4.04306 2.65145,-4.96648 1.16616,-4.04852 -0.54564,0.33722 -1.63247,0.25128 -2.41518,-0.19099 -1.10383,-0.62372 -0.087,-2.3715 4.53254,-7.79064 3.27559,-3.84258 5.44456,-7.15687 4.81992,-7.36508 -0.62465,-0.20822 0.65296,-2.23928 2.83913,-4.51349 2.18617,-2.2742 4.22301,-5.25991 4.5263,-6.63491 2.59579,-11.768 6.88483,-22.47729 9.38658,-23.4373 2.00393,-0.76898 3.44172,0.25379 3.19938,2.27589 -0.10952,0.91378 0.2665,2.78641 0.83559,4.16141 0.56908,1.375 0.89209,2.65756 0.71779,2.85014 -0.6606,0.72986 -2.44997,-1.0297 -2.44997,-2.40916 0,-0.79254 -0.41968,-1.44098 -0.93261,-1.44098 -0.94626,0 -2.26325,3.08512 -1.98349,4.64644 0.37652,2.10134 -0.19586,3.35356 -1.53287,3.35356 -1.2653,0 -1.2653,-0.4396 0,-3.46788 1.69768,-4.06313 1.75364,-4.53212 0.54077,-4.53212 -0.4995,0 -1.80899,2.6674 -2.90996,5.92756 -1.68492,4.98934 -1.77579,6.01428 -0.57405,6.47543 0.87732,0.33666 1.33989,1.70065 1.19987,3.53814 -0.16911,2.21944 -0.94703,3.28817 -3.01775,4.14589 -1.53445,0.63559 -2.78991,1.73345 -2.78991,2.43969 0,0.70623 -1.575,3.16921 -3.5,5.47329 -1.925,2.30408 -3.5,4.57384 -3.5,5.04393 0,0.47008 -1.4625,2.26688 -3.25,3.99289 -3.07367,2.96793 -3.11479,3.09849 -0.75784,2.40644 2.24218,-0.65835 2.35337,-0.56453 1.10855,0.93539 -1.22227,1.47274 -1.16305,1.58469 0.50785,0.96003 1.25657,-0.46976 0.65722,0.67121 -1.78561,3.39924 -2.74221,3.06237 -3.84409,5.33377 -4.33406,8.93421 -0.36135,2.65533 -0.86748,5.72787 -1.12473,6.82787 -0.46131,1.97261 -0.44647,1.97342 1.08406,0.0589 1.99891,-2.50044 1.95839,-2.05381 -0.44822,4.94113 -1.99684,5.80392 -2.76548,11.13261 -1.00972,7 0.52879,-1.24462 0.63817,0.0773 0.2896,3.5 -0.66133,6.49397 -0.85766,6.9025 -1.8384,3.82536 z m 22.48823,-65.13438 c -0.0678,-2.11236 -0.10112,-2.11922 -0.92971,-0.19098 -1.18278,2.75248 -1.18278,3.731 0,3 0.55,-0.33992 0.96837,-1.60398 0.92971,-2.80902 z m 7.25362,-18.90765 c -0.71756,-0.71756 -1.18333,-0.7766 -1.18333,-0.15 0,1.33478 1.18261,2.51739 1.85,1.85 0.28417,-0.28416 -0.0158,-1.04916 -0.66667,-1.7 z m 4.85822,84.48491 c -3.30461,-1.3003 -6.20593,-5.20513 -7.49321,-10.08501 -0.75203,-2.85078 -1.01147,-5.18323 -0.57654,-5.18323 0.43492,0 1.27379,1.91825 1.86415,4.26278 0.59036,2.34452 2.01131,5.26952 3.15767,6.5 2.37983,2.55444 5.25131,3.03908 4.36801,0.73722 -0.31659,-0.825 -0.97746,-1.5 -1.46862,-1.5 -0.49115,0 -0.83173,-2.8125 -0.75683,-6.25 0.0749,-3.4375 0.32837,-5.25911 0.56326,-4.04802 0.37029,1.90918 1.16951,2.24162 6.01031,2.5 6.94221,0.37056 8.57948,2.20562 5.75212,6.44703 -1.04527,1.56804 -1.78208,3.41349 -1.63735,4.10099 0.17677,0.83965 -1.08374,1.25 -3.8397,1.25 -2.48059,0 -3.85848,0.3954 -3.48482,1 0.66926,1.08289 -0.15852,1.17321 -2.45845,0.26824 z m 55.28773,-5.04357 c -0.64389,-0.40959 -1.44174,-2.0902 -1.773,-3.73469 -0.56654,-2.81255 -0.53918,-2.84482 0.46105,-0.54385 0.58483,1.34537 1.55028,3.03287 2.14544,3.75 1.20986,1.45779 0.91815,1.64277 -0.83349,0.52854 z m -3.62088,-11.38177 c -0.38493,-1.4614 -0.95543,-3.4864 -1.26779,-4.5 -0.31235,-1.0136 0.16372,-0.57941 1.05794,0.96486 0.89422,1.54427 1.46472,3.56927 1.26778,4.5 -0.25134,1.18783 -0.56668,0.90024 -1.05793,-0.96486 z m -56.28577,-8.1858 c 2.10993,-6.63661 1.9154,-7.1817 -3.72979,-10.45175 -4.83811,-2.80254 -5.33452,-2.76914 -6.1331,0.41265 -0.55898,2.22716 -2.02758,2.61548 -2.07505,0.54867 -0.008,-0.36667 -0.34097,-1.17818 -0.73899,-1.80336 -0.39803,-0.62518 -0.0536,-1.69279 0.76531,-2.37245 0.81894,-0.67966 1.48899,-1.84528 1.48899,-2.59025 0,-0.74498 1.125,-2.09163 2.5,-2.99257 1.375,-0.90093 2.5,-2.26131 2.5,-3.02305 0,-0.76174 0.45,-1.38499 1,-1.38499 1.28205,0 1.27505,1.61755 -0.0175,4.03262 -0.87629,1.63737 -0.56411,2.02407 2.25,2.78709 2.08119,0.5643 3.74411,0.51292 4.58034,-0.14151 1.02957,-0.80575 1.18927,-0.50425 0.74005,1.39717 -0.31506,1.33355 -0.17558,3.03359 0.30994,3.77788 1.2121,1.85806 4.62144,-0.0224 6.57833,-3.62839 1.60618,-2.95973 1.46222,-3.18206 1.9588,3.02514 0.055,0.6875 -0.51882,1.11873 -1.27516,0.95828 -2.07839,-0.4409 -5.12484,2.79688 -5.12484,5.44671 0,1.41779 -0.5931,2.34501 -1.5,2.34501 -0.825,0 -1.5,0.36399 -1.5,0.80887 0,0.44488 -0.71174,1.68238 -1.58164,2.75 -1.45989,1.79172 -1.53653,1.79928 -0.99573,0.0982 z m 0.57737,-11.50183 c 0,-0.39969 -0.87507,-0.7267 -1.9446,-0.7267 -1.4624,0 -1.68228,0.31609 -0.8867,1.27471 1.03374,1.24557 2.8313,0.89765 2.8313,-0.54801 z m 50.58295,8.97894 c -0.43077,-0.697 -0.55146,-1.49904 -0.26819,-1.7823 0.28327,-0.28327 -0.14477,-2.09417 -0.9512,-4.02421 -0.80643,-1.93006 -1.02596,-3.23708 -0.48785,-2.90452 1.27637,0.78884 3.39993,7.24989 2.8878,8.78628 -0.29832,0.89497 -0.59252,0.87622 -1.18056,-0.0752 z m -62.01866,-2.84108 c -0.54268,-1.4252 -0.42782,-1.54006 0.5598,-0.5598 0.68342,0.67834 0.99067,1.48524 0.68278,1.79313 -0.30788,0.30789 -0.86705,-0.24711 -1.24258,-1.23333 z m 27.09984,-2.68298 c -1.63932,-2.50191 -1.6304,-2.61015 0.21499,-2.61015 2.06446,0 4.62149,-5.38098 3.4544,-7.26938 -0.40976,-0.663 -0.14381,-0.73141 0.7341,-0.18883 0.75715,0.46795 3.04371,0.73045 5.08123,0.58333 2.83592,-0.20476 3.9522,0.19517 4.76053,1.70555 0.90106,1.68365 0.7776,1.90023 -0.84181,1.47675 -1.28079,-0.33494 -2.45036,0.34715 -3.59766,2.09816 -1.05372,1.60818 -2.61881,2.59442 -4.11714,2.59442 -1.54599,0 -2.69856,0.76055 -3.19781,2.11015 -0.76514,2.06837 -0.81445,2.05847 -2.49083,-0.5 z m 7.88972,-3.69728 c 0.36954,-0.59792 0.14443,-1.61042 -0.50023,-2.25 -0.89422,-0.88717 -0.99836,-0.70681 -0.43926,0.76074 0.58217,1.52808 0.38873,1.79155 -0.94075,1.28138 -0.92049,-0.35322 -1.67361,-0.20634 -1.67361,0.32639 0,1.31999 2.72089,1.22925 3.55385,-0.11851 z m 22.07009,-2.19858 c -1.64882,-1.20565 -1.63416,-1.28572 0.23545,-1.28572 1.09658,0 1.7963,0.31952 1.55495,0.71003 -0.24136,0.39052 0.35418,0.91689 1.32342,1.16972 1.3559,0.35368 1.40279,0.48642 0.20337,0.57568 -0.85738,0.0638 -2.35011,-0.46257 -3.31719,-1.16971 z m -3.50298,-5.76455 c -1.24033,-1.67765 -2.4404,-4.04014 -2.66682,-5.25 -0.22641,-1.20986 -1.37107,-2.98724 -2.54368,-3.94974 -1.2887,-1.05778 -1.59377,-1.72552 -0.77124,-1.6881 0.74843,0.034 2.84929,2.10167 4.66857,4.59473 1.81928,2.49306 2.83178,4.23865 2.25,3.87908 -1.8146,-1.12148 -1.15921,0.72743 1.11652,3.14984 1.19588,1.27295 1.7305,2.31445 1.18806,2.31445 -0.54244,0 -2.00107,-1.37262 -3.24141,-3.05026 z m -8.12096,-12.34275 c 0,-0.94863 2.99338,-1.42672 3.52699,-0.56332 0.32507,0.52598 -0.33551,0.95633 -1.46797,0.95633 -1.13246,0 -2.05902,-0.17685 -2.05902,-0.39301 z m -0.5,-3.60699 c 0.34976,-0.56592 -0.47915,-1 -1.9096,-1 -1.93675,0 -2.37981,-0.38522 -1.89528,-1.64788 0.51682,-1.34682 0.13511,-1.55282 -2.08942,-1.12758 -2.03162,0.38837 -2.58823,0.1723 -2.19512,-0.85212 0.29583,-0.77091 -0.10326,-1.37242 -0.91058,-1.37242 -0.94166,0 -1.21237,-0.58598 -0.7851,-1.69944 0.37354,-0.9734 0.81495,-1.21101 1.03323,-0.55618 0.2096,0.6288 1.10514,0.86542 1.99009,0.52583 1.20036,-0.46062 1.44589,-0.19238 0.96677,1.05618 -0.79448,2.07039 0.62054,2.19123 2.27767,0.1945 0.91501,-1.10251 0.95639,-2.25698 0.16253,-4.53424 -0.58576,-1.68033 -0.68841,-2.82238 -0.2281,-2.53789 1.23855,0.76546 3.245,9.47995 2.47103,10.73227 -0.3902,0.63136 -0.0906,0.88054 0.72268,0.60108 1.41525,-0.4863 1.5326,-2.91403 0.40032,-8.28211 -0.55108,-2.61267 -0.47794,-2.75358 0.56648,-1.09143 1.78981,2.84841 1.93606,12.59143 0.189,12.59143 -0.76155,0 -1.10652,-0.45 -0.7666,-1 z m -35.35676,-3.89031 c -0.94581,-0.59929 -1.02153,-1.06687 -0.25,-1.54371 1.26842,-0.78393 3.10676,0.0995 3.10676,1.49304 0,1.16275 -1.07167,1.18176 -2.85676,0.0507 z m 2.13737,-2.46467 c -0.34909,-0.56484 -0.10504,-1.20354 0.54234,-1.41934 0.64738,-0.21579 1.193,-1.36735 1.21249,-2.55901 0.0354,-2.16454 0.0367,-2.16443 1.30196,0.11469 1.87876,3.38413 2.82912,1.47497 1.07431,-2.15814 -1.38039,-2.85792 -1.37494,-2.95552 0.0641,-1.14898 1.16017,1.45646 2.68091,1.93943 5.79841,1.8415 8.60952,-0.27044 9.77012,-1.09662 12.58227,-8.95675 2.2205,-6.20645 4.61893,-6.85873 6.72097,-1.82786 0.84684,2.02677 1.28835,3.9364 0.98113,4.24362 -0.30722,0.30722 -0.55858,0.11959 -0.55858,-0.41695 0,-0.53655 -0.70837,-1.84905 -1.57416,-2.91667 -0.86578,-1.06762 -1.24626,-1.3091 -0.84549,-0.53662 0.49568,0.95542 0.33772,1.16289 -0.49401,0.64885 -0.67248,-0.41561 -0.96591,-1.49764 -0.65206,-2.40451 0.42084,-1.21605 0.17625,-1.13933 -0.93183,0.29228 -0.82635,1.06762 -1.50245,2.779 -1.50245,3.80305 0,1.02406 -1.125,3.51751 -2.5,5.54101 -2.92177,4.29977 -3.26847,6.22024 -0.70395,3.89938 1.68669,-1.52643 1.79325,-1.45975 1.75,1.09501 -0.0346,2.04237 -0.60685,2.80007 -2.29605,3.03997 -1.64687,0.23389 -2.25,-0.183 -2.25,-1.55523 0,-1.60638 -0.76853,-1.86768 -5.36811,-1.82515 -4.31376,0.0399 -5.54131,0.43062 -6.25,1.9894 -0.948,2.08518 -5.05794,2.9046 -6.10128,1.21645 z m -6.00678,-1.47579 c -0.67597,-0.41777 -0.82775,-1.27296 -0.36021,-2.02947 0.62722,-1.01485 0.95636,-0.92097 1.47075,0.41952 0.79874,2.08148 0.4561,2.57819 -1.11054,1.60995 z"
         id="path3006"
         inkscape:connector-curvature="0" />
      <path
         style="fill:#767676;fill-opacity:1"
         d="m 280.06452,496.51629 c 0.28604,-1.09382 0.91891,-1.74226 1.40638,-1.44099 0.48747,0.30128 0.88631,-0.22878 0.88631,-1.17791 0,-0.94913 0.2469,-1.47878 0.54867,-1.17702 0.98301,0.98302 -0.7298,5.78467 -2.06346,5.78467 -0.80319,0 -1.09972,-0.7581 -0.7779,-1.98875 z m 0.29269,-10.01125 c 0,-1.82405 0.415,-2.86155 1,-2.5 0.55,0.33992 1,1.46492 1,2.5 0,1.03508 -0.45,2.16008 -1,2.5 -0.585,0.36155 -1,-0.67595 -1,-2.5 z m 32.95411,1.7182 c -2.29841,-1.8112 -4.95639,-5.95117 -4.93766,-7.69071 0.009,-0.84012 1.03371,0.27251 2.27703,2.47251 1.39017,2.45985 3.11651,4.12304 4.48355,4.31955 2.55759,0.36765 2.90952,-1.00487 0.72297,-2.81955 -0.96393,-0.79999 -1.47179,-2.89867 -1.42105,-5.87244 0.0434,-2.54516 0.30592,-4.06506 0.58333,-3.37756 0.30611,0.75861 2.40911,1.25 5.34963,1.25 5.4496,0 8.10645,1.83137 7.27416,5.01408 -0.29474,1.12709 -1.44048,2.53337 -2.54608,3.12507 -1.49076,0.79783 -1.68332,1.27784 -0.74522,1.85762 0.7888,0.4875 -0.68461,1.19991 -3.91412,1.89251 -6.09351,1.30683 -5.2246,1.32769 -7.12654,-0.17108 z m 56.91833,-4.4682 c -1.24387,-1.58606 -1.2085,-1.62143 0.37756,-0.37756 1.66575,1.30637 2.19548,2.12756 1.37244,2.12756 -0.20765,0 -0.99515,-0.7875 -1.75,-1.75 z m -89.84181,-2.75 c 0,-0.55 0.43621,-1.675 0.96937,-2.5 0.53316,-0.825 0.96937,-1.05 0.96937,-0.5 0,0.55 -0.43621,1.675 -0.96937,2.5 -0.53316,0.825 -0.96937,1.05 -0.96937,0.5 z m 88.04832,-0.91667 c -0.0434,-1.05416 0.19293,-1.64479 0.52522,-1.3125 0.33229,0.33229 0.36782,1.19479 0.0789,1.91667 -0.31923,0.79773 -0.55619,0.56078 -0.60417,-0.60417 z m -89.07895,-3.493 c 0,-0.63501 0.675,-2.77007 1.5,-4.74457 0.825,-1.97451 1.50689,-4.99755 1.51531,-6.71788 0.008,-1.72034 0.42756,-3.77949 0.93141,-4.57591 1.09626,-1.73282 0.35418,5.90968 -1.0145,10.44803 -0.86728,2.87579 -0.83764,2.91719 0.71605,1 1.42722,-1.76114 1.54501,-1.78123 0.98626,-0.16821 -0.34899,1.00748 -0.63453,2.54498 -0.63453,3.41666 0,0.87169 -0.2961,1.28879 -0.65799,0.92689 -0.3619,-0.36189 -1.2619,-0.15679 -2,0.45578 -0.99089,0.82236 -1.34201,0.81169 -1.34201,-0.0408 z m 88.07895,-2.507 c -0.0434,-1.05416 0.19293,-1.64479 0.52522,-1.3125 0.33229,0.33229 0.36782,1.1948 0.0789,1.91667 -0.31923,0.79773 -0.55619,0.56078 -0.60417,-0.60417 z m -55.04751,-12.16603 c 0.82298,-2.16459 0.67432,-3.09306 -0.75302,-4.70325 -1.3055,-1.47274 -1.44436,-2.12307 -0.52219,-2.44556 0.69093,-0.24162 1.01402,-0.83122 0.71798,-1.31023 -0.29605,-0.479 -1.20395,-0.61546 -2.01758,-0.30325 -1.09612,0.42063 -1.30873,0.0855 -0.82079,-1.29367 0.52863,-1.4942 0.40115,-1.62314 -0.64628,-0.65372 -1.06142,0.98237 -1.06603,1.49531 -0.0247,2.75 1.92957,2.32499 -0.25667,1.85078 -2.92403,-0.63424 l -2.33633,-2.17663 -1.7508,2.16215 c -1.18736,1.46632 -1.9041,1.76265 -2.22715,0.9208 -0.58747,-1.53093 3.68968,-7.98018 4.65335,-7.0165 0.38267,0.38267 1.91624,0.85652 3.40795,1.053 1.4917,0.19649 3.12402,0.76381 3.62739,1.26073 0.54717,0.54016 1.39142,0.2522 2.09946,-0.7161 0.98695,-1.34973 1.11002,-1.11374 0.73868,1.41638 -0.25393,1.73009 0.0669,3.35268 0.74589,3.77232 1.62264,1.00285 5.58618,-1.25536 6.73935,-3.83971 0.89607,-2.00816 0.96794,-1.97536 1.47413,0.67258 0.38015,1.98865 0.17057,2.64492 -0.73384,2.29787 -1.41498,-0.54298 -5.47888,3.32561 -5.47888,5.21557 0,0.66931 -0.675,1.47595 -1.5,1.79253 -0.825,0.31659 -1.5,1.17591 -1.5,1.9096 0,0.7337 -0.44864,1.61127 -0.99698,1.95016 -0.64777,0.40035 -0.63782,-0.32848 0.0284,-2.08084 z m 50.04751,0.16603 c -0.0434,-1.05416 0.19293,-1.64479 0.52522,-1.3125 0.33229,0.33229 0.36782,1.19479 0.0789,1.91667 -0.31923,0.79773 -0.55619,0.56078 -0.60417,-0.60417 z m -35.44944,-5.70306 c -1.49562,-1.74676 -1.47322,-1.88027 0.31555,-1.88027 1.26363,0 2.33108,-1.11714 3.10545,-3.25 1.06695,-2.93873 1.59303,-3.2652 5.49278,-3.4087 2.9022,-0.10679 4.48961,0.30205 4.85337,1.25 0.3113,0.81123 -0.0725,1.4087 -0.90499,1.4087 -0.79506,0 -2.18269,1.125 -3.08363,2.5 -0.90093,1.375 -2.1263,2.5 -2.72305,2.5 -0.71609,0 -0.67699,-0.408 0.11501,-1.2 1.50577,-1.50577 1.56193,-3.8 0.093,-3.8 -0.60884,0 -0.82874,0.7251 -0.48866,1.61134 0.45597,1.18825 0.19226,1.44784 -1.00435,0.98866 -1.052,-0.40369 -1.46818,-0.17908 -1.18338,0.63866 0.24162,0.69374 -0.3294,1.99496 -1.26893,2.89161 -1.58143,1.50926 -1.82774,1.4907 -3.31818,-0.25 z m -41.87951,0.16696 c 1.69338,-1.96057 1.57812,-3.38712 -0.21798,-2.69789 -2.40313,0.92216 -2.80249,-1.19003 -0.72449,-3.83178 4.09238,-5.20262 8.33385,-9.70951 8.74797,-9.29539 0.23771,0.23771 -1.25253,2.401 -3.31165,4.80732 -2.05912,2.40632 -3.06648,4.11547 -2.23859,3.79811 0.8279,-0.31735 2.03143,-0.0137 2.67452,0.67469 0.90847,0.97251 0.34969,2.00339 -2.50526,4.62193 -2.02099,1.85362 -3.11202,2.71898 -2.42452,1.92301 z m 3.8407,-5.78987 c -0.6935,-0.69349 -2.5907,0.71555 -2.5907,1.9241 0,0.6631 0.57378,0.58723 1.52417,-0.20152 0.83829,-0.69572 1.31823,-1.47088 1.06653,-1.72258 z m 62.45769,-8.16694 c -0.80266,-1.49979 -0.70074,-1.86243 0.47494,-1.68988 0.8233,0.12084 2.05486,0.84595 2.73679,1.61135 0.95432,1.07114 0.79371,1.05729 -0.69735,-0.0601 -1.74621,-1.30861 -1.87256,-1.27921 -1.28139,0.29823 0.87705,2.34022 0.0474,2.23284 -1.23299,-0.15957 z m -58.87968,-3.83134 c -1.71961,-0.61993 3.51526,-6.27251 5.76838,-6.22867 1.28953,0.0251 1.25312,0.21076 -0.20812,1.06146 -0.97407,0.56708 -1.54718,1.39325 -1.27358,1.83594 0.73506,1.18936 -2.73909,3.88919 -4.28668,3.33127 z m 55.33129,-3.25908 c -0.33992,-0.55 -0.14148,-1 0.44098,-1 0.58246,0 1.05902,0.45 1.05902,1 0,0.55 -0.19844,1 -0.44098,1 -0.24254,0 -0.7191,-0.45 -1.05902,-1 z m -1.5,-2.44098 c 0,-1.05548 1.91911,-1.49891 2.48992,-0.57533 0.34546,0.55897 -0.0734,1.01631 -0.9309,1.01631 -0.85746,0 -1.55902,-0.19844 -1.55902,-0.44098 z m -46.51362,-5.30902 c 0.46357,-4.43944 3.52281,-14.66425 4.71237,-15.75 0.77904,-0.71106 0.87735,-0.42212 0.34022,1 -0.80327,2.12679 -3.44346,12.48904 -3.50335,13.75 -0.0196,0.4125 0.41438,0.75 0.96438,0.75 0.55,0 1,-0.64844 1,-1.44098 0,-0.79254 0.39054,-1.68235 0.86786,-1.97735 0.47733,-0.29501 0.81483,0.46594 0.75,1.69098 -0.10221,1.93161 -2.79835,4.58459 -4.76825,4.69191 -0.35771,0.0195 -0.52116,-1.20206 -0.36323,-2.71456 z m 45.59257,1.33333 c -0.0434,-1.05416 0.19293,-1.64479 0.52522,-1.3125 0.33229,0.33229 0.36782,1.19479 0.0789,1.91667 -0.31923,0.79773 -0.55619,0.56078 -0.60417,-0.60417 z m -5.07895,-1.02431 c 0,-1.05548 1.91911,-1.49891 2.48992,-0.57533 0.34546,0.55897 -0.0734,1.01631 -0.9309,1.01631 -0.85746,0 -1.55902,-0.19844 -1.55902,-0.44098 z m -30.5,-2.55902 c -0.33992,-0.55 -0.14148,-1 0.44098,-1 0.58246,0 1.05902,0.45 1.05902,1 0,0.55 -0.19844,1 -0.44098,1 -0.24254,0 -0.7191,-0.45 -1.05902,-1 z m 27.29876,-0.0601 c 1.6172,-1.29163 6.28527,-2.88492 5.70593,-1.94752 -0.3425,0.55417 -0.0712,1.00759 0.60296,1.00759 2.90833,0 -0.40286,1.30834 -3.54161,1.39939 -1.90768,0.0553 -3.15296,-0.15142 -2.76728,-0.45946 z m -23.04876,-1.69201 c -1.94651,-0.43888 -2.12968,-1.10037 -0.85969,-3.10468 0.60911,-0.9613 1.062,-1.02942 1.55379,-0.23369 0.98883,1.59996 2.80896,0.1923 2.10921,-1.63122 -0.4591,-1.19639 -0.10158,-1.36342 1.68183,-0.78577 1.24567,0.40348 3.27438,0.7305 4.50824,0.72672 1.23402,-0.004 1.96683,0.44059 1.62872,0.98766 -0.33806,0.547 -1.91008,0.73546 -3.49338,0.4188 -2.0365,-0.4073 -2.87872,-0.18003 -2.87872,0.77682 0,1.87541 -2.15449,3.31783 -4.25,2.84536 z m 15.25,-1.88768 c 0,-0.90186 -0.7875,-2.23755 -1.75,-2.96819 -1.62151,-1.2309 -1.62525,-1.33078 -0.0509,-1.36025 2.11046,-0.0395 6.80089,-6.02941 6.80089,-8.68506 0,-2.82297 2.44316,-5.7744 4.21663,-5.09385 1.96752,0.75501 2.9541,4.41378 1.19016,4.41378 -0.72535,0 -1.08705,-0.375 -0.80378,-0.83334 0.28326,-0.45833 0.0119,-0.83333 -0.60301,-0.83333 -0.61492,0 -0.8331,-0.5625 -0.48486,-1.25 0.34825,-0.6875 -0.0752,-0.37649 -0.94098,0.69113 -0.86579,1.06762 -1.57416,2.60309 -1.57416,3.41214 0,0.80906 -1.16467,3.45838 -2.58816,5.88738 -1.42349,2.429 -2.29902,4.7055 -1.94563,5.0589 0.3534,0.35339 1.00544,0.0553 1.449,-0.66236 0.6598,-1.06757 0.89591,-1.06231 1.29832,0.029 0.7885,2.13831 -0.2273,3.83385 -2.29686,3.83385 -1.10964,0 -1.91667,-0.69043 -1.91667,-1.63976 z m 15.62354,-1.8989 c -0.96498,-2.51469 -0.68031,-3.16355 0.49853,-1.13634 0.58369,1.00375 0.8506,2.03566 0.59313,2.29313 -0.25747,0.25747 -0.74871,-0.26309 -1.09166,-1.15679 z m -38.62354,-3.40232 c 0,-0.58246 0.45,-1.05902 1,-1.05902 0.55,0 1,0.19844 1,0.44098 0,0.24254 -0.45,0.7191 -1,1.05902 -0.55,0.33992 -1,0.14148 -1,-0.44098 z m -1,-6.92416 c 0,-0.47583 0.94598,-2.06777 2.10219,-3.53764 1.66519,-2.11695 2.39275,-2.43134 3.5,-1.51241 0.76879,0.63804 1.39781,1.64099 1.39781,2.22876 0,0.58778 -0.61913,0.22198 -1.37584,-0.81288 -1.30391,-1.78321 -1.46209,-1.71479 -3.02568,1.30887 -1.62716,3.14658 -2.59848,4.01578 -2.59848,2.3253 z m 3.03063,0.36514 c 0,-0.55 0.43621,-1.675 0.96937,-2.5 0.53316,-0.825 0.96937,-1.05 0.96937,-0.5 0,0.55 -0.43621,1.675 -0.96937,2.5 -0.53316,0.825 -0.96937,1.05 -0.96937,0.5 z"
         id="path3004"
         inkscape:connector-curvature="0" />
      <path
         style="fill:#606060;fill-opacity:1"
         d="m 280.37252,487.25504 c -0.008,-1.5125 0.43469,-2.75 0.98469,-2.75 1.26441,0 1.26441,2.04347 0,4 -0.75538,1.16888 -0.97275,0.89294 -0.98469,-1.25 z m 32.8949,0.63179 c -1.276,-1.54656 -1.21852,-1.60714 0.604,-0.63652 1.51464,0.80666 2.49215,0.72325 3.94113,-0.33628 1.05981,-0.77494 1.42305,-1.40899 0.80722,-1.40899 -1.89999,0 -4.26256,-3.02338 -4.26256,-5.4548 0,-2.53602 2.16331,-3.50839 7.85699,-3.53155 2.67908,-0.0109 3.23212,0.31174 2.73866,1.59769 -0.44405,1.15717 -0.18886,1.44654 0.90538,1.02664 1.22175,-0.46883 1.39226,-0.045 0.86043,2.13866 -0.3648,1.49785 -1.27983,3.08852 -2.0334,3.53482 -0.75357,0.4463 -1.1396,1.18446 -0.85784,1.64035 0.28175,0.45589 -1.09074,1.12962 -3.04998,1.49718 -1.95925,0.36755 -4.13322,0.88737 -4.83104,1.15515 -0.69783,0.26778 -1.90337,-0.28228 -2.67899,-1.22235 z m -3.95605,-4.46744 c -0.61391,-1.1471 -0.92784,-2.274 -0.69762,-2.50422 0.23022,-0.23022 0.93203,0.70832 1.55958,2.08564 1.37807,3.02454 0.70709,3.35038 -0.86196,0.41858 z m -28.38987,-4.20748 c 0.37553,-0.98622 0.93469,-1.54122 1.24258,-1.23333 0.30789,0.30789 6.4e-4,1.11479 -0.68278,1.79313 -0.98762,0.98026 -1.10248,0.8654 -0.5598,-0.5598 z m -0.89762,-4.5402 c 0.26368,-1.00834 1.12155,-1.83334 1.90638,-1.83334 1.74225,0 1.82241,0.87121 0.22695,2.46667 -1.74733,1.74733 -2.68323,1.46949 -2.13333,-0.63333 z m 2.56533,-9.16667 c 0,-1.925 0.2058,-2.7125 0.45733,-1.75 0.25152,0.9625 0.25152,2.5375 0,3.5 -0.25153,0.9625 -0.45733,0.175 -0.45733,-1.75 z m 79.84695,-3.41667 c -0.0434,-1.05416 0.19293,-1.64479 0.52522,-1.3125 0.33229,0.33229 0.36782,1.19479 0.0789,1.91667 -0.31923,0.79773 -0.55619,0.56078 -0.60417,-0.60417 z m -50.23126,-4.83333 c -0.0838,-0.6875 -0.2049,-1.7 -0.26916,-2.25 -0.12365,-1.05834 -0.90026,-1.5 -2.63755,-1.5 -0.58246,0 -0.7809,0.45 -0.44098,1 1.05093,1.70044 -0.39555,1.10445 -2.55115,-1.05115 -1.3242,-1.3242 -2.74185,-1.83194 -4,-1.43262 -2.34758,0.7451 -2.50177,-0.24778 -0.39928,-2.571 1.26921,-1.40246 2.21906,-1.54127 5.25,-0.7672 2.03524,0.51978 4.26293,0.99236 4.95043,1.05018 0.6875,0.0578 1.04083,0.31429 0.78518,0.56994 -0.87301,0.87301 1.53156,4.20185 3.03519,4.20185 1.19012,0 1.27888,0.41317 0.42963,2 -1.18515,2.21448 -3.91381,2.70733 -4.15231,0.75 z m -2.84769,-5.86803 c 0,-0.55 -0.45,-0.72189 -1,-0.38197 -0.55,0.33992 -1,1.06803 -1,1.61803 0,0.55 0.45,0.72189 1,0.38197 0.55,-0.33992 1,-1.06803 1,-1.61803 z m 18,4.61803 c 0,-0.825 0.42545,-1.5 0.94543,-1.5 0.51999,0 1.53585,-1.2375 2.25747,-2.75 1.10613,-2.31841 2.0171,-2.79242 5.80457,-3.02027 4.41324,-0.2655 4.45538,-0.23903 2.38751,1.5 -1.15776,0.97365 -2.38114,2.55777 -2.71862,3.52027 -0.33747,0.9625 -1.19021,1.71447 -1.89498,1.67105 -1.00364,-0.0618 -1.01044,-0.18827 -0.0314,-0.58333 1.48129,-0.59772 1.69685,-4.33772 0.25,-4.33772 -0.55,0 -1,0.70156 -1,1.55902 0,0.90405 -0.47462,1.26568 -1.12973,0.8608 -0.68638,-0.4242 -0.94627,-0.15303 -0.66223,0.69098 0.25713,0.76406 -0.24699,1.93739 -1.12027,2.6074 -2.14428,1.64517 -3.08777,1.5785 -3.08777,-0.2182 z m -44.34325,-3.17658 c -0.33342,-0.33342 1.2394,-2.8106 3.49515,-5.50485 2.25575,-2.69425 4.35112,-4.64888 4.65638,-4.34362 0.30526,0.30526 -0.98923,2.19089 -2.87663,4.19031 -2.14719,2.2746 -2.75719,3.39618 -1.62971,2.99647 1.06651,-0.3781 1.55394,-0.23756 1.1943,0.34435 -0.90353,1.46195 -4.14347,3.01336 -4.83949,2.31734 z m 5.07658,-0.44751 c 0.67834,-0.68342 1.48524,-0.99067 1.79313,-0.68278 0.30789,0.30788 -0.24711,0.86705 -1.23333,1.24258 -1.4252,0.54268 -1.54006,0.42782 -0.5598,-0.5598 z m 32.89167,0.32634 c -0.27117,-0.43876 -0.0796,-1.45126 0.42567,-2.25 0.71729,-1.13385 0.92206,-0.95896 0.93402,0.79775 0.0157,2.31303 -0.49232,2.85568 -1.35969,1.45225 z m 30.83388,-9.26878 c -0.36253,-0.58659 -0.44468,-1.281 -0.18255,-1.54313 0.26212,-0.26213 0.74306,0.21781 1.06875,1.06653 0.67618,1.76211 0.0999,2.07206 -0.8862,0.4766 z m -58.91162,-5.857 c -0.31393,-0.50795 0.89702,-1.95287 2.69098,-3.21093 2.15272,-1.50965 2.79511,-1.70566 1.88932,-0.57647 -0.75485,0.94101 -1.03725,1.71093 -0.62756,1.71093 0.40969,0 0.18469,0.675 -0.5,1.5 -1.42173,1.71308 -2.62601,1.91415 -3.45274,0.57647 z m 7.02412,-8.96097 c -0.30066,-0.48648 0.0911,-2.62398 0.87052,-4.75 0.77945,-2.12603 1.44888,-3.33229 1.48764,-2.6806 0.0387,0.6517 -0.3684,2.3392 -0.90479,3.75 -0.78422,2.06265 -0.67472,2.5651 0.55902,2.5651 0.84384,0 1.25615,0.45 0.91623,1 -0.76466,1.23725 -2.20034,1.29387 -2.92862,0.1155 z m 39.92862,-3.1155 -3,-0.76337 3.25,-0.11832 c 1.7875,-0.0651 3.25,0.33169 3.25,0.88169 0,0.55 -0.1125,0.94676 -0.25,0.88169 -0.1375,-0.0651 -1.6,-0.46184 -3.25,-0.88169 z m -25.84695,-1.89919 c -1.67685,-0.63099 -1.69988,-0.81706 -0.25,-2.02035 1.14696,-0.95189 1.59695,-0.99243 1.59695,-0.14389 0,0.64981 0.45,0.90335 1,0.56343 0.55,-0.33992 1,-1.53962 1,-2.66601 0,-1.57735 0.40215,-1.87088 1.75,-1.27735 0.9625,0.42385 2.71953,0.80949 3.90451,0.85699 1.18498,0.0475 1.92964,0.45022 1.6548,0.89492 -0.27484,0.4447 -1.80687,0.52144 -3.40451,0.17054 -1.59764,-0.3509 -2.9048,-0.23825 -2.9048,0.25033 0,2.0554 -2.56255,4.04286 -4.34695,3.37139 z m 15.34695,-1.66724 c 0,-0.9422 -0.7875,-2.31088 -1.75,-3.04152 -1.64128,-1.24591 -1.62575,-1.33237 0.25,-1.39167 2.22487,-0.0703 5.29008,-3.75107 6.52239,-7.83213 0.60706,-2.01039 0.8192,-2.17515 0.86045,-0.66825 0.0301,1.1 -1.05391,3.8 -2.40893,6 -2.42342,3.93467 -3.19754,6.74121 -1.72391,6.25 0.4125,-0.1375 0.943,0.2 1.17889,0.75 0.23589,0.55 -0.32661,1.1455 -1.25,1.32332 -1.04432,0.20112 -1.67889,-0.32417 -1.67889,-1.38975 z m -26.92067,-3.93357 c -0.005,-1.1 0.63465,-3.125 1.42067,-4.5 1.8261,-3.19442 1.83398,-2.51064 0.0288,2.5 -0.79258,2.2 -1.44486,3.1 -1.44951,2 z m 2.92067,-8.38922 c 0,-0.48906 0.92226,-1.95156 2.04946,-3.25 l 2.04947,-2.36078 -1.57515,3.25 c -1.54996,3.19805 -2.52378,4.10897 -2.52378,2.36078 z m 30,-4.05176 c 0,-0.51754 0.44485,-1.21592 0.98855,-1.55194 0.56686,-0.35034 0.7345,0.0511 0.39301,0.94098 -0.66479,1.73242 -1.38156,2.04939 -1.38156,0.61096 z m 3.56429,-0.76589 c -0.54268,-1.4252 -0.42782,-1.54006 0.5598,-0.5598 0.68342,0.67834 0.99067,1.48524 0.68278,1.79313 -0.30788,0.30789 -0.86705,-0.24711 -1.24258,-1.23333 z"
         id="path3002"
         inkscape:connector-curvature="0" />
      <path
         style="fill:#494949;fill-opacity:1"
         d="m 320.35721,486.66003 c 0,-0.63525 -0.64286,-1.15499 -1.42857,-1.15499 -2.1942,0 -4.57143,-2.87368 -4.57143,-5.52612 0,-1.92042 0.66282,-2.5076 3.41306,-3.02355 4.19746,-0.78745 8.5582,0.32054 6.46907,1.64368 -1.14959,0.72808 -1.12975,0.89786 0.11787,1.0091 0.825,0.0735 1.77085,0.10266 2.10189,0.0647 0.33104,-0.038 0.39108,1.03373 0.13342,2.38158 -0.25765,1.34785 -0.94307,2.45063 -1.52315,2.45063 -0.58007,0 -1.87761,0.74474 -2.88342,1.65499 -1.09416,0.99019 -1.82874,1.19104 -1.82874,0.5 z M 282.5151,465.50504 c 0,-1.375 0.22698,-1.9375 0.50439,-1.25 0.27741,0.6875 0.27741,1.8125 0,2.5 -0.27741,0.6875 -0.50439,0.125 -0.50439,-1.25 z m 29.34211,-9 c -0.33992,-0.55 -0.33992,-1.45 0,-2 1.03109,-1.66835 -0.59744,-3.42706 -1.71933,-1.85676 -0.72545,1.01539 -0.81963,0.89543 -0.37432,-0.4768 0.39349,-1.21255 0.17142,-1.68325 -0.65567,-1.38977 -0.68787,0.24409 -1.14463,1.40024 -1.01501,2.56923 l 0.23567,2.12544 -2.07812,-2.07812 c -1.19188,-1.19188 -2.86615,-1.87206 -3.92592,-1.59492 -1.60099,0.41867 -1.68882,0.22111 -0.65755,-1.47913 0.97881,-1.61375 1.90082,-1.85678 5.19025,-1.36812 2.2,0.32683 4.45,1.33206 5,2.23384 0.55,0.90179 1.75,2.4291 2.66667,3.39403 0.91666,0.96493 1.40416,2.01691 1.08333,2.33775 -0.92006,0.92006 -3.0716,0.681 -3.75,-0.41667 z m 17.5944,-3.0846 c 1.31936,-1.87847 2.50453,-3.59457 2.6337,-3.81355 0.12918,-0.21898 2.15088,-0.58975 4.49269,-0.82393 l 4.25782,-0.42578 -2.4893,2.32393 c -1.64943,1.53984 -2.5984,1.90218 -2.81263,1.07393 -0.46295,-1.78978 -2.17668,-1.54649 -2.17668,0.30902 0,0.93567 -0.46778,1.26991 -1.16994,0.83595 -0.78665,-0.48618 -0.96074,-0.1779 -0.53138,0.94099 0.3512,0.91522 0.23948,1.66404 -0.24828,1.66404 -0.48775,0 -1.66713,0.29943 -2.62084,0.6654 -1.39952,0.53705 -1.27128,0.007 0.66484,-2.75 z m -40.99401,-7.61992 c 0.72815,-1.21249 1.53915,-1.98927 1.80223,-1.72619 0.26308,0.26308 -0.33267,1.25512 -1.3239,2.20452 -1.72194,1.64929 -1.74325,1.62798 -0.47833,-0.47833 z m 4.97856,-8.71215 c -0.0434,-1.05416 0.19293,-1.64479 0.52522,-1.3125 0.33229,0.33229 0.36782,1.19479 0.0789,1.91667 -0.31923,0.79773 -0.55619,0.56078 -0.60417,-0.60417 z m 6.58772,-8.25 c -1.21466,-1.21466 -0.69095,-2.27988 0.83333,-1.69496 0.825,0.31659 1.5,0.97746 1.5,1.46862 0,1.0484 -1.37764,1.18204 -2.33333,0.22634 z m 14.89809,-5.22855 c -0.3043,-0.49236 0.0962,-1.14445 0.89006,-1.44907 0.96277,-0.36945 1.25819,-0.0714 0.88726,0.89522 -0.6446,1.67981 -1.01089,1.79396 -1.77732,0.55385 z m 14.43524,-1.51116 c 0,-0.93306 0.70155,-1.22292 2.08454,-0.86126 1.58485,0.41445 1.76463,0.74789 0.75,1.39106 -1.94333,1.23186 -2.83454,1.06528 -2.83454,-0.5298 z m -12,-2.5346 c 0,-0.51754 0.44485,-1.21592 0.98855,-1.55194 0.56686,-0.35034 0.7345,0.0511 0.39301,0.94098 -0.66479,1.73242 -1.38156,2.04939 -1.38156,0.61096 z m 10,-0.94239 c 0,-0.48585 0.92572,-1.12545 2.05715,-1.42132 1.68797,-0.44142 1.84546,-0.28289 0.87756,0.88336 -1.32028,1.59084 -2.93471,1.88678 -2.93471,0.53796 z m -20,-12.11663 c 0.5887,-1.1 1.29537,-2 1.57037,-2 0.275,0 0.0183,0.9 -0.57037,2 -0.5887,1.1 -1.29537,2 -1.57037,2 -0.275,0 -0.0183,-0.9 0.57037,-2 z"
         id="path3000"
         inkscape:connector-curvature="0" />
      <path
         style="fill:#333333;fill-opacity:1"
         d="m 316.35721,483.50504 c -1.1,-1.1 -1.99311,-2.3375 -1.98469,-2.75 0.0559,-2.73667 6.98469,-5.59111 6.98469,-2.87746 0,0.77585 1.125,1.693 2.5,2.0381 3.19238,0.80124 3.35997,4.12563 0.25,4.95907 -3.83877,1.02875 -5.67629,0.704 -7.75,-1.36971 z m -3.87802,-27.35302 c -0.60754,-0.73205 -0.83847,-1.59716 -0.51317,-1.92246 0.3253,-0.3253 0.26515,-1.11944 -0.13367,-1.76475 -0.53886,-0.87188 -0.97415,-0.82475 -1.69447,0.18347 -0.73834,1.03343 -0.83518,0.93972 -0.40639,-0.39324 0.30962,-0.9625 0.14943,-1.75 -0.35598,-1.75 -0.5054,0 -1.3776,0.7875 -1.9382,1.75 -0.62898,1.07989 -1.03093,1.24875 -1.04969,0.44098 -0.0167,-0.71996 -0.48041,-1.0309 -1.03041,-0.69098 -0.55,0.33992 -1,0.0933 -1,-0.54797 0,-0.67026 -0.69788,-0.8982 -1.64144,-0.53613 -1.30875,0.50222 -1.40816,0.34878 -0.49045,-0.75699 0.83962,-1.01168 2.24126,-1.1875 5.18109,-0.64991 2.21654,0.40532 4.14844,0.90661 4.2931,1.11397 2.38936,3.42505 3.46234,5.87973 2.75989,6.31387 -0.48157,0.29763 -1.37266,-0.0578 -1.98021,-0.78986 z m 16.44096,-1.71653 c 2.07847,-2.29668 2.43706,-2.37718 2.43706,-0.54708 0,0.76085 -0.94142,1.62955 -2.09205,1.93045 -2.00746,0.52496 -2.02141,0.46903 -0.34501,-1.38337 z m 3.08772,-2.39843 c -0.30982,-0.80738 -0.22638,-1.67621 0.18543,-1.93072 0.41181,-0.25451 0.81419,0.40608 0.89418,1.46798 0.17299,2.29656 -0.29838,2.4986 -1.07961,0.46274 z m 3.62558,-0.5218 c 0.1461,-1.62562 0.91793,-2.59398 2.22376,-2.78998 1.7779,-0.26686 1.82368,-0.15695 0.41223,0.98978 -0.87328,0.70949 -1.87397,1.96498 -2.22376,2.78998 -0.3716,0.87644 -0.54297,0.46499 -0.41223,-0.98978 z m -35.27624,-23.01022 c 0,-0.55 0.19844,-1 0.44098,-1 0.24254,0 0.7191,0.45 1.05902,1 0.33992,0.55 0.14148,1 -0.44098,1 -0.58246,0 -1.05902,-0.45 -1.05902,-1 z m 29.47301,-6.04367 c -0.32507,-0.52598 0.33551,-0.95633 1.46797,-0.95633 2.41457,0 2.65816,0.55611 0.59104,1.34934 -0.80738,0.30982 -1.73394,0.13296 -2.05901,-0.39301 z m -2.47301,-3.80452 c 0,-0.5052 0.9,-1.1539 2,-1.44156 1.1,-0.28766 2,-0.35597 2,-0.15181 0,0.20415 -0.9,0.85286 -2,1.44156 -1.10492,0.59134 -2,0.65928 -2,0.15181 z"
         id="path2998"
         inkscape:connector-curvature="0" />
    </g>
  </g>
</svg>
