<?xml version="1.0" encoding="UTF-8" standalone="no"?>
<!-- Created with Inkscape (http://www.inkscape.org/) -->

<svg
   xmlns:dc="http://purl.org/dc/elements/1.1/"
   xmlns:cc="http://creativecommons.org/ns#"
   xmlns:rdf="http://www.w3.org/1999/02/22-rdf-syntax-ns#"
   xmlns:svg="http://www.w3.org/2000/svg"
   xmlns="http://www.w3.org/2000/svg"
   xmlns:sodipodi="http://sodipodi.sourceforge.net/DTD/sodipodi-0.dtd"
   xmlns:inkscape="http://www.inkscape.org/namespaces/inkscape"
   width="744.09448819"
   height="1052.3622047"
   id="svg2"
   version="1.1"
   inkscape:version="0.48.2 r9819"
   sodipodi:docname="Новый документ 1">
  <defs
     id="defs4" />
  <sodipodi:namedview
     id="base"
     pagecolor="#ffffff"
     bordercolor="#666666"
     borderopacity="1.0"
     inkscape:pageopacity="0.0"
     inkscape:pageshadow="2"
     inkscape:zoom="0.49497475"
     inkscape:cx="945.08405"
     inkscape:cy="425.60823"
     inkscape:document-units="px"
     inkscape:current-layer="layer1"
     showgrid="false"
     inkscape:window-width="1920"
     inkscape:window-height="1020"
     inkscape:window-x="0"
     inkscape:window-y="0"
     inkscape:window-maximized="1" />
  <metadata
     id="metadata7">
    <rdf:RDF>
      <cc:Work
         rdf:about="">
        <dc:format>image/svg+xml</dc:format>
        <dc:type
           rdf:resource="http://purl.org/dc/dcmitype/StillImage" />
        <dc:title></dc:title>
      </cc:Work>
    </rdf:RDF>
  </metadata>
  <g
     inkscape:label="Layer 1"
     inkscape:groupmode="layer"
     id="layer1">
    <path
       style="fill:#000000"
       d="m 222.33957,928.89122 c -0.69109,-0.69119 -5.1651,-1.9867 -9.94224,-2.8792 -9.48822,-1.77268 -14.90273,-5.63088 -17.52385,-12.48734 -1.4463,-3.78329 -0.80911,-5.16806 4.35166,-9.45778 6.40997,-5.32798 13.85292,-16.47361 11.00092,-16.47361 -0.9317,0 -3.98948,3.31239 -6.79507,7.36086 -2.80559,4.04848 -5.45419,7.36086 -5.88576,7.36086 -1.80271,0 9.40354,-18.40712 11.23882,-18.46067 1.10429,-0.0313 0.42474,-1.2565 -1.51012,-2.72075 -1.9896,-1.50548 -5.34483,-2.20366 -7.72318,-1.6067 -4.43989,1.11444 -16.53312,-2.11422 -18.23524,-4.86829 -1.4882,-2.40792 4.0548,-14.58664 8.79048,-19.31379 2.26816,-2.26402 5.61176,-6.28562 7.4302,-8.93664 3.97007,-5.78784 7.96337,-6.11172 13.31952,-1.07983 7.83309,7.35883 16.88933,-0.63985 20.89137,-18.45166 3.79627,-16.89593 -8.24317,-36.93109 -25.25542,-42.02794 -13.3029,-3.98572 -31.98315,-29.43185 -36.02503,-49.0732 -0.97375,-4.73174 -0.80338,-5.0801 1.19242,-2.4381 1.28068,1.69558 3.66615,5.50169 5.30105,8.45837 1.63491,2.95667 5.97402,7.66523 9.64247,10.46328 7.60865,5.8033 14.41743,5.38262 17.8898,-1.10561 3.42915,-6.40744 2.31058,-24.99509 -1.91566,-31.83333 C 198.15892,712.17202 183.56664,701.7818 161.41978,690.0151 134.1026,675.50132 118.35291,663.70278 99.814794,643.86508 87.921444,631.13815 70.554043,606.72861 72.212283,605.0704 c 0.50928,-0.50938 3.92959,3.84807 7.60069,9.68302 10.759831,17.10223 23.848007,29.54135 45.408877,43.15728 18.71373,11.81768 22.79585,11.34732 5.06059,-0.58335 -25.33272,-17.04131 -63.681727,-62.8415 -79.276797,-94.68017 -13.22806,-27.00608 -21.66358,-52.83705 -21.26153,-65.10606 0.11979,-3.65667 0.57479,-4.89972 1.03718,-2.83375 2.06181,9.21234 8.87679,28.43573 13.04773,36.80429 13.18586,26.4564 40.288161,58.61895 62.636557,74.33144 7.57335,5.32448 9.85461,3.83427 3.01078,-1.96682 -4.85055,-4.11159 -9.05482,-8.45487 -22.479166,-23.22315 -3.40795,-3.74907 -8.653411,-10.95701 -11.656561,-16.0176 -27.7987,-46.84321 -33.1049,-83.45449 -20.17428,-139.19658 11.25845,-48.53352 32.584721,-87.64635 70.975597,-130.17069 12.86898,-14.25455 45.14142,-38.28367 72.27009,-53.81023 14.4456,-8.26764 26.60107,-14.69574 27.01215,-14.28463 0.41109,0.41108 -9.34748,6.75661 -21.6857,14.10116 -26.46135,15.75164 -51.041,37.54755 -68.60977,60.83948 -6.4609,8.56562 -11.71954,16.48266 -11.68586,17.59347 0.0547,1.80294 3.80442,-1.9961 9.81283,-9.94176 7.27636,-9.62239 31.52592,-28.49904 66.59062,-51.83634 55.60738,-37.00947 67.55078,-49.87007 73.81447,-79.4832 7.86362,-37.17718 0.0471,-67.80092 -24.16876,-94.687753 -6.60937,-7.33841 -12.01705,-13.75832 -12.01705,-14.26647 0,-2.57378 7.96004,4.00622 18.53539,15.32187 12.062,12.9064 18.48775,25.690213 23.48142,46.715513 10.03498,42.25112 -2.14781,103.98412 -27.12065,137.42674 -5.04606,6.75747 -18.88057,21.39537 -30.74339,32.52867 -11.8628,11.1333 -23.03962,22.66034 -24.83739,25.61561 -2.97434,4.88942 -3.02264,5.96648 -0.53651,11.9614 1.50266,3.6235 8.35163,12.38483 15.2199,19.46966 6.86826,7.08483 14.60612,15.52455 17.19523,18.75496 l 4.70747,5.87345 3.18312,-8.63377 c 8.24803,-22.37177 16.10996,-33.45107 54.08191,-76.21399 14.18961,-15.97995 25.71455,-36.77751 30.56464,-55.15603 2.6189,-9.92387 3.05059,-16.7317 2.2172,-34.96409 -1.00196,-21.92 -6.65647,-50.91352 -10.97396,-56.26916 -1.03963,-1.2896 -1.47618,-2.75877 -0.97013,-3.26483 2.13077,-2.13077 5.15143,5.01339 10.54262,24.93429 6.99022,25.82948 9.09522,51.66109 5.57784,68.44844 -2.87751,13.73332 -16.60064,45.00608 -28.63193,65.24738 -17.36999,29.22308 -24.91329,44.92072 -30.07854,62.59349 -10.41622,35.63893 -9.39544,47.47672 4.93227,57.19788 4.84813,3.28938 9.83279,5.9807 11.07703,5.9807 1.31903,0 2.27543,-2.49364 2.29381,-5.9807 0.079,-14.95764 15.59827,-55.91739 24.59591,-64.91501 1.22938,-1.22939 6.33531,-7.36408 11.34653,-13.63264 5.0112,-6.26859 10.89419,-13.53166 13.07328,-16.14016 8.55122,-10.23633 23.25268,-38.82297 26.77807,-52.06935 2.29521,-8.62412 3.77647,-20.47503 3.94859,-31.59088 0.15145,-9.78411 0.89651,-18.41012 1.6556,-19.16892 2.06531,-2.06452 1.63695,35.20422 -0.56029,48.74603 -1.05194,6.48332 -7.38224,25.51413 -14.06734,42.29067 -6.68508,16.77656 -13.75548,36.72898 -15.712,44.33871 -4.30956,16.7619 -6.1061,50.13344 -3.26658,60.67859 5.62254,20.88058 22.14601,35.96543 37.7467,34.4603 15.79132,-1.52352 42.77631,-18.80724 54.45627,-34.87893 9.80675,-13.49411 18.77965,-30.98304 22.32768,-43.5184 3.86896,-13.66925 4.61353,-36.90078 1.4484,-45.19191 -3.56516,-9.339 0.25437,-3.47215 5.03891,7.73983 10.08276,23.62778 17.15783,46.86217 19.53342,64.14735 4.46862,32.51417 -0.89876,58.21287 -18.74266,89.73899 -3.35186,5.922 -5.70923,11.15229 -5.23862,11.62293 0.47064,0.47062 4.05135,-2.47007 7.95717,-6.53486 17.68469,-18.40449 29.75882,-48.34739 31.99403,-79.34272 1.38221,-19.16665 1.38946,-19.11477 0.90096,6.44075 -0.48394,25.31722 -0.63998,26.18768 -9.01803,50.30479 -4.68907,13.49796 -8.52559,26.83361 -8.52559,29.63477 0,2.85555 1.98252,7.23219 4.51267,9.96228 3.89189,4.19939 5.98035,4.86371 15.18177,4.82893 18.92071,-0.0718 32.14013,-9.71678 44.85006,-32.7231 11.44451,-20.71581 27.73594,-42.68541 31.6531,-42.68541 0.97378,0 -0.79816,2.62731 -3.93766,5.83845 -7.68387,7.85925 -12.44891,20.48252 -10.1802,26.96882 1.48086,4.23383 2.89512,4.99368 10.17703,5.46786 6.80081,0.44285 9.51368,-0.33826 13.85145,-3.98826 7.31552,-6.15559 14.27628,-19.68682 18.11125,-35.20697 3.45037,-13.96363 4.74224,-50.63802 2.17155,-61.64721 l -1.50396,-6.44076 3.01154,5.51655 c 1.65634,3.03409 4.09267,6.76052 5.41409,8.28096 1.32142,1.52045 3.71523,5.24872 5.31955,8.28508 2.43447,4.60749 2.92916,4.88908 2.99064,1.70247 0.13544,-7.01516 -9.05143,-30.7603 -16.49235,-42.62785 -4.04621,-6.45332 -7.35676,-12.09251 -7.35676,-12.53151 0,-2.99652 25.03094,19.22152 37.75216,33.50969 14.13074,15.87134 28.49564,39.03878 28.49564,45.95746 0,1.38219 0.88385,2.51307 1.96425,2.51307 2.59433,0 0.98525,-5.25326 -6.62312,-21.62253 -3.41066,-7.33785 -5.53095,-13.34156 -4.71206,-13.34156 1.92063,0 13.12754,16.88354 19.32557,29.11493 10.89463,21.49944 15.50713,60.41123 9.22776,77.84624 -1.5951,4.42875 -3.20694,9.51847 -3.58198,11.31047 -0.37522,1.79202 -2.43883,5.72548 -4.58618,8.7411 -2.14716,3.01556 -3.075,5.48274 -2.06178,5.48274 2.44473,0 13.50957,-13.7705 18.48294,-23.00267 6.12736,-11.37432 2.51741,-0.15642 -5.03373,15.64182 -8.51338,17.8118 -24.33887,33.83639 -42.27967,42.81167 -11.71818,5.86256 -12.50405,6.58687 -8.06558,7.43539 4.70461,0.89931 17.61132,-0.62862 28.42443,-3.3652 7.60193,-1.92376 4.77738,3.26104 -3.77465,6.92878 -7.79534,3.3433 -30.15807,8.25263 -43.36981,9.52127 -11.59718,1.1137 -13.27128,2.88325 -2.86891,3.03249 7.06891,0.10121 7.55418,0.34615 3.72528,1.87776 -5.86571,2.34664 -35.53934,0.52427 -47.3639,-2.90883 -16.03753,-4.65611 -20.42884,-16.4184 -13.47021,-36.08055 2.29118,-6.47387 5.32534,-13.0129 6.7426,-14.53107 1.92336,-2.06031 1.85313,-1.36029 -0.27693,2.76032 -1.56956,3.03635 -2.85885,9.77651 -2.86509,14.97788 -0.0147,12.45605 3.84342,17.28275 14.80245,18.51808 7.18039,0.80933 8.87429,0.28082 13.30623,-4.15097 11.64133,-11.64138 7.08071,-21.24087 -7.87765,-16.58144 -4.44272,1.38384 -4.4879,1.31575 -1.31721,-1.98486 3.3772,-3.51554 5.86672,-3.6646 39.22953,-2.34885 19.39627,0.76498 34.90229,-10.52879 36.14315,-26.32479 0.65143,-8.29494 -4.8359,-8.8291 -15.6595,-1.52434 -11.46976,7.74092 -12.68188,7.03299 -3.77277,-2.20322 8.75111,-9.07243 11.78967,-14.67833 16.20876,-29.9035 4.59962,-15.84714 2.91693,-37.52611 -4.02841,-51.89745 l -5.15629,-10.66986 -0.96114,21.22717 c -0.91201,20.14672 -1.34354,22.02007 -8.47724,36.80431 -4.13394,8.56741 -9.3644,17.64737 -11.62323,20.17766 l -4.10697,4.60054 3.63612,-6.44075 c 1.99987,-3.54242 4.97147,-11.12274 6.60357,-16.84517 5.40655,-18.95637 2.78813,-54.92322 -3.99847,-54.92322 -1.56672,0 -2.37957,0.46899 -1.80636,1.0422 3.10549,3.10549 -17.89902,45.02541 -31.28894,62.44522 -18.75359,24.39772 -52.21457,49.86043 -67.03048,51.0078 -3.26426,0.25285 -4.4054,1.05205 -3.33815,2.33799 0.89188,1.07469 -5.6923,-0.45563 -14.63149,-3.40071 -16.80032,-5.535 -25.83631,-5.59205 -25.83631,-0.16378 0,1.53253 1.96299,6.69231 4.36221,11.46619 7.0191,13.9665 7.55134,18.7494 0.86926,7.81135 -7.12842,-11.66862 -17.31473,-18.37805 -27.97099,-18.4235 -6.05534,-0.0258 -6.89838,0.44276 -5.74048,3.1902 0.74646,1.77121 1.76326,7.53826 2.25951,12.81562 0.71868,7.6426 0.11648,10.82581 -2.95912,15.64183 l -3.86142,6.04658 0.76064,-7.88495 c 0.88505,-9.17476 -1.7251,-18.0365 -5.76967,-19.58854 -4.31363,-1.65527 -17.35348,2.42283 -24.12238,7.54415 -3.32524,2.51575 -8.60917,9.11605 -11.74209,14.66743 -6.5127,11.53981 -12.21932,16.00564 -20.16406,15.77966 -7.46984,-0.21236 -9.62107,-2.29622 -22.25623,-21.55904 -5.97494,-9.10906 -10.41974,-14.90574 -9.87735,-12.8815 3.5997,13.4343 6.09912,29.74192 4.88967,31.90307 -0.93442,1.66963 -1.78158,-0.0534 -2.43996,-4.96159 -0.55471,-4.1357 -4.37171,-14.46759 -8.48221,-22.95981 -10.99442,-22.71451 -23.27193,-32.05563 -35.87814,-27.29738 -7.78424,2.93827 -8.24564,1.2311 -0.92447,-3.42041 l 6.18824,-3.93181 -9.20108,1.24749 c -5.06059,0.68603 -12.01953,2.42153 -15.46432,3.85672 -3.44479,1.43518 -6.64355,2.22905 -7.10835,1.76421 -1.1565,-1.15657 10.92573,-8.3888 14.02853,-8.39745 1.68976,0 2.03972,-1.048 1.08234,-3.2272 -0.77815,-1.77121 -1.78182,-6.32574 -2.23039,-10.12119 -0.72792,-6.1592 -0.37355,-6.90081 3.29748,-6.90081 3.79478,0 4.03979,-0.64992 3.16629,-8.39957 -0.65442,-5.80597 -2.82644,-10.73855 -7.03424,-15.97461 -4.12409,-5.13188 -5.03442,-7.17095 -2.82248,-6.32215 1.79573,0.68909 4.37211,1.25289 5.72527,1.25289 2.30695,0 8.51256,5.91182 17.38503,16.56194 l 3.83265,4.60054 -1.20933,-5.52065 c -2.77037,-12.6468 -10.40034,-22.77999 -24.6879,-32.78737 -2.36525,-1.65669 -3.89717,-3.41546 -3.40425,-3.90838 0.4929,-0.4929 6.44664,2.74987 13.23052,7.20617 6.78388,4.45632 12.33433,7.39524 12.33433,6.53093 0,-2.95863 -16.39166,-16.00244 -27.65131,-22.00377 -6.1889,-3.29866 -10.96393,-6.28617 -10.61116,-6.63894 0.35277,-0.35277 3.90728,0.0951 7.89892,0.99544 9.98345,2.25164 10.0192,1.12631 0.12127,-3.81695 -12.48024,-6.23294 -25.64409,-18.76799 -34.27121,-32.63416 -7.16659,-11.51868 -11.84914,-16.91513 -14.67746,-16.91513 -0.65917,0 -1.3689,5.26409 -1.57719,11.69796 -0.20828,6.43387 -0.98919,13.98065 -1.73535,16.77061 l -1.35664,5.07267 -4.9388,-7.10949 c -2.71636,-3.91022 -6.62049,-8.15162 -8.67586,-9.42534 -2.24063,-1.38854 -3.73704,-4.27821 -3.73704,-7.21648 0,-5.39649 -6.10696,-21.24913 -14.75954,-38.31326 l -5.59861,-11.04129 1.21505,18.8622 c 0.90303,14.01845 0.65374,18.86221 -0.97082,18.86221 -1.20223,0 -1.70476,-0.77845 -1.11673,-1.72989 0.58802,-0.95145 0.0166,-2.57885 -1.27156,-3.61643 -12.59044,-10.14752 -17.65992,-15.36814 -22.95285,-23.63707 -3.40124,-5.31362 -6.98671,-9.66113 -7.96773,-9.66113 -2.71833,0 -2.13058,11.04427 1.18188,22.20864 3.03801,10.23932 11.05594,27.47717 12.78059,27.47717 0.52934,0 4.44885,-1.70032 8.71003,-3.77851 l 7.7476,-3.77852 -6.44075,5.53381 c -3.54242,3.0436 -14.79347,10.52662 -25.00236,16.62893 -16.81085,10.04861 -18.77051,11.79236 -20.77629,18.48708 -1.21807,4.06557 -2.8534,7.39194 -3.63404,7.39194 -0.78064,0 -3.10207,1.5677 -5.15875,3.48377 -2.05666,1.91607 -10.80741,8.04342 -19.44612,13.61634 -8.638716,5.57291 -16.249266,11.01034 -16.912306,12.0832 -1.41879,2.29562 2.64994,9.47601 5.34247,9.42827 1.02169,-0.0184 11.136166,-6.54323 22.476626,-14.50027 15.31939,-10.74882 22.70463,-14.78009 28.73332,-15.68413 9.43519,-1.41491 14.80328,-6.30966 18.41351,-16.78987 1.47486,-4.28135 4.33109,-8.15451 6.93547,-9.40468 5.58728,-2.68205 24.26471,-8.09451 25.08885,-7.27039 0.33961,0.33963 -4.07988,2.99416 -9.82113,5.89896 -9.42003,4.7661 -10.96649,6.42192 -15.84823,16.96895 -2.97528,6.42811 -5.81918,11.27789 -6.3198,10.77728 -0.50061,-0.50062 -3.53917,-0.14078 -6.75237,0.79972 -3.2132,0.94044 -8.70709,2.09124 -12.20865,2.55731 -8.61311,1.14645 -25.98962,12.14284 -30.09258,19.0435 -4.02115,6.76309 -2.15927,11.64882 6.05865,15.89848 7.92623,4.09881 12.6552,3.47111 26.96673,-3.57938 15.01572,-7.39741 25.36102,-10.09551 38.94919,-10.15819 18.69528,-0.0863 27.03523,8.35741 34.54023,34.9697 5.79764,20.55817 7.43813,22.91254 14.17919,20.34949 7.0833,-2.69303 11.1752,-10.17095 11.32564,-20.69749 0.12587,-8.80738 0.21102,-8.95103 2.34788,-3.96068 3.36126,7.84988 2.87119,26.85943 -0.95134,36.90222 -1.83401,4.81842 -8.86474,15.66189 -15.62383,24.09652 -13.90682,17.35433 -18.88458,27.25377 -22.3616,44.47119 l -2.41557,11.9614 -0.21479,-9.26015 c -0.11815,-5.09298 0.96889,-13.788 2.41557,-19.32226 3.21083,-12.2827 1.33331,-14.95727 -5.11787,-7.29038 -7.96832,9.46975 -13.06524,29.24525 -13.11303,50.87698 -0.0226,10.27668 -0.54693,18.37308 -1.16493,17.99215 -3.49234,-2.15287 -7.74995,-25.65977 -8.06126,-44.50726 -0.18816,-11.39167 -0.92957,-21.29957 -1.64757,-22.01762 -5.21364,-5.21351 -15.62904,16.68854 -15.94421,33.52854 l -0.20666,11.04129 -2.88367,-6.44076 c -2.14379,-4.78824 -2.93153,-13.13637 -3.07025,-32.53702 l -0.1866,-26.09628 -4.31957,4.01369 c -4.95841,4.60735 -11.25373,16.11495 -11.46754,20.96245 -0.0845,1.91492 -0.53267,2.33413 -1.07071,1.00163 -1.31268,-3.2513 4.3476,-19.90672 10.63442,-31.29194 2.93413,-5.31362 4.57319,-9.66113 3.64239,-9.66113 -2.79801,0 -11.49982,11.35468 -16.21809,21.16247 l -4.42642,9.20108 1.16883,-8.28097 c 1.38526,-9.81424 5.77138,-22.42008 10.81754,-31.08988 5.49825,-9.44656 -0.17758,-6.44738 -8.4646,4.47301 -9.37864,12.3587 -17.71984,29.5787 -19.13259,39.49838 l -1.17938,8.28096 6.13999,-7.82091 c 7.3531,-9.36614 9.38479,-9.89852 7.02309,-1.84022 -2.20516,7.52409 -2.36234,33.62147 -0.24651,40.93191 1.58247,5.46783 1.6107,5.44096 3.87656,-3.68043 2.0864,-8.39893 10.28581,-28.51524 11.61945,-28.50696 0.30901,0.002 0.56432,7.24769 0.56734,16.10188 0.004,13.50921 0.86639,18.22531 5.35824,29.32291 2.94403,7.27364 7.08205,15.39414 9.19559,18.04571 l 3.84283,4.82118 -0.61185,-8.92192 c -0.3365,-4.90712 0.20988,-11.78547 1.21421,-15.28538 l 1.82603,-6.36346 0.20638,5.52064 c 0.31007,8.2944 6.19694,19.7503 13.15998,25.60936 3.40851,2.86797 12.14257,8.03658 19.40905,11.4857 7.26647,3.44911 14.31871,7.60487 15.67166,9.23512 1.81528,2.18728 0.372,1.89873 -5.50771,-1.10082 -7.28232,-3.71521 -7.87798,-3.77741 -6.92561,-0.72431 2.24338,7.19212 26.49639,105.21541 28.71878,116.07268 3.82859,18.70413 -0.75456,41.62475 -10.46974,52.36001 -3.91436,4.32524 -12.05967,4.18925 -16.09413,-0.26886 -1.77014,-1.95596 -4.36341,-3.11695 -5.76282,-2.57998 -4.08114,1.56621 -15.8635,19.12793 -14.76087,22.00143 2.03801,5.31086 6.57062,4.65574 14.87623,-2.15011 8.89128,-7.28559 12.46558,-7.5423 7.56306,-0.54304 -4.83754,6.90669 -3.75676,10.43236 3.62217,11.81675 17.78478,3.33631 24.5922,-5.57125 26.80449,-35.07395 0.76041,-10.14087 1.52204,-19.26613 1.6925,-20.27825 0.1704,-1.01211 1.36621,2.71432 2.65723,8.28097 l 2.34731,10.12119 0.0927,-15.64183 c 0.13287,-22.39837 -2.08572,-39.0433 -7.70509,-57.80944 -5.24625,-17.51996 -11.2186,-49.56914 -12.88892,-69.16541 -1.00689,-11.81271 -0.98626,-11.88135 1.65921,-5.52065 9.46758,22.76347 14.39006,25.92477 16.79778,10.78753 1.05799,-6.65164 1.54825,3.78514 1.57266,33.47922 0.0239,29.16465 0.79168,45.82651 2.36934,51.42444 3.6266,12.86789 8.12449,22.25225 10.31972,21.53107 3.8916,-1.27876 3.11887,-17.39298 -1.70689,-35.59436 -2.64529,-9.97728 -5.12494,-24.76525 -5.51036,-32.86219 l -0.70073,-14.72172 1.51797,12.98511 c 1.61102,13.781 7.22227,27.19267 12.5437,29.98096 4.94521,2.59121 10.81351,-0.63818 13.10515,-7.21198 4.30139,-12.33901 1.08602,-27.40633 -10.03376,-47.01824 l -8.2207,-14.49887 6.94216,7.90281 c 5.06191,5.76245 8.76827,8.18822 13.6845,8.95614 10.91128,1.70441 12.61856,-3.73214 12.34131,-39.29871 -0.20787,-26.66693 0.15513,-30.15782 4.36473,-41.96777 6.27076,-17.59282 15.20598,-35.68195 20.90669,-42.32495 4.17585,-4.86608 4.46559,-4.9752 2.44382,-0.9201 -1.26156,2.53029 -4.13789,7.53807 -6.39184,11.12833 -5.83241,9.29033 -10.71417,30.93034 -9.59801,42.54633 1.02669,10.6852 7.20579,18.09373 15.09098,18.09373 6.48808,0 21.20772,-10.8858 27.81697,-20.57177 6.023,-8.82677 9.30587,-22.15177 7.29207,-29.5982 -1.0146,-3.75165 -0.87193,-3.70877 1.61037,0.48416 1.49799,2.53029 3.73321,10.17786 4.96715,16.99475 1.92067,10.6105 1.82588,13.4575 -0.6586,19.78232 -1.59616,4.06337 -2.59275,7.38809 -2.2146,7.38809 0.37814,0 5.38088,-7.86489 11.11718,-17.47744 12.16734,-20.38922 21.6563,-31.68759 34.66573,-41.27603 15.58311,-11.48552 19.74719,-12.85574 10.86346,-3.5748 -6.60595,6.90136 -20.82566,29.11441 -20.82566,32.53243 0,0.62383 3.93346,-2.72131 8.74102,-7.43374 5.13812,-5.0363 13.88284,-10.86426 21.2156,-14.13929 23.82823,-10.64251 31.75081,-20.64684 30.50129,-38.51625 -0.43398,-6.20613 -0.0375,-8.6952 1.18929,-7.46778 2.0326,2.03344 2.024,17.95976 -0.02,37.06985 -1.29671,12.1237 -1.14841,12.75085 6.52711,27.60322 12.28141,23.76491 11.88107,23.77319 12.00716,-0.24346 0.0808,-15.36653 1.05901,-24.34494 3.48541,-31.98607 1.85527,-5.84249 3.64729,-10.34881 3.98224,-10.01389 0.33496,0.3351 -0.35617,5.79907 -1.53582,12.14229 -3.71806,19.99301 0.9694,38.38413 16.81307,65.96601 6.76128,11.77056 10.13579,14.7138 8.47988,7.39619 -0.51532,-2.27727 -1.77456,-12.72914 -2.79831,-23.22628 -1.02377,-10.49714 -3.12986,-22.82198 -4.6802,-27.38847 -1.55036,-4.5665 -2.48368,-8.63779 -2.07405,-9.04742 1.71368,-1.71361 10.85116,24.1738 16.91165,47.91276 6.86822,26.90266 9.11309,32.57917 15.60431,39.45826 5.93331,6.28784 11.17811,4.61471 16.19442,-5.16622 3.67226,-7.16027 4.08169,-9.89888 3.02534,-20.23592 -0.67194,-6.57527 -3.10139,-17.13351 -5.39879,-23.46274 -4.56999,-12.5902 -4.53751,-14.69725 0.0887,-5.75123 5.2579,10.16756 8.09639,22.66869 8.3315,36.69279 0.12605,7.52243 0.96797,21.40612 1.87082,30.85268 1.94735,20.37559 8.96043,36.23659 24.57578,55.58112 9.82971,12.17725 17.60574,25.42147 17.47402,29.76217 -0.0396,1.30545 -1.26546,-0.37412 -2.72409,-3.73233 -1.45863,-3.35821 -4.38871,-8.54467 -6.51131,-11.52563 -3.38401,-4.75236 -24.12097,-23.69756 -36.86928,-33.68367 -2.43608,-1.90812 -6.34779,-5.20983 -8.6927,-7.33712 l -4.2635,-3.86758 -3.6619,4.5768 c -4.26034,5.32484 -10.81377,19.34305 -10.81377,23.1315 0,3.20492 6.77234,3.3157 12.37538,0.20224 2.25192,-1.25134 6.18538,-5.10936 8.74102,-8.57338 l 4.64661,-6.29813 -0.06,5.41814 c -0.0911,8.21564 -5.9062,23.38067 -12.79939,33.37893 -10.44304,15.14736 -19.86974,21.37299 -43.90881,28.99829 l -4.32215,1.37096 3.97526,-3.97523 c 5.38251,-5.38244 4.34518,-11.85411 -2.01826,-12.59149 -3.48075,-0.40337 -5.94474,0.83362 -8.74102,4.38855 -2.14166,2.72278 -3.89393,4.38357 -3.89393,3.69073 0,-3.8639 7.36397,-14.37521 16.74836,-23.9066 6.06929,-6.16435 13.62499,-16.51851 17.45715,-23.9228 3.71604,-7.17996 10.10573,-17.10056 14.1993,-22.04577 7.15047,-8.63816 7.30374,-9.09177 3.90187,-11.54827 -1.94754,-1.40611 -7.88849,-6.80218 -13.20211,-11.99121 l -9.66113,-9.43442 0.0405,5.34067 c 0.0223,2.93754 1.63794,8.86027 3.59046,13.16177 1.95253,4.30151 2.95294,7.82092 2.22317,7.82092 -1.69898,0 -16.08909,-23.51538 -17.73629,-28.98339 -2.22602,-7.38957 -4.16238,-4.37934 -3.25532,5.06059 0.48626,5.06059 0.42807,9.20108 -0.12937,9.20108 -0.55738,0 -3.22799,-9.52312 -5.93467,-21.16248 -2.70668,-11.63936 -5.34412,-21.16247 -5.86094,-21.16247 -0.51685,0 -0.43584,2.00749 0.17997,4.46123 0.71641,2.85436 -0.86873,9.42706 -4.40106,18.24868 -3.03641,7.58297 -5.52074,14.91439 -5.52074,16.29179 0,4.8475 6.06015,11.05399 18.71161,19.16345 12.35658,7.92029 12.74864,8.39985 11.79164,14.42177 -1.98755,12.50592 -15.41619,40.78579 -31.94281,67.26943 -9.23493,14.79883 -14.41093,19.57547 -24.02077,22.16723 -4.721,1.27343 -10.06958,3.59302 -11.88573,5.15481 -3.87269,3.33042 -12.51999,3.40201 -32.64948,0.2707 -19.72462,-3.06838 -25.68344,-8.99313 -19.64973,-19.5372 2.03891,-3.56321 25.90394,-22.77726 28.29066,-22.77726 0.55985,0 4.19083,2.513 8.06888,5.5845 5.39141,4.27004 8.16898,5.30387 11.80101,4.39223 11.09738,-2.78517 28.599,-31.45351 28.60167,-46.85059 0.002,-11.2739 -5.69964,-17.55253 -26.68166,-29.38143 -9.10907,-5.13549 -18.96957,-11.94815 -21.91222,-15.13927 l -5.35026,-5.80201 1.02846,7.25394 c 0.56566,3.98977 1.59343,8.91032 2.28393,10.93456 1.07408,3.14861 0.68818,3.03636 -2.67096,-0.77749 -2.15955,-2.4519 -4.88489,-8.04156 -6.05635,-12.42145 -2.73984,-10.24393 -5.72351,-10.34496 -4.21123,-0.14354 0.90603,6.11228 0.71635,7.11022 -0.86817,4.5676 -1.11512,-1.78924 -2.50917,-8.99902 -3.09793,-16.02165 -0.8771,-10.46199 -0.13894,-16.28278 4.0864,-32.22419 2.83627,-10.70067 6.2394,-20.88092 7.56249,-22.62287 2.1019,-2.76713 2.41306,-2.17937 2.4642,4.6539 0.0578,7.72762 0.13673,7.82092 6.61883,7.82092 5.52521,0 8.06579,-1.56235 16.10188,-9.90146 10.84095,-11.24979 19.28678,-16.16298 28.21968,-16.4162 3.39064,-0.0957 6.1648,-0.81742 6.1648,-1.60301 0,-2.91269 -11.11626,-7.04342 -18.95477,-7.04342 -9.87997,0 -20.03803,6.71973 -28.97954,19.17062 -3.32829,4.63459 -6.3953,8.0826 -6.81555,7.66229 -0.42027,-0.42012 0.9713,-4.68721 3.09239,-9.48226 2.12108,-4.79505 3.53446,-9.04042 3.14084,-9.43405 -1.38287,-1.38292 -15.79024,16.45042 -21.58401,26.71625 -8.99656,15.94105 -19.39952,29.18636 -26.95599,34.32112 -9.7497,6.62514 -10.9053,5.75582 -2.47412,-1.86138 8.08895,-7.30786 13.89378,-19.12002 7.40457,-15.0675 -1.96075,1.22466 -3.56501,2.81553 -3.56501,3.53561 0,3.54039 -20.66641,14.76312 -42.32495,22.9841 -1.51818,0.57617 1.64195,-3.28018 7.02252,-8.56988 5.38057,-5.28989 9.35199,-10.04868 8.82539,-10.57535 -1.75685,-1.75667 -17.26416,9.31406 -20.33993,14.52095 -2.77381,4.69568 -2.79014,5.95383 -0.19076,14.70682 1.56341,5.26467 2.74651,12.94113 2.6291,17.05898 -0.11741,4.11785 -0.5779,5.83072 -1.02333,3.80648 -1.49607,-6.79886 -4.71658,-13.80161 -6.34732,-13.80161 -0.88932,0 -1.63293,2.27726 -1.65246,5.06059 -0.0195,2.78332 -1.18762,9.20107 -2.59577,14.26167 l -2.56029,9.20107 -0.41514,-10.12118 c -0.22833,-5.56665 -0.73593,-8.05094 -1.12799,-5.52065 -0.88031,5.68148 -2.80924,13.63066 -9.6007,39.56463 -2.91553,11.1333 -5.77907,23.9688 -6.36343,28.52333 l -1.06244,8.28097 3.70803,-8.25373 c 8.61959,-19.18645 26.7176,-39.94647 42.33063,-48.55721 5.28118,-2.9125 4.5405,-1.72925 -4.79536,7.66008 -6.07271,6.10749 -14.18887,16.94379 -18.03591,24.08069 -6.14262,11.39572 -6.92714,14.25541 -6.44075,23.47839 0.33843,6.41719 1.46002,10.80096 2.88352,11.27058 3.24629,1.071 12.30709,-9.09508 14.66092,-16.44913 1.92325,-6.00904 1.9591,-5.94868 2.14382,3.60792 0.19296,9.9828 -4.943,28.24234 -10.39058,36.94103 -1.67601,2.67623 -6.16416,8.33636 -9.97369,12.57806 -6.70475,7.46538 -10.5374,16.09802 -8.18943,18.44595 1.93936,1.9394 9.82163,-3.31552 11.9369,-7.9582 3.5405,-7.77049 5.72397,-4.85228 3.04063,4.06375 -3.01453,10.01648 -1.77901,8.57135 -17.16058,20.07233 -6.92096,5.17505 -13.73052,12.03004 -15.53797,15.64183 l -3.2175,6.42971 -0.004,-13.40063 c -0.004,-13.08687 3.52953,-26.16399 7.06722,-26.16399 0.95549,0 2.16092,-1.10413 2.67878,-2.45356 0.65077,-1.69595 -0.70092,-2.45375 -4.37699,-2.45375 -3.2844,0 -5.6281,1.11444 -6.12792,2.9138 -2.49397,8.97786 -3.52349,17.44322 -3.82323,31.43695 l -0.33503,15.64183 -6.28387,3.12284 c -3.45613,1.71766 -9.59625,2.98888 -13.64472,2.8251 -4.04847,-0.16378 -11.51873,0.34578 -16.60056,1.13229 -5.08185,0.78669 -9.80515,0.86471 -10.49624,0.17298 z m 16.05584,-4.49381 c 4.96308,-2.40258 9.06319,-6.27844 11.80804,-11.16219 2.3127,-4.11491 3.91432,-7.76148 3.55914,-8.10339 -0.35518,-0.34191 -4.78627,-2.82436 -9.84686,-5.51641 l -9.20108,-4.89461 -5.05496,6.02119 c -2.78024,3.31147 -6.45272,9.681 -8.16106,14.1542 -2.97408,7.7876 -2.95936,8.24048 0.34609,10.6576 4.64111,3.39354 7.57519,3.18854 16.55069,-1.15639 z m 17.52805,-3.22019 c 0.98751,-2.78333 2.62321,-6.49854 3.63489,-8.25594 2.49065,-4.32672 2.31364,-6.92584 -0.47169,-6.92584 -2.40926,0 -5.69362,6.51363 -7.65515,15.18178 -0.68336,3.01998 -0.37058,5.06059 0.77567,5.06059 1.05645,0 2.72878,-2.27726 3.71628,-5.06059 z m -42.88699,-5.9266 c 5.23762,-3.19351 17.09855,-17.17252 17.06507,-20.11244 -0.0147,-1.23608 -11.55237,-9.3851 -13.2883,-9.3851 -2.2196,0 -18.08882,28.35311 -17.18601,30.70564 1.32352,3.44912 6.54209,2.97894 13.40924,-1.2081 z m 54.60517,-17.68667 c 0.61435,-1.60099 1.11699,-5.65186 1.11699,-9.00215 0,-7.88385 -7.14924,-43.74412 -9.12276,-45.75934 -1.66484,-1.70018 -9.4917,9.37092 -16.60582,23.4885 -2.51134,4.98386 -7.33,11.99195 -10.70812,15.57374 -5.69799,6.0418 -5.90788,6.68366 -2.90311,8.88088 1.78142,1.30269 4.29056,2.36836 5.57585,2.36836 3.79265,0 9.12405,-6.91185 11.5328,-14.95138 3.43395,-11.4616 3.97803,-7.59439 0.62595,4.4489 -2.12217,7.62438 -2.39048,11.16569 -0.95474,12.60143 4.33183,4.33186 11.07215,-6.30403 13.53018,-21.34999 1.3924,-8.52314 1.45929,-8.23147 0.82802,3.60921 -0.37772,7.08483 -0.24649,15.15877 0.29158,17.9421 1.06891,5.52911 5.017,6.77843 6.79318,2.14974 z m 17.18851,-56.38751 c -0.38875,-4.32818 -0.71227,-1.24472 -0.71895,6.85223 -0.007,8.09694 0.31138,11.63825 0.70679,7.86949 0.39542,-3.76857 0.40089,-10.39335 0.0129,-14.72172 z m 133.00374,-3.16204 c -3.59341,-1.9129 -6.89107,-5.32429 -7.48561,-7.74363 -1.03262,-4.20231 -1.15205,-4.15465 -4.22267,1.68914 -3.45704,6.57914 -3.08289,7.01987 7.08991,8.3531 10.48251,1.37372 11.01702,1.10781 4.61837,-2.29861 z m -23.94063,-2.00491 c 0,-1.04377 -1.21062,-2.36247 -2.69026,-2.93036 -4.28572,-1.64442 -5.10279,-7.40006 -1.92338,-13.5484 2.86012,-5.53095 2.84146,-5.61965 -0.71406,-3.39925 -4.70789,2.94011 -8.09621,9.31959 -7.25897,13.6671 0.93774,4.8692 12.58667,10.61748 12.58667,6.21091 z m 93.66371,-87.35244 c 0.0841,-3.3341 -9.68735,-14.04857 -21.81707,-23.9228 -3.31088,-2.69518 -2.81811,-1.55829 1.84078,4.24703 3.49906,4.36003 7.82699,9.75443 9.61763,11.98753 1.79062,2.23292 3.79195,8.5881 4.4474,14.12237 l 1.19172,10.06211 2.31341,-6.40781 c 1.27236,-3.52438 2.35512,-8.0642 2.40613,-10.08843 z M 132.25329,554.3053 c 3.36125,-5.13935 5.8386,-9.61678 5.50524,-9.95023 -1.29836,-1.29827 -18.05356,16.03748 -17.05769,17.64877 2.22595,3.60167 5.65717,1.3152 11.55245,-7.69854 z m -2.89096,-8.78022 c 4.80756,-5.94868 8.74102,-11.38357 8.74102,-12.07733 0,-0.69376 -2.05423,-3.95481 -4.56494,-7.2464 -5.73042,-7.51303 -15.67742,-29.24993 -15.67742,-34.25943 0,-2.28364 -1.74077,-4.42824 -4.42178,-5.44755 -2.43198,-0.92464 -4.9278,-2.49992 -5.54628,-3.50063 -0.61848,-1.00071 -4.21833,-2.82799 -7.999676,-4.06062 -3.78134,-1.23261 -7.45121,-3.13226 -8.15528,-4.22143 -5.68021,-8.78723 -2.1729,18.34475 5.15737,39.89665 5.555866,16.33488 19.304166,41.75874 22.571116,41.73942 0.63517,0 5.08831,-4.874 9.89587,-10.82268 z m 251.64942,-14.93353 c 8.98977,-3.03635 17.91667,-5.52064 19.83758,-5.52064 13.52293,0 39.06377,-41.6242 50.20046,-81.81227 4.02731,-14.53301 4.18173,-15.71912 2.04641,-15.71912 -0.83829,0 -2.43769,3.95764 -3.55424,8.79476 -7.78445,33.72409 -27.50252,61.10491 -56.3353,78.22804 -12.78768,7.59431 -13.37677,7.74674 -29.64292,7.67064 -14.28707,-0.0668 -17.90671,-0.75831 -26.01739,-4.97012 -5.18179,-2.69088 -11.5914,-7.47137 -14.24363,-10.62334 -2.65221,-3.15198 -5.49739,-5.31359 -6.3226,-4.80357 -0.82522,0.51001 -3.03398,-1.9204 -4.90836,-5.40091 -4.56819,-8.4826 -6.44433,-8.00219 -4.03278,1.03268 1.4184,5.31404 1.38546,9.5311 -0.11851,15.1656 -1.14577,4.29261 -1.86493,8.02304 -1.59814,8.28982 0.2668,0.26679 4.75023,-0.32379 9.96315,-1.31241 5.77609,-1.0954 11.10344,-1.14443 13.63942,-0.1255 3.79171,1.52346 3.6301,1.68234 -1.81937,1.78861 -10.68037,0.20832 -6.31639,3.28845 6.44076,4.54587 15.39507,1.51763 21.74856,4.67562 9.66112,4.80223 -7.68343,0.081 -8.0232,0.28173 -4.70887,2.78847 6.00341,4.54073 23.17589,3.37477 41.51318,-2.81884 z M 153.98356,520.12137 c 3.91736,-4.74648 8.11469,-9.92209 9.32739,-11.50134 1.43362,-1.86694 1.2839,-0.159 -0.42796,4.88268 -3.10913,9.1567 -1.89277,13.8243 3.3996,13.0457 6.57759,-0.96776 19.63548,-27.09672 20.16391,-40.34813 l 0.27766,-6.96293 3.2807,4.97469 c 3.98774,6.04682 4.19353,13.95485 0.62626,24.06558 -3.61391,10.24289 -2.06686,9.5718 3.56779,-1.54768 5.29349,-10.44618 5.73348,-15.94421 1.99249,-24.89769 -3.92244,-9.38769 -15.02267,-10.64595 -31.86498,-3.61203 -5.59985,2.33868 -5.9807,3.07491 -5.9807,11.56136 0,10.89094 -3.70689,22.11567 -10.04989,30.43178 -2.56951,3.36881 -4.67183,6.66795 -4.67183,7.33153 0,3.20014 3.89555,0.40871 10.35956,-7.42352 z m 276.25395,3.68108 c -1.77121,-0.46282 -4.66955,-0.46282 -6.44075,0 -1.77121,0.46281 -0.32204,0.84153 3.22037,0.84153 3.54242,0 4.99159,-0.37872 3.22038,-0.84153 z m -128.48347,-6.54029 c -0.94146,-3.28271 -1.71175,-6.18105 -1.71175,-6.44076 0,-0.25971 -0.8281,-0.4722 -1.84022,-0.4722 -2.04707,0 -2.44485,5.48418 -0.72322,9.97068 0.61434,1.60096 2.21273,2.91081 3.55196,2.91081 1.87119,0 2.03865,-1.38196 0.72323,-5.96853 z M 101.90365,454.96933 c 8.38649,-5.55497 8.59653,-5.92581 8.59885,-15.18178 0.002,-10.87245 7.54208,-43.73061 12.90469,-56.24146 l 3.62313,-8.4527 -4.12462,4.97738 c -2.26853,2.73756 -5.73978,8.12018 -7.71389,11.96139 -1.97411,3.84121 -4.56651,8.22617 -5.7609,9.74435 -2.74478,3.48884 -16.416616,42.7845 -18.087106,51.98608 -0.68905,3.79544 -0.52917,6.9008 0.35529,6.9008 0.88446,0 5.47652,-2.56233 10.204556,-5.69406 z m 519.25618,442.70595 c 6.19065,-4.04903 17.4821,-16.85564 17.4821,-19.82832 0,-0.4825 -2.27726,-1.30784 -5.06059,-1.83414 -2.78338,-0.5263 -6.85112,-1.52591 -9.0395,-2.22151 -3.60239,-1.1448 -4.37662,-0.0294 -8.18313,11.78952 l -4.20428,13.05375 -11.49058,0 c -12.71878,0 -17.67102,-2.734 -5.80906,-3.20694 8.58237,-0.34228 14.64458,-5.05452 20.04171,-15.57871 l 3.49966,-6.82407 -7.98092,-4.67727 c -4.3895,-2.57244 -8.86601,-4.67709 -9.94778,-4.67709 -1.08177,0 -4.62337,6.41775 -7.87021,14.26166 -6.97565,16.85233 -6.06762,15.54743 -9.81855,14.1082 -4.12502,-1.58296 -3.79527,-3.23253 1.07763,-5.39091 2.34562,-1.0388 4.91355,-4.57367 5.99863,-8.25723 1.04349,-3.54242 2.92657,-8.25374 4.18459,-10.46954 1.37494,-2.42172 1.59333,-4.45774 0.54748,-5.10402 -1.58639,-0.98047 -7.10166,9.39283 -10.22337,19.22841 -0.69536,2.19077 -1.61002,3.63774 -2.03259,3.21504 -1.35119,-1.35109 6.62638,-24.13553 8.95445,-25.57439 1.23228,-0.76167 4.05869,-0.92839 6.2809,-0.37062 3.47727,0.87281 4.24883,0.0276 5.53593,-6.05725 0.82256,-3.8893 1.45158,-13.28212 1.39783,-20.87301 -0.0826,-11.67249 0.1739,-12.86991 1.6633,-7.76185 2.17563,7.46171 5.59431,6.76776 6.38499,-1.29624 0.65164,-6.64557 -3.34061,-18.06024 -9.34531,-26.71993 l -3.90162,-5.62682 4.21906,3.67822 c 7.09533,6.1857 13.01538,18.25162 15.92868,32.46507 3.7953,18.51662 4.33512,19.98327 7.35521,19.98327 3.20001,0 3.63268,-11.26175 0.647,-16.84055 -1.09412,-2.04429 -1.52289,-4.18336 -0.95281,-4.75346 1.61143,-1.61147 8.37707,14.55684 8.42234,20.12736 0.0534,6.61318 3.70693,14.34816 6.77659,14.34816 3.35269,0 3.19185,-10.35839 -0.31504,-20.29795 -1.52904,-4.3337 -2.49607,-8.16337 -2.14901,-8.51044 0.34707,-0.34706 3.75772,7.62512 7.5793,17.71594 7.10249,18.75437 7.41349,22.14349 3.67215,40.02136 -1.22172,5.83864 -3.91745,7.71474 -12.48642,8.69024 -2.17642,0.24769 -5.61339,0.96408 -7.63768,1.59197 -2.02424,0.62788 -6.57877,1.62454 -10.12118,2.21488 l -6.44076,1.0734 7.36086,-4.81419 z m 23.55132,-3.88322 c 0.6391,-0.63911 0.31762,-2.73971 -0.71438,-4.66826 -1.36047,-2.54207 -1.12842,-5.00557 0.84374,-8.95909 2.52699,-5.06537 2.47675,-5.45292 -0.70627,-5.45292 -2.64237,0 -3.70638,1.86561 -4.64894,8.15031 -1.47806,9.85674 1.03752,15.11829 5.22585,10.92996 z m 20.45914,-23.3032 c -5.83551,-3.22866 -7.80932,-7.29737 -6.85517,-14.13212 1.95155,-13.98177 4.24483,-17.99785 14.18732,-24.84548 11.19514,-7.71031 17.1083,-16.96365 19.01384,-29.7537 l 1.33103,-8.93535 0.96335,7.36086 c 0.5298,4.04848 0.33915,11.50135 -0.42361,16.56194 -0.76277,5.06059 -1.89469,12.61265 -2.51539,16.78221 -1.38679,9.31719 1.70551,12.03188 5.57585,4.89497 2.31848,-4.27519 2.78443,-4.51092 2.83761,-1.43481 0.14354,8.30139 -3.98904,17.10093 -11.48442,24.45719 -8.90204,8.73661 -17.1957,12.0512 -22.63041,9.04429 z m -17.19552,-32.89219 c -11.22623,-34.6634 -13.52227,-51.23269 -8.69852,-62.77563 2.39008,-5.7192 12.08415,-16.79748 21.30859,-24.3512 3.92426,-3.21338 3.76011,-2.61954 -1.36397,4.93601 -3.20363,4.72384 -7.07433,13.38591 -8.60134,19.24884 -3.48059,13.36254 -3.48298,15.56288 -0.0184,14.23241 1.51818,-0.58243 2.79437,-3.2478 2.83614,-5.92292 0.1417,-9.08754 7.75117,-20.92472 19.04936,-29.63317 14.25651,-10.98866 17.72789,-15.96258 19.45991,-27.88331 1.38789,-9.55311 1.44732,-9.34424 1.62969,5.7273 0.2131,17.61914 -1.8899,23.82674 -14.22468,41.9904 -8.38604,12.34913 -10.85101,19.48052 -7.45784,21.57744 3.1153,1.92542 7.23076,-4.14269 7.23076,-10.66183 0,-3.04979 0.77675,-4.79744 1.84021,-4.1403 2.84148,1.75611 2.17532,22.09067 -0.9823,29.98207 -1.55223,3.87973 -7.26444,11.30279 -12.69362,16.49587 -6.19159,5.92237 -10.81734,12.28013 -12.40913,17.05548 l -2.53784,7.61353 -4.36922,-13.49099 z m -465.42492,-0.65493 c -8.78848,-7.39509 -10.07987,-11.03688 -11.40277,-32.15813 -1.17324,-18.73173 -3.7466,-26.94848 -11.38257,-36.34425 -1.2713,-1.56418 -1.25657,-2.30027 0.046,-2.30027 3.10599,0 9.14751,11.22127 15.97537,29.67218 8.53034,23.05127 17.24736,30.88581 23.86032,21.4444 3.84298,-5.4866 3.60835,-9.19004 -0.94933,-14.98414 -4.39057,-5.58174 -3.90046,-5.81471 4.68479,-2.22758 10.26363,4.28844 18.95208,26.49174 13.9927,35.75851 -1.7077,3.19075 -3.68069,3.86685 -10.77722,3.69258 -4.77775,-0.11778 -10.81881,0.37448 -13.42459,1.09272 -3.65423,1.00715 -6.0837,0.17298 -10.62272,-3.64602 z M 618.62297,779.0206 c -2.37353,-4.55453 -11.46874,-17.65503 -20.21158,-29.11221 -22.12666,-28.99608 -25.04246,-33.84873 -32.2651,-53.69747 -7.68388,-21.1161 -10.33264,-30.69792 -10.17416,-36.80431 0.097,-3.73968 0.61229,-3.22313 2.75356,2.76033 3.58463,10.01684 6.62655,15.64182 8.45876,15.64182 2.59021,0 1.70794,-6.73132 -2.34264,-17.87309 -3.07558,-8.45983 -6.62862,-13.29941 -17.27616,-23.53175 -15.31414,-14.71693 -26.69754,-27.9122 -26.69754,-30.94708 0,-1.14148 1.33009,-0.17666 2.95573,2.1444 4.44926,6.35206 17.26085,15.00107 22.22102,15.00107 6.10716,0 7.09812,-4.23434 3.31142,-14.14978 -4.10851,-10.7579 -16.73222,-22.94712 -31.16421,-30.09157 -9.30916,-4.60827 -10.07402,-5.31325 -4.68482,-4.31825 7.58684,1.40096 21.61678,7.63193 32.85761,14.59272 l 8.01471,4.96325 -1.33157,-4.36039 c -1.23693,-4.0505 -3.80409,-7.7946 -9.72489,-14.18328 -1.31334,-1.41715 -1.86691,-3.09763 -1.23018,-3.73434 0.63675,-0.63672 2.89331,1.32513 5.0146,4.35947 7.40054,10.58657 22.79651,24.2498 32.74536,29.06012 l 10.02329,4.84621 -6.86369,0.0662 -6.86369,0.0662 8.5418,13.20428 c 4.69797,7.26223 10.47794,19.30128 12.84437,26.75324 5.49131,17.29213 5.44963,20.49355 -0.11465,8.80819 -4.98072,-10.45997 -9.56131,-16.99844 -10.94146,-15.61828 -0.51588,0.51581 0.1566,6.3112 1.49446,12.87856 3.31629,16.27965 5.28293,39.77754 2.69352,32.18316 -3.11874,-9.14716 -7.69931,-17.48205 -9.60741,-17.48205 -1.11298,0 -1.42179,6.82628 -0.81166,17.9421 1.12735,20.53919 7.15913,40.47627 16.2847,53.82629 4.89985,7.16801 23.83394,24.17234 29.00124,26.04531 0.96766,0.35074 2.23308,3.9502 2.81209,7.99868 l 1.05271,7.36086 -2.1879,-6.44076 -2.18793,-6.44075 -1.04209,8.28097 -1.0421,8.28097 -4.31549,-8.28097 z M 240.06749,672.74817 c -20.01146,-21.73551 -21.37537,-24.07921 -21.40167,-36.77504 -0.0331,-16.01742 13.91124,-50.7616 29.73885,-74.09792 7.0983,-10.46567 7.16545,-8.64791 0.18781,5.08323 -6.42174,12.63712 -11.11751,29.5141 -11.11751,39.95732 0,9.32603 5.54943,20.09202 10.75823,20.87136 5.55592,0.83122 8.78337,-7.51876 12.10718,-31.32378 3.25013,-23.27725 8.20732,-34.3743 21.75372,-48.69761 10.64802,-11.25881 15.29677,-13.17465 7.06661,-2.91251 -7.38561,9.20917 -11.201,20.69819 -11.201,33.72875 0,16.46109 5.00424,24.31329 12.82687,20.1268 5.1219,-2.74118 17.68058,-17.67968 21.33466,-25.37749 1.78981,-3.7706 3.58098,-5.87654 3.98037,-4.68003 0.90111,2.69978 -3.44257,11.27316 -12.4624,24.59797 -3.80185,5.61652 -9.6514,17.62393 -12.999,26.68312 -5.67322,15.3531 -6.07932,17.97117 -5.97991,38.55417 l 0.10673,22.08258 -4.06509,-17.48205 c -5.15938,-22.18802 -5.94748,-23.92279 -10.86829,-23.92279 -10.20985,0 -16.57289,14.67755 -15.5077,35.7712 0.38646,7.65309 0.67197,13.91461 0.63447,13.91461 -0.0375,0 -6.73927,-7.24585 -14.89286,-16.10189 z m 6.77453,-186.99133 c -0.21279,-4.39747 -7.66881,-17.73259 -9.91477,-17.73259 -1.64648,0 -1.15818,5.02042 1.43191,14.72173 0.97171,3.63959 0.59157,3.38502 -1.81988,-1.21882 -3.404,-6.49872 -17.11888,-13.50291 -26.44001,-13.50291 -3.04204,0 -6.04275,-0.82809 -6.66828,-1.84021 -0.70611,-1.14252 2.74122,-1.84022 9.09247,-1.84022 5.62638,0 10.22979,-0.58165 10.22979,-1.29254 0,-0.71092 -2.69131,-4.11274 -5.9807,-7.55961 l -5.9807,-6.26704 9.68513,5.00469 c 8.18677,4.23042 10.13798,4.62884 12.61228,2.57535 3.7139,-3.08225 2.41177,-15.12832 -2.1843,-20.20691 -4.56349,-5.04258 -1.31257,-4.37235 6.05713,1.24879 8.26363,6.30297 9.58785,4.42562 3.43573,-4.87087 -4.18787,-6.32828 -4.40783,-7.21576 -1.38789,-5.59953 9.54881,5.11037 19.19313,21.9964 21.37655,37.42773 1.43739,10.15868 -0.91409,11.54989 -4.19345,2.48096 -1.24501,-3.44303 -3.42762,-7.22605 -4.85023,-8.40671 -2.18482,-1.81324 -2.43257,-0.62656 -1.59503,7.64022 0.54535,5.38278 0.152,12.68521 -0.87412,16.22763 -1.02612,3.54241 -1.94036,4.89731 -2.03163,3.01086 z m -99.93318,-50.76106 c 2.67961,-4.66894 11.43688,-11.00298 11.43688,-8.27217 0,1.56388 -6.21682,10.83732 -8.23846,12.28908 -4.61912,3.31699 -6.23952,1.28191 -3.19842,-4.01691 z"
       id="path2996"
       inkscape:connector-curvature="0" />
  </g>
</svg>
