<?xml version="1.0" encoding="UTF-8" standalone="no"?>
<!-- Created with Inkscape (http://www.inkscape.org/) -->

<svg
   xmlns:dc="http://purl.org/dc/elements/1.1/"
   xmlns:cc="http://creativecommons.org/ns#"
   xmlns:rdf="http://www.w3.org/1999/02/22-rdf-syntax-ns#"
   xmlns:svg="http://www.w3.org/2000/svg"
   xmlns="http://www.w3.org/2000/svg"
   xmlns:sodipodi="http://sodipodi.sourceforge.net/DTD/sodipodi-0.dtd"
   xmlns:inkscape="http://www.inkscape.org/namespaces/inkscape"
   width="744.09448819"
   height="1052.3622047"
   id="svg2"
   version="1.1"
   inkscape:version="0.48.3.1 r9886"
   sodipodi:docname="Переведено в вектор. Original_Drawing_For_Tatto0_by_EvyWolf_133.svg"
   inkscape:export-filename="/home/freeghost/Dropbox/AD&amp;D/Альманах/Иллюстрации/Существа/Волки и оборотни/Переведено в вектор. Original_Drawing_For_Tatto0_by_EvyWolf_133.png"
   inkscape:export-xdpi="90"
   inkscape:export-ydpi="90">
  <defs
     id="defs4" />
  <sodipodi:namedview
     id="base"
     pagecolor="#ffffff"
     bordercolor="#666666"
     borderopacity="1.0"
     inkscape:pageopacity="0.0"
     inkscape:pageshadow="2"
     inkscape:zoom="0.98994949"
     inkscape:cx="143.94003"
     inkscape:cy="704.32357"
     inkscape:document-units="px"
     inkscape:current-layer="layer1"
     showgrid="false"
     inkscape:window-width="1920"
     inkscape:window-height="1020"
     inkscape:window-x="0"
     inkscape:window-y="0"
     inkscape:window-maximized="1" />
  <metadata
     id="metadata7">
    <rdf:RDF>
      <cc:Work
         rdf:about="">
        <dc:format>image/svg+xml</dc:format>
        <dc:type
           rdf:resource="http://purl.org/dc/dcmitype/StillImage" />
        <dc:title></dc:title>
      </cc:Work>
    </rdf:RDF>
  </metadata>
  <g
     inkscape:label="Layer 1"
     inkscape:groupmode="layer"
     id="layer1">
    <path
       id="path3813"
       style="fill:#000000;fill-opacity:1;stroke:none"
       d="m 512.01339,47.361607 c -31.27077,0.28376 -106.21158,29.20149 -163.9375,82.031253 l 13.375,-39.656253 c -26.68066,9.07717 -43.11385,21.988173 -60.71875,34.468753 3.90578,-9.00462 9.01774,-18.19118 18.4375,-28.031253 -30.12978,6.017343 -38.61563,30.947503 -57.71875,46.593753 -3.41087,-9.12428 -6.52433,-18.62319 -15.65625,-20.71875 3.30406,9.35312 2.28428,18.96949 0.25,28.65625 -11.45985,25.74684 -26.02157,48.64237 -43.3125,71.34375 l -9.09375,37.5 c -23.7184,52.01774 -78.79566,69.69828 -132.062497,101.28125 -1.546584,2.23736 -4.572292,2.40871 -3.03125,8.96875 27.29882,37.63314 78.926127,54.55815 87.999997,52.90625 l 51.28125,18.3125 -8.59375,-8.96875 5.0625,0.75 -1.78125,-4.90625 13.375,4.28125 -14.125,-14.53125 c 18.19745,-16.00911 106.69672,-37.55588 117.4375,36.75 7.57865,-9.86185 4.71673,-24.56697 2.5,-39 7.64517,12.53247 10.70677,25.79105 11.125,39.5 3.59775,-2.79494 5.87025,-9.86673 5.9375,-24.09375 7.92503,13.83534 16.84606,26.67482 30.4375,34.84375 -4.1631,-8.65789 -9.83791,-16.75988 -10.75,-26.65625 35.81781,55.55581 -3.41479,80.6453 -9.46875,97.09375 136.65101,-59.81404 127.76581,-178.05015 75,-225.25 15.28264,49.8674 4.47799,78.72813 -25.75,120.84375 -12.2035,-24.44742 -2.48686,-41.75554 -1.78125,-62 16.46664,-43.58129 -9.44666,-53.96695 -21.3125,-75.375 6.26327,18.3012 10.75922,36.56092 -6.46875,54.53125 -0.80969,-38.03551 -12.42584,-35.76835 -21.0625,-44.6875 10.67359,25.53309 11.33688,36.11972 -8.46875,50.875 -10.02141,-4.1438 -11.57689,-12.51017 -14.53125,-20.1875 -24.6034,-50.5979 -57.45812,-44.57727 -60.71875,-44.21875 19.63056,8.64105 26.85645,23.47482 23.59375,43.5625 -7.6707,-24.757 -24.41107,-32.4324 -80.03125,-34.21875 1.76098,-3.24637 6.75049,-6.95916 22.09375,-19.8125 -18.32549,2.14099 -23.67536,10.43592 -35.5,15.65625 6.6697,-11.31921 17.12036,-21.64229 18.0625,-34.46875 l 6.6875,-30.0625 68.1875,-81.1875 c -2.34633,8.52707 -6.76811,16.79847 -6.71875,25.625 l 53.9375,-46.0625 c 1.58619,4.92457 0.59913,13.02763 -0.875,21.71875 -18.12139,17.14464 -49.0262,29.97392 -57.625,44.375 16.18098,-3.64999 35.31103,-11.72682 43.75,-6.75 l -2.3125,5.1875 c 20.99983,6.85031 33.04826,13.48368 46.75,22.46875 0,0 -25.26666,-6.48131 -31.1875,-0.90625 -3.92738,3.69802 4.14969,10.01564 10.96875,20.09375 39.95079,-2.03565 57.87192,21.27703 85.125,33.84375 -2.41901,-13.4579 -14.17378,-27.08811 -22.46875,-39.90625 8.78848,-2.79145 52.83445,-12.4193 62.75,-60.09375 17.75546,10.64046 36.53699,20.1743 47.96875,43.03125 -5.251,-2.1542 -10.62117,-7.18414 -15.65625,-4.15625 -3.96417,3.8535 -0.34731,11.73368 3.15625,19.5625 13.80918,7.52841 18.1413,5.78067 40.65625,48.75 -13.71828,-6.36813 -14.92256,-0.3901 -44.6875,-22.59375 -0.43566,-20.43341 -26.98333,-23.9092 -35.21875,-14.28125 -9.0931,10.63065 -9.15442,45.7096 21.5625,36 3.78561,19.82094 14.25541,31.12405 -8.4375,77.53125 l 6.1875,-2.03125 -4.9375,41.78125 c 1.24144,33.05348 -4.24183,65.93299 -11.75,98.75 l 10.25,-14.90625 c -9.60902,33.47418 -25.31482,64.06925 -26.15625,70.09375 6.40481,-7.0378 12.43812,-14.58382 17.1875,-23.75 -3.11957,14.4011 -10.5135,26.8582 -19.3125,38.6563 19.11906,-13.1368 38.91403,-34.7753 54.1875,-61.5938 l -2.0625,9.3125 c 4.83878,3.84848 29.65493,-34.2583 44.0625,-88.53125 1.20899,-27.54149 2.59954,-55.0566 -15,-83.0625 4.51478,5.85876 8.27074,7.26061 12.09375,8.96875 -16.04608,-23.97997 -33.1385,-45.69634 -45.59375,-77.53125 l 1.40625,-4.4375 c 14.07723,10.22735 32.39557,32.15007 39.53125,61.375 l 4.59375,7.5625 c -0.14723,-5.84771 -0.8172,-10.9237 0.9375,-14.15625 9.48049,18.75661 17.00115,45.3799 22.34375,67.40625 4.79987,19.7888 6.25013,38.58974 10.65625,48.53125 0.48976,-3.94554 0.88524,-5.44298 1.375,-6.0625 10.85914,20.91858 17.14273,46.39205 32.5625,62.75 2.50577,-4.00562 0.53351,-11.09459 0.25,-17.03125 12.14891,25.76747 21.70032,54.88571 33.34375,89.00005 7.53844,-7.6871 14.49319,-25.7788 21.71875,-77.8438 3.76547,-17.28504 3.28837,-45.57761 -6.0625,-67.21875 l 4.90625,6.03125 c -5.65965,-37.54862 -33.77401,-83.23033 -92.15625,-131.8125 3.86107,-0.97284 7.56367,-1.15404 12.0625,-5.15625 l -36.625,-9.59375 c 7.21078,-40.96855 -14.57012,-92.86435 -54.84375,-117.375 6.72678,-2.76339 31.11694,-17.82486 25.875,-40.59375 -9.23503,15.7804 -28.41348,24.02261 -53.78125,27.03125 10.80655,-10.0801 21.29024,-33.71318 46.34375,-45.90625 -6.90096,-0.42481 -13.96941,-0.076 -21.53125,2.96875 17.38415,-21.261083 31.96799,-46.395593 40.96875,-56.562503 -2.41036,-0.8369 -5.59723,-1.2536 -9.4375,-1.21875 z M 453.23214,208.76786 c -36.39614,0.56956 -64.79631,63.95741 1.21875,74.3125 -34.89126,-29.82279 -5.32812,-79.34022 34.65625,-49.65625 -10.70779,-18.05605 -23.74295,-24.8461 -35.875,-24.65625 z m -1.09375,7.15625 c -10.10709,5.43899 -28.85513,16.72034 -22.3125,48.03125 -11.52658,-14.47951 -4.41222,-43.51375 22.3125,-48.03125 z m -267.46875,95.40625 -0.625,3.53125 c 19.51598,0.25887 68.37752,-8.68181 78.28125,35.375 l 7.71875,6.4375 c 20.38047,-1.30411 17.32198,-13.8083 22.84375,-22.21875 7.34036,7.48269 11.23408,54.0972 48,28.15625 -1.39581,4.40732 -5.81582,7.04586 -10.03125,9.5625 20.81529,6.63754 33.3946,-1.7296 43.625,-12.96875 -0.61541,29.83068 -19.72805,67.19444 11.96875,90.53125 5.99192,-1.14966 13.53932,-3.67446 39.65625,-22.375 -5.6741,22.72562 -21.06748,46.54639 -52.65625,72.125 13.24279,-24.13225 -4.11129,-80.21808 -36.09375,-79.1875 -5.52773,-8.04213 -11.10611,-29.42304 -29.9375,-38.46875 2.31186,4.76336 4.13119,9.98664 5.0625,14.75 -11.22848,-5.13025 -12.5082,-14.65436 -34.46875,-15.0625 4.3815,6.94768 11.79403,13.91557 12.09375,20.21875 -49.25968,-25.07592 -76.1357,-5.01332 -125,12.75 9.47655,-7.8998 35.53867,-31.00865 86.125,-29.28125 6.58357,-0.99206 5.86705,-3.72007 5.09375,-6.78125 -13.63158,-12.68667 -45.45055,-1.34115 -99.53125,34.8125 -11.31268,3.00226 -55.20551,-5.10748 -59.124997,-23.125 -0.04542,-6.35887 4.455377,-7.76242 7.906247,-10.625 0.6411,-7.38333 -3.38264,-13.83395 -7.624997,-7.78125 -3.165691,-5.00688 -1.089672,-11.1858 -1.15625,-16.8125 8.715647,-10.69291 33.530587,-27.89591 42.687497,-10.59375 11.7909,-4.79515 24.9755,-27.82797 45.1875,-32.96875 z m 56.34375,-102.03125 c -25.37732,21.77951 -32.03454,51.51907 -27.15625,59.09375 1.32583,4.3205 4.46751,7.35134 15.78125,7.34375 -1.72597,10.2958 -8.2929,16.61402 -5.3125,22.09375 9.92193,-11.84117 18.39568,-9.1475 27.40625,-11.875 9.17555,-6.10305 17.74732,-15.82852 28.15625,-14.53125 11.38205,7.05912 15.08465,17.01977 21.59375,25.90625 0.15421,-5.42957 1.23662,-10.88293 -0.125,-16.3125 2.28972,4.41499 4.66319,3.97084 9.46875,19.09375 2.41509,-31.8129 -9.09457,-31.76901 -14.28125,-46.09375 32.33157,6.18138 33.4798,19.22466 44.84375,30.03125 2.20003,-31.81735 -42.65041,-61.79611 -72.34375,-63.375 l 8.0625,-9.34375 c -23.2887,1.79039 -25.68432,9.21015 -37.875,14 -2.28741,-5.34539 0.24271,-10.68586 1.78125,-16.03125 z m 6.03125,22.4375 -3.21875,7.3125 c 7.41697,-3.39478 19.18622,-7.53857 36.1875,-1.6875 -4.29944,0.27463 -9.35097,0.0327 -14.21875,1.25 7.92132,5.15346 14.04693,12.68086 17.15625,18.46875 -5.7974,-3.50348 -11.72806,-8.55777 -17.3125,-9.71875 6.44838,7.85711 9.50826,11.29918 12.03125,15 -13.7344,-8.71263 -37.20004,-23.88692 -53.03125,4.46875 1.53015,-6.81556 0.062,-17.52117 22.40625,-35.09375 z m 4.15625,25.25 c 9.09616,0.1135 19.4942,3.90212 27.71875,10.1875 -22.37578,-11.0112 -40.04989,-15.02812 -48.4375,5.28125 1.66807,-10.34631 9.4071,-15.03101 18.90625,-15.4375 0.5937,-0.0254 1.20609,-0.0388 1.8125,-0.0312 z m -3.1875,5.71875 c 2.2599,-0.14001 4.44473,0.42629 6.09375,1.96875 1.96162,1.79586 3.67172,13.6904 -8.21875,15.09375 -8.46185,0.14406 -10.0086,-4.78584 -9.09375,-8.9375 0.90663,-4.11439 6.24697,-7.81698 11.21875,-8.125 z m -9.4119,103.4297 c 1.95847,-5.7331 12.07627,-5.47338 17.25422,-3.59463 4.87821,1.76998 4.14741,4.6525 8.75721,8.39286 l 0.12627,4.16687 c -6.95708,-3.70973 -4.91347,-3.07731 -8.17593,-6.21875 -7.26995,-7.0003 -15.28212,-2.41581 -17.96177,-2.74635 z"
       inkscape:connector-curvature="0"
       sodipodi:nodetypes="sccccccccccccccccccccccccccccccccccccccccccccccccscccccccccscccccccccccccccccccscccccccccccccccccssccsccccccccccccccccccccccccccccccccccccccccccccccccccccccccsccsccsscsccsc" />
  </g>
</svg>
